<?xml version="1.0" encoding="UTF-8" standalone="no"?>
<!-- Created with Inkscape (http://www.inkscape.org/) -->
<svg
   xmlns:svg="http://www.w3.org/2000/svg"
   xmlns="http://www.w3.org/2000/svg"
   version="1.0"
   width="156.40375"
   height="51.889996"
   id="svg2610">
  <defs
     id="defs2612" />
  <g
     transform="translate(49.630446,119.2971)"
     id="layer1">
    <path
       d="M 38.932054,-89.255853 L 41.105804,-89.255853 L 44.698304,-82.422103 L 44.700804,-89.255853 L 46.269554,-89.255853 L 46.269554,-80.479603 L 44.127054,-80.479603 L 40.500804,-87.330853 L 40.500804,-80.479603 L 38.932054,-80.479603 L 38.932054,-89.255853 z M -49.630446,-89.255853 L -43.245446,-89.255853 L -43.245446,-87.902103 L -45.585446,-87.902103 L -45.585446,-80.479603 L -47.320446,-80.479603 L -47.320446,-87.902103 L -49.630446,-87.902103 L -49.630446,-89.255853 z M -42.144196,-89.255853 L -36.782946,-89.255853 L -36.782946,-87.994603 L -40.415446,-87.994603 L -40.415446,-85.667103 L -36.972946,-85.667103 L -36.972946,-84.377103 L -40.415446,-84.377103 L -40.415446,-81.807103 L -36.651696,-81.807103 L -36.651696,-80.479603 L -42.144196,-80.479603 L -42.144196,-89.255853 z M -28.220446,-88.978353 L -28.332946,-87.588353 C -28.366696,-87.600853 -28.409196,-87.618353 -28.464196,-87.637103 C -29.277946,-87.942103 -29.914196,-88.093353 -30.371696,-88.093353 C -31.335446,-88.093353 -32.104196,-87.794603 -32.682946,-87.198353 C -33.257946,-86.600853 -33.546696,-85.807103 -33.546696,-84.815853 C -33.546696,-83.874603 -33.249196,-83.114603 -32.655446,-82.530853 C -32.057946,-81.947103 -31.274196,-81.653353 -30.297946,-81.653353 C -29.970446,-81.653353 -29.481696,-81.767103 -28.825446,-81.993353 C -28.596696,-82.070853 -28.422946,-82.125853 -28.307946,-82.159603 L -28.160446,-80.769603 C -28.267946,-80.740853 -28.425446,-80.698353 -28.636696,-80.638353 C -29.431696,-80.413353 -30.034196,-80.299603 -30.445446,-80.299603 C -31.956696,-80.299603 -33.150446,-80.704603 -34.022946,-81.515853 C -34.896696,-82.328353 -35.331696,-83.425853 -35.331696,-84.815853 C -35.331696,-86.203353 -34.894196,-87.322103 -34.019196,-88.172103 C -33.144196,-89.022103 -31.984196,-89.447103 -30.537946,-89.447103 C -30.089196,-89.447103 -29.481696,-89.335853 -28.716696,-89.114603 C -28.489196,-89.052103 -28.324196,-89.007103 -28.220446,-88.978353 z M -26.814196,-89.255853 L -25.085446,-89.255853 L -25.085446,-85.705853 L -21.669196,-85.705853 L -21.669196,-89.255853 L -19.932946,-89.255853 L -19.932946,-80.479603 L -21.669196,-80.479603 L -21.669196,-84.363353 L -25.085446,-84.363353 L -25.085446,-80.479603 L -26.814196,-80.479603 L -26.814196,-89.255853 z M -17.970446,-89.255853 L -15.796696,-89.255853 L -12.204196,-82.422103 L -12.201696,-89.255853 L -10.632946,-89.255853 L -10.632946,-80.479603 L -12.775446,-80.479603 L -16.401696,-87.330853 L -16.401696,-80.479603 L -17.970446,-80.479603 L -17.970446,-89.255853 z M -8.6879464,-89.255853 L -6.9589464,-89.255853 L -6.9589464,-80.479603 L -8.6879464,-80.479603 L -8.6879464,-89.255853 z M 0.12705357,-89.027103 L -0.022946429,-87.649603 C -0.35169643,-87.797103 -0.67794643,-87.909603 -1.0004464,-87.982103 C -1.3229464,-88.057103 -1.6429464,-88.093353 -1.9616964,-88.093353 C -2.4254464,-88.093353 -2.7879464,-88.007103 -3.0479464,-87.837103 C -3.3066964,-87.665853 -3.4379464,-87.428353 -3.4379464,-87.118353 C -3.4379464,-86.735853 -2.9679464,-86.305853 -2.0291964,-85.834603 C -1.9391964,-85.788353 -1.8691964,-85.754603 -1.8179464,-85.728353 C -0.94169643,-85.283353 -0.34544643,-84.862103 -0.024196429,-84.465853 C 0.29455357,-84.067103 0.45455357,-83.590853 0.45455357,-83.035853 C 0.45455357,-82.224603 0.14580357,-81.560853 -0.47169643,-81.045853 C -1.0891964,-80.532103 -1.9004464,-80.274603 -2.9066964,-80.274603 C -3.3179464,-80.274603 -4.0116964,-80.422103 -4.9879464,-80.719603 C -5.0904464,-80.753353 -5.1691964,-80.778353 -5.2216964,-80.799603 L -5.0616964,-82.300853 C -4.5679464,-82.058353 -4.1541964,-81.884603 -3.8191964,-81.780853 C -3.4854464,-81.678353 -3.1829464,-81.628353 -2.9066964,-81.628353 C -2.4404464,-81.628353 -2.0629464,-81.735853 -1.7716964,-81.953353 C -1.4829464,-82.167103 -1.3379464,-82.442103 -1.3379464,-82.770853 C -1.3379464,-83.198353 -1.8079464,-83.668353 -2.7466964,-84.179603 C -2.8116964,-84.214603 -2.8616964,-84.243353 -2.8941964,-84.258353 C -2.9316964,-84.280853 -2.9916964,-84.309603 -3.0729464,-84.352103 C -3.7679464,-84.723353 -4.2579464,-85.060853 -4.5429464,-85.364603 C -4.7454464,-85.579603 -4.8991964,-85.820853 -5.0029464,-86.093353 C -5.1079464,-86.365853 -5.1604464,-86.653353 -5.1604464,-86.957103 C -5.1604464,-87.704603 -4.8691964,-88.304603 -4.2854464,-88.762103 C -3.7029464,-89.220853 -2.9254464,-89.447103 -1.9504464,-89.447103 C -1.5704464,-89.447103 -1.0179464,-89.345853 -0.29419643,-89.143353 C -0.10419643,-89.092103 0.037053571,-89.052103 0.12705357,-89.027103 z M 8.8045536,-88.978353 L 8.6933036,-87.588353 C 8.6595536,-87.600853 8.6170536,-87.618353 8.5620536,-87.637103 C 7.7483036,-87.942103 7.1120536,-88.093353 6.6545536,-88.093353 C 5.6908036,-88.093353 4.9220536,-87.794603 4.3445536,-87.198353 C 3.7683036,-86.600853 3.4795536,-85.807103 3.4795536,-84.815853 C 3.4795536,-83.874603 3.7770536,-83.114603 4.3720536,-82.530853 C 4.9683036,-81.947103 5.7520536,-81.653353 6.7283036,-81.653353 C 7.0558036,-81.653353 7.5445536,-81.767103 8.1995536,-81.993353 C 8.4295536,-82.070853 8.6033036,-82.125853 8.7183036,-82.159603 L 8.8658036,-80.769603 C 8.7595536,-80.740853 8.6008036,-80.698353 8.3895536,-80.638353 C 7.5945536,-80.413353 6.9920536,-80.299603 6.5808036,-80.299603 C 5.0695536,-80.299603 3.8758036,-80.704603 3.0033036,-81.515853 C 2.1308036,-82.328353 1.6933036,-83.425853 1.6933036,-84.815853 C 1.6933036,-86.203353 2.1320536,-87.322103 3.0070536,-88.172103 C 3.8820536,-89.022103 5.0420536,-89.447103 6.4883036,-89.447103 C 6.9370536,-89.447103 7.5445536,-89.335853 8.3095536,-89.114603 C 8.5370536,-89.052103 8.7020536,-89.007103 8.8045536,-88.978353 z M 10.212054,-89.255853 L 11.940804,-89.255853 L 11.940804,-85.705853 L 15.358304,-85.705853 L 15.358304,-89.255853 L 17.093304,-89.255853 L 17.093304,-80.479603 L 15.358304,-80.479603 L 15.358304,-84.363353 L 11.940804,-84.363353 L 11.940804,-80.479603 L 10.212054,-80.479603 L 10.212054,-89.255853 z M 19.055804,-89.255853 L 24.418304,-89.255853 L 24.418304,-87.994603 L 20.784554,-87.994603 L 20.784554,-85.667103 L 24.228304,-85.667103 L 24.228304,-84.377103 L 20.784554,-84.377103 L 20.784554,-81.807103 L 24.548304,-81.807103 L 24.548304,-80.479603 L 19.055804,-80.479603 L 19.055804,-89.255853 z M 29.943304,-89.255853 L 31.672054,-89.255853 L 31.672054,-84.112103 C 31.672054,-83.259603 31.815804,-82.633353 32.102054,-82.238353 C 32.387054,-81.838353 32.835804,-81.640853 33.444554,-81.640853 C 34.059554,-81.640853 34.523304,-81.853353 34.834554,-82.279603 C 35.149554,-82.705853 35.304554,-83.337103 35.304554,-84.172103 L 35.304554,-89.255853 L 36.934554,-89.255853 L 36.934554,-84.159603 C 36.934554,-82.875853 36.642054,-81.909603 36.055804,-81.267103 C 35.467054,-80.622103 34.590804,-80.299603 33.420804,-80.299603 C 32.270804,-80.299603 31.404554,-80.618353 30.820804,-81.255853 C 30.235804,-81.895853 29.943304,-82.838353 29.943304,-84.085853 L 29.943304,-89.255853 z M 48.195804,-89.255853 L 49.924179,-89.255853 L 49.924179,-80.479603 L 48.195804,-80.479603 L 48.195804,-89.255853 z M 51.037054,-89.255853 L 52.872054,-89.255853 L 55.175804,-82.012103 L 57.503304,-89.255853 L 59.263304,-89.255853 L 56.139554,-80.479603 L 54.039554,-80.479603 L 51.037054,-89.255853 z M 60.278304,-89.255853 L 65.639554,-89.255853 L 65.639554,-87.994603 L 62.007054,-87.994603 L 62.007054,-85.667103 L 65.449554,-85.667103 L 65.449554,-84.377103 L 62.007054,-84.377103 L 62.007054,-81.807103 L 65.769554,-81.807103 L 65.769554,-80.479603 L 60.278304,-80.479603 L 60.278304,-89.255853 z M 69.179554,-88.033353 L 69.179554,-85.388353 L 70.068304,-85.388353 C 70.629554,-85.388353 71.062054,-85.504603 71.365804,-85.734603 C 71.670804,-85.964603 71.823304,-86.293353 71.823304,-86.717103 C 71.823304,-87.170853 71.670804,-87.503353 71.369554,-87.714603 C 71.065804,-87.928353 70.589554,-88.033353 69.938304,-88.033353 L 69.179554,-88.033353 z M 67.473304,-89.255853 L 70.347054,-89.255853 C 71.418304,-89.255853 72.219554,-89.068353 72.754554,-88.690853 C 73.290804,-88.313353 73.558304,-87.748353 73.558304,-86.995853 C 73.558304,-86.430853 73.400804,-85.964603 73.082054,-85.595853 C 72.765804,-85.227103 72.313304,-84.982103 71.724554,-84.858353 C 71.975804,-84.775853 72.177054,-84.652103 72.333304,-84.485853 C 72.487054,-84.322103 72.658304,-84.003353 72.848304,-83.529603 L 74.064554,-80.479603 L 72.242054,-80.479603 L 71.253304,-83.135853 C 71.115804,-83.517103 70.933304,-83.784603 70.712054,-83.934603 C 70.488304,-84.083353 70.159554,-84.159603 69.723304,-84.159603 L 69.179554,-84.159603 L 69.179554,-80.479603 L 67.473304,-80.479603 L 67.473304,-89.255853 z M 80.309554,-89.027103 L 80.159554,-87.649603 C 79.830804,-87.797103 79.503304,-87.909603 79.180804,-87.982103 C 78.858304,-88.057103 78.538304,-88.093353 78.219554,-88.093353 C 77.755804,-88.093353 77.393304,-88.007103 77.134554,-87.837103 C 76.874554,-87.665853 76.743304,-87.428353 76.743304,-87.118353 C 76.743304,-86.735853 77.214554,-86.305853 78.152054,-85.834603 C 78.243304,-85.788353 78.312054,-85.754603 78.363304,-85.728353 C 79.240804,-85.283353 79.837054,-84.862103 80.157054,-84.465853 C 80.475804,-84.067103 80.635804,-83.590853 80.635804,-83.035853 C 80.635804,-82.224603 80.328304,-81.560853 79.710804,-81.045853 C 79.092054,-80.532103 78.280804,-80.274603 77.274554,-80.274603 C 76.864554,-80.274603 76.170804,-80.422103 75.194554,-80.719603 C 75.090804,-80.753353 75.013304,-80.778353 74.959554,-80.799603 L 75.120804,-82.300853 C 75.613304,-82.058353 76.027054,-81.884603 76.362054,-81.780853 C 76.695804,-81.678353 76.999554,-81.628353 77.274554,-81.628353 C 77.740804,-81.628353 78.118304,-81.735853 78.409554,-81.953353 C 78.698304,-82.167103 78.843304,-82.442103 78.843304,-82.770853 C 78.843304,-83.198353 78.373304,-83.668353 77.435804,-84.179603 C 77.370804,-84.214603 77.319554,-84.243353 77.288304,-84.258353 C 77.249554,-84.280853 77.190804,-84.309603 77.109554,-84.352103 C 76.413304,-84.723353 75.924554,-85.060853 75.639554,-85.364603 C 75.437054,-85.579603 75.282054,-85.820853 75.179554,-86.093353 C 75.074554,-86.365853 75.020804,-86.653353 75.020804,-86.957103 C 75.020804,-87.704603 75.312054,-88.304603 75.897054,-88.762103 C 76.478304,-89.220853 77.255804,-89.447103 78.232054,-89.447103 C 78.612054,-89.447103 79.163304,-89.345853 79.887054,-89.143353 C 80.077054,-89.092103 80.218304,-89.052103 80.309554,-89.027103 z M 82.259554,-89.255853 L 83.988554,-89.255853 L 83.988554,-80.479603 L 82.259554,-80.479603 L 82.259554,-89.255853 z M 85.118304,-89.255853 L 91.504554,-89.255853 L 91.504554,-87.902103 L 89.164554,-87.902103 L 89.164554,-80.479603 L 87.428304,-80.479603 L 87.428304,-87.902103 L 85.118304,-87.902103 L 85.118304,-89.255853 z M 95.997054,-87.793353 L 94.525804,-83.845853 L 97.412054,-83.845853 L 95.997054,-87.793353 z M 94.983304,-89.255853 L 97.070804,-89.255853 L 100.46205,-80.479603 L 98.597054,-80.479603 L 97.867054,-82.555853 L 94.044554,-82.555853 L 93.283304,-80.479603 L 91.567054,-80.479603 L 94.983304,-89.255853 z M 96.372054,-91.899603 L 97.646054,-91.899603 L 97.646054,-90.497603 L 96.372054,-90.497603 L 96.372054,-91.899603 z M 94.234554,-91.899603 L 95.508554,-91.899603 L 95.508554,-90.497603 L 94.234554,-90.497603 L 94.234554,-91.899603 z M 100.38705,-89.255853 L 106.7733,-89.255853 L 106.7733,-87.902103 L 104.43205,-87.902103 L 104.43205,-80.479603 L 102.69705,-80.479603 L 102.69705,-87.902103 L 100.38705,-87.902103 L 100.38705,-89.255853"
       id="path149"
       style="fill:#008b83;fill-opacity:1;fill-rule:nonzero;stroke:none" />
    <path
       d="M 37.984554,-100.11835 C 38.094554,-102.9221 39.634554,-105.5196 40.988304,-107.8746 C 41.922054,-109.31835 43.000804,-110.7171 44.109554,-112.03085 C 43.372054,-111.92335 42.813304,-111.74085 41.992054,-111.6171 C 41.634554,-111.53585 41.590804,-112.0196 41.815804,-112.1546 C 42.809554,-112.4271 43.842054,-112.67835 44.844554,-112.90085 C 46.604554,-114.9396 47.699554,-116.08085 49.167054,-117.48835 C 49.752054,-118.04835 50.825804,-119.1071 51.827054,-119.2971 C 52.549554,-119.28085 53.994554,-118.99585 53.382054,-118.0596 C 52.333304,-116.80835 51.399554,-115.7471 49.980804,-114.0421 C 51.285804,-114.2446 52.594554,-114.4471 53.904554,-114.64835 C 54.493304,-114.5821 54.628304,-114.21835 54.114554,-113.9471 C 53.763304,-113.85585 53.763304,-113.85585 49.233304,-113.09835 C 49.162054,-113.0321 49.092054,-112.96085 49.027054,-112.89085 C 48.113304,-111.67335 47.230804,-110.47085 46.378304,-109.21335 C 44.520804,-106.2721 42.898304,-103.42585 42.247054,-99.957103 C 42.193304,-99.673353 42.144554,-99.089603 42.352054,-98.874603 C 42.602054,-98.872103 43.000804,-99.094603 43.267054,-99.209603 C 46.744554,-101.0071 49.604554,-103.39835 52.970804,-105.5046 C 54.510804,-109.1871 56.268304,-112.9196 58.264554,-116.3696 C 58.705804,-116.8621 59.124554,-116.58585 58.952054,-116.23585 C 57.854554,-114.30835 55.052054,-108.82085 54.134554,-106.2721 C 56.223304,-107.7146 59.354554,-109.60585 61.609554,-110.5771 C 62.438304,-110.9346 63.614554,-110.7071 64.103304,-109.72085 C 64.290804,-109.3446 64.295804,-108.44835 64.129554,-108.00835 C 63.245804,-105.67835 62.213304,-103.8571 61.225804,-101.6146 C 60.853304,-100.6446 60.120804,-99.354603 60.247054,-98.582103 C 60.347054,-97.973353 64.375804,-100.87335 65.002054,-101.3921 C 65.237054,-101.58835 66.800804,-102.86585 67.078304,-103.0521 C 67.675804,-103.4546 68.107054,-103.75835 68.645804,-103.7321 C 69.707054,-103.67835 70.750804,-102.97585 70.153304,-102.3321 C 67.367054,-99.338353 64.389554,-96.294603 60.718304,-95.327103 C 59.097054,-94.899603 56.784554,-96.094603 56.654554,-98.175853 C 56.545804,-99.909603 57.094554,-101.57085 57.793304,-103.1471 C 58.100804,-103.8421 58.909554,-105.57335 59.288304,-106.29085 C 56.837054,-104.69085 54.560804,-103.0496 52.210804,-101.1771 C 51.428304,-99.079603 51.052054,-98.032103 50.484554,-95.804603 C 50.287054,-95.033353 49.332054,-95.249603 49.498304,-95.862103 C 49.792054,-96.940853 50.618304,-99.108353 50.993304,-100.26335 C 48.950804,-98.744603 46.863304,-96.917103 44.545804,-95.858353 C 43.313304,-95.294603 41.960804,-95.073353 40.947054,-95.414603 C 38.680804,-96.178353 37.984554,-97.745853 37.984554,-100.11835 z M 70.515804,-106.1896 C 69.808304,-106.32585 69.548304,-106.85835 69.693304,-107.53835 C 70.460804,-109.18085 72.568304,-107.70085 71.389554,-106.43335 C 71.135804,-106.21835 70.923304,-106.11585 70.515804,-106.1896"
       id="path151"
       style="fill:#008b83;fill-opacity:1;fill-rule:nonzero;stroke:none" />
    <path
       d="M 49.078304,-76.414603 L 51.425429,-76.414603 L 51.425429,-67.612353 L 49.078304,-67.612353 L 49.078304,-76.414603 z M 53.123304,-76.414603 L 55.469554,-76.414603 L 55.469554,-69.353353 L 59.008304,-69.353353 L 59.008304,-67.612103 L 53.123304,-67.612103 L 53.123304,-76.414603 z M 60.110804,-76.414603 L 63.693304,-76.414603 L 65.523304,-70.208353 L 67.420804,-76.414603 L 70.945804,-76.414603 L 70.945804,-67.612103 L 68.739554,-67.612103 L 68.735804,-74.782103 L 66.479554,-67.612103 L 64.374554,-67.612103 L 62.160804,-74.755853 L 62.169554,-67.612103 L 60.110804,-67.612103 L 60.110804,-76.414603 z M 72.630804,-76.414603 L 78.745804,-76.414603 L 78.745804,-74.768353 L 74.978304,-74.768353 L 74.978304,-72.989603 L 78.534554,-72.989603 L 78.534554,-71.317103 L 74.978304,-71.317103 L 74.978304,-69.310853 L 78.887054,-69.310853 L 78.887054,-67.612103 L 72.630804,-67.612103 L 72.630804,-76.414603 z M 80.379554,-76.414603 L 83.309554,-76.414603 L 86.338304,-70.138353 L 86.332054,-76.414603 L 88.450804,-76.414603 L 88.450804,-67.612103 L 85.532054,-67.612103 L 82.494554,-73.805853 L 82.498304,-67.612103 L 80.379554,-67.612103 L 80.379554,-76.414603 z M 93.778304,-74.450853 L 92.638304,-71.150853 L 94.880804,-71.150853 L 93.778304,-74.450853 z M 92.408304,-76.414603 L 95.239554,-76.414603 L 98.572054,-67.612103 L 96.064554,-67.612103 L 95.438304,-69.478353 L 92.049554,-69.478353 L 91.393304,-67.612103 L 89.070804,-67.612103 L 92.408304,-76.414603 z M 98.847054,-76.414603 L 101.19455,-76.414603 L 101.19455,-71.292103 C 101.19455,-70.539603 101.3058,-69.998353 101.5283,-69.662103 C 101.75205,-69.328353 102.10955,-69.160853 102.6008,-69.160853 C 103.1033,-69.160853 103.48455,-69.339603 103.73955,-69.699603 C 103.9958,-70.059603 104.12455,-70.589603 104.12455,-71.292103 L 104.12455,-76.414603 L 106.36205,-76.414603 L 106.36205,-71.292103 C 106.36205,-69.995853 106.0483,-69.023353 105.4233,-68.375853 C 104.79705,-67.732103 103.8558,-67.407103 102.60205,-67.407103 C 101.3583,-67.407103 100.42205,-67.733353 99.792054,-68.382103 C 99.162054,-69.033353 98.847054,-70.004603 98.847054,-71.292103 L 98.847054,-76.414603"
       id="path153"
       style="fill:#008b83;fill-opacity:1;fill-rule:nonzero;stroke:none" />
  </g>
</svg>
