<svg xmlns="http://www.w3.org/2000/svg" width="289.78764" height="760">
    <line x1="0" y1="0" x2="289.78764" y2="0" stroke="gray" />
    <line x1="0" y1="10" x2="289.78764" y2="10" stroke="gray" />
    <line x1="0" y1="20" x2="289.78764" y2="20" stroke="gray" />
    <line x1="0" y1="30" x2="289.78764" y2="30" stroke="gray" />
    <line x1="0" y1="40" x2="289.78764" y2="40" stroke="gray" />
    <line x1="0" y1="50" x2="289.78764" y2="50" stroke="gray" />
    <line x1="0" y1="60" x2="289.78764" y2="60" stroke="gray" />
    <line x1="0" y1="70" x2="289.78764" y2="70" stroke="gray" />
    <line x1="0" y1="80" x2="289.78764" y2="80" stroke="gray" />
    <line x1="0" y1="90" x2="289.78764" y2="90" stroke="gray" />
    <line x1="0" y1="100" x2="289.78764" y2="100" stroke="gray" />
    <line x1="0" y1="110" x2="289.78764" y2="110" stroke="gray" />
    <line x1="0" y1="120" x2="289.78764" y2="120" stroke="gray" />
    <line x1="0" y1="130" x2="289.78764" y2="130" stroke="gray" />
    <line x1="0" y1="140" x2="289.78764" y2="140" stroke="gray" />
    <line x1="0" y1="150" x2="289.78764" y2="150" stroke="gray" />
    <line x1="0" y1="160" x2="289.78764" y2="160" stroke="gray" />
    <line x1="0" y1="170" x2="289.78764" y2="170" stroke="gray" />
    <line x1="0" y1="180" x2="289.78764" y2="180" stroke="gray" />
    <line x1="0" y1="190" x2="289.78764" y2="190" stroke="gray" />
    <line x1="0" y1="200" x2="289.78764" y2="200" stroke="gray" />
    <line x1="0" y1="210" x2="289.78764" y2="210" stroke="gray" />
    <line x1="0" y1="220" x2="289.78764" y2="220" stroke="gray" />
    <line x1="0" y1="230" x2="289.78764" y2="230" stroke="gray" />
    <line x1="0" y1="240" x2="289.78764" y2="240" stroke="gray" />
    <line x1="0" y1="250" x2="289.78764" y2="250" stroke="gray" />
    <line x1="0" y1="260" x2="289.78764" y2="260" stroke="gray" />
    <line x1="0" y1="270" x2="289.78764" y2="270" stroke="gray" />
    <line x1="0" y1="280" x2="289.78764" y2="280" stroke="gray" />
    <line x1="0" y1="290" x2="289.78764" y2="290" stroke="gray" />
    <line x1="0" y1="300" x2="289.78764" y2="300" stroke="gray" />
    <line x1="0" y1="310" x2="289.78764" y2="310" stroke="gray" />
    <line x1="0" y1="320" x2="289.78764" y2="320" stroke="gray" />
    <line x1="0" y1="330" x2="289.78764" y2="330" stroke="gray" />
    <line x1="0" y1="340" x2="289.78764" y2="340" stroke="gray" />
    <line x1="0" y1="350" x2="289.78764" y2="350" stroke="gray" />
    <line x1="0" y1="360" x2="289.78764" y2="360" stroke="gray" />
    <line x1="0" y1="370" x2="289.78764" y2="370" stroke="gray" />
    <line x1="0" y1="380" x2="289.78764" y2="380" stroke="gray" />
    <line x1="0" y1="390" x2="289.78764" y2="390" stroke="gray" />
    <line x1="0" y1="400" x2="289.78764" y2="400" stroke="gray" />
    <line x1="0" y1="410" x2="289.78764" y2="410" stroke="gray" />
    <line x1="0" y1="420" x2="289.78764" y2="420" stroke="gray" />
    <line x1="0" y1="430" x2="289.78764" y2="430" stroke="gray" />
    <line x1="0" y1="440" x2="289.78764" y2="440" stroke="gray" />
    <line x1="0" y1="450" x2="289.78764" y2="450" stroke="gray" />
    <line x1="0" y1="460" x2="289.78764" y2="460" stroke="gray" />
    <line x1="0" y1="470" x2="289.78764" y2="470" stroke="gray" />
    <line x1="0" y1="480" x2="289.78764" y2="480" stroke="gray" />
    <line x1="0" y1="490" x2="289.78764" y2="490" stroke="gray" />
    <line x1="0" y1="500" x2="289.78764" y2="500" stroke="gray" />
    <line x1="0" y1="510" x2="289.78764" y2="510" stroke="gray" />
    <line x1="0" y1="520" x2="289.78764" y2="520" stroke="gray" />
    <line x1="0" y1="530" x2="289.78764" y2="530" stroke="gray" />
    <line x1="0" y1="540" x2="289.78764" y2="540" stroke="gray" />
    <line x1="0" y1="550" x2="289.78764" y2="550" stroke="gray" />
    <line x1="0" y1="560" x2="289.78764" y2="560" stroke="gray" />
    <line x1="0" y1="570" x2="289.78764" y2="570" stroke="gray" />
    <line x1="0" y1="580" x2="289.78764" y2="580" stroke="gray" />
    <line x1="0" y1="590" x2="289.78764" y2="590" stroke="gray" />
    <line x1="0" y1="600" x2="289.78764" y2="600" stroke="gray" />
    <line x1="0" y1="610" x2="289.78764" y2="610" stroke="gray" />
    <line x1="0" y1="620" x2="289.78764" y2="620" stroke="gray" />
    <line x1="0" y1="630" x2="289.78764" y2="630" stroke="gray" />
    <line x1="0" y1="640" x2="289.78764" y2="640" stroke="gray" />
    <line x1="0" y1="650" x2="289.78764" y2="650" stroke="gray" />
    <line x1="0" y1="660" x2="289.78764" y2="660" stroke="gray" />
    <line x1="0" y1="670" x2="289.78764" y2="670" stroke="gray" />
    <line x1="0" y1="680" x2="289.78764" y2="680" stroke="gray" />
    <line x1="0" y1="690" x2="289.78764" y2="690" stroke="gray" />
    <line x1="0" y1="700" x2="289.78764" y2="700" stroke="gray" />
    <line x1="0" y1="710" x2="289.78764" y2="710" stroke="gray" />
    <line x1="0" y1="720" x2="289.78764" y2="720" stroke="gray" />
    <line x1="0" y1="730" x2="289.78764" y2="730" stroke="gray" />
    <line x1="0" y1="740" x2="289.78764" y2="740" stroke="gray" />
    <line x1="0" y1="750" x2="289.78764" y2="750" stroke="gray" />
    <line x1="0" y1="760" x2="289.78764" y2="760" stroke="gray" />
    <rect x="0.00195" y="0" width="0.03221" height="10" stroke="black" fill="dodgerblue" />
    <rect x="0.03416" y="0" width="0.11432999999999999" height="10" stroke="black" fill="darkred" />
    <rect x="0.14848999999999998" y="0" width="0.015880000000000005" height="10" stroke="black" fill="red" />
    <rect x="0.16437" y="0" width="0.03816" height="10" stroke="black" fill="darkorange" />
    <rect x="0.007169999999999999" y="10" width="0.16351" height="10" stroke="black" fill="dodgerblue" />
    <rect x="0.17068" y="10" width="0.0046599999999999975" height="10" stroke="black" fill="darkred" />
    <rect x="0.17534" y="10" width="0.0035399999999999876" height="10" stroke="black" fill="red" />
    <rect x="0.17887999999999998" y="10" width="0.09115000000000001" height="10" stroke="black" fill="darkorange" />
    <rect x="0.007449999999999999" y="20" width="0.38011" height="10" stroke="black" fill="dodgerblue" />
    <rect x="0.38756" y="20" width="0.021639999999999993" height="10" stroke="black" fill="darkred" />
    <rect x="0.4092" y="20" width="0.029239999999999988" height="10" stroke="black" fill="red" />
    <rect x="0.43844" y="20" width="0.27285" height="10" stroke="black" fill="darkorange" />
    <rect x="0.007540000000000001" y="30" width="0.9885100000000001" height="10" stroke="black" fill="dodgerblue" />
    <rect x="0.9960500000000001" y="30" width="0.022969999999999935" height="10" stroke="black" fill="darkred" />
    <rect x="1.01902" y="30" width="0.01611000000000007" height="10" stroke="black" fill="red" />
    <rect x="1.03513" y="30" width="0.39798999999999984" height="10" stroke="black" fill="darkorange" />
    <rect x="0.0075699999999999995" y="40" width="1.86004" height="10" stroke="black" fill="dodgerblue" />
    <rect x="1.86761" y="40" width="0.05317000000000016" height="10" stroke="black" fill="darkred" />
    <rect x="1.9207800000000002" y="40" width="0.03248999999999991" height="10" stroke="black" fill="red" />
    <rect x="1.95327" y="40" width="0.4989899999999998" height="10" stroke="black" fill="darkorange" />
    <rect x="0.00813" y="50" width="3.7548200000000005" height="10" stroke="black" fill="dodgerblue" />
    <rect x="3.7629500000000005" y="50" width="0.012149999999999661" height="10" stroke="black" fill="darkred" />
    <rect x="3.7751" y="50" width="0.05297999999999936" height="10" stroke="black" fill="red" />
    <rect x="3.8280799999999995" y="50" width="1.2023000000000006" height="10" stroke="black" fill="darkorange" />
    <rect x="0.00894" y="60" width="6.3739099999999995" height="10" stroke="black" fill="dodgerblue" />
    <rect x="6.3828499999999995" y="60" width="0.030900000000000816" height="10" stroke="black" fill="darkred" />
    <rect x="6.41375" y="60" width="0.031779999999999475" height="10" stroke="black" fill="red" />
    <rect x="6.44553" y="60" width="2.09764" height="10" stroke="black" fill="darkorange" />
    <rect x="0.20933000000000002" y="70" width="6.29965" height="10" stroke="black" fill="dodgerblue" />
    <rect x="6.50898" y="70" width="0.008930000000000327" height="10" stroke="black" fill="darkred" />
    <rect x="6.5179100000000005" y="70" width="0.029189999999999827" height="10" stroke="black" fill="red" />
    <rect x="6.5471" y="70" width="2.48255" height="10" stroke="black" fill="darkorange" />
    <rect x="0.28733000000000003" y="80" width="7.145020000000001" height="10" stroke="black" fill="dodgerblue" />
    <rect x="7.4323500000000005" y="80" width="0.02180999999999944" height="10" stroke="black" fill="darkred" />
    <rect x="7.45416" y="80" width="0.025469999999999438" height="10" stroke="black" fill="red" />
    <rect x="7.479629999999999" y="80" width="2.36803" height="10" stroke="black" fill="darkorange" />
    <rect x="0.74024" y="90" width="8.22281" height="10" stroke="black" fill="dodgerblue" />
    <rect x="8.96305" y="90" width="0.013189999999999813" height="10" stroke="black" fill="darkred" />
    <rect x="8.97624" y="90" width="0.02552999999999983" height="10" stroke="black" fill="red" />
    <rect x="9.00177" y="90" width="2.3826099999999997" height="10" stroke="black" fill="darkorange" />
    <rect x="1.48486" y="100" width="9.27941" height="10" stroke="black" fill="dodgerblue" />
    <rect x="10.76427" y="100" width="0.00990000000000002" height="10" stroke="black" fill="darkred" />
    <rect x="10.77417" y="100" width="0.027889999999999304" height="10" stroke="black" fill="red" />
    <rect x="10.802059999999999" y="100" width="2.39316" height="10" stroke="black" fill="darkorange" />
    <rect x="2.51096" y="110" width="9.45026" height="10" stroke="black" fill="dodgerblue" />
    <rect x="11.96122" y="110" width="0.011540000000000106" height="10" stroke="black" fill="darkred" />
    <rect x="11.972760000000001" y="110" width="0.038759999999999906" height="10" stroke="black" fill="red" />
    <rect x="12.01152" y="110" width="2.5487599999999997" height="10" stroke="black" fill="darkorange" />
    <rect x="5.09467" y="120" width="10.451039999999999" height="10" stroke="black" fill="dodgerblue" />
    <rect x="15.545709999999998" y="120" width="0.010090000000001709" height="10" stroke="black" fill="darkred" />
    <rect x="15.5558" y="120" width="0.03138000000000041" height="10" stroke="black" fill="red" />
    <rect x="15.58718" y="120" width="2.5464400000000005" height="10" stroke="black" fill="darkorange" />
    <rect x="8.66561" y="130" width="10.903339999999998" height="10" stroke="black" fill="dodgerblue" />
    <rect x="19.568949999999997" y="130" width="0.012800000000002143" height="10" stroke="black" fill="darkred" />
    <rect x="19.58175" y="130" width="0.04375999999999891" height="10" stroke="black" fill="red" />
    <rect x="19.62551" y="130" width="3.3400500000000015" height="10" stroke="black" fill="darkorange" />
    <rect x="9.14274" y="140" width="12.0933" height="10" stroke="black" fill="dodgerblue" />
    <rect x="21.23604" y="140" width="0.023320000000001784" height="10" stroke="black" fill="darkred" />
    <rect x="21.25936" y="140" width="0.13796999999999926" height="10" stroke="black" fill="red" />
    <rect x="21.39733" y="140" width="3.6459800000000016" height="10" stroke="black" fill="darkorange" />
    <rect x="9.995420000000001" y="150" width="14.417799999999998" height="10" stroke="black" fill="dodgerblue" />
    <rect x="24.41322" y="150" width="0.012810000000001764" height="10" stroke="black" fill="darkred" />
    <rect x="24.42603" y="150" width="0.04100000000000037" height="10" stroke="black" fill="red" />
    <rect x="24.46703" y="150" width="4.193189999999998" height="10" stroke="black" fill="darkorange" />
    <rect x="11.564779999999999" y="160" width="15.45657" height="10" stroke="black" fill="dodgerblue" />
    <rect x="27.021349999999998" y="160" width="0.04842000000000013" height="10" stroke="black" fill="darkred" />
    <rect x="27.06977" y="160" width="0.052489999999998815" height="10" stroke="black" fill="red" />
    <rect x="27.122259999999997" y="160" width="5.033950000000004" height="10" stroke="black" fill="darkorange" />
    <rect x="13.408600000000002" y="170" width="16.44598" height="10" stroke="black" fill="dodgerblue" />
    <rect x="29.85458" y="170" width="0.012029999999999319" height="10" stroke="black" fill="darkred" />
    <rect x="29.866609999999998" y="170" width="0.054740000000006006" height="10" stroke="black" fill="red" />
    <rect x="29.921350000000004" y="170" width="6.222380000000001" height="10" stroke="black" fill="darkorange" />
    <rect x="14.76943" y="180" width="17.87554" height="10" stroke="black" fill="dodgerblue" />
    <rect x="32.64497" y="180" width="0.05124999999999602" height="10" stroke="black" fill="darkred" />
    <rect x="32.69622" y="180" width="0.10555000000000803" height="10" stroke="black" fill="red" />
    <rect x="32.801770000000005" y="180" width="6.752919999999996" height="10" stroke="black" fill="darkorange" />
    <rect x="18.33419" y="190" width="24.467280000000002" height="10" stroke="black" fill="dodgerblue" />
    <rect x="42.80147" y="190" width="0.07535000000000025" height="10" stroke="black" fill="darkred" />
    <rect x="42.87682" y="190" width="0.07125999999999522" height="10" stroke="black" fill="red" />
    <rect x="42.94808" y="190" width="7.67015" height="10" stroke="black" fill="darkorange" />
    <rect x="23.160790000000002" y="200" width="22.817629999999998" height="10" stroke="black" fill="dodgerblue" />
    <rect x="45.97842" y="200" width="0.045189999999998065" height="10" stroke="black" fill="darkred" />
    <rect x="46.02361" y="200" width="0.06636000000000308" height="10" stroke="black" fill="red" />
    <rect x="46.08997" y="200" width="9.231259999999999" height="10" stroke="black" fill="darkorange" />
    <rect x="25.21904" y="210" width="24.45163" height="10" stroke="black" fill="dodgerblue" />
    <rect x="49.67067" y="210" width="0.01261000000000223" height="10" stroke="black" fill="darkred" />
    <rect x="49.68328" y="210" width="0.07276999999999845" height="10" stroke="black" fill="red" />
    <rect x="49.75605" y="210" width="10.260370000000002" height="10" stroke="black" fill="darkorange" />
    <rect x="28.962169999999997" y="220" width="25.246570000000002" height="10" stroke="black" fill="dodgerblue" />
    <rect x="54.20874" y="220" width="0.010750000000001592" height="10" stroke="black" fill="darkred" />
    <rect x="54.21949" y="220" width="0.0704199999999986" height="10" stroke="black" fill="red" />
    <rect x="54.28991" y="220" width="11.45825" height="10" stroke="black" fill="darkorange" />
    <rect x="32.372240000000005" y="230" width="21.802389999999995" height="10" stroke="black" fill="dodgerblue" />
    <rect x="54.17463" y="230" width="0.11573000000000633" height="10" stroke="black" fill="darkred" />
    <rect x="54.29036000000001" y="230" width="0.10942999999999614" height="10" stroke="black" fill="red" />
    <rect x="54.39979" y="230" width="11.21542999999999" height="10" stroke="black" fill="darkorange" />
    <rect x="36.50269" y="240" width="21.424049999999994" height="10" stroke="black" fill="dodgerblue" />
    <rect x="57.926739999999995" y="240" width="0.013960000000004413" height="10" stroke="black" fill="darkred" />
    <rect x="57.9407" y="240" width="0.08406000000000091" height="10" stroke="black" fill="red" />
    <rect x="58.02476" y="240" width="11.198629999999994" height="10" stroke="black" fill="darkorange" />
    <rect x="39.745960000000004" y="250" width="22.129129999999996" height="10" stroke="black" fill="dodgerblue" />
    <rect x="61.87509" y="250" width="0.07550000000000523" height="10" stroke="black" fill="darkred" />
    <rect x="61.950590000000005" y="250" width="0.1292399999999958" height="10" stroke="black" fill="red" />
    <rect x="62.07983" y="250" width="10.365679999999998" height="10" stroke="black" fill="darkorange" />
    <rect x="50.76897" y="260" width="26.23905" height="10" stroke="black" fill="dodgerblue" />
    <rect x="77.00802" y="260" width="0.012209999999996057" height="10" stroke="black" fill="darkred" />
    <rect x="77.02023" y="260" width="0.1074299999999937" height="10" stroke="black" fill="red" />
    <rect x="77.12765999999999" y="260" width="10.15449000000001" height="10" stroke="black" fill="darkorange" />
    <rect x="55.790530000000004" y="270" width="24.62406" height="10" stroke="black" fill="dodgerblue" />
    <rect x="80.41459" y="270" width="0.012500000000002842" height="10" stroke="black" fill="darkred" />
    <rect x="80.42709" y="270" width="0.1321399999999926" height="10" stroke="black" fill="red" />
    <rect x="80.55923" y="270" width="11.061809999999994" height="10" stroke="black" fill="darkorange" />
    <rect x="60.25391" y="280" width="24.84096999999999" height="10" stroke="black" fill="dodgerblue" />
    <rect x="85.09487999999999" y="280" width="0.012130000000013297" height="10" stroke="black" fill="darkred" />
    <rect x="85.10701" y="280" width="0.12317999999999074" height="10" stroke="black" fill="red" />
    <rect x="85.23019" y="280" width="11.53701000000001" height="10" stroke="black" fill="darkorange" />
    <rect x="66.21903999999999" y="290" width="24.287560000000013" height="10" stroke="black" fill="dodgerblue" />
    <rect x="90.5066" y="290" width="0.012939999999986185" height="10" stroke="black" fill="darkred" />
    <rect x="90.51953999999999" y="290" width="0.11763000000000545" height="10" stroke="black" fill="red" />
    <rect x="90.63717" y="290" width="11.728300000000004" height="10" stroke="black" fill="darkorange" />
    <rect x="66.39150000000001" y="300" width="25.779239999999987" height="10" stroke="black" fill="dodgerblue" />
    <rect x="92.17074" y="300" width="0.012350000000012074" height="10" stroke="black" fill="darkred" />
    <rect x="92.18309" y="300" width="0.18436999999998704" height="10" stroke="black" fill="red" />
    <rect x="92.36746" y="300" width="12.175439999999995" height="10" stroke="black" fill="darkorange" />
    <rect x="69.83802999999999" y="310" width="23.826940000000008" height="10" stroke="black" fill="dodgerblue" />
    <rect x="93.66497" y="310" width="0.012690000000006307" height="10" stroke="black" fill="darkred" />
    <rect x="93.67766" y="310" width="0.1318600000000032" height="10" stroke="black" fill="red" />
    <rect x="93.80952" y="310" width="12.660120000000006" height="10" stroke="black" fill="darkorange" />
    <rect x="73.17643000000001" y="320" width="24.356219999999993" height="10" stroke="black" fill="dodgerblue" />
    <rect x="97.53265" y="320" width="0.010880000000000223" height="10" stroke="black" fill="darkred" />
    <rect x="97.54353" y="320" width="0.16540000000000532" height="10" stroke="black" fill="red" />
    <rect x="97.70893000000001" y="320" width="13.31841" height="10" stroke="black" fill="darkorange" />
    <rect x="87.8202" y="330" width="28.73483999999999" height="10" stroke="black" fill="dodgerblue" />
    <rect x="116.55503999999999" y="330" width="0.015299999999996317" height="10" stroke="black" fill="darkred" />
    <rect x="116.57033999999999" y="330" width="0.13659000000002663" height="10" stroke="black" fill="red" />
    <rect x="116.70693000000001" y="330" width="15.009100000000004" height="10" stroke="black" fill="darkorange" />
    <rect x="92.0256" y="340" width="42.05166" height="10" stroke="black" fill="dodgerblue" />
    <rect x="134.07726" y="340" width="0.01290000000000191" height="10" stroke="black" fill="darkred" />
    <rect x="134.09016" y="340" width="0.1536999999999864" height="10" stroke="black" fill="red" />
    <rect x="134.24385999999998" y="340" width="21.52272000000002" height="10" stroke="black" fill="darkorange" />
    <rect x="97.03578" y="350" width="30.257580000000004" height="10" stroke="black" fill="dodgerblue" />
    <rect x="127.29336" y="350" width="6.951050000000009" height="10" stroke="black" fill="darkred" />
    <rect x="134.24441000000002" y="350" width="0.1728199999999731" height="10" stroke="black" fill="red" />
    <rect x="134.41723" y="350" width="19.748940000000033" height="10" stroke="black" fill="darkorange" />
    <rect x="102.82370999999999" y="360" width="23.34641000000002" height="10" stroke="black" fill="dodgerblue" />
    <rect x="126.17012000000001" y="360" width="8.247729999999976" height="10" stroke="black" fill="darkred" />
    <rect x="134.41785" y="360" width="0.17323000000001798" height="10" stroke="black" fill="red" />
    <rect x="134.59108" y="360" width="17.78300999999999" height="10" stroke="black" fill="darkorange" />
    <rect x="105.0828" y="370" width="21.98545999999999" height="10" stroke="black" fill="dodgerblue" />
    <rect x="127.06826" y="370" width="7.5235799999999955" height="10" stroke="black" fill="darkred" />
    <rect x="134.59184" y="370" width="0.1998000000000104" height="10" stroke="black" fill="red" />
    <rect x="134.79164" y="370" width="19.392770000000013" height="10" stroke="black" fill="darkorange" />
    <rect x="107.29432999999999" y="380" width="22.51255000000002" height="10" stroke="black" fill="dodgerblue" />
    <rect x="129.80688" y="380" width="4.9853200000000015" height="10" stroke="black" fill="darkred" />
    <rect x="134.7922" y="380" width="0.2089599999999905" height="10" stroke="black" fill="red" />
    <rect x="135.00116" y="380" width="22.29987" height="10" stroke="black" fill="darkorange" />
    <rect x="111.85637" y="390" width="19.340810000000005" height="10" stroke="black" fill="dodgerblue" />
    <rect x="131.19718" y="390" width="3.8046400000000062" height="10" stroke="black" fill="darkred" />
    <rect x="135.00182" y="390" width="0.2297399999999925" height="10" stroke="black" fill="red" />
    <rect x="135.23156" y="390" width="21.62509" height="10" stroke="black" fill="darkorange" />
    <rect x="132.08441" y="400" width="21.067020000000014" height="10" stroke="black" fill="dodgerblue" />
    <rect x="153.15143" y="400" width="0.019299999999986994" height="10" stroke="black" fill="darkred" />
    <rect x="153.17073" y="400" width="0.1375500000000045" height="10" stroke="black" fill="red" />
    <rect x="153.30828" y="400" width="23.231010000000026" height="10" stroke="black" fill="darkorange" />
    <rect x="152.87606" y="410" width="25.666449999999998" height="10" stroke="black" fill="dodgerblue" />
    <rect x="178.54251" y="410" width="0.02460999999999558" height="10" stroke="black" fill="darkred" />
    <rect x="178.56712" y="410" width="0.10377000000002568" height="10" stroke="black" fill="red" />
    <rect x="178.67089" y="410" width="13.513089999999977" height="10" stroke="black" fill="darkorange" />
    <rect x="155.03308" y="420" width="24.577409999999986" height="10" stroke="black" fill="dodgerblue" />
    <rect x="179.61049" y="420" width="0.01480000000000814" height="10" stroke="black" fill="darkred" />
    <rect x="179.62529" y="420" width="0.14495999999999754" height="10" stroke="black" fill="red" />
    <rect x="179.77025" y="420" width="19.068190000000016" height="10" stroke="black" fill="darkorange" />
    <rect x="155.22413" y="430" width="19.99072000000001" height="10" stroke="black" fill="dodgerblue" />
    <rect x="175.21485" y="430" width="4.556060000000002" height="10" stroke="black" fill="darkred" />
    <rect x="179.77091000000001" y="430" width="0.12511999999998125" height="10" stroke="black" fill="red" />
    <rect x="179.89603" y="430" width="18.848280000000017" height="10" stroke="black" fill="darkorange" />
    <rect x="156.40153999999998" y="440" width="17.18562" height="10" stroke="black" fill="dodgerblue" />
    <rect x="173.58715999999998" y="440" width="6.309390000000008" height="10" stroke="black" fill="darkred" />
    <rect x="179.89655" y="440" width="0.13736000000000104" height="10" stroke="black" fill="red" />
    <rect x="180.03391" y="440" width="18.47985" height="10" stroke="black" fill="darkorange" />
    <rect x="159.40691999999999" y="450" width="14.816910000000007" height="10" stroke="black" fill="dodgerblue" />
    <rect x="174.22383" y="450" width="5.810679999999991" height="10" stroke="black" fill="darkred" />
    <rect x="180.03450999999998" y="450" width="0.17543000000000575" height="10" stroke="black" fill="red" />
    <rect x="180.20994" y="450" width="17.97099000000003" height="10" stroke="black" fill="darkorange" />
    <rect x="159.57765" y="460" width="12.945479999999975" height="10" stroke="black" fill="dodgerblue" />
    <rect x="172.52312999999998" y="460" width="7.687320000000028" height="10" stroke="black" fill="darkred" />
    <rect x="180.21045" y="460" width="0.219459999999998" height="10" stroke="black" fill="red" />
    <rect x="180.42991" y="460" width="17.914680000000004" height="10" stroke="black" fill="darkorange" />
    <rect x="177.61873000000003" y="470" width="13.231419999999957" height="10" stroke="black" fill="dodgerblue" />
    <rect x="190.85014999999999" y="470" width="0.018960000000021182" height="10" stroke="black" fill="darkred" />
    <rect x="190.86911" y="470" width="0.12695999999999685" height="10" stroke="black" fill="red" />
    <rect x="190.99607" y="470" width="10.83126999999999" height="10" stroke="black" fill="darkorange" />
    <rect x="192.65973" y="480" width="11.831530000000015" height="10" stroke="black" fill="dodgerblue" />
    <rect x="204.49126" y="480" width="0.015780000000006567" height="10" stroke="black" fill="darkred" />
    <rect x="204.50704000000002" y="480" width="0.596149999999966" height="10" stroke="black" fill="red" />
    <rect x="205.10318999999998" y="480" width="13.957080000000019" height="10" stroke="black" fill="darkorange" />
    <rect x="198.76075" y="490" width="13.35232000000002" height="10" stroke="black" fill="dodgerblue" />
    <rect x="212.11307000000002" y="490" width="0.013479999999958636" height="10" stroke="black" fill="darkred" />
    <rect x="212.12654999999998" y="490" width="0.11467000000001804" height="10" stroke="black" fill="red" />
    <rect x="212.24122" y="490" width="14.883730000000014" height="10" stroke="black" fill="darkorange" />
    <rect x="199.28356" y="500" width="12.054100000000005" height="10" stroke="black" fill="dodgerblue" />
    <rect x="211.33766" y="500" width="0.9041599999999903" height="10" stroke="black" fill="darkred" />
    <rect x="212.24182" y="500" width="0.18491000000003055" height="10" stroke="black" fill="red" />
    <rect x="212.42673000000002" y="500" width="14.991929999999996" height="10" stroke="black" fill="darkorange" />
    <rect x="199.49157" y="510" width="11.087520000000012" height="10" stroke="black" fill="dodgerblue" />
    <rect x="210.57909" y="510" width="1.8483499999999822" height="10" stroke="black" fill="darkred" />
    <rect x="212.42744" y="510" width="0.19054000000002702" height="10" stroke="black" fill="red" />
    <rect x="212.61798000000002" y="510" width="10.748719999999992" height="10" stroke="black" fill="darkorange" />
    <rect x="199.82131" y="520" width="9.859499999999997" height="10" stroke="black" fill="dodgerblue" />
    <rect x="209.68081" y="520" width="2.9377700000000004" height="10" stroke="black" fill="darkred" />
    <rect x="212.61858" y="520" width="0.17178999999998723" height="10" stroke="black" fill="red" />
    <rect x="212.79037" y="520" width="18.625130000000013" height="10" stroke="black" fill="darkorange" />
    <rect x="199.91743" y="530" width="9.552089999999993" height="10" stroke="black" fill="dodgerblue" />
    <rect x="209.46952" y="530" width="3.3213700000000017" height="10" stroke="black" fill="darkred" />
    <rect x="212.79089" y="530" width="0.25436999999999443" height="10" stroke="black" fill="red" />
    <rect x="213.04525999999998" y="530" width="17.551840000000027" height="10" stroke="black" fill="darkorange" />
    <rect x="203.39870000000002" y="540" width="5.702229999999986" height="10" stroke="black" fill="dodgerblue" />
    <rect x="209.10093" y="540" width="3.944999999999993" height="10" stroke="black" fill="darkred" />
    <rect x="213.04593" y="540" width="0.19326999999998407" height="10" stroke="black" fill="red" />
    <rect x="213.23919999999998" y="540" width="17.547140000000013" height="10" stroke="black" fill="darkorange" />
    <rect x="219.95458000000002" y="550" width="6.646129999999971" height="10" stroke="black" fill="dodgerblue" />
    <rect x="226.60071" y="550" width="0.013730000000009568" height="10" stroke="black" fill="darkred" />
    <rect x="226.61444" y="550" width="0.16008999999999673" height="10" stroke="black" fill="red" />
    <rect x="226.77453" y="550" width="12.551099999999991" height="10" stroke="black" fill="darkorange" />
    <rect x="224.13787" y="560" width="4.765590000000003" height="10" stroke="black" fill="dodgerblue" />
    <rect x="228.90346" y="560" width="0.03782000000001062" height="10" stroke="black" fill="darkred" />
    <rect x="228.94128" y="560" width="0.18666999999999234" height="10" stroke="black" fill="red" />
    <rect x="229.12795" y="560" width="14.54240999999999" height="10" stroke="black" fill="darkorange" />
    <rect x="227.96854" y="570" width="3.5817900000000122" height="10" stroke="black" fill="dodgerblue" />
    <rect x="231.55033" y="570" width="0.012199999999978672" height="10" stroke="black" fill="darkred" />
    <rect x="231.56252999999998" y="570" width="0.292220000000043" height="10" stroke="black" fill="red" />
    <rect x="231.85475000000002" y="570" width="18.256399999999957" height="10" stroke="black" fill="darkorange" />
    <rect x="228.14044" y="580" width="2.962459999999993" height="10" stroke="black" fill="dodgerblue" />
    <rect x="231.1029" y="580" width="0.7524300000000039" height="10" stroke="black" fill="darkred" />
    <rect x="231.85533" y="580" width="0.204039999999992" height="10" stroke="black" fill="red" />
    <rect x="232.05937" y="580" width="16.834689999999995" height="10" stroke="black" fill="darkorange" />
    <rect x="231.89004999999997" y="590" width="4.125380000000035" height="10" stroke="black" fill="dodgerblue" />
    <rect x="236.01543" y="590" width="0.01348000000001548" height="10" stroke="black" fill="darkred" />
    <rect x="236.02891000000002" y="590" width="0.08761999999998693" height="10" stroke="black" fill="red" />
    <rect x="236.11653" y="590" width="18.142300000000006" height="10" stroke="black" fill="darkorange" />
    <rect x="231.89544" y="600" width="3.4810099999999977" height="10" stroke="black" fill="dodgerblue" />
    <rect x="235.37645" y="600" width="0.740460000000013" height="10" stroke="black" fill="darkred" />
    <rect x="236.11691000000002" y="600" width="0.09877999999997655" height="10" stroke="black" fill="red" />
    <rect x="236.21569" y="600" width="17.243089999999967" height="10" stroke="black" fill="darkorange" />
    <rect x="232.67943" y="610" width="3.016459999999995" height="10" stroke="black" fill="dodgerblue" />
    <rect x="235.69589" y="610" width="0.5203400000000045" height="10" stroke="black" fill="darkred" />
    <rect x="236.21623" y="610" width="0.08038999999999419" height="10" stroke="black" fill="red" />
    <rect x="236.29662" y="610" width="17.78954999999999" height="10" stroke="black" fill="darkorange" />
    <rect x="240.46335000000002" y="620" width="1.8807199999999682" height="10" stroke="black" fill="dodgerblue" />
    <rect x="242.34407" y="620" width="0.013510000000025002" height="10" stroke="black" fill="darkred" />
    <rect x="242.35758" y="620" width="0.06485999999998171" height="10" stroke="black" fill="red" />
    <rect x="242.42244" y="620" width="15.309979999999996" height="10" stroke="black" fill="darkorange" />
    <rect x="244.58658" y="630" width="1.5857599999999934" height="10" stroke="black" fill="dodgerblue" />
    <rect x="246.17234" y="630" width="0.012239999999991369" height="10" stroke="black" fill="darkred" />
    <rect x="246.18457999999998" y="630" width="0.0714100000000144" height="10" stroke="black" fill="red" />
    <rect x="246.25599" y="630" width="15.593029999999999" height="10" stroke="black" fill="darkorange" />
    <rect x="250.33405000000002" y="640" width="1.5549299999999846" height="10" stroke="black" fill="dodgerblue" />
    <rect x="251.88898" y="640" width="0.05615999999997712" height="10" stroke="black" fill="darkred" />
    <rect x="251.94513999999998" y="640" width="0.06899000000004207" height="10" stroke="black" fill="red" />
    <rect x="252.01413000000002" y="640" width="16.792389999999955" height="10" stroke="black" fill="darkorange" />
    <rect x="251.41088" y="650" width="0.9436400000000162" height="10" stroke="black" fill="dodgerblue" />
    <rect x="252.35452" y="650" width="0.02151999999998111" height="10" stroke="black" fill="darkred" />
    <rect x="252.37604" y="650" width="0.06388999999998646" height="10" stroke="black" fill="red" />
    <rect x="252.43992999999998" y="650" width="17.455330000000032" height="10" stroke="black" fill="darkorange" />
    <rect x="254.92892999999998" y="660" width="1.4472299999999905" height="10" stroke="black" fill="dodgerblue" />
    <rect x="256.37615999999997" y="660" width="0.014569999999991978" height="10" stroke="black" fill="darkred" />
    <rect x="256.39072999999996" y="660" width="0.05025000000000546" height="10" stroke="black" fill="red" />
    <rect x="256.44097999999997" y="660" width="17.47664000000003" height="10" stroke="black" fill="darkorange" />
    <rect x="255.8494" y="670" width="1.0767599999999788" height="10" stroke="black" fill="dodgerblue" />
    <rect x="256.92616" y="670" width="0.012020000000006803" height="10" stroke="black" fill="darkred" />
    <rect x="256.93818" y="670" width="0.05263999999999669" height="10" stroke="black" fill="red" />
    <rect x="256.99082" y="670" width="18.708500000000015" height="10" stroke="black" fill="darkorange" />
    <rect x="255.90192" y="680" width="0.8445100000000423" height="10" stroke="black" fill="dodgerblue" />
    <rect x="256.74643000000003" y="680" width="0.2447899999999663" height="10" stroke="black" fill="darkred" />
    <rect x="256.99122" y="680" width="0.03946000000001959" height="10" stroke="black" fill="red" />
    <rect x="257.03068" y="680" width="19.055979999999977" height="10" stroke="black" fill="darkorange" />
    <rect x="258.95605" y="690" width="0.6798000000000002" height="10" stroke="black" fill="dodgerblue" />
    <rect x="259.63585" y="690" width="0.022109999999997854" height="10" stroke="black" fill="darkred" />
    <rect x="259.65796" y="690" width="0.04757999999998219" height="10" stroke="black" fill="red" />
    <rect x="259.70554" y="690" width="17.11844000000002" height="10" stroke="black" fill="darkorange" />
    <rect x="263.28807" y="700" width="0.3727100000000405" height="10" stroke="black" fill="dodgerblue" />
    <rect x="263.66078000000005" y="700" width="0.01564999999993688" height="10" stroke="black" fill="darkred" />
    <rect x="263.67643" y="700" width="0.03985000000000127" height="10" stroke="black" fill="red" />
    <rect x="263.71628" y="700" width="17.472450000000038" height="10" stroke="black" fill="darkorange" />
    <rect x="270.14944" y="710" width="0.340219999999988" height="10" stroke="black" fill="dodgerblue" />
    <rect x="270.48966" y="710" width="0.011869999999987613" height="10" stroke="black" fill="darkred" />
    <rect x="270.50153" y="710" width="0.02172000000001617" height="10" stroke="black" fill="red" />
    <rect x="270.52325" y="710" width="18.66304999999994" height="10" stroke="black" fill="darkorange" />
    <rect x="271.21978" y="720" width="0.31103000000001657" height="10" stroke="black" fill="dodgerblue" />
    <rect x="271.53081000000003" y="720" width="0.01231999999998834" height="10" stroke="black" fill="darkred" />
    <rect x="271.54313" y="720" width="0.02404999999998836" height="10" stroke="black" fill="red" />
    <rect x="271.56718" y="720" width="13.637940000000015" height="10" stroke="black" fill="darkorange" />
    <rect x="275.52432" y="730" width="0.3011200000000258" height="10" stroke="black" fill="dodgerblue" />
    <rect x="275.82544" y="730" width="0.007350000000030832" height="10" stroke="black" fill="darkred" />
    <rect x="275.83279000000005" y="730" width="0.02053999999992584" height="10" stroke="black" fill="red" />
    <rect x="275.85332999999997" y="730" width="13.934310000000039" height="10" stroke="black" fill="darkorange" />
    <rect x="277.02542" y="740" width="0.29336000000000695" height="10" stroke="black" fill="dodgerblue" />
    <rect x="277.31878" y="740" width="0.017679999999984375" height="10" stroke="black" fill="darkred" />
    <rect x="277.33646" y="740" width="0.03165000000001328" height="10" stroke="black" fill="red" />
    <rect x="277.36811" y="740" width="12.400409999999965" height="10" stroke="black" fill="darkorange" />
    <rect x="277.78081000000003" y="750" width="0.11269999999996116" height="10" stroke="black" fill="dodgerblue" />
    <rect x="277.89351" y="750" width="0.009659999999996671" height="10" stroke="black" fill="darkred" />
    <rect x="277.90317" y="750" width="0.02255000000002383" height="10" stroke="black" fill="red" />
    <rect x="277.92572" y="750" width="11.767060000000015" height="10" stroke="black" fill="darkorange" />
</svg>