<svg version="1.1" viewBox="0.0 0.0 762.0 290.0" fill="none" stroke="none" stroke-linecap="square" stroke-miterlimit="10" width="762" height="290" xmlns:xlink="http://www.w3.org/1999/xlink" xmlns="http://www.w3.org/2000/svg"><path fill="#ffffff" d="M0 0L762.0 0L762.0 290.0L0 290.0L0 0Z" fill-rule="nonzero"/><path stroke="#333333" stroke-width="1.0" stroke-linecap="butt" d="M54.5 45.5L54.5 255.5" fill-rule="nonzero"/><path stroke="#cccccc" stroke-width="1.0" stroke-linecap="butt" d="M185.5 45.5L185.5 255.5" fill-rule="nonzero"/><path stroke="#cccccc" stroke-width="1.0" stroke-linecap="butt" d="M316.5 45.5L316.5 255.5" fill-rule="nonzero"/><path stroke="#cccccc" stroke-width="1.0" stroke-linecap="butt" d="M447.5 45.5L447.5 255.5" fill-rule="nonzero"/><path stroke="#cccccc" stroke-width="1.0" stroke-linecap="butt" d="M578.5 45.5L578.5 255.5" fill-rule="nonzero"/><path stroke="#cccccc" stroke-width="1.0" stroke-linecap="butt" d="M709.5 45.5L709.5 255.5" fill-rule="nonzero"/><path stroke="#333333" stroke-width="1.0" stroke-linecap="butt" d="M44.5 255.5L747.5 255.5" fill-rule="nonzero"/><path stroke="#cccccc" stroke-width="1.0" stroke-linecap="butt" d="M44.5 213.5L747.5 213.5" fill-rule="nonzero"/><path stroke="#cccccc" stroke-width="1.0" stroke-linecap="butt" d="M44.5 171.5L747.5 171.5" fill-rule="nonzero"/><path stroke="#cccccc" stroke-width="1.0" stroke-linecap="butt" d="M44.5 129.5L747.5 129.5" fill-rule="nonzero"/><path stroke="#cccccc" stroke-width="1.0" stroke-linecap="butt" d="M44.5 87.5L747.5 87.5" fill-rule="nonzero"/><path stroke="#cccccc" stroke-width="1.0" stroke-linecap="butt" d="M44.5 45.5L747.5 45.5" fill-rule="nonzero"/><clipPath id="id_0"><path d="M44.5 45.166668L747.5 45.166668L747.5 255.5L44.5 255.5L44.5 45.166668Z" clip-rule="nonzero"/></clipPath><path stroke="#4285f4" stroke-width="2.0" stroke-linecap="butt" clip-path="url(#id_0)" d="M54.223373 255.29886C54.223373 255.29886 54.647503 255.24394 54.85957 255.22539C55.071636 255.20683 57.289825 255.08202 58.504955 255.00839C59.72008 254.93477 69.86782 254.26985 75.54925 253.95746C81.23068 253.64508 117.823586 251.94678 138.96075 250.89404C160.09792 249.84131 271.06952 244.12163 337.12393 240.72842C403.1783 237.33522 714.9654 221.32735 720.6682 220.9987C726.37103 220.67007 737.7766 219.90694 737.7766 219.90694" fill-rule="nonzero"/><path stroke="#ea4335" stroke-width="2.0" stroke-linecap="butt" clip-path="url(#id_0)" d="M54.223373 255.3079C54.223373 255.3079 54.647503 255.25887 54.85957 255.22806C55.071636 255.19724 57.289825 254.775 58.504955 254.62631C59.72008 254.47762 69.86782 253.79184 75.54925 253.2687C81.23068 252.74556 117.823586 248.84177 138.96075 246.64174C160.09792 244.44173 271.06952 232.90103 337.12393 226.10034C403.1783 219.29965 714.9654 187.48763 720.6682 186.88188C726.37103 186.27612 737.7766 184.99675 737.7766 184.99675" fill-rule="nonzero"/><path stroke="#fbbc04" stroke-width="2.0" stroke-linecap="butt" clip-path="url(#id_0)" d="M54.223373 255.24937C54.223373 255.24937 54.647503 255.06747 54.85957 254.99065C55.071636 254.91383 57.289825 254.20667 58.504955 253.83209C59.72008 253.4575 69.86782 250.4904 75.54925 248.7408C81.23068 246.9912 117.823586 235.21379 138.96075 228.6272C160.09792 222.0406 271.06952 188.04172 337.12393 167.9829C403.1783 147.92407 714.9654 54.137814 720.6682 52.416973C726.37103 50.696136 737.7766 47.24688 737.7766 47.24688" fill-rule="nonzero"/><path fill="#4285f4" clip-path="url(#id_0)" d="M60.223373 255.29886C60.223373 258.61258 57.537083 261.29886 54.223373 261.29886C50.909668 261.29886 48.223373 258.61258 48.223373 255.29886C48.223373 251.98515 50.909668 249.29886 54.223373 249.29886C57.537083 249.29886 60.223373 251.98515 60.223373 255.29886Z" fill-rule="nonzero"/><path fill="#4285f4" clip-path="url(#id_0)" d="M60.85957 255.22539C60.85957 258.5391 58.17328 261.2254 54.85957 261.2254C51.54586 261.2254 48.85957 258.5391 48.85957 255.22539C48.85957 251.91168 51.54586 249.22539 54.85957 249.22539C58.17328 249.22539 60.85957 251.91168 60.85957 255.22539Z" fill-rule="nonzero"/><path fill="#4285f4" clip-path="url(#id_0)" d="M64.50495 255.00839C64.50495 258.3221 61.81866 261.0084 58.504955 261.0084C55.191246 261.0084 52.504955 258.3221 52.504955 255.00839C52.504955 251.69469 55.191246 249.00839 58.504955 249.00839C61.81866 249.00839 64.50495 251.69469 64.50495 255.00839Z" fill-rule="nonzero"/><path fill="#4285f4" clip-path="url(#id_0)" d="M81.54925 253.95746C81.54925 257.27118 78.86296 259.95746 75.54925 259.95746C72.23554 259.95746 69.54925 257.27118 69.54925 253.95746C69.54925 250.64375 72.23554 247.95746 75.54925 247.95746C78.86296 247.95746 81.54925 250.64375 81.54925 253.95746Z" fill-rule="nonzero"/><path fill="#4285f4" clip-path="url(#id_0)" d="M144.96075 250.89404C144.96075 254.20775 142.27446 256.89404 138.96075 256.89404C135.64705 256.89404 132.96075 254.20775 132.96075 250.89404C132.96075 247.58034 135.64705 244.89404 138.96075 244.89404C142.27446 244.89404 144.96075 247.58034 144.96075 250.89404Z" fill-rule="nonzero"/><path fill="#4285f4" clip-path="url(#id_0)" d="M343.12393 240.72842C343.12393 244.04213 340.43762 246.72842 337.12393 246.72842C333.8102 246.72842 331.12393 244.04213 331.12393 240.72842C331.12393 237.41472 333.8102 234.72842 337.12393 234.72842C340.43762 234.72842 343.12393 237.41472 343.12393 240.72842Z" fill-rule="nonzero"/><path fill="#4285f4" clip-path="url(#id_0)" d="M726.6682 220.9987C726.6682 224.31242 723.98193 226.9987 720.6682 226.9987C717.3545 226.9987 714.6682 224.31242 714.6682 220.9987C714.6682 217.685 717.3545 214.9987 720.6682 214.9987C723.98193 214.9987 726.6682 217.685 726.6682 220.9987Z" fill-rule="nonzero"/><path fill="#4285f4" clip-path="url(#id_0)" d="M743.7766 219.90694C743.7766 223.22066 741.09033 225.90694 737.7766 225.90694C734.4629 225.90694 731.7766 223.22066 731.7766 219.90694C731.7766 216.59323 734.4629 213.90694 737.7766 213.90694C741.09033 213.90694 743.7766 216.59323 743.7766 219.90694Z" fill-rule="nonzero"/><path fill="#ea4335" clip-path="url(#id_0)" d="M60.223373 255.3079C60.223373 258.6216 57.537083 261.3079 54.223373 261.3079C50.909668 261.3079 48.223373 258.6216 48.223373 255.3079C48.223373 251.9942 50.909668 249.3079 54.223373 249.3079C57.537083 249.3079 60.223373 251.9942 60.223373 255.3079Z" fill-rule="nonzero"/><path fill="#ea4335" clip-path="url(#id_0)" d="M60.85957 255.22806C60.85957 258.54175 58.17328 261.22806 54.85957 261.22806C51.54586 261.22806 48.85957 258.54175 48.85957 255.22806C48.85957 251.91435 51.54586 249.22806 54.85957 249.22806C58.17328 249.22806 60.85957 251.91435 60.85957 255.22806Z" fill-rule="nonzero"/><path fill="#ea4335" clip-path="url(#id_0)" d="M64.50495 254.62631C64.50495 257.94 61.81866 260.6263 58.504955 260.6263C55.191246 260.6263 52.504955 257.94 52.504955 254.62631C52.504955 251.31259 55.191246 248.62631 58.504955 248.62631C61.81866 248.62631 64.50495 251.31259 64.50495 254.62631Z" fill-rule="nonzero"/><path fill="#ea4335" clip-path="url(#id_0)" d="M81.54925 253.2687C81.54925 256.5824 78.86296 259.2687 75.54925 259.2687C72.23554 259.2687 69.54925 256.5824 69.54925 253.2687C69.54925 249.955 72.23554 247.2687 75.54925 247.2687C78.86296 247.2687 81.54925 249.955 81.54925 253.2687Z" fill-rule="nonzero"/><path fill="#ea4335" clip-path="url(#id_0)" d="M144.96075 246.64174C144.96075 249.95544 142.27446 252.64174 138.96075 252.64174C135.64705 252.64174 132.96075 249.95544 132.96075 246.64174C132.96075 243.32803 135.64705 240.64174 138.96075 240.64174C142.27446 240.64174 144.96075 243.32803 144.96075 246.64174Z" fill-rule="nonzero"/><path fill="#ea4335" clip-path="url(#id_0)" d="M343.12393 226.10034C343.12393 229.41405 340.43762 232.10034 337.12393 232.10034C333.8102 232.10034 331.12393 229.41405 331.12393 226.10034C331.12393 222.78664 333.8102 220.10034 337.12393 220.10034C340.43762 220.10034 343.12393 222.78664 343.12393 226.10034Z" fill-rule="nonzero"/><path fill="#ea4335" clip-path="url(#id_0)" d="M726.6682 186.88188C726.6682 190.19559 723.98193 192.88188 720.6682 192.88188C717.3545 192.88188 714.6682 190.19559 714.6682 186.88188C714.6682 183.56818 717.3545 180.88188 720.6682 180.88188C723.98193 180.88188 726.6682 183.56818 726.6682 186.88188Z" fill-rule="nonzero"/><path fill="#ea4335" clip-path="url(#id_0)" d="M743.7766 184.99675C743.7766 188.31047 741.09033 190.99675 737.7766 190.99675C734.4629 190.99675 731.7766 188.31047 731.7766 184.99675C731.7766 181.68304 734.4629 178.99675 737.7766 178.99675C741.09033 178.99675 743.7766 181.68304 743.7766 184.99675Z" fill-rule="nonzero"/><path fill="#fbbc04" clip-path="url(#id_0)" d="M60.223373 255.24937C60.223373 258.56308 57.537083 261.2494 54.223373 261.2494C50.909668 261.2494 48.223373 258.56308 48.223373 255.24937C48.223373 251.93567 50.909668 249.24937 54.223373 249.24937C57.537083 249.24937 60.223373 251.93567 60.223373 255.24937Z" fill-rule="nonzero"/><path fill="#fbbc04" clip-path="url(#id_0)" d="M60.85957 254.99065C60.85957 258.30435 58.17328 260.99066 54.85957 260.99066C51.54586 260.99066 48.85957 258.30435 48.85957 254.99065C48.85957 251.67694 51.54586 248.99065 54.85957 248.99065C58.17328 248.99065 60.85957 251.67694 60.85957 254.99065Z" fill-rule="nonzero"/><path fill="#fbbc04" clip-path="url(#id_0)" d="M64.50495 253.83209C64.50495 257.14578 61.81866 259.8321 58.504955 259.8321C55.191246 259.8321 52.504955 257.14578 52.504955 253.83209C52.504955 250.51837 55.191246 247.83209 58.504955 247.83209C61.81866 247.83209 64.50495 250.51837 64.50495 253.83209Z" fill-rule="nonzero"/><path fill="#fbbc04" clip-path="url(#id_0)" d="M81.54925 248.7408C81.54925 252.0545 78.86296 254.7408 75.54925 254.7408C72.23554 254.7408 69.54925 252.0545 69.54925 248.7408C69.54925 245.4271 72.23554 242.7408 75.54925 242.7408C78.86296 242.7408 81.54925 245.4271 81.54925 248.7408Z" fill-rule="nonzero"/><path fill="#fbbc04" clip-path="url(#id_0)" d="M144.96075 228.6272C144.96075 231.9409 142.27446 234.6272 138.96075 234.6272C135.64705 234.6272 132.96075 231.9409 132.96075 228.6272C132.96075 225.31349 135.64705 222.6272 138.96075 222.6272C142.27446 222.6272 144.96075 225.31349 144.96075 228.6272Z" fill-rule="nonzero"/><path fill="#fbbc04" clip-path="url(#id_0)" d="M343.12393 167.9829C343.12393 171.2966 340.43762 173.9829 337.12393 173.9829C333.8102 173.9829 331.12393 171.2966 331.12393 167.9829C331.12393 164.66919 333.8102 161.9829 337.12393 161.9829C340.43762 161.9829 343.12393 164.66919 343.12393 167.9829Z" fill-rule="nonzero"/><path fill="#fbbc04" clip-path="url(#id_0)" d="M726.6682 52.416973C726.6682 55.730682 723.98193 58.416973 720.6682 58.416973C717.3545 58.416973 714.6682 55.730682 714.6682 52.416973C714.6682 49.103268 717.3545 46.416973 720.6682 46.416973C723.98193 46.416973 726.6682 49.103268 726.6682 52.416973Z" fill-rule="nonzero"/><path fill="#fbbc04" clip-path="url(#id_0)" d="M743.7766 47.24688C743.7766 50.56059 741.09033 53.24688 737.7766 53.24688C734.4629 53.24688 731.7766 50.56059 731.7766 47.24688C731.7766 43.93317 734.4629 41.24688 737.7766 41.24688C741.09033 41.24688 743.7766 43.93317 743.7766 47.24688Z" fill-rule="nonzero"/><path fill="#000000" d="M15.0 255.26562Q15.0 253.73438 15.3125 252.8125Q15.625 251.875 16.234375 251.375Q16.859375 250.875 17.796875 250.875Q18.484375 250.875 19.0 251.15625Q19.53125 251.4375 19.875 251.96875Q20.21875 252.48438 20.40625 253.23438Q20.59375 253.98438 20.59375 255.26562Q20.59375 256.78125 20.28125 257.70312Q19.984375 258.625 19.359375 259.14062Q18.75 259.64062 17.796875 259.64062Q16.5625 259.64062 15.84375 258.75Q15.0 257.6875 15.0 255.26562ZM16.078125 255.26562Q16.078125 257.375 16.578125 258.07812Q17.078125 258.78125 17.796875 258.78125Q18.53125 258.78125 19.015625 258.07812Q19.515625 257.375 19.515625 255.26562Q19.515625 253.14062 19.015625 252.45312Q18.53125 251.75 17.78125 251.75Q17.0625 251.75 16.625 252.35938Q16.078125 253.14062 16.078125 255.26562ZM22.59375 259.5L22.59375 258.29688L23.796875 258.29688L23.796875 259.5L22.59375 259.5ZM25.0 255.26562Q25.0 253.73438 25.3125 252.8125Q25.625 251.875 26.234375 251.375Q26.859375 250.875 27.796875 250.875Q28.484375 250.875 29.0 251.15625Q29.53125 251.4375 29.875 251.96875Q30.21875 252.48438 30.40625 253.23438Q30.59375 253.98438 30.59375 255.26562Q30.59375 256.78125 30.28125 257.70312Q29.984375 258.625 29.359375 259.14062Q28.75 259.64062 27.796875 259.64062Q26.5625 259.64062 25.84375 258.75Q25.0 257.6875 25.0 255.26562ZM26.078125 255.26562Q26.078125 257.375 26.578125 258.07812Q27.078125 258.78125 27.796875 258.78125Q28.53125 258.78125 29.015625 258.07812Q29.515625 257.375 29.515625 255.26562Q29.515625 253.14062 29.015625 252.45312Q28.53125 251.75 27.78125 251.75Q27.0625 251.75 26.625 252.35938Q26.078125 253.14062 26.078125 255.26562ZM32.0 255.26562Q32.0 253.73438 32.3125 252.8125Q32.625 251.875 33.234375 251.375Q33.859375 250.875 34.796875 250.875Q35.484375 250.875 36.0 251.15625Q36.53125 251.4375 36.875 251.96875Q37.21875 252.48438 37.40625 253.23438Q37.59375 253.98438 37.59375 255.26562Q37.59375 256.78125 37.28125 257.70312Q36.984375 258.625 36.359375 259.14062Q35.75 259.64062 34.796875 259.64062Q33.5625 259.64062 32.84375 258.75Q32.0 257.6875 32.0 255.26562ZM33.078125 255.26562Q33.078125 257.375 33.578125 258.07812Q34.078125 258.78125 34.796875 258.78125Q35.53125 258.78125 36.015625 258.07812Q36.515625 257.375 36.515625 255.26562Q36.515625 253.14062 36.015625 252.45312Q35.53125 251.75 34.78125 251.75Q34.0625 251.75 33.625 252.35938Q33.078125 253.14062 33.078125 255.26562Z" fill-rule="nonzero"/><path fill="#000000" d="M15.0 213.19896Q15.0 211.66771 15.3125 210.74583Q15.625 209.80833 16.234375 209.30833Q16.859375 208.80833 17.796875 208.80833Q18.484375 208.80833 19.0 209.08958Q19.53125 209.37083 19.875 209.90208Q20.21875 210.41771 20.40625 211.16771Q20.59375 211.91771 20.59375 213.19896Q20.59375 214.71458 20.28125 215.63646Q19.984375 216.55833 19.359375 217.07396Q18.75 217.57396 17.796875 217.57396Q16.5625 217.57396 15.84375 216.68333Q15.0 215.62083 15.0 213.19896ZM16.078125 213.19896Q16.078125 215.30833 16.578125 216.01146Q17.078125 216.71458 17.796875 216.71458Q18.53125 216.71458 19.015625 216.01146Q19.515625 215.30833 19.515625 213.19896Q19.515625 211.07396 19.015625 210.38646Q18.53125 209.68333 17.78125 209.68333Q17.0625 209.68333 16.625 210.29271Q16.078125 211.07396 16.078125 213.19896ZM22.59375 217.43333L22.59375 216.23021L23.796875 216.23021L23.796875 217.43333L22.59375 217.43333ZM25.0 213.19896Q25.0 211.66771 25.3125 210.74583Q25.625 209.80833 26.234375 209.30833Q26.859375 208.80833 27.796875 208.80833Q28.484375 208.80833 29.0 209.08958Q29.53125 209.37083 29.875 209.90208Q30.21875 210.41771 30.40625 211.16771Q30.59375 211.91771 30.59375 213.19896Q30.59375 214.71458 30.28125 215.63646Q29.984375 216.55833 29.359375 217.07396Q28.75 217.57396 27.796875 217.57396Q26.5625 217.57396 25.84375 216.68333Q25.0 215.62083 25.0 213.19896ZM26.078125 213.19896Q26.078125 215.30833 26.578125 216.01146Q27.078125 216.71458 27.796875 216.71458Q28.53125 216.71458 29.015625 216.01146Q29.515625 215.30833 29.515625 213.19896Q29.515625 211.07396 29.015625 210.38646Q28.53125 209.68333 27.78125 209.68333Q27.0625 209.68333 26.625 210.29271Q26.078125 211.07396 26.078125 213.19896ZM32.0 215.18333L33.109375 215.08958Q33.234375 215.90208 33.671875 216.30833Q34.125 216.71458 34.765625 216.71458Q35.515625 216.71458 36.046875 216.13646Q36.578125 215.55833 36.578125 214.62083Q36.578125 213.71458 36.0625 213.19896Q35.5625 212.66771 34.734375 212.66771Q34.234375 212.66771 33.8125 212.90208Q33.40625 213.13646 33.171875 213.49583L32.1875 213.37083L33.015625 208.96458L37.296875 208.96458L37.296875 209.96458L33.859375 209.96458L33.40625 212.27708Q34.171875 211.73021 35.015625 211.73021Q36.140625 211.73021 36.90625 212.51146Q37.6875 213.29271 37.6875 214.52708Q37.6875 215.68333 37.015625 216.54271Q36.1875 217.57396 34.765625 217.57396Q33.59375 217.57396 32.84375 216.91771Q32.109375 216.26146 32.0 215.18333Z" fill-rule="nonzero"/><path fill="#000000" d="M15.0 171.1323Q15.0 169.60104 15.3125 168.67917Q15.625 167.74167 16.234375 167.24167Q16.859375 166.74167 17.796875 166.74167Q18.484375 166.74167 19.0 167.02292Q19.53125 167.30417 19.875 167.83542Q20.21875 168.35104 20.40625 169.10104Q20.59375 169.85104 20.59375 171.1323Q20.59375 172.64792 20.28125 173.5698Q19.984375 174.49167 19.359375 175.0073Q18.75 175.5073 17.796875 175.5073Q16.5625 175.5073 15.84375 174.61667Q15.0 173.55417 15.0 171.1323ZM16.078125 171.1323Q16.078125 173.24167 16.578125 173.9448Q17.078125 174.64792 17.796875 174.64792Q18.53125 174.64792 19.015625 173.9448Q19.515625 173.24167 19.515625 171.1323Q19.515625 169.0073 19.015625 168.3198Q18.53125 167.61667 17.78125 167.61667Q17.0625 167.61667 16.625 168.22604Q16.078125 169.0073 16.078125 171.1323ZM22.59375 175.36667L22.59375 174.16354L23.796875 174.16354L23.796875 175.36667L22.59375 175.36667ZM28.96875 175.36667L27.921875 175.36667L27.921875 168.64792Q27.53125 169.0073 26.90625 169.3823Q26.296875 169.74167 25.8125 169.91354L25.8125 168.89792Q26.6875 168.47604 27.34375 167.89792Q28.015625 167.30417 28.296875 166.74167L28.96875 166.74167L28.96875 175.36667ZM32.0 171.1323Q32.0 169.60104 32.3125 168.67917Q32.625 167.74167 33.234375 167.24167Q33.859375 166.74167 34.796875 166.74167Q35.484375 166.74167 36.0 167.02292Q36.53125 167.30417 36.875 167.83542Q37.21875 168.35104 37.40625 169.10104Q37.59375 169.85104 37.59375 171.1323Q37.59375 172.64792 37.28125 173.5698Q36.984375 174.49167 36.359375 175.0073Q35.75 175.5073 34.796875 175.5073Q33.5625 175.5073 32.84375 174.61667Q32.0 173.55417 32.0 171.1323ZM33.078125 171.1323Q33.078125 173.24167 33.578125 173.9448Q34.078125 174.64792 34.796875 174.64792Q35.53125 174.64792 36.015625 173.9448Q36.515625 173.24167 36.515625 171.1323Q36.515625 169.0073 36.015625 168.3198Q35.53125 167.61667 34.78125 167.61667Q34.0625 167.61667 33.625 168.22604Q33.078125 169.0073 33.078125 171.1323Z" fill-rule="nonzero"/><path fill="#000000" d="M15.0 129.06563Q15.0 127.53438 15.3125 126.6125Q15.625 125.675 16.234375 125.175Q16.859375 124.675 17.796875 124.675Q18.484375 124.675 19.0 124.95625Q19.53125 125.2375 19.875 125.76875Q20.21875 126.28438 20.40625 127.03438Q20.59375 127.78438 20.59375 129.06563Q20.59375 130.58125 20.28125 131.50313Q19.984375 132.425 19.359375 132.94063Q18.75 133.44063 17.796875 133.44063Q16.5625 133.44063 15.84375 132.55Q15.0 131.4875 15.0 129.06563ZM16.078125 129.06563Q16.078125 131.175 16.578125 131.87813Q17.078125 132.58125 17.796875 132.58125Q18.53125 132.58125 19.015625 131.87813Q19.515625 131.175 19.515625 129.06563Q19.515625 126.94063 19.015625 126.25313Q18.53125 125.55 17.78125 125.55Q17.0625 125.55 16.625 126.15938Q16.078125 126.94063 16.078125 129.06563ZM22.59375 133.3L22.59375 132.09688L23.796875 132.09688L23.796875 133.3L22.59375 133.3ZM28.96875 133.3L27.921875 133.3L27.921875 126.58125Q27.53125 126.94063 26.90625 127.31563Q26.296875 127.675 25.8125 127.84688L25.8125 126.83125Q26.6875 126.40938 27.34375 125.83125Q28.015625 125.2375 28.296875 124.675L28.96875 124.675L28.96875 133.3ZM32.0 131.05L33.109375 130.95625Q33.234375 131.76875 33.671875 132.175Q34.125 132.58125 34.765625 132.58125Q35.515625 132.58125 36.046875 132.00313Q36.578125 131.425 36.578125 130.4875Q36.578125 129.58125 36.0625 129.06563Q35.5625 128.53438 34.734375 128.53438Q34.234375 128.53438 33.8125 128.76875Q33.40625 129.00313 33.171875 129.3625L32.1875 129.2375L33.015625 124.83125L37.296875 124.83125L37.296875 125.83125L33.859375 125.83125L33.40625 128.14375Q34.171875 127.59688 35.015625 127.59688Q36.140625 127.59688 36.90625 128.37813Q37.6875 129.15938 37.6875 130.39375Q37.6875 131.55 37.015625 132.40938Q36.1875 133.44063 34.765625 133.44063Q33.59375 133.44063 32.84375 132.78438Q32.109375 132.12813 32.0 131.05Z" fill-rule="nonzero"/><path fill="#000000" d="M15.0 86.998955Q15.0 85.467705 15.3125 84.54583Q15.625 83.60833 16.234375 83.10833Q16.859375 82.60833 17.796875 82.60833Q18.484375 82.60833 19.0 82.88958Q19.53125 83.17083 19.875 83.70208Q20.21875 84.217705 20.40625 84.967705Q20.59375 85.717705 20.59375 86.998955Q20.59375 88.51458 20.28125 89.436455Q19.984375 90.35833 19.359375 90.873955Q18.75 91.373955 17.796875 91.373955Q16.5625 91.373955 15.84375 90.48333Q15.0 89.42083 15.0 86.998955ZM16.078125 86.998955Q16.078125 89.10833 16.578125 89.811455Q17.078125 90.51458 17.796875 90.51458Q18.53125 90.51458 19.015625 89.811455Q19.515625 89.10833 19.515625 86.998955Q19.515625 84.873955 19.015625 84.186455Q18.53125 83.48333 17.78125 83.48333Q17.0625 83.48333 16.625 84.092705Q16.078125 84.873955 16.078125 86.998955ZM22.59375 91.23333L22.59375 90.030205L23.796875 90.030205L23.796875 91.23333L22.59375 91.23333ZM30.546875 90.217705L30.546875 91.23333L24.859375 91.23333Q24.859375 90.85833 24.984375 90.498955Q25.203125 89.92083 25.671875 89.35833Q26.15625 88.79583 27.0625 88.061455Q28.46875 86.905205 28.953125 86.23333Q29.453125 85.561455 29.453125 84.967705Q29.453125 84.342705 29.0 83.92083Q28.546875 83.48333 27.828125 83.48333Q27.0625 83.48333 26.609375 83.936455Q26.15625 84.38958 26.140625 85.20208L25.0625 85.092705Q25.171875 83.873955 25.890625 83.248955Q26.625 82.60833 27.859375 82.60833Q29.09375 82.60833 29.8125 83.29583Q30.53125 83.98333 30.53125 84.998955Q30.53125 85.51458 30.3125 86.01458Q30.109375 86.498955 29.609375 87.061455Q29.125 87.60833 28.0 88.561455Q27.046875 89.35833 26.765625 89.655205Q26.5 89.936455 26.328125 90.217705L30.546875 90.217705ZM32.0 86.998955Q32.0 85.467705 32.3125 84.54583Q32.625 83.60833 33.234375 83.10833Q33.859375 82.60833 34.796875 82.60833Q35.484375 82.60833 36.0 82.88958Q36.53125 83.17083 36.875 83.70208Q37.21875 84.217705 37.40625 84.967705Q37.59375 85.717705 37.59375 86.998955Q37.59375 88.51458 37.28125 89.436455Q36.984375 90.35833 36.359375 90.873955Q35.75 91.373955 34.796875 91.373955Q33.5625 91.373955 32.84375 90.48333Q32.0 89.42083 32.0 86.998955ZM33.078125 86.998955Q33.078125 89.10833 33.578125 89.811455Q34.078125 90.51458 34.796875 90.51458Q35.53125 90.51458 36.015625 89.811455Q36.515625 89.10833 36.515625 86.998955Q36.515625 84.873955 36.015625 84.186455Q35.53125 83.48333 34.78125 83.48333Q34.0625 83.48333 33.625 84.092705Q33.078125 84.873955 33.078125 86.998955Z" fill-rule="nonzero"/><path fill="#000000" d="M15.0 44.932293Q15.0 43.401043 15.3125 42.479168Q15.625 41.541668 16.234375 41.041668Q16.859375 40.541668 17.796875 40.541668Q18.484375 40.541668 19.0 40.822918Q19.53125 41.104168 19.875 41.635418Q20.21875 42.151043 20.40625 42.901043Q20.59375 43.651043 20.59375 44.932293Q20.59375 46.447918 20.28125 47.369793Q19.984375 48.291668 19.359375 48.807293Q18.75 49.307293 17.796875 49.307293Q16.5625 49.307293 15.84375 48.416668Q15.0 47.354168 15.0 44.932293ZM16.078125 44.932293Q16.078125 47.041668 16.578125 47.744793Q17.078125 48.447918 17.796875 48.447918Q18.53125 48.447918 19.015625 47.744793Q19.515625 47.041668 19.515625 44.932293Q19.515625 42.807293 19.015625 42.119793Q18.53125 41.416668 17.78125 41.416668Q17.0625 41.416668 16.625 42.026043Q16.078125 42.807293 16.078125 44.932293ZM22.59375 49.166668L22.59375 47.963543L23.796875 47.963543L23.796875 49.166668L22.59375 49.166668ZM30.546875 48.151043L30.546875 49.166668L24.859375 49.166668Q24.859375 48.791668 24.984375 48.432293Q25.203125 47.854168 25.671875 47.291668Q26.15625 46.729168 27.0625 45.994793Q28.46875 44.838543 28.953125 44.166668Q29.453125 43.494793 29.453125 42.901043Q29.453125 42.276043 29.0 41.854168Q28.546875 41.416668 27.828125 41.416668Q27.0625 41.416668 26.609375 41.869793Q26.15625 42.322918 26.140625 43.135418L25.0625 43.026043Q25.171875 41.807293 25.890625 41.182293Q26.625 40.541668 27.859375 40.541668Q29.09375 40.541668 29.8125 41.229168Q30.53125 41.916668 30.53125 42.932293Q30.53125 43.447918 30.3125 43.947918Q30.109375 44.432293 29.609375 44.994793Q29.125 45.541668 28.0 46.494793Q27.046875 47.291668 26.765625 47.588543Q26.5 47.869793 26.328125 48.151043L30.546875 48.151043ZM32.0 46.916668L33.109375 46.822918Q33.234375 47.635418 33.671875 48.041668Q34.125 48.447918 34.765625 48.447918Q35.515625 48.447918 36.046875 47.869793Q36.578125 47.291668 36.578125 46.354168Q36.578125 45.447918 36.0625 44.932293Q35.5625 44.401043 34.734375 44.401043Q34.234375 44.401043 33.8125 44.635418Q33.40625 44.869793 33.171875 45.229168L32.1875 45.104168L33.015625 40.697918L37.296875 40.697918L37.296875 41.697918L33.859375 41.697918L33.40625 44.010418Q34.171875 43.463543 35.015625 43.463543Q36.140625 43.463543 36.90625 44.244793Q37.6875 45.026043 37.6875 46.260418Q37.6875 47.416668 37.015625 48.276043Q36.1875 49.307293 34.765625 49.307293Q33.59375 49.307293 32.84375 48.651043Q32.109375 47.994793 32.0 46.916668Z" fill-rule="nonzero"/><path fill="#000000" d="M51.08474 268.26562Q51.08474 266.73438 51.39724 265.8125Q51.70974 264.875 52.319115 264.375Q52.944115 263.875 53.881615 263.875Q54.569115 263.875 55.08474 264.15625Q55.61599 264.4375 55.95974 264.96875Q56.30349 265.48438 56.49099 266.23438Q56.67849 266.98438 56.67849 268.26562Q56.67849 269.78125 56.36599 270.70312Q56.069115 271.625 55.444115 272.14062Q54.83474 272.64062 53.881615 272.64062Q52.64724 272.64062 51.92849 271.75Q51.08474 270.6875 51.08474 268.26562ZM52.162865 268.26562Q52.162865 270.375 52.662865 271.07812Q53.162865 271.78125 53.881615 271.78125Q54.61599 271.78125 55.100365 271.07812Q55.600365 270.375 55.600365 268.26562Q55.600365 266.14062 55.100365 265.45312Q54.61599 264.75 53.86599 264.75Q53.14724 264.75 52.70974 265.35938Q52.162865 266.14062 52.162865 268.26562Z" fill-rule="nonzero"/><path fill="#000000" d="M161.67627 272.5L160.6294 272.5L160.6294 265.78125Q160.23877 266.14062 159.61377 266.51562Q159.0044 266.875 158.52002 267.04688L158.52002 266.03125Q159.39502 265.60938 160.05127 265.03125Q160.72314 264.4375 161.0044 263.875L161.67627 263.875L161.67627 272.5ZM164.70752 268.26562Q164.70752 266.73438 165.02002 265.8125Q165.33252 264.875 165.9419 264.375Q166.5669 263.875 167.5044 263.875Q168.1919 263.875 168.70752 264.15625Q169.23877 264.4375 169.58252 264.96875Q169.92627 265.48438 170.11377 266.23438Q170.30127 266.98438 170.30127 268.26562Q170.30127 269.78125 169.98877 270.70312Q169.6919 271.625 169.0669 272.14062Q168.45752 272.64062 167.5044 272.64062Q166.27002 272.64062 165.55127 271.75Q164.70752 270.6875 164.70752 268.26562ZM165.78564 268.26562Q165.78564 270.375 166.28564 271.07812Q166.78564 271.78125 167.5044 271.78125Q168.23877 271.78125 168.72314 271.07812Q169.22314 270.375 169.22314 268.26562Q169.22314 266.14062 168.72314 265.45312Q168.23877 264.75 167.48877 264.75Q166.77002 264.75 166.33252 265.35938Q165.78564 266.14062 165.78564 268.26562ZM171.70752 268.26562Q171.70752 266.73438 172.02002 265.8125Q172.33252 264.875 172.9419 264.375Q173.5669 263.875 174.5044 263.875Q175.1919 263.875 175.70752 264.15625Q176.23877 264.4375 176.58252 264.96875Q176.92627 265.48438 177.11377 266.23438Q177.30127 266.98438 177.30127 268.26562Q177.30127 269.78125 176.98877 270.70312Q176.6919 271.625 176.0669 272.14062Q175.45752 272.64062 174.5044 272.64062Q173.27002 272.64062 172.55127 271.75Q171.70752 270.6875 171.70752 268.26562ZM172.78564 268.26562Q172.78564 270.375 173.28564 271.07812Q173.78564 271.78125 174.5044 271.78125Q175.23877 271.78125 175.72314 271.07812Q176.22314 270.375 176.22314 268.26562Q176.22314 266.14062 175.72314 265.45312Q175.23877 264.75 174.48877 264.75Q173.77002 264.75 173.33252 265.35938Q172.78564 266.14062 172.78564 268.26562ZM178.70752 268.26562Q178.70752 266.73438 179.02002 265.8125Q179.33252 264.875 179.9419 264.375Q180.5669 263.875 181.5044 263.875Q182.1919 263.875 182.70752 264.15625Q183.23877 264.4375 183.58252 264.96875Q183.92627 265.48438 184.11377 266.23438Q184.30127 266.98438 184.30127 268.26562Q184.30127 269.78125 183.98877 270.70312Q183.6919 271.625 183.0669 272.14062Q182.45752 272.64062 181.5044 272.64062Q180.27002 272.64062 179.55127 271.75Q178.70752 270.6875 178.70752 268.26562ZM179.78564 268.26562Q179.78564 270.375 180.28564 271.07812Q180.78564 271.78125 181.5044 271.78125Q182.23877 271.78125 182.72314 271.07812Q183.22314 270.375 183.22314 268.26562Q183.22314 266.14062 182.72314 265.45312Q182.23877 264.75 181.48877 264.75Q180.77002 264.75 180.33252 265.35938Q179.78564 266.14062 179.78564 268.26562ZM185.70752 268.26562Q185.70752 266.73438 186.02002 265.8125Q186.33252 264.875 186.9419 264.375Q187.5669 263.875 188.5044 263.875Q189.1919 263.875 189.70752 264.15625Q190.23877 264.4375 190.58252 264.96875Q190.92627 265.48438 191.11377 266.23438Q191.30127 266.98438 191.30127 268.26562Q191.30127 269.78125 190.98877 270.70312Q190.6919 271.625 190.0669 272.14062Q189.45752 272.64062 188.5044 272.64062Q187.27002 272.64062 186.55127 271.75Q185.70752 270.6875 185.70752 268.26562ZM186.78564 268.26562Q186.78564 270.375 187.28564 271.07812Q187.78564 271.78125 188.5044 271.78125Q189.23877 271.78125 189.72314 271.07812Q190.22314 270.375 190.22314 268.26562Q190.22314 266.14062 189.72314 265.45312Q189.23877 264.75 188.48877 264.75Q187.77002 264.75 187.33252 265.35938Q186.78564 266.14062 186.78564 268.26562ZM192.70752 268.26562Q192.70752 266.73438 193.02002 265.8125Q193.33252 264.875 193.9419 264.375Q194.5669 263.875 195.5044 263.875Q196.1919 263.875 196.70752 264.15625Q197.23877 264.4375 197.58252 264.96875Q197.92627 265.48438 198.11377 266.23438Q198.30127 266.98438 198.30127 268.26562Q198.30127 269.78125 197.98877 270.70312Q197.6919 271.625 197.0669 272.14062Q196.45752 272.64062 195.5044 272.64062Q194.27002 272.64062 193.55127 271.75Q192.70752 270.6875 192.70752 268.26562ZM193.78564 268.26562Q193.78564 270.375 194.28564 271.07812Q194.78564 271.78125 195.5044 271.78125Q196.23877 271.78125 196.72314 271.07812Q197.22314 270.375 197.22314 268.26562Q197.22314 266.14062 196.72314 265.45312Q196.23877 264.75 195.48877 264.75Q194.77002 264.75 194.33252 265.35938Q193.78564 266.14062 193.78564 268.26562ZM199.70752 268.26562Q199.70752 266.73438 200.02002 265.8125Q200.33252 264.875 200.9419 264.375Q201.5669 263.875 202.5044 263.875Q203.1919 263.875 203.70752 264.15625Q204.23877 264.4375 204.58252 264.96875Q204.92627 265.48438 205.11377 266.23438Q205.30127 266.98438 205.30127 268.26562Q205.30127 269.78125 204.98877 270.70312Q204.6919 271.625 204.0669 272.14062Q203.45752 272.64062 202.5044 272.64062Q201.27002 272.64062 200.55127 271.75Q199.70752 270.6875 199.70752 268.26562ZM200.78564 268.26562Q200.78564 270.375 201.28564 271.07812Q201.78564 271.78125 202.5044 271.78125Q203.23877 271.78125 203.72314 271.07812Q204.22314 270.375 204.22314 268.26562Q204.22314 266.14062 203.72314 265.45312Q203.23877 264.75 202.48877 264.75Q201.77002 264.75 201.33252 265.35938Q200.78564 266.14062 200.78564 268.26562ZM206.70752 268.26562Q206.70752 266.73438 207.02002 265.8125Q207.33252 264.875 207.9419 264.375Q208.5669 263.875 209.5044 263.875Q210.1919 263.875 210.70752 264.15625Q211.23877 264.4375 211.58252 264.96875Q211.92627 265.48438 212.11377 266.23438Q212.30127 266.98438 212.30127 268.26562Q212.30127 269.78125 211.98877 270.70312Q211.6919 271.625 211.0669 272.14062Q210.45752 272.64062 209.5044 272.64062Q208.27002 272.64062 207.55127 271.75Q206.70752 270.6875 206.70752 268.26562ZM207.78564 268.26562Q207.78564 270.375 208.28564 271.07812Q208.78564 271.78125 209.5044 271.78125Q210.23877 271.78125 210.72314 271.07812Q211.22314 270.375 211.22314 268.26562Q211.22314 266.14062 210.72314 265.45312Q210.23877 264.75 209.48877 264.75Q208.77002 264.75 208.33252 265.35938Q207.78564 266.14062 207.78564 268.26562Z" fill-rule="nonzero"/><path fill="#000000" d="M294.3772 271.48438L294.3772 272.5L288.6897 272.5Q288.6897 272.125 288.8147 271.76562Q289.03345 271.1875 289.5022 270.625Q289.98657 270.0625 290.89282 269.32812Q292.29907 268.17188 292.78345 267.5Q293.28345 266.82812 293.28345 266.23438Q293.28345 265.60938 292.83032 265.1875Q292.3772 264.75 291.65845 264.75Q290.89282 264.75 290.4397 265.20312Q289.98657 265.65625 289.97095 266.46875L288.89282 266.35938Q289.0022 265.14062 289.72095 264.51562Q290.45532 263.875 291.6897 263.875Q292.92407 263.875 293.64282 264.5625Q294.36157 265.25 294.36157 266.26562Q294.36157 266.78125 294.14282 267.28125Q293.9397 267.76562 293.4397 268.32812Q292.95532 268.875 291.83032 269.82812Q290.8772 270.625 290.59595 270.92188Q290.33032 271.20312 290.15845 271.48438L294.3772 271.48438ZM295.83032 268.26562Q295.83032 266.73438 296.14282 265.8125Q296.45532 264.875 297.0647 264.375Q297.6897 263.875 298.6272 263.875Q299.3147 263.875 299.83032 264.15625Q300.36157 264.4375 300.70532 264.96875Q301.04907 265.48438 301.23657 266.23438Q301.42407 266.98438 301.42407 268.26562Q301.42407 269.78125 301.11157 270.70312Q300.8147 271.625 300.1897 272.14062Q299.58032 272.64062 298.6272 272.64062Q297.39282 272.64062 296.67407 271.75Q295.83032 270.6875 295.83032 268.26562ZM296.90845 268.26562Q296.90845 270.375 297.40845 271.07812Q297.90845 271.78125 298.6272 271.78125Q299.36157 271.78125 299.84595 271.07812Q300.34595 270.375 300.34595 268.26562Q300.34595 266.14062 299.84595 265.45312Q299.36157 264.75 298.61157 264.75Q297.89282 264.75 297.45532 265.35938Q296.90845 266.14062 296.90845 268.26562ZM302.83032 268.26562Q302.83032 266.73438 303.14282 265.8125Q303.45532 264.875 304.0647 264.375Q304.6897 263.875 305.6272 263.875Q306.3147 263.875 306.83032 264.15625Q307.36157 264.4375 307.70532 264.96875Q308.04907 265.48438 308.23657 266.23438Q308.42407 266.98438 308.42407 268.26562Q308.42407 269.78125 308.11157 270.70312Q307.8147 271.625 307.1897 272.14062Q306.58032 272.64062 305.6272 272.64062Q304.39282 272.64062 303.67407 271.75Q302.83032 270.6875 302.83032 268.26562ZM303.90845 268.26562Q303.90845 270.375 304.40845 271.07812Q304.90845 271.78125 305.6272 271.78125Q306.36157 271.78125 306.84595 271.07812Q307.34595 270.375 307.34595 268.26562Q307.34595 266.14062 306.84595 265.45312Q306.36157 264.75 305.61157 264.75Q304.89282 264.75 304.45532 265.35938Q303.90845 266.14062 303.90845 268.26562ZM309.83032 268.26562Q309.83032 266.73438 310.14282 265.8125Q310.45532 264.875 311.0647 264.375Q311.6897 263.875 312.6272 263.875Q313.3147 263.875 313.83032 264.15625Q314.36157 264.4375 314.70532 264.96875Q315.04907 265.48438 315.23657 266.23438Q315.42407 266.98438 315.42407 268.26562Q315.42407 269.78125 315.11157 270.70312Q314.8147 271.625 314.1897 272.14062Q313.58032 272.64062 312.6272 272.64062Q311.39282 272.64062 310.67407 271.75Q309.83032 270.6875 309.83032 268.26562ZM310.90845 268.26562Q310.90845 270.375 311.40845 271.07812Q311.90845 271.78125 312.6272 271.78125Q313.36157 271.78125 313.84595 271.07812Q314.34595 270.375 314.34595 268.26562Q314.34595 266.14062 313.84595 265.45312Q313.36157 264.75 312.61157 264.75Q311.89282 264.75 311.45532 265.35938Q310.90845 266.14062 310.90845 268.26562ZM316.83032 268.26562Q316.83032 266.73438 317.14282 265.8125Q317.45532 264.875 318.0647 264.375Q318.6897 263.875 319.6272 263.875Q320.3147 263.875 320.83032 264.15625Q321.36157 264.4375 321.70532 264.96875Q322.04907 265.48438 322.23657 266.23438Q322.42407 266.98438 322.42407 268.26562Q322.42407 269.78125 322.11157 270.70312Q321.8147 271.625 321.1897 272.14062Q320.58032 272.64062 319.6272 272.64062Q318.39282 272.64062 317.67407 271.75Q316.83032 270.6875 316.83032 268.26562ZM317.90845 268.26562Q317.90845 270.375 318.40845 271.07812Q318.90845 271.78125 319.6272 271.78125Q320.36157 271.78125 320.84595 271.07812Q321.34595 270.375 321.34595 268.26562Q321.34595 266.14062 320.84595 265.45312Q320.36157 264.75 319.61157 264.75Q318.89282 264.75 318.45532 265.35938Q317.90845 266.14062 317.90845 268.26562ZM323.83032 268.26562Q323.83032 266.73438 324.14282 265.8125Q324.45532 264.875 325.0647 264.375Q325.6897 263.875 326.6272 263.875Q327.3147 263.875 327.83032 264.15625Q328.36157 264.4375 328.70532 264.96875Q329.04907 265.48438 329.23657 266.23438Q329.42407 266.98438 329.42407 268.26562Q329.42407 269.78125 329.11157 270.70312Q328.8147 271.625 328.1897 272.14062Q327.58032 272.64062 326.6272 272.64062Q325.39282 272.64062 324.67407 271.75Q323.83032 270.6875 323.83032 268.26562ZM324.90845 268.26562Q324.90845 270.375 325.40845 271.07812Q325.90845 271.78125 326.6272 271.78125Q327.36157 271.78125 327.84595 271.07812Q328.34595 270.375 328.34595 268.26562Q328.34595 266.14062 327.84595 265.45312Q327.36157 264.75 326.61157 264.75Q325.89282 264.75 325.45532 265.35938Q324.90845 266.14062 324.90845 268.26562ZM330.83032 268.26562Q330.83032 266.73438 331.14282 265.8125Q331.45532 264.875 332.0647 264.375Q332.6897 263.875 333.6272 263.875Q334.3147 263.875 334.83032 264.15625Q335.36157 264.4375 335.70532 264.96875Q336.04907 265.48438 336.23657 266.23438Q336.42407 266.98438 336.42407 268.26562Q336.42407 269.78125 336.11157 270.70312Q335.8147 271.625 335.1897 272.14062Q334.58032 272.64062 333.6272 272.64062Q332.39282 272.64062 331.67407 271.75Q330.83032 270.6875 330.83032 268.26562ZM331.90845 268.26562Q331.90845 270.375 332.40845 271.07812Q332.90845 271.78125 333.6272 271.78125Q334.36157 271.78125 334.84595 271.07812Q335.34595 270.375 335.34595 268.26562Q335.34595 266.14062 334.84595 265.45312Q334.36157 264.75 333.61157 264.75Q332.89282 264.75 332.45532 265.35938Q331.90845 266.14062 331.90845 268.26562ZM337.83032 268.26562Q337.83032 266.73438 338.14282 265.8125Q338.45532 264.875 339.0647 264.375Q339.6897 263.875 340.6272 263.875Q341.3147 263.875 341.83032 264.15625Q342.36157 264.4375 342.70532 264.96875Q343.04907 265.48438 343.23657 266.23438Q343.42407 266.98438 343.42407 268.26562Q343.42407 269.78125 343.11157 270.70312Q342.8147 271.625 342.1897 272.14062Q341.58032 272.64062 340.6272 272.64062Q339.39282 272.64062 338.67407 271.75Q337.83032 270.6875 337.83032 268.26562ZM338.90845 268.26562Q338.90845 270.375 339.40845 271.07812Q339.90845 271.78125 340.6272 271.78125Q341.36157 271.78125 341.84595 271.07812Q342.34595 270.375 342.34595 268.26562Q342.34595 266.14062 341.84595 265.45312Q341.36157 264.75 340.61157 264.75Q339.89282 264.75 339.45532 265.35938Q338.90845 266.14062 338.90845 268.26562Z" fill-rule="nonzero"/><path fill="#000000" d="M419.9531 270.23438L421.0156 270.09375Q421.18747 270.98438 421.62497 271.39062Q422.06247 271.78125 422.68747 271.78125Q423.43747 271.78125 423.9531 271.26562Q424.46872 270.75 424.46872 269.98438Q424.46872 269.26562 423.98434 268.79688Q423.5156 268.3125 422.78122 268.3125Q422.48434 268.3125 422.03122 268.4375L422.15622 267.5Q422.2656 267.51562 422.3281 267.51562Q422.99997 267.51562 423.53122 267.17188Q424.0781 266.8125 424.0781 266.07812Q424.0781 265.5 423.68747 265.125Q423.29684 264.73438 422.67184 264.73438Q422.06247 264.73438 421.6406 265.125Q421.23434 265.51562 421.12497 266.28125L420.06247 266.09375Q420.24997 265.04688 420.93747 264.46875Q421.62497 263.875 422.6406 263.875Q423.34372 263.875 423.93747 264.1875Q424.53122 264.48438 424.84372 265.0Q425.15622 265.51562 425.15622 266.10938Q425.15622 266.65625 424.85934 267.125Q424.56247 267.57812 423.98434 267.84375Q424.73434 268.01562 425.15622 268.57812Q425.5781 269.125 425.5781 269.96875Q425.5781 271.09375 424.74997 271.875Q423.93747 272.65625 422.68747 272.65625Q421.56247 272.65625 420.81247 271.98438Q420.06247 271.29688 419.9531 270.23438ZM426.9531 268.26562Q426.9531 266.73438 427.2656 265.8125Q427.5781 264.875 428.18747 264.375Q428.81247 263.875 429.74997 263.875Q430.43747 263.875 430.9531 264.15625Q431.48434 264.4375 431.8281 264.96875Q432.17184 265.48438 432.35934 266.23438Q432.54684 266.98438 432.54684 268.26562Q432.54684 269.78125 432.23434 270.70312Q431.93747 271.625 431.31247 272.14062Q430.7031 272.64062 429.74997 272.64062Q428.5156 272.64062 427.79684 271.75Q426.9531 270.6875 426.9531 268.26562ZM428.03122 268.26562Q428.03122 270.375 428.53122 271.07812Q429.03122 271.78125 429.74997 271.78125Q430.48434 271.78125 430.96872 271.07812Q431.46872 270.375 431.46872 268.26562Q431.46872 266.14062 430.96872 265.45312Q430.48434 264.75 429.73434 264.75Q429.0156 264.75 428.5781 265.35938Q428.03122 266.14062 428.03122 268.26562ZM433.9531 268.26562Q433.9531 266.73438 434.2656 265.8125Q434.5781 264.875 435.18747 264.375Q435.81247 263.875 436.74997 263.875Q437.43747 263.875 437.9531 264.15625Q438.48434 264.4375 438.8281 264.96875Q439.17184 265.48438 439.35934 266.23438Q439.54684 266.98438 439.54684 268.26562Q439.54684 269.78125 439.23434 270.70312Q438.93747 271.625 438.31247 272.14062Q437.7031 272.64062 436.74997 272.64062Q435.5156 272.64062 434.79684 271.75Q433.9531 270.6875 433.9531 268.26562ZM435.03122 268.26562Q435.03122 270.375 435.53122 271.07812Q436.03122 271.78125 436.74997 271.78125Q437.48434 271.78125 437.96872 271.07812Q438.46872 270.375 438.46872 268.26562Q438.46872 266.14062 437.96872 265.45312Q437.48434 264.75 436.73434 264.75Q436.0156 264.75 435.5781 265.35938Q435.03122 266.14062 435.03122 268.26562ZM440.9531 268.26562Q440.9531 266.73438 441.2656 265.8125Q441.5781 264.875 442.18747 264.375Q442.81247 263.875 443.74997 263.875Q444.43747 263.875 444.9531 264.15625Q445.48434 264.4375 445.8281 264.96875Q446.17184 265.48438 446.35934 266.23438Q446.54684 266.98438 446.54684 268.26562Q446.54684 269.78125 446.23434 270.70312Q445.93747 271.625 445.31247 272.14062Q444.7031 272.64062 443.74997 272.64062Q442.5156 272.64062 441.79684 271.75Q440.9531 270.6875 440.9531 268.26562ZM442.03122 268.26562Q442.03122 270.375 442.53122 271.07812Q443.03122 271.78125 443.74997 271.78125Q444.48434 271.78125 444.96872 271.07812Q445.46872 270.375 445.46872 268.26562Q445.46872 266.14062 444.96872 265.45312Q444.48434 264.75 443.73434 264.75Q443.0156 264.75 442.5781 265.35938Q442.03122 266.14062 442.03122 268.26562ZM447.9531 268.26562Q447.9531 266.73438 448.2656 265.8125Q448.5781 264.875 449.18747 264.375Q449.81247 263.875 450.74997 263.875Q451.43747 263.875 451.9531 264.15625Q452.48434 264.4375 452.8281 264.96875Q453.17184 265.48438 453.35934 266.23438Q453.54684 266.98438 453.54684 268.26562Q453.54684 269.78125 453.23434 270.70312Q452.93747 271.625 452.31247 272.14062Q451.7031 272.64062 450.74997 272.64062Q449.5156 272.64062 448.79684 271.75Q447.9531 270.6875 447.9531 268.26562ZM449.03122 268.26562Q449.03122 270.375 449.53122 271.07812Q450.03122 271.78125 450.74997 271.78125Q451.48434 271.78125 451.96872 271.07812Q452.46872 270.375 452.46872 268.26562Q452.46872 266.14062 451.96872 265.45312Q451.48434 264.75 450.73434 264.75Q450.0156 264.75 449.5781 265.35938Q449.03122 266.14062 449.03122 268.26562ZM454.9531 268.26562Q454.9531 266.73438 455.2656 265.8125Q455.5781 264.875 456.18747 264.375Q456.81247 263.875 457.74997 263.875Q458.43747 263.875 458.9531 264.15625Q459.48434 264.4375 459.8281 264.96875Q460.17184 265.48438 460.35934 266.23438Q460.54684 266.98438 460.54684 268.26562Q460.54684 269.78125 460.23434 270.70312Q459.93747 271.625 459.31247 272.14062Q458.7031 272.64062 457.74997 272.64062Q456.5156 272.64062 455.79684 271.75Q454.9531 270.6875 454.9531 268.26562ZM456.03122 268.26562Q456.03122 270.375 456.53122 271.07812Q457.03122 271.78125 457.74997 271.78125Q458.48434 271.78125 458.96872 271.07812Q459.46872 270.375 459.46872 268.26562Q459.46872 266.14062 458.96872 265.45312Q458.48434 264.75 457.73434 264.75Q457.0156 264.75 456.5781 265.35938Q456.03122 266.14062 456.03122 268.26562ZM461.9531 268.26562Q461.9531 266.73438 462.2656 265.8125Q462.5781 264.875 463.18747 264.375Q463.81247 263.875 464.74997 263.875Q465.43747 263.875 465.9531 264.15625Q466.48434 264.4375 466.8281 264.96875Q467.17184 265.48438 467.35934 266.23438Q467.54684 266.98438 467.54684 268.26562Q467.54684 269.78125 467.23434 270.70312Q466.93747 271.625 466.31247 272.14062Q465.7031 272.64062 464.74997 272.64062Q463.5156 272.64062 462.79684 271.75Q461.9531 270.6875 461.9531 268.26562ZM463.03122 268.26562Q463.03122 270.375 463.53122 271.07812Q464.03122 271.78125 464.74997 271.78125Q465.48434 271.78125 465.96872 271.07812Q466.46872 270.375 466.46872 268.26562Q466.46872 266.14062 465.96872 265.45312Q465.48434 264.75 464.73434 264.75Q464.0156 264.75 463.5781 265.35938Q463.03122 266.14062 463.03122 268.26562ZM468.9531 268.26562Q468.9531 266.73438 469.2656 265.8125Q469.5781 264.875 470.18747 264.375Q470.81247 263.875 471.74997 263.875Q472.43747 263.875 472.9531 264.15625Q473.48434 264.4375 473.8281 264.96875Q474.17184 265.48438 474.35934 266.23438Q474.54684 266.98438 474.54684 268.26562Q474.54684 269.78125 474.23434 270.70312Q473.93747 271.625 473.31247 272.14062Q472.7031 272.64062 471.74997 272.64062Q470.5156 272.64062 469.79684 271.75Q468.9531 270.6875 468.9531 268.26562ZM470.03122 268.26562Q470.03122 270.375 470.53122 271.07812Q471.03122 271.78125 471.74997 271.78125Q472.48434 271.78125 472.96872 271.07812Q473.46872 270.375 473.46872 268.26562Q473.46872 266.14062 472.96872 265.45312Q472.48434 264.75 471.73434 264.75Q471.0156 264.75 470.5781 265.35938Q470.03122 266.14062 470.03122 268.26562Z" fill-rule="nonzero"/><path fill="#000000" d="M554.45087 272.5L554.45087 270.4375L550.7321 270.4375L550.7321 269.46875L554.654 263.90625L555.51337 263.90625L555.51337 269.46875L556.6696 269.46875L556.6696 270.4375L555.51337 270.4375L555.51337 272.5L554.45087 272.5ZM554.45087 269.46875L554.45087 265.60938L551.76337 269.46875L554.45087 269.46875ZM558.07587 268.26562Q558.07587 266.73438 558.38837 265.8125Q558.70087 264.875 559.31024 264.375Q559.93524 263.875 560.87274 263.875Q561.56024 263.875 562.07587 264.15625Q562.6071 264.4375 562.95087 264.96875Q563.2946 265.48438 563.4821 266.23438Q563.6696 266.98438 563.6696 268.26562Q563.6696 269.78125 563.3571 270.70312Q563.06024 271.625 562.43524 272.14062Q561.82587 272.64062 560.87274 272.64062Q559.63837 272.64062 558.9196 271.75Q558.07587 270.6875 558.07587 268.26562ZM559.154 268.26562Q559.154 270.375 559.654 271.07812Q560.154 271.78125 560.87274 271.78125Q561.6071 271.78125 562.0915 271.07812Q562.5915 270.375 562.5915 268.26562Q562.5915 266.14062 562.0915 265.45312Q561.6071 264.75 560.8571 264.75Q560.13837 264.75 559.70087 265.35938Q559.154 266.14062 559.154 268.26562ZM565.07587 268.26562Q565.07587 266.73438 565.38837 265.8125Q565.70087 264.875 566.31024 264.375Q566.93524 263.875 567.87274 263.875Q568.56024 263.875 569.07587 264.15625Q569.6071 264.4375 569.95087 264.96875Q570.2946 265.48438 570.4821 266.23438Q570.6696 266.98438 570.6696 268.26562Q570.6696 269.78125 570.3571 270.70312Q570.06024 271.625 569.43524 272.14062Q568.82587 272.64062 567.87274 272.64062Q566.63837 272.64062 565.9196 271.75Q565.07587 270.6875 565.07587 268.26562ZM566.154 268.26562Q566.154 270.375 566.654 271.07812Q567.154 271.78125 567.87274 271.78125Q568.6071 271.78125 569.0915 271.07812Q569.5915 270.375 569.5915 268.26562Q569.5915 266.14062 569.0915 265.45312Q568.6071 264.75 567.8571 264.75Q567.13837 264.75 566.70087 265.35938Q566.154 266.14062 566.154 268.26562ZM572.07587 268.26562Q572.07587 266.73438 572.38837 265.8125Q572.70087 264.875 573.31024 264.375Q573.93524 263.875 574.87274 263.875Q575.56024 263.875 576.07587 264.15625Q576.6071 264.4375 576.95087 264.96875Q577.2946 265.48438 577.4821 266.23438Q577.6696 266.98438 577.6696 268.26562Q577.6696 269.78125 577.3571 270.70312Q577.06024 271.625 576.43524 272.14062Q575.82587 272.64062 574.87274 272.64062Q573.63837 272.64062 572.9196 271.75Q572.07587 270.6875 572.07587 268.26562ZM573.154 268.26562Q573.154 270.375 573.654 271.07812Q574.154 271.78125 574.87274 271.78125Q575.6071 271.78125 576.0915 271.07812Q576.5915 270.375 576.5915 268.26562Q576.5915 266.14062 576.0915 265.45312Q575.6071 264.75 574.8571 264.75Q574.13837 264.75 573.70087 265.35938Q573.154 266.14062 573.154 268.26562ZM579.07587 268.26562Q579.07587 266.73438 579.38837 265.8125Q579.70087 264.875 580.31024 264.375Q580.93524 263.875 581.87274 263.875Q582.56024 263.875 583.07587 264.15625Q583.6071 264.4375 583.95087 264.96875Q584.2946 265.48438 584.4821 266.23438Q584.6696 266.98438 584.6696 268.26562Q584.6696 269.78125 584.3571 270.70312Q584.06024 271.625 583.43524 272.14062Q582.82587 272.64062 581.87274 272.64062Q580.63837 272.64062 579.9196 271.75Q579.07587 270.6875 579.07587 268.26562ZM580.154 268.26562Q580.154 270.375 580.654 271.07812Q581.154 271.78125 581.87274 271.78125Q582.6071 271.78125 583.0915 271.07812Q583.5915 270.375 583.5915 268.26562Q583.5915 266.14062 583.0915 265.45312Q582.6071 264.75 581.8571 264.75Q581.13837 264.75 580.70087 265.35938Q580.154 266.14062 580.154 268.26562ZM586.07587 268.26562Q586.07587 266.73438 586.38837 265.8125Q586.70087 264.875 587.31024 264.375Q587.93524 263.875 588.87274 263.875Q589.56024 263.875 590.07587 264.15625Q590.6071 264.4375 590.95087 264.96875Q591.2946 265.48438 591.4821 266.23438Q591.6696 266.98438 591.6696 268.26562Q591.6696 269.78125 591.3571 270.70312Q591.06024 271.625 590.43524 272.14062Q589.82587 272.64062 588.87274 272.64062Q587.63837 272.64062 586.9196 271.75Q586.07587 270.6875 586.07587 268.26562ZM587.154 268.26562Q587.154 270.375 587.654 271.07812Q588.154 271.78125 588.87274 271.78125Q589.6071 271.78125 590.0915 271.07812Q590.5915 270.375 590.5915 268.26562Q590.5915 266.14062 590.0915 265.45312Q589.6071 264.75 588.8571 264.75Q588.13837 264.75 587.70087 265.35938Q587.154 266.14062 587.154 268.26562ZM593.07587 268.26562Q593.07587 266.73438 593.38837 265.8125Q593.70087 264.875 594.31024 264.375Q594.93524 263.875 595.87274 263.875Q596.56024 263.875 597.07587 264.15625Q597.6071 264.4375 597.95087 264.96875Q598.2946 265.48438 598.4821 266.23438Q598.6696 266.98438 598.6696 268.26562Q598.6696 269.78125 598.3571 270.70312Q598.06024 271.625 597.43524 272.14062Q596.82587 272.64062 595.87274 272.64062Q594.63837 272.64062 593.9196 271.75Q593.07587 270.6875 593.07587 268.26562ZM594.154 268.26562Q594.154 270.375 594.654 271.07812Q595.154 271.78125 595.87274 271.78125Q596.6071 271.78125 597.0915 271.07812Q597.5915 270.375 597.5915 268.26562Q597.5915 266.14062 597.0915 265.45312Q596.6071 264.75 595.8571 264.75Q595.13837 264.75 594.70087 265.35938Q594.154 266.14062 594.154 268.26562ZM600.07587 268.26562Q600.07587 266.73438 600.38837 265.8125Q600.70087 264.875 601.31024 264.375Q601.93524 263.875 602.87274 263.875Q603.56024 263.875 604.07587 264.15625Q604.6071 264.4375 604.95087 264.96875Q605.2946 265.48438 605.4821 266.23438Q605.6696 266.98438 605.6696 268.26562Q605.6696 269.78125 605.3571 270.70312Q605.06024 271.625 604.43524 272.14062Q603.82587 272.64062 602.87274 272.64062Q601.63837 272.64062 600.9196 271.75Q600.07587 270.6875 600.07587 268.26562ZM601.154 268.26562Q601.154 270.375 601.654 271.07812Q602.154 271.78125 602.87274 271.78125Q603.6071 271.78125 604.0915 271.07812Q604.5915 270.375 604.5915 268.26562Q604.5915 266.14062 604.0915 265.45312Q603.6071 264.75 602.8571 264.75Q602.13837 264.75 601.70087 265.35938Q601.154 266.14062 601.154 268.26562Z" fill-rule="nonzero"/><path fill="#000000" d="M682.19867 270.25L683.30804 270.15625Q683.43304 270.96875 683.87054 271.375Q684.32367 271.78125 684.9643 271.78125Q685.7143 271.78125 686.24554 271.20312Q686.7768 270.625 686.7768 269.6875Q686.7768 268.78125 686.26117 268.26562Q685.76117 267.73438 684.93304 267.73438Q684.43304 267.73438 684.01117 267.96875Q683.6049 268.20312 683.37054 268.5625L682.38617 268.4375L683.2143 264.03125L687.49554 264.03125L687.49554 265.03125L684.05804 265.03125L683.6049 267.34375Q684.37054 266.79688 685.2143 266.79688Q686.3393 266.79688 687.1049 267.57812Q687.88617 268.35938 687.88617 269.59375Q687.88617 270.75 687.2143 271.60938Q686.38617 272.64062 684.9643 272.64062Q683.7924 272.64062 683.0424 271.98438Q682.30804 271.32812 682.19867 270.25ZM689.19867 268.26562Q689.19867 266.73438 689.51117 265.8125Q689.82367 264.875 690.43304 264.375Q691.05804 263.875 691.99554 263.875Q692.68304 263.875 693.19867 264.15625Q693.7299 264.4375 694.07367 264.96875Q694.4174 265.48438 694.6049 266.23438Q694.7924 266.98438 694.7924 268.26562Q694.7924 269.78125 694.4799 270.70312Q694.18304 271.625 693.55804 272.14062Q692.94867 272.64062 691.99554 272.64062Q690.76117 272.64062 690.0424 271.75Q689.19867 270.6875 689.19867 268.26562ZM690.2768 268.26562Q690.2768 270.375 690.7768 271.07812Q691.2768 271.78125 691.99554 271.78125Q692.7299 271.78125 693.2143 271.07812Q693.7143 270.375 693.7143 268.26562Q693.7143 266.14062 693.2143 265.45312Q692.7299 264.75 691.9799 264.75Q691.26117 264.75 690.82367 265.35938Q690.2768 266.14062 690.2768 268.26562ZM696.19867 268.26562Q696.19867 266.73438 696.51117 265.8125Q696.82367 264.875 697.43304 264.375Q698.05804 263.875 698.99554 263.875Q699.68304 263.875 700.19867 264.15625Q700.7299 264.4375 701.07367 264.96875Q701.4174 265.48438 701.6049 266.23438Q701.7924 266.98438 701.7924 268.26562Q701.7924 269.78125 701.4799 270.70312Q701.18304 271.625 700.55804 272.14062Q699.94867 272.64062 698.99554 272.64062Q697.76117 272.64062 697.0424 271.75Q696.19867 270.6875 696.19867 268.26562ZM697.2768 268.26562Q697.2768 270.375 697.7768 271.07812Q698.2768 271.78125 698.99554 271.78125Q699.7299 271.78125 700.2143 271.07812Q700.7143 270.375 700.7143 268.26562Q700.7143 266.14062 700.2143 265.45312Q699.7299 264.75 698.9799 264.75Q698.26117 264.75 697.82367 265.35938Q697.2768 266.14062 697.2768 268.26562ZM703.19867 268.26562Q703.19867 266.73438 703.51117 265.8125Q703.82367 264.875 704.43304 264.375Q705.05804 263.875 705.99554 263.875Q706.68304 263.875 707.19867 264.15625Q707.7299 264.4375 708.07367 264.96875Q708.4174 265.48438 708.6049 266.23438Q708.7924 266.98438 708.7924 268.26562Q708.7924 269.78125 708.4799 270.70312Q708.18304 271.625 707.55804 272.14062Q706.94867 272.64062 705.99554 272.64062Q704.76117 272.64062 704.0424 271.75Q703.19867 270.6875 703.19867 268.26562ZM704.2768 268.26562Q704.2768 270.375 704.7768 271.07812Q705.2768 271.78125 705.99554 271.78125Q706.7299 271.78125 707.2143 271.07812Q707.7143 270.375 707.7143 268.26562Q707.7143 266.14062 707.2143 265.45312Q706.7299 264.75 705.9799 264.75Q705.26117 264.75 704.82367 265.35938Q704.2768 266.14062 704.2768 268.26562ZM710.19867 268.26562Q710.19867 266.73438 710.51117 265.8125Q710.82367 264.875 711.43304 264.375Q712.05804 263.875 712.99554 263.875Q713.68304 263.875 714.19867 264.15625Q714.7299 264.4375 715.07367 264.96875Q715.4174 265.48438 715.6049 266.23438Q715.7924 266.98438 715.7924 268.26562Q715.7924 269.78125 715.4799 270.70312Q715.18304 271.625 714.55804 272.14062Q713.94867 272.64062 712.99554 272.64062Q711.76117 272.64062 711.0424 271.75Q710.19867 270.6875 710.19867 268.26562ZM711.2768 268.26562Q711.2768 270.375 711.7768 271.07812Q712.2768 271.78125 712.99554 271.78125Q713.7299 271.78125 714.2143 271.07812Q714.7143 270.375 714.7143 268.26562Q714.7143 266.14062 714.2143 265.45312Q713.7299 264.75 712.9799 264.75Q712.26117 264.75 711.82367 265.35938Q711.2768 266.14062 711.2768 268.26562ZM717.19867 268.26562Q717.19867 266.73438 717.51117 265.8125Q717.82367 264.875 718.43304 264.375Q719.05804 263.875 719.99554 263.875Q720.68304 263.875 721.19867 264.15625Q721.7299 264.4375 722.07367 264.96875Q722.4174 265.48438 722.6049 266.23438Q722.7924 266.98438 722.7924 268.26562Q722.7924 269.78125 722.4799 270.70312Q722.18304 271.625 721.55804 272.14062Q720.94867 272.64062 719.99554 272.64062Q718.76117 272.64062 718.0424 271.75Q717.19867 270.6875 717.19867 268.26562ZM718.2768 268.26562Q718.2768 270.375 718.7768 271.07812Q719.2768 271.78125 719.99554 271.78125Q720.7299 271.78125 721.2143 271.07812Q721.7143 270.375 721.7143 268.26562Q721.7143 266.14062 721.2143 265.45312Q720.7299 264.75 719.9799 264.75Q719.26117 264.75 718.82367 265.35938Q718.2768 266.14062 718.2768 268.26562ZM724.19867 268.26562Q724.19867 266.73438 724.51117 265.8125Q724.82367 264.875 725.43304 264.375Q726.05804 263.875 726.99554 263.875Q727.68304 263.875 728.19867 264.15625Q728.7299 264.4375 729.07367 264.96875Q729.4174 265.48438 729.6049 266.23438Q729.7924 266.98438 729.7924 268.26562Q729.7924 269.78125 729.4799 270.70312Q729.18304 271.625 728.55804 272.14062Q727.94867 272.64062 726.99554 272.64062Q725.76117 272.64062 725.0424 271.75Q724.19867 270.6875 724.19867 268.26562ZM725.2768 268.26562Q725.2768 270.375 725.7768 271.07812Q726.2768 271.78125 726.99554 271.78125Q727.7299 271.78125 728.2143 271.07812Q728.7143 270.375 728.7143 268.26562Q728.7143 266.14062 728.2143 265.45312Q727.7299 264.75 726.9799 264.75Q726.26117 264.75 725.82367 265.35938Q725.2768 266.14062 725.2768 268.26562ZM731.19867 268.26562Q731.19867 266.73438 731.51117 265.8125Q731.82367 264.875 732.43304 264.375Q733.05804 263.875 733.99554 263.875Q734.68304 263.875 735.19867 264.15625Q735.7299 264.4375 736.07367 264.96875Q736.4174 265.48438 736.6049 266.23438Q736.7924 266.98438 736.7924 268.26562Q736.7924 269.78125 736.4799 270.70312Q736.18304 271.625 735.55804 272.14062Q734.94867 272.64062 733.99554 272.64062Q732.76117 272.64062 732.0424 271.75Q731.19867 270.6875 731.19867 268.26562ZM732.2768 268.26562Q732.2768 270.375 732.7768 271.07812Q733.2768 271.78125 733.99554 271.78125Q734.7299 271.78125 735.2143 271.07812Q735.7143 270.375 735.7143 268.26562Q735.7143 266.14062 735.2143 265.45312Q734.7299 264.75 733.9799 264.75Q733.26117 264.75 732.82367 265.35938Q732.2768 266.14062 732.2768 268.26562Z" fill-rule="nonzero"/><path fill="#4285f4" d="M240.0 21.5C240.0 24.81371 237.3137 27.5 234.0 27.5C230.6863 27.5 228.0 24.81371 228.0 21.5C228.0 18.18629 230.6863 15.5 234.0 15.5C237.3137 15.5 240.0 18.18629 240.0 21.5Z" fill-rule="nonzero"/><path fill="#1a1a1a" d="M248.92188 25.5L248.92188 16.90625L251.89062 16.90625Q252.89062 16.90625 253.42188 17.03125Q254.15625 17.203125 254.67188 17.640625Q255.35938 18.21875 255.6875 19.125Q256.03125 20.015625 256.03125 21.15625Q256.03125 22.140625 255.79688 22.890625Q255.57812 23.640625 255.21875 24.140625Q254.85938 24.640625 254.42188 24.921875Q254.0 25.203125 253.40625 25.359375Q252.8125 25.5 252.03125 25.5L248.92188 25.5ZM250.0625 24.484375L251.89062 24.484375Q252.75 24.484375 253.23438 24.328125Q253.71875 24.171875 254.0 23.875Q254.40625 23.484375 254.625 22.796875Q254.85938 22.109375 254.85938 21.140625Q254.85938 19.796875 254.40625 19.078125Q253.96875 18.34375 253.34375 18.09375Q252.875 17.921875 251.875 17.921875L250.0625 17.921875L250.0625 24.484375ZM257.78125 25.5L257.78125 19.28125L258.73438 19.28125L258.73438 20.21875Q259.09375 19.5625 259.39062 19.359375Q259.70312 19.140625 260.07812 19.140625Q260.60938 19.140625 261.15625 19.46875L260.79688 20.453125Q260.40625 20.21875 260.03125 20.21875Q259.67188 20.21875 259.39062 20.4375Q259.125 20.640625 259.01562 21.015625Q258.82812 21.578125 258.82812 22.234375L258.82812 25.5L257.78125 25.5ZM266.04688 23.5L267.14062 23.625Q266.89062 24.578125 266.1875 25.109375Q265.48438 25.640625 264.40625 25.640625Q263.04688 25.640625 262.23438 24.796875Q261.4375 23.953125 261.4375 22.4375Q261.4375 20.875 262.25 20.015625Q263.0625 19.140625 264.34375 19.140625Q265.59375 19.140625 266.375 19.984375Q267.17188 20.828125 267.17188 22.375Q267.17188 22.46875 267.17188 22.65625L262.53125 22.65625Q262.59375 23.6875 263.10938 24.234375Q263.625 24.765625 264.40625 24.765625Q264.98438 24.765625 265.39062 24.46875Q265.8125 24.15625 266.04688 23.5ZM262.59375 21.796875L266.0625 21.796875Q266.0 21.0 265.67188 20.609375Q265.15625 20.0 264.35938 20.0Q263.625 20.0 263.125 20.484375Q262.64062 20.96875 262.59375 21.796875ZM268.79688 18.125L268.79688 16.90625L269.85938 16.90625L269.85938 18.125L268.79688 18.125ZM268.79688 25.5L268.79688 19.28125L269.85938 19.28125L269.85938 25.5L268.79688 25.5ZM276.04688 23.5L277.14062 23.625Q276.89062 24.578125 276.1875 25.109375Q275.48438 25.640625 274.40625 25.640625Q273.04688 25.640625 272.23438 24.796875Q271.4375 23.953125 271.4375 22.4375Q271.4375 20.875 272.25 20.015625Q273.0625 19.140625 274.34375 19.140625Q275.59375 19.140625 276.375 19.984375Q277.17188 20.828125 277.17188 22.375Q277.17188 22.46875 277.17188 22.65625L272.53125 22.65625Q272.59375 23.6875 273.10938 24.234375Q273.625 24.765625 274.40625 24.765625Q274.98438 24.765625 275.39062 24.46875Q275.8125 24.15625 276.04688 23.5ZM272.59375 21.796875L276.0625 21.796875Q276.0 21.0 275.67188 20.609375Q275.15625 20.0 274.35938 20.0Q273.625 20.0 273.125 20.484375Q272.64062 20.96875 272.59375 21.796875ZM282.85938 23.21875L283.89062 23.359375Q283.71875 24.421875 283.01562 25.03125Q282.3125 25.640625 281.29688 25.640625Q280.01562 25.640625 279.23438 24.8125Q278.46875 23.96875 278.46875 22.40625Q278.46875 21.40625 278.79688 20.65625Q279.14062 19.890625 279.8125 19.515625Q280.5 19.140625 281.3125 19.140625Q282.3125 19.140625 282.95312 19.65625Q283.60938 20.15625 283.79688 21.109375L282.76562 21.265625Q282.625 20.640625 282.25 20.328125Q281.875 20.0 281.34375 20.0Q280.54688 20.0 280.04688 20.578125Q279.54688 21.140625 279.54688 22.375Q279.54688 23.640625 280.03125 24.203125Q280.51562 24.765625 281.28125 24.765625Q281.90625 24.765625 282.3125 24.390625Q282.73438 24.015625 282.85938 23.21875ZM284.79688 25.5L284.79688 16.90625L285.85938 16.90625L285.85938 21.8125L288.34375 19.28125L289.71875 19.28125L287.32812 21.578125L289.95312 25.5L288.65625 25.5L286.59375 22.3125L285.85938 23.03125L285.85938 25.5L284.79688 25.5Z" fill-rule="nonzero"/><path fill="#ea4335" d="M318.0 21.5C318.0 24.81371 315.31372 27.5 312.0 27.5C308.68628 27.5 306.0 24.81371 306.0 21.5C306.0 18.18629 308.68628 15.5 312.0 15.5C315.31372 15.5 318.0 18.18629 318.0 21.5Z" fill-rule="nonzero"/><path fill="#1a1a1a" d="M333.4375 24.578125Q334.23438 25.125 334.89062 25.375L334.5625 26.171875Q333.64062 25.828125 332.71875 25.109375Q331.76562 25.640625 330.60938 25.640625Q329.4375 25.640625 328.48438 25.078125Q327.54688 24.515625 327.03125 23.5Q326.51562 22.484375 326.51562 21.203125Q326.51562 19.9375 327.03125 18.890625Q327.54688 17.84375 328.5 17.296875Q329.45312 16.75 330.625 16.75Q331.8125 16.75 332.76562 17.328125Q333.73438 17.890625 334.23438 18.90625Q334.73438 19.921875 334.73438 21.203125Q334.73438 22.265625 334.40625 23.109375Q334.09375 23.953125 333.4375 24.578125ZM330.9375 23.125Q331.92188 23.40625 332.5625 23.953125Q333.5625 23.03125 333.5625 21.203125Q333.5625 20.15625 333.20312 19.375Q332.84375 18.59375 332.15625 18.171875Q331.48438 17.734375 330.64062 17.734375Q329.35938 17.734375 328.51562 18.609375Q327.6875 19.46875 327.6875 21.203125Q327.6875 22.875 328.51562 23.78125Q329.34375 24.671875 330.64062 24.671875Q331.25 24.671875 331.78125 24.4375Q331.25 24.09375 330.65625 23.953125L330.9375 23.125ZM339.875 25.5L339.875 24.578125Q339.14062 25.640625 337.89062 25.640625Q337.34375 25.640625 336.85938 25.4375Q336.39062 25.21875 336.15625 24.90625Q335.92188 24.578125 335.82812 24.109375Q335.76562 23.8125 335.76562 23.125L335.76562 19.28125L336.82812 19.28125L336.82812 22.734375Q336.82812 23.546875 336.89062 23.84375Q336.98438 24.25 337.29688 24.5Q337.625 24.734375 338.10938 24.734375Q338.57812 24.734375 338.98438 24.5Q339.40625 24.25 339.57812 23.828125Q339.76562 23.40625 339.76562 22.609375L339.76562 19.28125L340.8125 19.28125L340.8125 25.5L339.875 25.5ZM346.85938 24.734375Q346.26562 25.234375 345.71875 25.4375Q345.1875 25.640625 344.5625 25.640625Q343.53125 25.640625 342.98438 25.140625Q342.4375 24.640625 342.4375 23.859375Q342.4375 23.40625 342.64062 23.03125Q342.84375 22.640625 343.1875 22.421875Q343.53125 22.1875 343.95312 22.078125Q344.25 21.984375 344.89062 21.90625Q346.15625 21.765625 346.76562 21.546875Q346.76562 21.328125 346.76562 21.28125Q346.76562 20.625 346.46875 20.359375Q346.0625 20.015625 345.26562 20.015625Q344.53125 20.015625 344.17188 20.28125Q343.8125 20.53125 343.64062 21.1875L342.60938 21.046875Q342.75 20.390625 343.07812 19.984375Q343.40625 19.578125 344.01562 19.359375Q344.625 19.140625 345.42188 19.140625Q346.21875 19.140625 346.71875 19.328125Q347.21875 19.515625 347.45312 19.796875Q347.6875 20.078125 347.78125 20.515625Q347.82812 20.78125 347.82812 21.484375L347.82812 22.890625Q347.82812 24.359375 347.89062 24.75Q347.96875 25.140625 348.17188 25.5L347.0625 25.5Q346.90625 25.171875 346.85938 24.734375ZM346.76562 22.375Q346.1875 22.609375 345.04688 22.78125Q344.39062 22.875 344.125 23.0Q343.85938 23.109375 343.70312 23.328125Q343.5625 23.546875 343.5625 23.828125Q343.5625 24.25 343.875 24.53125Q344.20312 24.8125 344.8125 24.8125Q345.42188 24.8125 345.89062 24.546875Q346.375 24.28125 346.59375 23.8125Q346.76562 23.453125 346.76562 22.765625L346.76562 22.375ZM353.82812 25.5L353.82812 24.71875Q353.23438 25.640625 352.09375 25.640625Q351.34375 25.640625 350.71875 25.234375Q350.09375 24.8125 349.75 24.078125Q349.40625 23.34375 349.40625 22.390625Q349.40625 21.46875 349.71875 20.703125Q350.03125 19.9375 350.65625 19.546875Q351.28125 19.140625 352.04688 19.140625Q352.60938 19.140625 353.04688 19.375Q353.48438 19.609375 353.76562 19.984375L353.76562 16.90625L354.8125 16.90625L354.8125 25.5L353.82812 25.5ZM350.5 22.390625Q350.5 23.59375 351.0 24.1875Q351.5 24.765625 352.1875 24.765625Q352.875 24.765625 353.35938 24.203125Q353.84375 23.640625 353.84375 22.484375Q353.84375 21.203125 353.34375 20.609375Q352.85938 20.015625 352.14062 20.015625Q351.4375 20.015625 350.96875 20.59375Q350.5 21.15625 350.5 22.390625ZM356.78125 25.5L356.78125 19.28125L357.73438 19.28125L357.73438 20.21875Q358.09375 19.5625 358.39062 19.359375Q358.70312 19.140625 359.07812 19.140625Q359.60938 19.140625 360.15625 19.46875L359.79688 20.453125Q359.40625 20.21875 359.03125 20.21875Q358.67188 20.21875 358.39062 20.4375Q358.125 20.640625 358.01562 21.015625Q357.82812 21.578125 357.82812 22.234375L357.82812 25.5L356.78125 25.5ZM364.85938 24.734375Q364.26562 25.234375 363.71875 25.4375Q363.1875 25.640625 362.5625 25.640625Q361.53125 25.640625 360.98438 25.140625Q360.4375 24.640625 360.4375 23.859375Q360.4375 23.40625 360.64062 23.03125Q360.84375 22.640625 361.1875 22.421875Q361.53125 22.1875 361.95312 22.078125Q362.25 21.984375 362.89062 21.90625Q364.15625 21.765625 364.76562 21.546875Q364.76562 21.328125 364.76562 21.28125Q364.76562 20.625 364.46875 20.359375Q364.0625 20.015625 363.26562 20.015625Q362.53125 20.015625 362.17188 20.28125Q361.8125 20.53125 361.64062 21.1875L360.60938 21.046875Q360.75 20.390625 361.07812 19.984375Q361.40625 19.578125 362.01562 19.359375Q362.625 19.140625 363.42188 19.140625Q364.21875 19.140625 364.71875 19.328125Q365.21875 19.515625 365.45312 19.796875Q365.6875 20.078125 365.78125 20.515625Q365.82812 20.78125 365.82812 21.484375L365.82812 22.890625Q365.82812 24.359375 365.89062 24.75Q365.96875 25.140625 366.17188 25.5L365.0625 25.5Q364.90625 25.171875 364.85938 24.734375ZM364.76562 22.375Q364.1875 22.609375 363.04688 22.78125Q362.39062 22.875 362.125 23.0Q361.85938 23.109375 361.70312 23.328125Q361.5625 23.546875 361.5625 23.828125Q361.5625 24.25 361.875 24.53125Q362.20312 24.8125 362.8125 24.8125Q363.42188 24.8125 363.89062 24.546875Q364.375 24.28125 364.59375 23.8125Q364.76562 23.453125 364.76562 22.765625L364.76562 22.375ZM370.09375 24.5625L370.25 25.484375Q369.79688 25.578125 369.45312 25.578125Q368.875 25.578125 368.5625 25.40625Q368.25 25.21875 368.10938 24.921875Q367.98438 24.625 367.98438 23.671875L367.98438 20.09375L367.21875 20.09375L367.21875 19.28125L367.98438 19.28125L367.98438 17.734375L369.03125 17.109375L369.03125 19.28125L370.09375 19.28125L370.09375 20.09375L369.03125 20.09375L369.03125 23.734375Q369.03125 24.1875 369.07812 24.3125Q369.14062 24.4375 369.26562 24.515625Q369.39062 24.59375 369.625 24.59375Q369.8125 24.59375 370.09375 24.5625Z" fill-rule="nonzero"/><path fill="#fbbc04" d="M398.0 21.5C398.0 24.81371 395.31372 27.5 392.0 27.5C388.68628 27.5 386.0 24.81371 386.0 21.5C386.0 18.18629 388.68628 15.5 392.0 15.5C395.31372 15.5 398.0 18.18629 398.0 21.5Z" fill-rule="nonzero"/><path fill="#1a1a1a" d="M406.9375 25.5L406.9375 16.90625L410.75 16.90625Q411.90625 16.90625 412.5 17.140625Q413.09375 17.375 413.45312 17.96875Q413.8125 18.546875 413.8125 19.25Q413.8125 20.171875 413.21875 20.796875Q412.625 21.421875 411.39062 21.59375Q411.84375 21.8125 412.07812 22.015625Q412.57812 22.46875 413.01562 23.15625L414.51562 25.5L413.07812 25.5L411.95312 23.71875Q411.45312 22.9375 411.125 22.53125Q410.8125 22.125 410.54688 21.96875Q410.29688 21.796875 410.03125 21.71875Q409.84375 21.6875 409.40625 21.6875L408.07812 21.6875L408.07812 25.5L406.9375 25.5ZM408.07812 20.703125L410.53125 20.703125Q411.29688 20.703125 411.73438 20.546875Q412.1875 20.375 412.40625 20.03125Q412.64062 19.671875 412.64062 19.25Q412.64062 18.640625 412.1875 18.25Q411.75 17.859375 410.79688 17.859375L408.07812 17.859375L408.07812 20.703125ZM420.04688 23.5L421.14062 23.625Q420.89062 24.578125 420.1875 25.109375Q419.48438 25.640625 418.40625 25.640625Q417.04688 25.640625 416.23438 24.796875Q415.4375 23.953125 415.4375 22.4375Q415.4375 20.875 416.25 20.015625Q417.0625 19.140625 418.34375 19.140625Q419.59375 19.140625 420.375 19.984375Q421.17188 20.828125 421.17188 22.375Q421.17188 22.46875 421.17188 22.65625L416.53125 22.65625Q416.59375 23.6875 417.10938 24.234375Q417.625 24.765625 418.40625 24.765625Q418.98438 24.765625 419.39062 24.46875Q419.8125 24.15625 420.04688 23.5ZM416.59375 21.796875L420.0625 21.796875Q420.0 21.0 419.67188 20.609375Q419.15625 20.0 418.35938 20.0Q417.625 20.0 417.125 20.484375Q416.64062 20.96875 416.59375 21.796875ZM422.59375 26.015625L423.625 26.171875Q423.6875 26.640625 423.98438 26.859375Q424.375 27.15625 425.04688 27.15625Q425.78125 27.15625 426.17188 26.859375Q426.57812 26.5625 426.71875 26.046875Q426.8125 25.71875 426.79688 24.6875Q426.10938 25.5 425.07812 25.5Q423.79688 25.5 423.09375 24.578125Q422.39062 23.640625 422.39062 22.359375Q422.39062 21.46875 422.70312 20.71875Q423.03125 19.953125 423.64062 19.546875Q424.25 19.140625 425.07812 19.140625Q426.1875 19.140625 426.90625 20.03125L426.90625 19.28125L427.875 19.28125L427.875 24.65625Q427.875 26.109375 427.57812 26.71875Q427.28125 27.328125 426.64062 27.671875Q426.0 28.03125 425.0625 28.03125Q423.95312 28.03125 423.26562 27.53125Q422.57812 27.03125 422.59375 26.015625ZM423.46875 22.28125Q423.46875 23.5 423.95312 24.0625Q424.4375 24.625 425.17188 24.625Q425.90625 24.625 426.39062 24.0625Q426.89062 23.5 426.89062 22.3125Q426.89062 21.171875 426.375 20.59375Q425.875 20.015625 425.15625 20.015625Q424.45312 20.015625 423.95312 20.59375Q423.46875 21.15625 423.46875 22.28125ZM434.04688 23.5L435.14062 23.625Q434.89062 24.578125 434.1875 25.109375Q433.48438 25.640625 432.40625 25.640625Q431.04688 25.640625 430.23438 24.796875Q429.4375 23.953125 429.4375 22.4375Q429.4375 20.875 430.25 20.015625Q431.0625 19.140625 432.34375 19.140625Q433.59375 19.140625 434.375 19.984375Q435.17188 20.828125 435.17188 22.375Q435.17188 22.46875 435.17188 22.65625L430.53125 22.65625Q430.59375 23.6875 431.10938 24.234375Q431.625 24.765625 432.40625 24.765625Q432.98438 24.765625 433.39062 24.46875Q433.8125 24.15625 434.04688 23.5ZM430.59375 21.796875L434.0625 21.796875Q434.0 21.0 433.67188 20.609375Q433.15625 20.0 432.35938 20.0Q431.625 20.0 431.125 20.484375Q430.64062 20.96875 430.59375 21.796875ZM436.76562 25.5L436.76562 16.90625L437.82812 16.90625L437.82812 25.5L436.76562 25.5ZM439.79688 25.5L439.79688 19.28125L440.73438 19.28125L440.73438 20.15625Q441.03125 19.6875 441.51562 19.421875Q442.0 19.140625 442.625 19.140625Q443.3125 19.140625 443.75 19.421875Q444.20312 19.703125 444.375 20.21875Q445.125 19.140625 446.29688 19.140625Q447.23438 19.140625 447.71875 19.65625Q448.21875 20.15625 448.21875 21.234375L448.21875 25.5L447.17188 25.5L447.17188 21.578125Q447.17188 20.953125 447.0625 20.671875Q446.96875 20.390625 446.70312 20.21875Q446.4375 20.046875 446.0625 20.046875Q445.40625 20.046875 444.96875 20.484375Q444.54688 20.921875 444.54688 21.890625L444.54688 25.5L443.48438 25.5L443.48438 21.453125Q443.48438 20.75 443.21875 20.40625Q442.96875 20.046875 442.39062 20.046875Q441.9375 20.046875 441.5625 20.28125Q441.1875 20.515625 441.01562 20.96875Q440.84375 21.421875 440.84375 22.265625L440.84375 25.5L439.79688 25.5ZM454.85938 24.734375Q454.26562 25.234375 453.71875 25.4375Q453.1875 25.640625 452.5625 25.640625Q451.53125 25.640625 450.98438 25.140625Q450.4375 24.640625 450.4375 23.859375Q450.4375 23.40625 450.64062 23.03125Q450.84375 22.640625 451.1875 22.421875Q451.53125 22.1875 451.95312 22.078125Q452.25 21.984375 452.89062 21.90625Q454.15625 21.765625 454.76562 21.546875Q454.76562 21.328125 454.76562 21.28125Q454.76562 20.625 454.46875 20.359375Q454.0625 20.015625 453.26562 20.015625Q452.53125 20.015625 452.17188 20.28125Q451.8125 20.53125 451.64062 21.1875L450.60938 21.046875Q450.75 20.390625 451.07812 19.984375Q451.40625 19.578125 452.01562 19.359375Q452.625 19.140625 453.42188 19.140625Q454.21875 19.140625 454.71875 19.328125Q455.21875 19.515625 455.45312 19.796875Q455.6875 20.078125 455.78125 20.515625Q455.82812 20.78125 455.82812 21.484375L455.82812 22.890625Q455.82812 24.359375 455.89062 24.75Q455.96875 25.140625 456.17188 25.5L455.0625 25.5Q454.90625 25.171875 454.85938 24.734375ZM454.76562 22.375Q454.1875 22.609375 453.04688 22.78125Q452.39062 22.875 452.125 23.0Q451.85938 23.109375 451.70312 23.328125Q451.5625 23.546875 451.5625 23.828125Q451.5625 24.25 451.875 24.53125Q452.20312 24.8125 452.8125 24.8125Q453.42188 24.8125 453.89062 24.546875Q454.375 24.28125 454.59375 23.8125Q454.76562 23.453125 454.76562 22.765625L454.76562 22.375ZM451.65625 18.0625L451.65625 16.859375L452.75 16.859375L452.75 18.0625L451.65625 18.0625ZM453.84375 18.0625L453.84375 16.859375L454.9375 16.859375L454.9375 18.0625L453.84375 18.0625ZM457.89062 25.5L457.89062 19.640625Q457.89062 18.578125 458.15625 18.0Q458.42188 17.421875 459.03125 17.09375Q459.64062 16.765625 460.40625 16.765625Q461.40625 16.765625 461.98438 17.28125Q462.57812 17.78125 462.57812 18.4375Q462.57812 18.75 462.46875 19.0625Q462.35938 19.375 462.09375 19.84375Q461.82812 20.3125 461.75 20.5Q461.6875 20.6875 461.6875 20.828125Q461.6875 21.015625 461.8125 21.203125Q461.9375 21.390625 462.51562 21.765625Q463.3125 22.28125 463.57812 22.609375Q463.95312 23.0625 463.95312 23.671875Q463.95312 24.484375 463.34375 25.0625Q462.75 25.640625 461.8125 25.640625Q461.07812 25.640625 460.51562 25.25Q459.96875 24.859375 459.6875 24.234375L460.59375 23.8125Q460.89062 24.359375 461.1875 24.578125Q461.48438 24.78125 461.79688 24.78125Q462.25 24.78125 462.5625 24.484375Q462.875 24.171875 462.875 23.765625Q462.875 23.4375 462.6875 23.203125Q462.5625 23.046875 462.03125 22.6875Q461.0625 22.015625 460.82812 21.671875Q460.59375 21.34375 460.59375 21.0Q460.59375 20.765625 460.67188 20.53125Q460.75 20.296875 461.04688 19.78125Q461.35938 19.265625 461.45312 19.015625Q461.54688 18.75 461.54688 18.546875Q461.54688 18.1875 461.21875 17.90625Q460.90625 17.625 460.375 17.625Q459.75 17.625 459.34375 18.015625Q458.95312 18.40625 458.95312 19.6875L458.95312 25.5L457.89062 25.5ZM465.79688 18.125L465.79688 16.90625L466.85938 16.90625L466.85938 18.125L465.79688 18.125ZM465.79688 25.5L465.79688 19.28125L466.85938 19.28125L466.85938 25.5L465.79688 25.5ZM468.59375 26.015625L469.625 26.171875Q469.6875 26.640625 469.98438 26.859375Q470.375 27.15625 471.04688 27.15625Q471.78125 27.15625 472.17188 26.859375Q472.57812 26.5625 472.71875 26.046875Q472.8125 25.71875 472.79688 24.6875Q472.10938 25.5 471.07812 25.5Q469.79688 25.5 469.09375 24.578125Q468.39062 23.640625 468.39062 22.359375Q468.39062 21.46875 468.70312 20.71875Q469.03125 19.953125 469.64062 19.546875Q470.25 19.140625 471.07812 19.140625Q472.1875 19.140625 472.90625 20.03125L472.90625 19.28125L473.875 19.28125L473.875 24.65625Q473.875 26.109375 473.57812 26.71875Q473.28125 27.328125 472.64062 27.671875Q472.0 28.03125 471.0625 28.03125Q469.95312 28.03125 469.26562 27.53125Q468.57812 27.03125 468.59375 26.015625ZM469.46875 22.28125Q469.46875 23.5 469.95312 24.0625Q470.4375 24.625 471.17188 24.625Q471.90625 24.625 472.39062 24.0625Q472.89062 23.5 472.89062 22.3125Q472.89062 21.171875 472.375 20.59375Q471.875 20.015625 471.15625 20.015625Q470.45312 20.015625 469.95312 20.59375Q469.46875 21.15625 469.46875 22.28125ZM480.04688 23.5L481.14062 23.625Q480.89062 24.578125 480.1875 25.109375Q479.48438 25.640625 478.40625 25.640625Q477.04688 25.640625 476.23438 24.796875Q475.4375 23.953125 475.4375 22.4375Q475.4375 20.875 476.25 20.015625Q477.0625 19.140625 478.34375 19.140625Q479.59375 19.140625 480.375 19.984375Q481.17188 20.828125 481.17188 22.375Q481.17188 22.46875 481.17188 22.65625L476.53125 22.65625Q476.59375 23.6875 477.10938 24.234375Q477.625 24.765625 478.40625 24.765625Q478.98438 24.765625 479.39062 24.46875Q479.8125 24.15625 480.04688 23.5ZM476.59375 21.796875L480.0625 21.796875Q480.0 21.0 479.67188 20.609375Q479.15625 20.0 478.35938 20.0Q477.625 20.0 477.125 20.484375Q476.64062 20.96875 476.59375 21.796875ZM482.375 23.640625L483.40625 23.484375Q483.5 24.109375 483.89062 24.4375Q484.29688 24.765625 485.03125 24.765625Q485.75 24.765625 486.09375 24.484375Q486.45312 24.1875 486.45312 23.78125Q486.45312 23.421875 486.14062 23.21875Q485.92188 23.078125 485.0625 22.859375Q483.90625 22.5625 483.45312 22.359375Q483.01562 22.140625 482.78125 21.765625Q482.54688 21.390625 482.54688 20.921875Q482.54688 20.515625 482.73438 20.15625Q482.92188 19.796875 483.25 19.5625Q483.5 19.390625 483.92188 19.265625Q484.34375 19.140625 484.84375 19.140625Q485.5625 19.140625 486.10938 19.359375Q486.67188 19.5625 486.9375 19.921875Q487.20312 20.28125 487.29688 20.875L486.26562 21.015625Q486.20312 20.546875 485.85938 20.28125Q485.53125 20.0 484.90625 20.0Q484.1875 20.0 483.875 20.25Q483.5625 20.484375 483.5625 20.8125Q483.5625 21.015625 483.6875 21.171875Q483.82812 21.34375 484.09375 21.453125Q484.25 21.515625 485.03125 21.71875Q486.15625 22.03125 486.59375 22.21875Q487.03125 22.40625 487.28125 22.765625Q487.53125 23.125 487.53125 23.671875Q487.53125 24.203125 487.21875 24.671875Q486.92188 25.125 486.34375 25.390625Q485.76562 25.640625 485.03125 25.640625Q483.8125 25.640625 483.17188 25.140625Q482.54688 24.625 482.375 23.640625ZM491.98438 25.5L495.28125 16.90625L496.5 16.90625L500.01562 25.5L498.73438 25.5L497.71875 22.890625L494.14062 22.890625L493.1875 25.5L491.98438 25.5ZM494.46875 21.96875L497.375 21.96875L496.48438 19.59375Q496.0625 18.515625 495.875 17.8125Q495.70312 18.640625 495.40625 19.453125L494.46875 21.96875ZM503.85938 23.21875L504.89062 23.359375Q504.71875 24.421875 504.01562 25.03125Q503.3125 25.640625 502.29688 25.640625Q501.01562 25.640625 500.23438 24.8125Q499.46875 23.96875 499.46875 22.40625Q499.46875 21.40625 499.79688 20.65625Q500.14062 19.890625 500.8125 19.515625Q501.5 19.140625 502.3125 19.140625Q503.3125 19.140625 503.95312 19.65625Q504.60938 20.15625 504.79688 21.109375L503.76562 21.265625Q503.625 20.640625 503.25 20.328125Q502.875 20.0 502.34375 20.0Q501.54688 20.0 501.04688 20.578125Q500.54688 21.140625 500.54688 22.375Q500.54688 23.640625 501.03125 24.203125Q501.51562 24.765625 502.28125 24.765625Q502.90625 24.765625 503.3125 24.390625Q503.73438 24.015625 503.85938 23.21875ZM505.79688 25.5L505.79688 16.90625L506.84375 16.90625L506.84375 19.984375Q507.57812 19.140625 508.70312 19.140625Q509.40625 19.140625 509.90625 19.421875Q510.42188 19.6875 510.64062 20.171875Q510.85938 20.640625 510.85938 21.5625L510.85938 25.5L509.8125 25.5L509.8125 21.5625Q509.8125 20.765625 509.46875 20.40625Q509.125 20.046875 508.5 20.046875Q508.03125 20.046875 507.60938 20.296875Q507.20312 20.53125 507.01562 20.953125Q506.84375 21.359375 506.84375 22.09375L506.84375 25.5L505.79688 25.5ZM515.09375 24.5625L515.25 25.484375Q514.7969 25.578125 514.4531 25.578125Q513.875 25.578125 513.5625 25.40625Q513.25 25.21875 513.1094 24.921875Q512.9844 24.625 512.9844 23.671875L512.9844 20.09375L512.21875 20.09375L512.21875 19.28125L512.9844 19.28125L512.9844 17.734375L514.03125 17.109375L514.03125 19.28125L515.09375 19.28125L515.09375 20.09375L514.03125 20.09375L514.03125 23.734375Q514.03125 24.1875 514.0781 24.3125Q514.1406 24.4375 514.2656 24.515625Q514.3906 24.59375 514.625 24.59375Q514.8125 24.59375 515.09375 24.5625ZM520.0469 23.5L521.1406 23.625Q520.8906 24.578125 520.1875 25.109375Q519.4844 25.640625 518.40625 25.640625Q517.0469 25.640625 516.2344 24.796875Q515.4375 23.953125 515.4375 22.4375Q515.4375 20.875 516.25 20.015625Q517.0625 19.140625 518.34375 19.140625Q519.59375 19.140625 520.375 19.984375Q521.1719 20.828125 521.1719 22.375Q521.1719 22.46875 521.1719 22.65625L516.53125 22.65625Q516.59375 23.6875 517.1094 24.234375Q517.625 24.765625 518.40625 24.765625Q518.9844 24.765625 519.3906 24.46875Q519.8125 24.15625 520.0469 23.5ZM516.59375 21.796875L520.0625 21.796875Q520.0 21.0 519.6719 20.609375Q519.15625 20.0 518.3594 20.0Q517.625 20.0 517.125 20.484375Q516.6406 20.96875 516.59375 21.796875ZM526.8594 23.21875L527.8906 23.359375Q527.71875 24.421875 527.0156 25.03125Q526.3125 25.640625 525.2969 25.640625Q524.0156 25.640625 523.2344 24.8125Q522.46875 23.96875 522.46875 22.40625Q522.46875 21.40625 522.7969 20.65625Q523.1406 19.890625 523.8125 19.515625Q524.5 19.140625 525.3125 19.140625Q526.3125 19.140625 526.9531 19.65625Q527.6094 20.15625 527.7969 21.109375L526.7656 21.265625Q526.625 20.640625 526.25 20.328125Q525.875 20.0 525.34375 20.0Q524.5469 20.0 524.0469 20.578125Q523.5469 21.140625 523.5469 22.375Q523.5469 23.640625 524.03125 24.203125Q524.5156 24.765625 525.28125 24.765625Q525.90625 24.765625 526.3125 24.390625Q526.7344 24.015625 526.8594 23.21875ZM528.7969 25.5L528.7969 16.90625L529.8594 16.90625L529.8594 21.8125L532.34375 19.28125L533.71875 19.28125L531.3281 21.578125L533.9531 25.5L532.65625 25.5L530.59375 22.3125L529.8594 23.03125L529.8594 25.5L528.7969 25.5Z" fill-rule="nonzero"/></svg>