<?xml version="1.0" encoding="UTF-8" standalone="no"?>
<svg
   version="1.1"
   viewBox="0 0 732.5 254.15625"
   fill="none"
   stroke="none"
   stroke-linecap="square"
   stroke-miterlimit="10"
   width="732.5"
   height="254.15625"
   id="svg58"
   xmlns="http://www.w3.org/2000/svg"
   xmlns:svg="http://www.w3.org/2000/svg">
  <defs
     id="defs58" />
  <path
     stroke="#333333"
     stroke-width="1"
     stroke-linecap="butt"
     d="M 42.5,25 V 237"
     fill-rule="nonzero"
     id="path2" />
  <path
     stroke="#cccccc"
     stroke-width="1"
     stroke-linecap="butt"
     d="M 172.5,25 V 237"
     fill-rule="nonzero"
     id="path3" />
  <path
     stroke="#cccccc"
     stroke-width="1"
     stroke-linecap="butt"
     d="M 303.5,25 V 237"
     fill-rule="nonzero"
     id="path4" />
  <path
     stroke="#cccccc"
     stroke-width="1"
     stroke-linecap="butt"
     d="M 433.5,25 V 237"
     fill-rule="nonzero"
     id="path5" />
  <path
     stroke="#cccccc"
     stroke-width="1"
     stroke-linecap="butt"
     d="M 564.5,25 V 237"
     fill-rule="nonzero"
     id="path6" />
  <path
     stroke="#cccccc"
     stroke-width="1"
     stroke-linecap="butt"
     d="M 694.5,25 V 237"
     fill-rule="nonzero"
     id="path7" />
  <path
     stroke="#333333"
     stroke-width="1"
     stroke-linecap="butt"
     d="m 32.5,237 h 700"
     fill-rule="nonzero"
     id="path8" />
  <path
     stroke="#cccccc"
     stroke-width="1"
     stroke-linecap="butt"
     d="m 32.5,195 h 700"
     fill-rule="nonzero"
     id="path9" />
  <path
     stroke="#cccccc"
     stroke-width="1"
     stroke-linecap="butt"
     d="m 32.5,152 h 700"
     fill-rule="nonzero"
     id="path10" />
  <path
     stroke="#cccccc"
     stroke-width="1"
     stroke-linecap="butt"
     d="m 32.5,110 h 700"
     fill-rule="nonzero"
     id="path11" />
  <path
     stroke="#cccccc"
     stroke-width="1"
     stroke-linecap="butt"
     d="m 32.5,67 h 700"
     fill-rule="nonzero"
     id="path12" />
  <path
     stroke="#cccccc"
     stroke-width="1"
     stroke-linecap="butt"
     d="m 32.5,25 h 700"
     fill-rule="nonzero"
     id="path13" />
  <clipPath
     id="id_0">
    <path
       d="m 47.5,43.166668 h 700 V 255.5 h -700 z"
       clip-rule="nonzero"
       id="path14" />
  </clipPath>
  <path
     stroke="#4285f4"
     stroke-width="2"
     stroke-linecap="butt"
     clip-path="url(#id_0)"
     d="m 57.22222,255.29695 c 0,0 0.422273,-0.0554 0.633405,-0.0742 0.211135,-0.0187 2.419602,-0.14473 3.629398,-0.21906 1.209801,-0.0743 11.313037,-0.74556 16.969552,-1.06092 5.656515,-0.31536 42.088945,-2.0298 63.133405,-3.09255 21.04448,-1.06275 131.52942,-6.83682 197.29412,-10.26228 65.76472,-3.42548 376.1845,-19.58556 381.8623,-19.91733 5.6778,-0.33176 17.0334,-1.10214 17.0334,-1.10214"
     fill-rule="nonzero"
     id="path15"
     transform="translate(-15,-18.5)" />
  <path
     stroke="#ea4335"
     stroke-width="2"
     stroke-linecap="butt"
     clip-path="url(#id_0)"
     d="m 57.22222,255.30608 c 0,0 0.422273,-0.0495 0.633405,-0.0806 0.211135,-0.0311 2.419602,-0.45736 3.629398,-0.60746 1.209801,-0.1501 11.313037,-0.8424 16.969552,-1.37052 5.656515,-0.5281 42.088945,-4.46902 63.133405,-6.68997 21.04448,-2.22095 131.52942,-13.87137 197.29412,-20.73672 65.76472,-6.86536 376.1845,-38.97986 381.8623,-39.59137 5.6778,-0.61152 17.0334,-1.90307 17.0334,-1.90307"
     fill-rule="nonzero"
     id="path16"
     transform="translate(-15,-18.5)" />
  <path
     stroke="#fbbc04"
     stroke-width="2"
     stroke-linecap="butt"
     clip-path="url(#id_0)"
     d="m 57.22222,255.247 c 0,0 0.422273,-0.18365 0.633405,-0.26119 0.211135,-0.0776 2.419602,-0.79144 3.629398,-1.16959 1.209801,-0.37814 11.313037,-3.37346 16.969552,-5.13969 5.656515,-1.76623 42.088945,-13.65564 63.133405,-20.30486 21.04448,-6.64923 131.52942,-40.97139 197.29412,-61.22094 65.76472,-20.24956 376.1845,-114.927612 381.8623,-116.664814 5.6778,-1.737202 17.0334,-5.219256 17.0334,-5.219256"
     fill-rule="nonzero"
     id="path17"
     transform="translate(-15,-18.5)" />
  <path
     fill="#4285f4"
     clip-path="url(#id_0)"
     d="m 63.22222,255.29695 c 0,3.31371 -2.68629,5.99999 -6,5.99999 -3.313708,0 -6,-2.68628 -6,-5.99999 0,-3.3137 2.686292,-6 6,-6 3.31371,0 6,2.6863 6,6 z"
     fill-rule="nonzero"
     id="path18"
     transform="translate(-15,-18.5)" />
  <path
     fill="#4285f4"
     clip-path="url(#id_0)"
     d="m 63.855625,255.22278 c 0,3.31372 -2.686291,6 -6,6 -3.313705,0 -6,-2.68628 -6,-6 0,-3.31371 2.686295,-6 6,-6 3.313709,0 6,2.68629 6,6 z"
     fill-rule="nonzero"
     id="path19"
     transform="translate(-15,-18.5)" />
  <path
     fill="#4285f4"
     clip-path="url(#id_0)"
     d="m 67.48502,255.00372 c 0,3.31368 -2.68629,6 -5.999997,6 -3.313709,0 -6,-2.68632 -6,-6 0,-3.31372 2.686291,-6 6,-6 3.313707,0 5.999997,2.68628 5.999997,6 z"
     fill-rule="nonzero"
     id="path20"
     transform="translate(-15,-18.5)" />
  <path
     fill="#4285f4"
     clip-path="url(#id_0)"
     d="m 84.454575,253.9428 c 0,3.3137 -2.686295,6 -6,6 -3.313705,0 -6,-2.6863 -6,-6 0,-3.31371 2.686295,-6 6,-6 3.313705,0 6,2.68629 6,6 z"
     fill-rule="nonzero"
     id="path21"
     transform="translate(-15,-18.5)" />
  <path
     fill="#4285f4"
     clip-path="url(#id_0)"
     d="m 147.58798,250.85025 c 0,3.31371 -2.68628,6 -6,6 -3.3137,0 -6,-2.68629 -6,-6 0,-3.31371 2.6863,-6 6,-6 3.31372,0 6,2.68629 6,6 z"
     fill-rule="nonzero"
     id="path22"
     transform="translate(-15,-18.5)" />
  <path
     fill="#4285f4"
     clip-path="url(#id_0)"
     d="m 344.8821,240.58797 c 0,3.3137 -2.68627,6 -6,6 -3.31368,0 -6,-2.6863 -6,-6 0,-3.31371 2.68632,-6 6,-6 3.31373,0 6,2.68629 6,6 z"
     fill-rule="nonzero"
     id="path23"
     transform="translate(-15,-18.5)" />
  <path
     fill="#4285f4"
     clip-path="url(#id_0)"
     d="m 726.7444,220.67064 c 0,3.31372 -2.6863,6 -6,6 -3.31374,0 -6,-2.68628 -6,-6 0,-3.31371 2.68626,-6 6,-6 3.3137,0 6,2.68629 6,6 z"
     fill-rule="nonzero"
     id="path24"
     transform="translate(-15,-18.5)" />
  <path
     fill="#4285f4"
     clip-path="url(#id_0)"
     d="m 743.7778,219.5685 c 0,3.3137 -2.6863,6 -6,6 -3.31375,0 -6,-2.6863 -6,-6 0,-3.31371 2.68625,-6 6,-6 3.3137,0 6,2.68629 6,6 z"
     fill-rule="nonzero"
     id="path25"
     transform="translate(-15,-18.5)" />
  <path
     fill="#ea4335"
     clip-path="url(#id_0)"
     d="m 63.22222,255.30608 c 0,3.3137 -2.68629,6.00002 -6,6.00002 -3.313708,0 -6,-2.68632 -6,-6.00002 0,-3.31371 2.686292,-6 6,-6 3.31371,0 6,2.68629 6,6 z"
     fill-rule="nonzero"
     id="path26"
     transform="translate(-15,-18.5)" />
  <path
     fill="#ea4335"
     clip-path="url(#id_0)"
     d="m 63.855625,255.22546 c 0,3.31372 -2.686291,6 -6,6 -3.313705,0 -6,-2.68628 -6,-6 0,-3.3137 2.686295,-6 6,-6 3.313709,0 6,2.6863 6,6 z"
     fill-rule="nonzero"
     id="path27"
     transform="translate(-15,-18.5)" />
  <path
     fill="#ea4335"
     clip-path="url(#id_0)"
     d="m 67.48502,254.618 c 0,3.3137 -2.68629,6 -5.999997,6 -3.313709,0 -6,-2.6863 -6,-6 0,-3.31371 2.686291,-6 6,-6 3.313707,0 5.999997,2.68629 5.999997,6 z"
     fill-rule="nonzero"
     id="path28"
     transform="translate(-15,-18.5)" />
  <path
     fill="#ea4335"
     clip-path="url(#id_0)"
     d="m 84.454575,253.24748 c 0,3.31372 -2.686295,6.00002 -6,6.00002 -3.313705,0 -6,-2.6863 -6,-6.00002 0,-3.3137 2.686295,-6 6,-6 3.313705,0 6,2.6863 6,6 z"
     fill-rule="nonzero"
     id="path29"
     transform="translate(-15,-18.5)" />
  <path
     fill="#ea4335"
     clip-path="url(#id_0)"
     d="m 147.58798,246.55751 c 0,3.31371 -2.68628,6 -6,6 -3.3137,0 -6,-2.68629 -6,-6 0,-3.31371 2.6863,-6 6,-6 3.31372,0 6,2.68629 6,6 z"
     fill-rule="nonzero"
     id="path30"
     transform="translate(-15,-18.5)" />
  <path
     fill="#ea4335"
     clip-path="url(#id_0)"
     d="m 344.8821,225.82079 c 0,3.3137 -2.68627,6 -6,6 -3.31368,0 -6,-2.6863 -6,-6 0,-3.31371 2.68632,-6 6,-6 3.31373,0 6,2.68629 6,6 z"
     fill-rule="nonzero"
     id="path31"
     transform="translate(-15,-18.5)" />
  <path
     fill="#ea4335"
     clip-path="url(#id_0)"
     d="m 726.7444,186.22942 c 0,3.3137 -2.6863,6 -6,6 -3.31374,0 -6,-2.6863 -6,-6 0,-3.31372 2.68626,-6 6,-6 3.3137,0 6,2.68628 6,6 z"
     fill-rule="nonzero"
     id="path32"
     transform="translate(-15,-18.5)" />
  <path
     fill="#ea4335"
     clip-path="url(#id_0)"
     d="m 743.7778,184.32635 c 0,3.31371 -2.6863,6 -6,6 -3.31375,0 -6,-2.68629 -6,-6 0,-3.3137 2.68625,-6 6,-6 3.3137,0 6,2.6863 6,6 z"
     fill-rule="nonzero"
     id="path33"
     transform="translate(-15,-18.5)" />
  <path
     fill="#fbbc04"
     clip-path="url(#id_0)"
     d="m 63.22222,255.247 c 0,3.3137 -2.68629,5.99998 -6,5.99998 -3.313708,0 -6,-2.68628 -6,-5.99998 0,-3.31371 2.686292,-6 6,-6 3.31371,0 6,2.68629 6,6 z"
     fill-rule="nonzero"
     id="path34"
     transform="translate(-15,-18.5)" />
  <path
     fill="#fbbc04"
     clip-path="url(#id_0)"
     d="m 63.855625,254.98581 c 0,3.31372 -2.686291,5.99999 -6,5.99999 -3.313705,0 -6,-2.68627 -6,-5.99999 0,-3.31371 2.686295,-6 6,-6 3.313709,0 6,2.68629 6,6 z"
     fill-rule="nonzero"
     id="path35"
     transform="translate(-15,-18.5)" />
  <path
     fill="#fbbc04"
     clip-path="url(#id_0)"
     d="m 67.48502,253.81622 c 0,3.31372 -2.68629,6 -5.999997,6 -3.313709,0 -6,-2.68628 -6,-6 0,-3.3137 2.686291,-6 6,-6 3.313707,0 5.999997,2.6863 5.999997,6 z"
     fill-rule="nonzero"
     id="path36"
     transform="translate(-15,-18.5)" />
  <path
     fill="#fbbc04"
     clip-path="url(#id_0)"
     d="m 84.454575,248.67653 c 0,3.3137 -2.686295,6 -6,6 -3.313705,0 -6,-2.6863 -6,-6 0,-3.31372 2.686295,-6 6,-6 3.313705,0 6,2.68628 6,6 z"
     fill-rule="nonzero"
     id="path37"
     transform="translate(-15,-18.5)" />
  <path
     fill="#fbbc04"
     clip-path="url(#id_0)"
     d="m 147.58798,228.37167 c 0,3.31371 -2.68628,6 -6,6 -3.3137,0 -6,-2.68629 -6,-6 0,-3.31372 2.6863,-6 6,-6 3.31372,0 6,2.68628 6,6 z"
     fill-rule="nonzero"
     id="path38"
     transform="translate(-15,-18.5)" />
  <path
     fill="#fbbc04"
     clip-path="url(#id_0)"
     d="m 344.8821,167.15073 c 0,3.3137 -2.68627,6 -6,6 -3.31368,0 -6,-2.6863 -6,-6 0,-3.31373 2.68632,-6 6,-6 3.31373,0 6,2.68627 6,6 z"
     fill-rule="nonzero"
     id="path39"
     transform="translate(-15,-18.5)" />
  <path
     fill="#fbbc04"
     clip-path="url(#id_0)"
     d="m 726.7444,50.485916 c 0,3.313709 -2.6863,6 -6,6 -3.31374,0 -6,-2.686291 -6,-6 0,-3.313709 2.68626,-6 6,-6 3.3137,0 6,2.686291 6,6 z"
     fill-rule="nonzero"
     id="path40"
     transform="translate(-15,-18.5)" />
  <path
     fill="#fbbc04"
     clip-path="url(#id_0)"
     d="m 743.7778,45.26666 c 0,3.313708 -2.6863,6 -6,6 -3.31375,0 -6,-2.686292 -6,-6 0,-3.313707 2.68625,-6 6,-6 3.3137,0 6,2.686293 6,6 z"
     fill-rule="nonzero"
     id="path41"
     transform="translate(-15,-18.5)" />
  <path
     fill="#000000"
     d="m 0,236.76562 q 0,-1.53124 0.3125,-2.45312 0.3125,-0.9375 0.921875,-1.4375 0.625,-0.5 1.5625,-0.5 0.6875,0 1.203125,0.28125 0.53125,0.28125 0.875,0.8125 0.34375,0.51563 0.53125,1.26563 0.1875,0.75 0.1875,2.03124 0,1.51563 -0.3125,2.4375 -0.296875,0.92188 -0.921875,1.4375 -0.609375,0.5 -1.5625,0.5 -1.234375,0 -1.953125,-0.89062 Q 0,239.1875 0,236.76562 Z m 1.078125,0 q 0,2.10938 0.5,2.8125 0.5,0.70313 1.21875,0.70313 0.734375,0 1.21875,-0.70313 0.5,-0.70312 0.5,-2.8125 0,-2.125 -0.5,-2.8125 Q 3.53125,233.25 2.78125,233.25 q -0.71875,0 -1.15625,0.60938 -0.546875,0.78124 -0.546875,2.90624 z M 7.59375,241 v -1.20312 H 8.796875 V 241 Z M 10,236.76562 q 0,-1.53124 0.3125,-2.45312 0.3125,-0.9375 0.921875,-1.4375 0.625,-0.5 1.5625,-0.5 0.6875,0 1.203125,0.28125 0.53125,0.28125 0.875,0.8125 0.34375,0.51563 0.53125,1.26563 0.1875,0.75 0.1875,2.03124 0,1.51563 -0.3125,2.4375 -0.296875,0.92188 -0.921875,1.4375 -0.609375,0.5 -1.5625,0.5 -1.234375,0 -1.953125,-0.89062 Q 10,239.1875 10,236.76562 Z m 1.078125,0 q 0,2.10938 0.5,2.8125 0.5,0.70313 1.21875,0.70313 0.734375,0 1.21875,-0.70313 0.5,-0.70312 0.5,-2.8125 0,-2.125 -0.5,-2.8125 Q 13.53125,233.25 12.78125,233.25 q -0.71875,0 -1.15625,0.60938 -0.546875,0.78124 -0.546875,2.90624 z m 8.796875,2.375 1.03125,-0.15624 q 0.09375,0.625 0.484375,0.95312 0.40625,0.32812 1.140625,0.32812 0.71875,0 1.0625,-0.28124 0.359375,-0.29688 0.359375,-0.70313 0,-0.35937 -0.3125,-0.5625 -0.21875,-0.14063 -1.078125,-0.35937 -1.15625,-0.29688 -1.609375,-0.5 -0.4375,-0.21876 -0.671875,-0.59376 -0.234375,-0.375 -0.234375,-0.84374 0,-0.40626 0.1875,-0.76563 0.1875,-0.35937 0.515625,-0.59375 0.25,-0.17188 0.671875,-0.29688 0.421875,-0.125 0.921875,-0.125 0.71875,0 1.265625,0.21876 0.5625,0.20312 0.828125,0.5625 0.265625,0.35937 0.359375,0.95312 l -1.03125,0.14062 q -0.0625,-0.46874 -0.40625,-0.73437 Q 23.03125,235.5 22.40625,235.5 q -0.71875,0 -1.03125,0.25 -0.3125,0.23438 -0.3125,0.5625 0,0.20312 0.125,0.35938 0.140625,0.17187 0.40625,0.28124 0.15625,0.0625 0.9375,0.26563 1.125,0.3125 1.5625,0.5 0.4375,0.1875 0.6875,0.54687 0.25,0.35938 0.25,0.90626 0,0.53124 -0.3125,1 -0.296875,0.45312 -0.875,0.71874 -0.578125,0.25 -1.3125,0.25 -1.21875,0 -1.859375,-0.5 -0.625,-0.51562 -0.796875,-1.5 z"
     fill-rule="nonzero"
     id="path42" />
  <path
     fill="#000000"
     d="m 0,194.29897 q 0,-1.53125 0.3125,-2.45313 0.3125,-0.9375 0.921875,-1.4375 0.625,-0.5 1.5625,-0.5 0.6875,0 1.203125,0.28125 0.53125,0.28125 0.875,0.8125 0.34375,0.51563 0.53125,1.26563 0.1875,0.75 0.1875,2.03125 0,1.51562 -0.3125,2.4375 -0.296875,0.92187 -0.921875,1.4375 -0.609375,0.5 -1.5625,0.5 -1.234375,0 -1.953125,-0.89063 Q 0,196.72084 0,194.29897 Z m 1.078125,0 q 0,2.10937 0.5,2.8125 0.5,0.70312 1.21875,0.70312 0.734375,0 1.21875,-0.70312 0.5,-0.70313 0.5,-2.8125 0,-2.125 -0.5,-2.8125 -0.484375,-0.70313 -1.234375,-0.70313 -0.71875,0 -1.15625,0.60938 -0.546875,0.78125 -0.546875,2.90625 z m 6.515625,4.23437 v -1.20312 h 1.203125 v 1.20312 z m 6.375,0 h -1.046875 v -6.71875 q -0.390625,0.35938 -1.015625,0.73438 -0.609375,0.35937 -1.09375,0.53125 v -1.01563 q 0.875,-0.42187 1.53125,-1 0.671875,-0.59375 0.953125,-1.15625 h 0.671875 z m 5.90625,-1.85937 1.03125,-0.15625 q 0.09375,0.625 0.484375,0.95312 0.40625,0.32813 1.140625,0.32813 0.71875,0 1.0625,-0.28125 0.359375,-0.29688 0.359375,-0.70313 0,-0.35937 -0.3125,-0.5625 -0.21875,-0.14062 -1.078125,-0.35937 -1.15625,-0.29688 -1.609375,-0.5 -0.4375,-0.21875 -0.671875,-0.59375 -0.234375,-0.375 -0.234375,-0.84375 0,-0.40625 0.1875,-0.76563 0.1875,-0.35937 0.515625,-0.59375 0.25,-0.17187 0.671875,-0.29687 0.421875,-0.125 0.921875,-0.125 0.71875,0 1.265625,0.21875 0.5625,0.20312 0.828125,0.5625 0.265625,0.35937 0.359375,0.95312 l -1.03125,0.14063 q -0.0625,-0.46875 -0.40625,-0.73438 -0.328125,-0.28125 -0.953125,-0.28125 -0.71875,0 -1.03125,0.25 -0.3125,0.23438 -0.3125,0.5625 0,0.20313 0.125,0.35938 0.140625,0.17187 0.40625,0.28125 0.15625,0.0625 0.9375,0.26562 1.125,0.3125 1.5625,0.5 0.4375,0.1875 0.6875,0.54688 0.25,0.35937 0.25,0.90625 0,0.53125 -0.3125,1 -0.296875,0.45312 -0.875,0.71875 -0.578125,0.25 -1.3125,0.25 -1.21875,0 -1.859375,-0.5 -0.625,-0.51563 -0.796875,-1.5 z"
     fill-rule="nonzero"
     id="path43" />
  <path
     fill="#000000"
     d="m 0,151.83229 q 0,-1.53125 0.3125,-2.45312 0.3125,-0.9375 0.921875,-1.4375 0.625,-0.5 1.5625,-0.5 0.6875,0 1.203125,0.28125 0.53125,0.28125 0.875,0.8125 0.34375,0.51562 0.53125,1.26562 0.1875,0.75 0.1875,2.03125 0,1.51563 -0.3125,2.4375 -0.296875,0.92188 -0.921875,1.4375 -0.609375,0.5 -1.5625,0.5 -1.234375,0 -1.953125,-0.89062 Q 0,154.25417 0,151.83229 Z m 1.078125,0 q 0,2.10938 0.5,2.8125 0.5,0.70313 1.21875,0.70313 0.734375,0 1.21875,-0.70313 0.5,-0.70312 0.5,-2.8125 0,-2.125 -0.5,-2.8125 -0.484375,-0.70312 -1.234375,-0.70312 -0.71875,0 -1.15625,0.60937 -0.546875,0.78125 -0.546875,2.90625 z m 6.515625,4.23438 v -1.20313 h 1.203125 v 1.20313 z m 6.375,0 h -1.046875 v -6.71875 q -0.390625,0.35937 -1.015625,0.73437 -0.609375,0.35938 -1.09375,0.53125 v -1.01562 q 0.875,-0.42188 1.53125,-1 0.671875,-0.59375 0.953125,-1.15625 h 0.671875 z m 5.90625,-1.85938 1.03125,-0.15625 q 0.09375,0.625 0.484375,0.95313 0.40625,0.32812 1.140625,0.32812 0.71875,0 1.0625,-0.28125 0.359375,-0.29687 0.359375,-0.70312 0,-0.35938 -0.3125,-0.5625 -0.21875,-0.14063 -1.078125,-0.35938 -1.15625,-0.29687 -1.609375,-0.5 -0.4375,-0.21875 -0.671875,-0.59375 -0.234375,-0.375 -0.234375,-0.84375 0,-0.40625 0.1875,-0.76562 0.1875,-0.35938 0.515625,-0.59375 0.25,-0.17188 0.671875,-0.29688 0.421875,-0.125 0.921875,-0.125 0.71875,0 1.265625,0.21875 0.5625,0.20313 0.828125,0.5625 0.265625,0.35938 0.359375,0.95313 l -1.03125,0.14062 q -0.0625,-0.46875 -0.40625,-0.73437 -0.328125,-0.28125 -0.953125,-0.28125 -0.71875,0 -1.03125,0.25 -0.3125,0.23437 -0.3125,0.5625 0,0.20312 0.125,0.35937 0.140625,0.17188 0.40625,0.28125 0.15625,0.0625 0.9375,0.26563 1.125,0.3125 1.5625,0.5 0.4375,0.1875 0.6875,0.54687 0.25,0.35938 0.25,0.90625 0,0.53125 -0.3125,1 -0.296875,0.45313 -0.875,0.71875 -0.578125,0.25 -1.3125,0.25 -1.21875,0 -1.859375,-0.5 -0.625,-0.51562 -0.796875,-1.5 z"
     fill-rule="nonzero"
     id="path44" />
  <path
     fill="#000000"
     d="m 0,109.36563 q 0,-1.53125 0.3125,-2.45312 0.3125,-0.9375 0.921875,-1.4375 0.625,-0.5 1.5625,-0.5 0.6875,0 1.203125,0.28125 0.53125,0.28125 0.875,0.8125 0.34375,0.51562 0.53125,1.26562 0.1875,0.75 0.1875,2.03125 0,1.51563 -0.3125,2.4375 -0.296875,0.92187 -0.921875,1.4375 -0.609375,0.5 -1.5625,0.5 -1.234375,0 -1.953125,-0.89063 Q 0,111.7875 0,109.36563 Z m 1.078125,0 q 0,2.10937 0.5,2.8125 0.5,0.70313 1.21875,0.70313 0.734375,0 1.21875,-0.70313 0.5,-0.70313 0.5,-2.8125 0,-2.125 -0.5,-2.8125 -0.484375,-0.70312 -1.234375,-0.70312 -0.71875,0 -1.15625,0.60937 -0.546875,0.78125 -0.546875,2.90625 z M 7.59375,113.6 v -1.20312 H 8.796875 V 113.6 Z m 7.953125,-1.01562 V 113.6 h -5.6875 q 0,-0.375 0.125,-0.73437 0.21875,-0.57813 0.6875,-1.14063 0.484375,-0.5625 1.390625,-1.29687 1.40625,-1.15625 1.890625,-1.82812 0.5,-0.67188 0.5,-1.26563 0,-0.625 -0.453125,-1.04687 -0.453125,-0.4375 -1.171875,-0.4375 -0.765625,0 -1.21875,0.45312 -0.453125,0.45313 -0.46875,1.26563 L 10.0625,107.45938 q 0.109375,-1.21875 0.828125,-1.84375 0.734375,-0.64062 1.96875,-0.64062 1.234375,0 1.953125,0.6875 0.71875,0.6875 0.71875,1.70312 0,0.51563 -0.21875,1.01563 -0.203125,0.48437 -0.703125,1.04687 -0.484375,0.54687 -1.609375,1.5 -0.953125,0.79687 -1.234375,1.09375 -0.265625,0.28125 -0.4375,0.5625 z m 4.328125,-0.84375 1.03125,-0.15625 q 0.09375,0.625 0.484375,0.95312 0.40625,0.32813 1.140625,0.32813 0.71875,0 1.0625,-0.28125 0.359375,-0.29688 0.359375,-0.70312 0,-0.35938 -0.3125,-0.5625 -0.21875,-0.14063 -1.078125,-0.35938 -1.15625,-0.29688 -1.609375,-0.5 -0.4375,-0.21875 -0.671875,-0.59375 -0.234375,-0.375 -0.234375,-0.84375 0,-0.40625 0.1875,-0.76562 0.1875,-0.35938 0.515625,-0.59375 0.25,-0.17188 0.671875,-0.29688 0.421875,-0.125 0.921875,-0.125 0.71875,0 1.265625,0.21875 0.5625,0.20313 0.828125,0.5625 0.265625,0.35938 0.359375,0.95313 l -1.03125,0.14062 q -0.0625,-0.46875 -0.40625,-0.73437 -0.328125,-0.28125 -0.953125,-0.28125 -0.71875,0 -1.03125,0.25 -0.3125,0.23437 -0.3125,0.5625 0,0.20312 0.125,0.35937 0.140625,0.17188 0.40625,0.28125 0.15625,0.0625 0.9375,0.26563 1.125,0.3125 1.5625,0.5 0.4375,0.1875 0.6875,0.54687 0.25,0.35937 0.25,0.90625 0,0.53125 -0.3125,1 -0.296875,0.45312 -0.875,0.71875 -0.578125,0.25 -1.3125,0.25 -1.21875,0 -1.859375,-0.5 -0.625,-0.51563 -0.796875,-1.5 z"
     fill-rule="nonzero"
     id="path45" />
  <path
     fill="#000000"
     d="m 0,66.89896 q 0,-1.53125 0.3125,-2.45313 0.3125,-0.9375 0.921875,-1.4375 0.625,-0.5 1.5625,-0.5 0.6875,0 1.203125,0.28125 0.53125,0.28125 0.875,0.8125 0.34375,0.51563 0.53125,1.26563 0.1875,0.75 0.1875,2.03125 0,1.51562 -0.3125,2.4375 -0.296875,0.92187 -0.921875,1.4375 -0.609375,0.5 -1.5625,0.5 -1.234375,0 -1.953125,-0.89063 Q 0,69.32083 0,66.89896 Z m 1.078125,0 q 0,2.10937 0.5,2.8125 0.5,0.70312 1.21875,0.70312 0.734375,0 1.21875,-0.70312 0.5,-0.70313 0.5,-2.8125 0,-2.125 -0.5,-2.8125 -0.484375,-0.70313 -1.234375,-0.70313 -0.71875,0 -1.15625,0.60938 -0.546875,0.78125 -0.546875,2.90625 z m 6.515625,4.23437 v -1.20312 h 1.203125 v 1.20312 z m 7.953125,-1.01562 v 1.01562 h -5.6875 q 0,-0.375 0.125,-0.73437 0.21875,-0.57813 0.6875,-1.14063 0.484375,-0.5625 1.390625,-1.29687 1.40625,-1.15625 1.890625,-1.82813 0.5,-0.67187 0.5,-1.26562 0,-0.625 -0.453125,-1.04688 -0.453125,-0.4375 -1.171875,-0.4375 -0.765625,0 -1.21875,0.45313 -0.453125,0.45312 -0.46875,1.26562 L 10.0625,64.99271 q 0.109375,-1.21875 0.828125,-1.84375 0.734375,-0.64063 1.96875,-0.64063 1.234375,0 1.953125,0.6875 0.71875,0.6875 0.71875,1.70313 0,0.51562 -0.21875,1.01562 -0.203125,0.48438 -0.703125,1.04688 Q 14.125,67.50833 13,68.46146 12.046875,69.25833 11.765625,69.55521 11.5,69.83646 11.328125,70.11771 Z M 19.875,69.27396 20.90625,69.11771 q 0.09375,0.625 0.484375,0.95312 0.40625,0.32813 1.140625,0.32813 0.71875,0 1.0625,-0.28125 0.359375,-0.29688 0.359375,-0.70313 0,-0.35937 -0.3125,-0.5625 -0.21875,-0.14062 -1.078125,-0.35937 -1.15625,-0.29688 -1.609375,-0.5 -0.4375,-0.21875 -0.671875,-0.59375 -0.234375,-0.375 -0.234375,-0.84375 0,-0.40625 0.1875,-0.76563 0.1875,-0.35937 0.515625,-0.59375 0.25,-0.17187 0.671875,-0.29687 0.421875,-0.125 0.921875,-0.125 0.71875,0 1.265625,0.21875 0.5625,0.20312 0.828125,0.5625 0.265625,0.35937 0.359375,0.95312 l -1.03125,0.14063 q -0.0625,-0.46875 -0.40625,-0.73438 -0.328125,-0.28125 -0.953125,-0.28125 -0.71875,0 -1.03125,0.25 -0.3125,0.23438 -0.3125,0.5625 0,0.20313 0.125,0.35938 0.140625,0.17187 0.40625,0.28125 0.15625,0.0625 0.9375,0.26562 1.125,0.3125 1.5625,0.5 0.4375,0.1875 0.6875,0.54688 0.25,0.35937 0.25,0.90625 0,0.53125 -0.3125,1 -0.296875,0.45312 -0.875,0.71875 -0.578125,0.25 -1.3125,0.25 -1.21875,0 -1.859375,-0.5 -0.625,-0.51563 -0.796875,-1.5 z"
     fill-rule="nonzero"
     id="path46" />
  <path
     fill="#000000"
     d="m 0,24.432293 q 0,-1.53125 0.3125,-2.453125 0.3125,-0.9375 0.921875,-1.4375 0.625,-0.5 1.5625,-0.5 0.6875,0 1.203125,0.28125 0.53125,0.28125 0.875,0.8125 0.34375,0.515625 0.53125,1.265625 0.1875,0.75 0.1875,2.03125 0,1.515625 -0.3125,2.4375 -0.296875,0.921875 -0.921875,1.4375 -0.609375,0.5 -1.5625,0.5 -1.234375,0 -1.953125,-0.890625 Q 0,26.854168 0,24.432293 Z m 1.078125,0 q 0,2.109375 0.5,2.8125 0.5,0.703125 1.21875,0.703125 0.734375,0 1.21875,-0.703125 0.5,-0.703125 0.5,-2.8125 0,-2.125 -0.5,-2.8125 -0.484375,-0.703125 -1.234375,-0.703125 -0.71875,0 -1.15625,0.609375 -0.546875,0.78125 -0.546875,2.90625 z m 6.515625,4.234375 v -1.203125 h 1.203125 v 1.203125 z M 10,26.401043 11.0625,26.260418 q 0.171875,0.890625 0.609375,1.296875 0.4375,0.390625 1.0625,0.390625 0.75,0 1.265625,-0.515625 0.515625,-0.515625 0.515625,-1.28125 0,-0.71875 -0.484375,-1.1875 -0.46875,-0.484375 -1.203125,-0.484375 -0.296875,0 -0.75,0.125 l 0.125,-0.9375 q 0.109375,0.01563 0.171875,0.01563 0.671875,0 1.203125,-0.34375 0.546875,-0.359375 0.546875,-1.09375 0,-0.578125 -0.390625,-0.953125 -0.390625,-0.390625 -1.015625,-0.390625 -0.609375,0 -1.03125,0.390625 -0.40625,0.390625 -0.515625,1.15625 l -1.0625,-0.1875 q 0.1875,-1.046875 0.875,-1.625 0.6875,-0.59375 1.703125,-0.59375 0.703125,0 1.296875,0.3125 0.59375,0.296875 0.90625,0.8125 0.3125,0.515625 0.3125,1.109375 0,0.546875 -0.296875,1.015625 -0.296875,0.453125 -0.875,0.71875 0.75,0.171875 1.171875,0.734375 0.421875,0.546875 0.421875,1.390625 0,1.125 -0.828125,1.90625 -0.8125,0.78125 -2.0625,0.78125 -1.125,0 -1.875,-0.671875 -0.75,-0.6875 -0.859375,-1.75 z m 9.875,0.40625 1.03125,-0.15625 q 0.09375,0.625 0.484375,0.953125 0.40625,0.328125 1.140625,0.328125 0.71875,0 1.0625,-0.28125 0.359375,-0.296875 0.359375,-0.703125 0,-0.359375 -0.3125,-0.5625 -0.21875,-0.140625 -1.078125,-0.359375 -1.15625,-0.296875 -1.609375,-0.5 -0.4375,-0.21875 -0.671875,-0.59375 -0.234375,-0.375 -0.234375,-0.84375 0,-0.40625 0.1875,-0.765625 0.1875,-0.359375 0.515625,-0.59375 0.25,-0.171875 0.671875,-0.296875 0.421875,-0.125 0.921875,-0.125 0.71875,0 1.265625,0.21875 0.5625,0.203125 0.828125,0.5625 0.265625,0.359375 0.359375,0.953125 l -1.03125,0.140625 q -0.0625,-0.46875 -0.40625,-0.734375 -0.328125,-0.28125 -0.953125,-0.28125 -0.71875,0 -1.03125,0.25 -0.3125,0.234375 -0.3125,0.5625 0,0.203125 0.125,0.359375 0.140625,0.171875 0.40625,0.28125 0.15625,0.0625 0.9375,0.265625 1.125,0.3125 1.5625,0.5 0.4375,0.1875 0.6875,0.546875 0.25,0.359375 0.25,0.90625 0,0.53125 -0.3125,1 -0.296875,0.453125 -0.875,0.71875 -0.578125,0.25 -1.3125,0.25 -1.21875,0 -1.859375,-0.5 -0.625,-0.515625 -0.796875,-1.5 z"
     fill-rule="nonzero"
     id="path47" />
  <path
     fill="#000000"
     d="m 146.1007,254 h -1.04688 v -6.71875 q -0.39062,0.35937 -1.01562,0.73437 -0.60938,0.35938 -1.09376,0.53126 v -1.01563 q 0.875,-0.42187 1.53126,-1 0.67187,-0.59375 0.95312,-1.15625 h 0.67188 z m 3.03124,-4.23438 q 0,-1.53124 0.3125,-2.45312 0.3125,-0.9375 0.92188,-1.4375 0.625,-0.5 1.5625,-0.5 0.6875,0 1.20312,0.28125 0.53126,0.28125 0.875,0.8125 0.34376,0.51563 0.53126,1.26563 0.1875,0.75 0.1875,2.03124 0,1.51563 -0.3125,2.4375 -0.29688,0.92188 -0.92188,1.4375 -0.60938,0.5 -1.5625,0.5 -1.23438,0 -1.95312,-0.89062 -0.84376,-1.0625 -0.84376,-3.48438 z m 1.07813,0 q 0,2.10938 0.5,2.8125 0.5,0.70313 1.21875,0.70313 0.73438,0 1.21875,-0.70313 0.5,-0.70312 0.5,-2.8125 0,-2.125 -0.5,-2.8125 -0.48437,-0.70312 -1.23437,-0.70312 -0.71876,0 -1.15626,0.60938 -0.54687,0.78124 -0.54687,2.90624 z m 8.92187,0 q 0,-1.53124 0.3125,-2.45312 0.3125,-0.9375 0.92188,-1.4375 0.625,-0.5 1.5625,-0.5 0.6875,0 1.20312,0.28125 0.53126,0.28125 0.875,0.8125 0.34376,0.51563 0.53126,1.26563 0.1875,0.75 0.1875,2.03124 0,1.51563 -0.3125,2.4375 -0.29688,0.92188 -0.92188,1.4375 -0.60938,0.5 -1.5625,0.5 -1.23438,0 -1.95312,-0.89062 -0.84376,-1.0625 -0.84376,-3.48438 z m 1.07813,0 q 0,2.10938 0.5,2.8125 0.5,0.70313 1.21875,0.70313 0.73438,0 1.21875,-0.70313 0.5,-0.70312 0.5,-2.8125 0,-2.125 -0.5,-2.8125 -0.48437,-0.70312 -1.23437,-0.70312 -0.71876,0 -1.15626,0.60938 -0.54687,0.78124 -0.54687,2.90624 z m 5.92187,0 q 0,-1.53124 0.3125,-2.45312 0.3125,-0.9375 0.92188,-1.4375 0.625,-0.5 1.5625,-0.5 0.6875,0 1.20312,0.28125 0.53126,0.28125 0.875,0.8125 0.34376,0.51563 0.53126,1.26563 0.1875,0.75 0.1875,2.03124 0,1.51563 -0.3125,2.4375 -0.29688,0.92188 -0.92188,1.4375 -0.60938,0.5 -1.5625,0.5 -1.23438,0 -1.95312,-0.89062 -0.84376,-1.0625 -0.84376,-3.48438 z m 1.07813,0 q 0,2.10938 0.5,2.8125 0.5,0.70313 1.21875,0.70313 0.73438,0 1.21875,-0.70313 0.5,-0.70312 0.5,-2.8125 0,-2.125 -0.5,-2.8125 -0.48437,-0.70312 -1.23437,-0.70312 -0.71876,0 -1.15626,0.60938 -0.54687,0.78124 -0.54687,2.90624 z m 5.92187,0 q 0,-1.53124 0.3125,-2.45312 0.3125,-0.9375 0.92188,-1.4375 0.625,-0.5 1.5625,-0.5 0.6875,0 1.20312,0.28125 0.53126,0.28125 0.875,0.8125 0.34376,0.51563 0.53126,1.26563 0.1875,0.75 0.1875,2.03124 0,1.51563 -0.3125,2.4375 -0.29688,0.92188 -0.92188,1.4375 -0.60938,0.5 -1.5625,0.5 -1.23438,0 -1.95312,-0.89062 -0.84376,-1.0625 -0.84376,-3.48438 z m 1.07813,0 q 0,2.10938 0.5,2.8125 0.5,0.70313 1.21875,0.70313 0.73438,0 1.21875,-0.70313 0.5,-0.70312 0.5,-2.8125 0,-2.125 -0.5,-2.8125 -0.48437,-0.70312 -1.23437,-0.70312 -0.71876,0 -1.15626,0.60938 -0.54687,0.78124 -0.54687,2.90624 z m 8.92187,0 q 0,-1.53124 0.3125,-2.45312 0.3125,-0.9375 0.92188,-1.4375 0.625,-0.5 1.5625,-0.5 0.6875,0 1.20312,0.28125 0.53126,0.28125 0.875,0.8125 0.34376,0.51563 0.53126,1.26563 0.1875,0.75 0.1875,2.03124 0,1.51563 -0.3125,2.4375 -0.29688,0.92188 -0.92188,1.4375 -0.60938,0.5 -1.5625,0.5 -1.23438,0 -1.95312,-0.89062 -0.84376,-1.0625 -0.84376,-3.48438 z m 1.07813,0 q 0,2.10938 0.5,2.8125 0.5,0.70313 1.21875,0.70313 0.73438,0 1.21875,-0.70313 0.5,-0.70312 0.5,-2.8125 0,-2.125 -0.5,-2.8125 -0.48437,-0.70312 -1.23437,-0.70312 -0.71876,0 -1.15626,0.60938 -0.54687,0.78124 -0.54687,2.90624 z m 5.92187,0 q 0,-1.53124 0.3125,-2.45312 0.3125,-0.9375 0.92188,-1.4375 0.625,-0.5 1.5625,-0.5 0.6875,0 1.20312,0.28125 0.53126,0.28125 0.875,0.8125 0.34376,0.51563 0.53126,1.26563 0.1875,0.75 0.1875,2.03124 0,1.51563 -0.3125,2.4375 -0.29688,0.92188 -0.92188,1.4375 -0.60938,0.5 -1.5625,0.5 -1.23438,0 -1.95312,-0.89062 -0.84376,-1.0625 -0.84376,-3.48438 z m 1.07813,0 q 0,2.10938 0.5,2.8125 0.5,0.70313 1.21875,0.70313 0.73438,0 1.21875,-0.70313 0.5,-0.70312 0.5,-2.8125 0,-2.125 -0.5,-2.8125 -0.48437,-0.70312 -1.23437,-0.70312 -0.71876,0 -1.15626,0.60938 -0.54687,0.78124 -0.54687,2.90624 z m 5.92187,0 q 0,-1.53124 0.3125,-2.45312 0.3125,-0.9375 0.92188,-1.4375 0.625,-0.5 1.5625,-0.5 0.6875,0 1.20312,0.28125 0.53126,0.28125 0.875,0.8125 0.34376,0.51563 0.53126,1.26563 0.1875,0.75 0.1875,2.03124 0,1.51563 -0.3125,2.4375 -0.29688,0.92188 -0.92188,1.4375 -0.60938,0.5 -1.5625,0.5 -1.23438,0 -1.95312,-0.89062 -0.84376,-1.0625 -0.84376,-3.48438 z m 1.07813,0 q 0,2.10938 0.5,2.8125 0.5,0.70313 1.21875,0.70313 0.73438,0 1.21875,-0.70313 0.5,-0.70312 0.5,-2.8125 0,-2.125 -0.5,-2.8125 -0.48437,-0.70312 -1.23437,-0.70312 -0.71876,0 -1.15626,0.60938 -0.54687,0.78124 -0.54687,2.90624 z"
     fill-rule="nonzero"
     id="path48" />
  <path
     fill="#000000"
     d="M 278.22656,252.98438 V 254 h -5.6875 q 0,-0.375 0.125,-0.73438 0.21874,-0.57812 0.6875,-1.14062 0.48438,-0.5625 1.39064,-1.29688 1.40624,-1.15624 1.8906,-1.82812 0.5,-0.67188 0.5,-1.26562 0,-0.625 -0.4531,-1.04688 -0.45314,-0.4375 -1.1719,-0.4375 -0.7656,0 -1.21874,0.45312 -0.45312,0.45313 -0.46876,1.26563 l -1.0781,-0.10937 q 0.10936,-1.21876 0.8281,-1.84376 0.7344,-0.64062 1.96876,-0.64062 1.23438,0 1.95314,0.6875 0.71874,0.6875 0.71874,1.70312 0,0.51563 -0.21874,1.01563 -0.20314,0.48437 -0.70314,1.04687 -0.48436,0.54688 -1.60936,1.5 -0.95314,0.79688 -1.2344,1.09376 -0.2656,0.28124 -0.4375,0.5625 z m 1.45314,-3.21876 q 0,-1.53124 0.3125,-2.45312 0.3125,-0.9375 0.92186,-1.4375 0.625,-0.5 1.5625,-0.5 0.6875,0 1.20314,0.28125 0.53124,0.28125 0.875,0.8125 0.34374,0.51563 0.53124,1.26563 0.1875,0.75 0.1875,2.03124 0,1.51563 -0.3125,2.4375 -0.29688,0.92188 -0.92188,1.4375 -0.60936,0.5 -1.5625,0.5 -1.23436,0 -1.95312,-0.89062 -0.84374,-1.0625 -0.84374,-3.48438 z m 1.0781,0 q 0,2.10938 0.5,2.8125 0.5,0.70313 1.21876,0.70313 0.73438,0 1.21874,-0.70313 0.5,-0.70312 0.5,-2.8125 0,-2.125 -0.5,-2.8125 -0.48436,-0.70312 -1.23436,-0.70312 -0.71874,0 -1.15624,0.60938 -0.5469,0.78124 -0.5469,2.90624 z m 8.9219,0 q 0,-1.53124 0.3125,-2.45312 0.3125,-0.9375 0.92186,-1.4375 0.625,-0.5 1.5625,-0.5 0.6875,0 1.20314,0.28125 0.53124,0.28125 0.875,0.8125 0.34374,0.51563 0.53124,1.26563 0.1875,0.75 0.1875,2.03124 0,1.51563 -0.3125,2.4375 -0.29688,0.92188 -0.92188,1.4375 -0.60936,0.5 -1.5625,0.5 -1.23436,0 -1.95312,-0.89062 -0.84374,-1.0625 -0.84374,-3.48438 z m 1.0781,0 q 0,2.10938 0.5,2.8125 0.5,0.70313 1.21876,0.70313 0.73438,0 1.21874,-0.70313 0.5,-0.70312 0.5,-2.8125 0,-2.125 -0.5,-2.8125 -0.48436,-0.70312 -1.23436,-0.70312 -0.71874,0 -1.15624,0.60938 -0.5469,0.78124 -0.5469,2.90624 z m 5.9219,0 q 0,-1.53124 0.3125,-2.45312 0.3125,-0.9375 0.92186,-1.4375 0.625,-0.5 1.5625,-0.5 0.6875,0 1.20314,0.28125 0.53124,0.28125 0.875,0.8125 0.34374,0.51563 0.53124,1.26563 0.1875,0.75 0.1875,2.03124 0,1.51563 -0.3125,2.4375 -0.29688,0.92188 -0.92188,1.4375 -0.60936,0.5 -1.5625,0.5 -1.23436,0 -1.95312,-0.89062 -0.84374,-1.0625 -0.84374,-3.48438 z m 1.0781,0 q 0,2.10938 0.5,2.8125 0.5,0.70313 1.21876,0.70313 0.73438,0 1.21874,-0.70313 0.5,-0.70312 0.5,-2.8125 0,-2.125 -0.5,-2.8125 -0.48436,-0.70312 -1.23436,-0.70312 -0.71874,0 -1.15624,0.60938 -0.5469,0.78124 -0.5469,2.90624 z m 5.9219,0 q 0,-1.53124 0.3125,-2.45312 0.3125,-0.9375 0.92186,-1.4375 0.625,-0.5 1.5625,-0.5 0.6875,0 1.20314,0.28125 0.53124,0.28125 0.875,0.8125 0.34374,0.51563 0.53124,1.26563 0.1875,0.75 0.1875,2.03124 0,1.51563 -0.3125,2.4375 -0.29688,0.92188 -0.92188,1.4375 -0.60936,0.5 -1.5625,0.5 -1.23436,0 -1.95312,-0.89062 -0.84374,-1.0625 -0.84374,-3.48438 z m 1.0781,0 q 0,2.10938 0.5,2.8125 0.5,0.70313 1.21876,0.70313 0.73438,0 1.21874,-0.70313 0.5,-0.70312 0.5,-2.8125 0,-2.125 -0.5,-2.8125 -0.48436,-0.70312 -1.23436,-0.70312 -0.71874,0 -1.15624,0.60938 -0.5469,0.78124 -0.5469,2.90624 z m 8.9219,0 q 0,-1.53124 0.3125,-2.45312 0.3125,-0.9375 0.92186,-1.4375 0.625,-0.5 1.5625,-0.5 0.6875,0 1.20314,0.28125 0.53124,0.28125 0.875,0.8125 0.34374,0.51563 0.53124,1.26563 0.1875,0.75 0.1875,2.03124 0,1.51563 -0.3125,2.4375 -0.29688,0.92188 -0.92188,1.4375 -0.60936,0.5 -1.5625,0.5 -1.23436,0 -1.95312,-0.89062 -0.84374,-1.0625 -0.84374,-3.48438 z m 1.0781,0 q 0,2.10938 0.5,2.8125 0.5,0.70313 1.21876,0.70313 0.73438,0 1.21874,-0.70313 0.5,-0.70312 0.5,-2.8125 0,-2.125 -0.5,-2.8125 -0.48436,-0.70312 -1.23436,-0.70312 -0.71874,0 -1.15624,0.60938 -0.5469,0.78124 -0.5469,2.90624 z m 5.9219,0 q 0,-1.53124 0.3125,-2.45312 0.3125,-0.9375 0.92186,-1.4375 0.625,-0.5 1.5625,-0.5 0.6875,0 1.20314,0.28125 0.53124,0.28125 0.875,0.8125 0.34374,0.51563 0.53124,1.26563 0.1875,0.75 0.1875,2.03124 0,1.51563 -0.3125,2.4375 -0.29688,0.92188 -0.92188,1.4375 -0.60936,0.5 -1.5625,0.5 -1.23436,0 -1.95312,-0.89062 -0.84374,-1.0625 -0.84374,-3.48438 z m 1.0781,0 q 0,2.10938 0.5,2.8125 0.5,0.70313 1.21876,0.70313 0.73438,0 1.21874,-0.70313 0.5,-0.70312 0.5,-2.8125 0,-2.125 -0.5,-2.8125 -0.48436,-0.70312 -1.23436,-0.70312 -0.71874,0 -1.15624,0.60938 -0.5469,0.78124 -0.5469,2.90624 z m 5.9219,0 q 0,-1.53124 0.3125,-2.45312 0.3125,-0.9375 0.92186,-1.4375 0.625,-0.5 1.5625,-0.5 0.6875,0 1.20314,0.28125 0.53124,0.28125 0.875,0.8125 0.34374,0.51563 0.53124,1.26563 0.1875,0.75 0.1875,2.03124 0,1.51563 -0.3125,2.4375 -0.29688,0.92188 -0.92188,1.4375 -0.60936,0.5 -1.5625,0.5 -1.23436,0 -1.95312,-0.89062 -0.84374,-1.0625 -0.84374,-3.48438 z m 1.0781,0 q 0,2.10938 0.5,2.8125 0.5,0.70313 1.21876,0.70313 0.73438,0 1.21874,-0.70313 0.5,-0.70312 0.5,-2.8125 0,-2.125 -0.5,-2.8125 -0.48436,-0.70312 -1.23436,-0.70312 -0.71874,0 -1.15624,0.60938 -0.5469,0.78124 -0.5469,2.90624 z"
     fill-rule="nonzero"
     id="path49" />
  <path
     fill="#000000"
     d="m 403.22745,251.73438 1.0625,-0.14063 q 0.17187,0.89063 0.60937,1.29687 0.4375,0.39063 1.0625,0.39063 0.75,0 1.26563,-0.51563 0.51562,-0.51562 0.51562,-1.28124 0,-0.71876 -0.48437,-1.1875 -0.46875,-0.48438 -1.20313,-0.48438 -0.29687,0 -0.75,0.125 l 0.125,-0.9375 q 0.10938,0.0156 0.17188,0.0156 0.67187,0 1.20312,-0.34374 0.54688,-0.35938 0.54688,-1.09376 0,-0.57812 -0.39063,-0.95312 -0.39062,-0.39062 -1.01562,-0.39062 -0.60938,0 -1.03125,0.39062 -0.40625,0.39062 -0.51563,1.15625 l -1.0625,-0.1875 q 0.1875,-1.04687 0.875,-1.625 0.6875,-0.59375 1.70313,-0.59375 0.70312,0 1.29687,0.3125 0.59375,0.29688 0.90625,0.8125 0.3125,0.51562 0.3125,1.10938 0,0.54687 -0.29687,1.01562 -0.29688,0.45312 -0.875,0.71875 0.75,0.17187 1.17187,0.73437 0.42188,0.54688 0.42188,1.39063 0,1.125 -0.82813,1.90625 -0.8125,0.78125 -2.0625,0.78125 -1.125,0 -1.875,-0.67187 -0.75,-0.6875 -0.85937,-1.75 z m 7,-1.96876 q 0,-1.53124 0.3125,-2.45312 0.3125,-0.9375 0.92187,-1.4375 0.625,-0.5 1.5625,-0.5 0.6875,0 1.20313,0.28125 0.53125,0.28125 0.875,0.8125 0.34375,0.51563 0.53125,1.26563 0.1875,0.75 0.1875,2.03124 0,1.51563 -0.3125,2.4375 -0.29688,0.92188 -0.92188,1.4375 -0.60937,0.5 -1.5625,0.5 -1.23437,0 -1.95312,-0.89062 -0.84375,-1.0625 -0.84375,-3.48438 z m 1.07812,0 q 0,2.10938 0.5,2.8125 0.5,0.70313 1.21875,0.70313 0.73438,0 1.21875,-0.70313 0.5,-0.70312 0.5,-2.8125 0,-2.125 -0.5,-2.8125 -0.48437,-0.70312 -1.23437,-0.70312 -0.71875,0 -1.15625,0.60938 -0.54688,0.78124 -0.54688,2.90624 z m 8.92188,0 q 0,-1.53124 0.3125,-2.45312 0.3125,-0.9375 0.92187,-1.4375 0.625,-0.5 1.5625,-0.5 0.6875,0 1.20313,0.28125 0.53125,0.28125 0.875,0.8125 0.34375,0.51563 0.53125,1.26563 0.1875,0.75 0.1875,2.03124 0,1.51563 -0.3125,2.4375 -0.29688,0.92188 -0.92188,1.4375 -0.60937,0.5 -1.5625,0.5 -1.23437,0 -1.95312,-0.89062 -0.84375,-1.0625 -0.84375,-3.48438 z m 1.07812,0 q 0,2.10938 0.5,2.8125 0.5,0.70313 1.21875,0.70313 0.73438,0 1.21875,-0.70313 0.5,-0.70312 0.5,-2.8125 0,-2.125 -0.5,-2.8125 -0.48437,-0.70312 -1.23437,-0.70312 -0.71875,0 -1.15625,0.60938 -0.54688,0.78124 -0.54688,2.90624 z m 5.92188,0 q 0,-1.53124 0.3125,-2.45312 0.3125,-0.9375 0.92187,-1.4375 0.625,-0.5 1.5625,-0.5 0.6875,0 1.20313,0.28125 0.53125,0.28125 0.875,0.8125 0.34375,0.51563 0.53125,1.26563 0.1875,0.75 0.1875,2.03124 0,1.51563 -0.3125,2.4375 -0.29688,0.92188 -0.92188,1.4375 -0.60937,0.5 -1.5625,0.5 -1.23437,0 -1.95312,-0.89062 -0.84375,-1.0625 -0.84375,-3.48438 z m 1.07812,0 q 0,2.10938 0.5,2.8125 0.5,0.70313 1.21875,0.70313 0.73438,0 1.21875,-0.70313 0.5,-0.70312 0.5,-2.8125 0,-2.125 -0.5,-2.8125 -0.48437,-0.70312 -1.23437,-0.70312 -0.71875,0 -1.15625,0.60938 -0.54688,0.78124 -0.54688,2.90624 z m 5.92188,0 q 0,-1.53124 0.3125,-2.45312 0.3125,-0.9375 0.92187,-1.4375 0.625,-0.5 1.5625,-0.5 0.6875,0 1.20313,0.28125 0.53125,0.28125 0.875,0.8125 0.34375,0.51563 0.53125,1.26563 0.1875,0.75 0.1875,2.03124 0,1.51563 -0.3125,2.4375 -0.29688,0.92188 -0.92188,1.4375 -0.60937,0.5 -1.5625,0.5 -1.23437,0 -1.95312,-0.89062 -0.84375,-1.0625 -0.84375,-3.48438 z m 1.07812,0 q 0,2.10938 0.5,2.8125 0.5,0.70313 1.21875,0.70313 0.73438,0 1.21875,-0.70313 0.5,-0.70312 0.5,-2.8125 0,-2.125 -0.5,-2.8125 -0.48437,-0.70312 -1.23437,-0.70312 -0.71875,0 -1.15625,0.60938 -0.54688,0.78124 -0.54688,2.90624 z m 8.92188,0 q 0,-1.53124 0.3125,-2.45312 0.3125,-0.9375 0.92187,-1.4375 0.625,-0.5 1.5625,-0.5 0.6875,0 1.20313,0.28125 0.53125,0.28125 0.875,0.8125 0.34375,0.51563 0.53125,1.26563 0.1875,0.75 0.1875,2.03124 0,1.51563 -0.3125,2.4375 -0.29688,0.92188 -0.92188,1.4375 -0.60937,0.5 -1.5625,0.5 -1.23437,0 -1.95312,-0.89062 -0.84375,-1.0625 -0.84375,-3.48438 z m 1.07812,0 q 0,2.10938 0.5,2.8125 0.5,0.70313 1.21875,0.70313 0.73438,0 1.21875,-0.70313 0.5,-0.70312 0.5,-2.8125 0,-2.125 -0.5,-2.8125 -0.48437,-0.70312 -1.23437,-0.70312 -0.71875,0 -1.15625,0.60938 -0.54688,0.78124 -0.54688,2.90624 z m 5.92188,0 q 0,-1.53124 0.3125,-2.45312 0.3125,-0.9375 0.92187,-1.4375 0.625,-0.5 1.5625,-0.5 0.6875,0 1.20313,0.28125 0.53125,0.28125 0.875,0.8125 0.34375,0.51563 0.53125,1.26563 0.1875,0.75 0.1875,2.03124 0,1.51563 -0.3125,2.4375 -0.29688,0.92188 -0.92188,1.4375 -0.60937,0.5 -1.5625,0.5 -1.23437,0 -1.95312,-0.89062 -0.84375,-1.0625 -0.84375,-3.48438 z m 1.07812,0 q 0,2.10938 0.5,2.8125 0.5,0.70313 1.21875,0.70313 0.73438,0 1.21875,-0.70313 0.5,-0.70312 0.5,-2.8125 0,-2.125 -0.5,-2.8125 -0.48437,-0.70312 -1.23437,-0.70312 -0.71875,0 -1.15625,0.60938 -0.54688,0.78124 -0.54688,2.90624 z m 5.92188,0 q 0,-1.53124 0.3125,-2.45312 0.3125,-0.9375 0.92187,-1.4375 0.625,-0.5 1.5625,-0.5 0.6875,0 1.20313,0.28125 0.53125,0.28125 0.875,0.8125 0.34375,0.51563 0.53125,1.26563 0.1875,0.75 0.1875,2.03124 0,1.51563 -0.3125,2.4375 -0.29688,0.92188 -0.92188,1.4375 -0.60937,0.5 -1.5625,0.5 -1.23437,0 -1.95312,-0.89062 -0.84375,-1.0625 -0.84375,-3.48438 z m 1.07812,0 q 0,2.10938 0.5,2.8125 0.5,0.70313 1.21875,0.70313 0.73438,0 1.21875,-0.70313 0.5,-0.70312 0.5,-2.8125 0,-2.125 -0.5,-2.8125 -0.48437,-0.70312 -1.23437,-0.70312 -0.71875,0 -1.15625,0.60938 -0.54688,0.78124 -0.54688,2.90624 z"
     fill-rule="nonzero"
     id="path50" />
  <path
     fill="#000000"
     d="m 537.1502,254 v -2.0625 h -3.71874 v -0.96875 l 3.92187,-5.5625 h 0.85937 v 5.5625 h 1.15626 v 0.96875 H 538.2127 V 254 Z m 0,-3.03125 v -3.85937 l -2.6875,3.85937 z m 3.625,-1.20313 q 0,-1.53124 0.3125,-2.45312 0.3125,-0.9375 0.9219,-1.4375 0.625,-0.5 1.5625,-0.5 0.6875,0 1.2031,0.28125 0.53126,0.28125 0.875,0.8125 0.34376,0.51563 0.53126,1.26563 0.1875,0.75 0.1875,2.03124 0,1.51563 -0.3125,2.4375 -0.29686,0.92188 -0.92186,1.4375 -0.6094,0.5 -1.5625,0.5 -1.2344,0 -1.95314,-0.89062 -0.84376,-1.0625 -0.84376,-3.48438 z m 1.07813,0 q 0,2.10938 0.5,2.8125 0.5,0.70313 1.21877,0.70313 0.73436,0 1.21873,-0.70313 0.5,-0.70312 0.5,-2.8125 0,-2.125 -0.5,-2.8125 -0.48437,-0.70312 -1.23437,-0.70312 -0.71876,0 -1.15626,0.60938 -0.54687,0.78124 -0.54687,2.90624 z m 8.92187,0 q 0,-1.53124 0.3125,-2.45312 0.3125,-0.9375 0.9219,-1.4375 0.625,-0.5 1.5625,-0.5 0.6875,0 1.2031,0.28125 0.53126,0.28125 0.875,0.8125 0.34376,0.51563 0.53126,1.26563 0.1875,0.75 0.1875,2.03124 0,1.51563 -0.3125,2.4375 -0.29686,0.92188 -0.92186,1.4375 -0.6094,0.5 -1.5625,0.5 -1.2344,0 -1.95314,-0.89062 -0.84376,-1.0625 -0.84376,-3.48438 z m 1.07813,0 q 0,2.10938 0.5,2.8125 0.5,0.70313 1.21877,0.70313 0.73436,0 1.21873,-0.70313 0.5,-0.70312 0.5,-2.8125 0,-2.125 -0.5,-2.8125 -0.48437,-0.70312 -1.23437,-0.70312 -0.71876,0 -1.15626,0.60938 -0.54687,0.78124 -0.54687,2.90624 z m 5.92187,0 q 0,-1.53124 0.3125,-2.45312 0.3125,-0.9375 0.9219,-1.4375 0.625,-0.5 1.5625,-0.5 0.6875,0 1.2031,0.28125 0.53126,0.28125 0.875,0.8125 0.34376,0.51563 0.53126,1.26563 0.1875,0.75 0.1875,2.03124 0,1.51563 -0.3125,2.4375 -0.29686,0.92188 -0.92186,1.4375 -0.6094,0.5 -1.5625,0.5 -1.2344,0 -1.95314,-0.89062 -0.84376,-1.0625 -0.84376,-3.48438 z m 1.07813,0 q 0,2.10938 0.5,2.8125 0.5,0.70313 1.21877,0.70313 0.73436,0 1.21873,-0.70313 0.5,-0.70312 0.5,-2.8125 0,-2.125 -0.5,-2.8125 -0.48437,-0.70312 -1.23437,-0.70312 -0.71876,0 -1.15626,0.60938 -0.54687,0.78124 -0.54687,2.90624 z m 5.92187,0 q 0,-1.53124 0.3125,-2.45312 0.3125,-0.9375 0.9219,-1.4375 0.625,-0.5 1.5625,-0.5 0.6875,0 1.2031,0.28125 0.53126,0.28125 0.875,0.8125 0.34376,0.51563 0.53126,1.26563 0.1875,0.75 0.1875,2.03124 0,1.51563 -0.3125,2.4375 -0.29686,0.92188 -0.92186,1.4375 -0.6094,0.5 -1.5625,0.5 -1.2344,0 -1.95314,-0.89062 -0.84376,-1.0625 -0.84376,-3.48438 z m 1.07813,0 q 0,2.10938 0.5,2.8125 0.5,0.70313 1.21877,0.70313 0.73436,0 1.21873,-0.70313 0.5,-0.70312 0.5,-2.8125 0,-2.125 -0.5,-2.8125 -0.48437,-0.70312 -1.23437,-0.70312 -0.71876,0 -1.15626,0.60938 -0.54687,0.78124 -0.54687,2.90624 z m 8.92187,0 q 0,-1.53124 0.3125,-2.45312 0.3125,-0.9375 0.9219,-1.4375 0.625,-0.5 1.5625,-0.5 0.6875,0 1.2031,0.28125 0.53126,0.28125 0.875,0.8125 0.34376,0.51563 0.53126,1.26563 0.1875,0.75 0.1875,2.03124 0,1.51563 -0.3125,2.4375 -0.29686,0.92188 -0.92186,1.4375 -0.6094,0.5 -1.5625,0.5 -1.2344,0 -1.95314,-0.89062 -0.84376,-1.0625 -0.84376,-3.48438 z m 1.07813,0 q 0,2.10938 0.5,2.8125 0.5,0.70313 1.21877,0.70313 0.73436,0 1.21873,-0.70313 0.5,-0.70312 0.5,-2.8125 0,-2.125 -0.5,-2.8125 -0.48437,-0.70312 -1.23437,-0.70312 -0.71876,0 -1.15626,0.60938 -0.54687,0.78124 -0.54687,2.90624 z m 5.92187,0 q 0,-1.53124 0.3125,-2.45312 0.3125,-0.9375 0.9219,-1.4375 0.625,-0.5 1.5625,-0.5 0.6875,0 1.2031,0.28125 0.53126,0.28125 0.875,0.8125 0.34376,0.51563 0.53126,1.26563 0.1875,0.75 0.1875,2.03124 0,1.51563 -0.3125,2.4375 -0.29686,0.92188 -0.92186,1.4375 -0.6094,0.5 -1.5625,0.5 -1.2344,0 -1.95314,-0.89062 -0.84376,-1.0625 -0.84376,-3.48438 z m 1.07813,0 q 0,2.10938 0.5,2.8125 0.5,0.70313 1.21877,0.70313 0.73436,0 1.21873,-0.70313 0.5,-0.70312 0.5,-2.8125 0,-2.125 -0.5,-2.8125 -0.48437,-0.70312 -1.23437,-0.70312 -0.71876,0 -1.15626,0.60938 -0.54687,0.78124 -0.54687,2.90624 z m 5.92187,0 q 0,-1.53124 0.3125,-2.45312 0.3125,-0.9375 0.9219,-1.4375 0.625,-0.5 1.5625,-0.5 0.6875,0 1.2031,0.28125 0.53126,0.28125 0.875,0.8125 0.34376,0.51563 0.53126,1.26563 0.1875,0.75 0.1875,2.03124 0,1.51563 -0.3125,2.4375 -0.29686,0.92188 -0.92186,1.4375 -0.6094,0.5 -1.5625,0.5 -1.2344,0 -1.95314,-0.89062 -0.84376,-1.0625 -0.84376,-3.48438 z m 1.07813,0 q 0,2.10938 0.5,2.8125 0.5,0.70313 1.21877,0.70313 0.73436,0 1.21873,-0.70313 0.5,-0.70312 0.5,-2.8125 0,-2.125 -0.5,-2.8125 -0.48437,-0.70312 -1.23437,-0.70312 -0.71876,0 -1.15626,0.60938 -0.54687,0.78124 -0.54687,2.90624 z"
     fill-rule="nonzero"
     id="path51" />
  <path
     fill="#000000"
     d="m 664.32294,251.75 1.10936,-0.0937 q 0.125,0.8125 0.5625,1.21875 0.45314,0.40625 1.09376,0.40625 0.75,0 1.28124,-0.57813 0.53126,-0.57812 0.53126,-1.51562 0,-0.90625 -0.51562,-1.42188 -0.5,-0.53124 -1.32814,-0.53124 -0.5,0 -0.92186,0.23437 -0.40624,0.23437 -0.64064,0.59375 l -0.98436,-0.125 0.82812,-4.40625 h 4.28124 v 1 h -3.4375 l -0.4531,2.3125 q 0.7656,-0.54687 1.60936,-0.54687 1.125,0 1.89064,0.78124 0.78124,0.78126 0.78124,2.01563 0,1.15625 -0.67188,2.01563 -0.82812,1.03124 -2.25,1.03124 -1.17186,0 -1.92186,-0.65624 -0.7344,-0.65626 -0.84376,-1.73438 z m 7,-1.98438 q 0,-1.53124 0.3125,-2.45312 0.3125,-0.9375 0.92186,-1.4375 0.625,-0.5 1.5625,-0.5 0.6875,0 1.20314,0.28125 0.53126,0.28125 0.875,0.8125 0.34376,0.51563 0.53126,1.26563 0.1875,0.75 0.1875,2.03124 0,1.51563 -0.3125,2.4375 -0.2969,0.92188 -0.9219,1.4375 -0.60936,0.5 -1.5625,0.5 -1.23436,0 -1.9531,-0.89062 -0.84376,-1.0625 -0.84376,-3.48438 z m 1.07812,0 q 0,2.10938 0.5,2.8125 0.5,0.70313 1.21874,0.70313 0.7344,0 1.21876,-0.70313 0.5,-0.70312 0.5,-2.8125 0,-2.125 -0.5,-2.8125 -0.48436,-0.70312 -1.23436,-0.70312 -0.71876,0 -1.15626,0.60938 -0.54688,0.78124 -0.54688,2.90624 z m 8.92188,0 q 0,-1.53124 0.3125,-2.45312 0.3125,-0.9375 0.92186,-1.4375 0.625,-0.5 1.5625,-0.5 0.6875,0 1.20314,0.28125 0.53126,0.28125 0.875,0.8125 0.34376,0.51563 0.53126,1.26563 0.1875,0.75 0.1875,2.03124 0,1.51563 -0.3125,2.4375 -0.2969,0.92188 -0.9219,1.4375 -0.60936,0.5 -1.5625,0.5 -1.23436,0 -1.9531,-0.89062 -0.84376,-1.0625 -0.84376,-3.48438 z m 1.07812,0 q 0,2.10938 0.5,2.8125 0.5,0.70313 1.21874,0.70313 0.7344,0 1.21876,-0.70313 0.5,-0.70312 0.5,-2.8125 0,-2.125 -0.5,-2.8125 -0.48436,-0.70312 -1.23436,-0.70312 -0.71876,0 -1.15626,0.60938 -0.54688,0.78124 -0.54688,2.90624 z m 5.92188,0 q 0,-1.53124 0.3125,-2.45312 0.3125,-0.9375 0.92186,-1.4375 0.625,-0.5 1.5625,-0.5 0.6875,0 1.20314,0.28125 0.53126,0.28125 0.875,0.8125 0.34376,0.51563 0.53126,1.26563 0.1875,0.75 0.1875,2.03124 0,1.51563 -0.3125,2.4375 -0.2969,0.92188 -0.9219,1.4375 -0.60936,0.5 -1.5625,0.5 -1.23436,0 -1.9531,-0.89062 -0.84376,-1.0625 -0.84376,-3.48438 z m 1.07812,0 q 0,2.10938 0.5,2.8125 0.5,0.70313 1.21874,0.70313 0.7344,0 1.21876,-0.70313 0.5,-0.70312 0.5,-2.8125 0,-2.125 -0.5,-2.8125 -0.48436,-0.70312 -1.23436,-0.70312 -0.71876,0 -1.15626,0.60938 -0.54688,0.78124 -0.54688,2.90624 z m 5.92188,0 q 0,-1.53124 0.3125,-2.45312 0.3125,-0.9375 0.92186,-1.4375 0.625,-0.5 1.5625,-0.5 0.6875,0 1.20314,0.28125 0.53126,0.28125 0.875,0.8125 0.34376,0.51563 0.53126,1.26563 0.1875,0.75 0.1875,2.03124 0,1.51563 -0.3125,2.4375 -0.2969,0.92188 -0.9219,1.4375 -0.60936,0.5 -1.5625,0.5 -1.23436,0 -1.9531,-0.89062 -0.84376,-1.0625 -0.84376,-3.48438 z m 1.07812,0 q 0,2.10938 0.5,2.8125 0.5,0.70313 1.21874,0.70313 0.7344,0 1.21876,-0.70313 0.5,-0.70312 0.5,-2.8125 0,-2.125 -0.5,-2.8125 -0.48436,-0.70312 -1.23436,-0.70312 -0.71876,0 -1.15626,0.60938 -0.54688,0.78124 -0.54688,2.90624 z m 8.92188,0 q 0,-1.53124 0.3125,-2.45312 0.3125,-0.9375 0.92186,-1.4375 0.625,-0.5 1.5625,-0.5 0.6875,0 1.20314,0.28125 0.53126,0.28125 0.875,0.8125 0.34376,0.51563 0.53126,1.26563 0.1875,0.75 0.1875,2.03124 0,1.51563 -0.3125,2.4375 -0.2969,0.92188 -0.9219,1.4375 -0.60936,0.5 -1.5625,0.5 -1.23436,0 -1.9531,-0.89062 -0.84376,-1.0625 -0.84376,-3.48438 z m 1.07812,0 q 0,2.10938 0.5,2.8125 0.5,0.70313 1.21874,0.70313 0.7344,0 1.21876,-0.70313 0.5,-0.70312 0.5,-2.8125 0,-2.125 -0.5,-2.8125 -0.48436,-0.70312 -1.23436,-0.70312 -0.71876,0 -1.15626,0.60938 -0.54688,0.78124 -0.54688,2.90624 z m 5.92188,0 q 0,-1.53124 0.3125,-2.45312 0.3125,-0.9375 0.92186,-1.4375 0.625,-0.5 1.5625,-0.5 0.6875,0 1.20314,0.28125 0.53126,0.28125 0.875,0.8125 0.34376,0.51563 0.53126,1.26563 0.1875,0.75 0.1875,2.03124 0,1.51563 -0.3125,2.4375 -0.2969,0.92188 -0.9219,1.4375 -0.60936,0.5 -1.5625,0.5 -1.23436,0 -1.9531,-0.89062 -0.84376,-1.0625 -0.84376,-3.48438 z m 1.07812,0 q 0,2.10938 0.5,2.8125 0.5,0.70313 1.21874,0.70313 0.7344,0 1.21876,-0.70313 0.5,-0.70312 0.5,-2.8125 0,-2.125 -0.5,-2.8125 -0.48436,-0.70312 -1.23436,-0.70312 -0.71876,0 -1.15626,0.60938 -0.54688,0.78124 -0.54688,2.90624 z m 5.92188,0 q 0,-1.53124 0.3125,-2.45312 0.3125,-0.9375 0.92186,-1.4375 0.625,-0.5 1.5625,-0.5 0.6875,0 1.20314,0.28125 0.53126,0.28125 0.875,0.8125 0.34376,0.51563 0.53126,1.26563 0.1875,0.75 0.1875,2.03124 0,1.51563 -0.3125,2.4375 -0.2969,0.92188 -0.9219,1.4375 -0.60936,0.5 -1.5625,0.5 -1.23436,0 -1.9531,-0.89062 -0.84376,-1.0625 -0.84376,-3.48438 z m 1.07812,0 q 0,2.10938 0.5,2.8125 0.5,0.70313 1.21874,0.70313 0.7344,0 1.21876,-0.70313 0.5,-0.70312 0.5,-2.8125 0,-2.125 -0.5,-2.8125 -0.48436,-0.70312 -1.23436,-0.70312 -0.71876,0 -1.15626,0.60938 -0.54688,0.78124 -0.54688,2.90624 z"
     fill-rule="nonzero"
     id="path52" />
  <path
     fill="#4285f4"
     d="m 228.28906,6 c 0,3.31371 -2.68629,6 -6,6 -3.3137,0 -6,-2.68629 -6,-6 0,-3.31371 2.6863,-6 6,-6 3.31371,0 6,2.68629 6,6 z"
     fill-rule="nonzero"
     id="path53" />
  <path
     fill="#1a1a1a"
     d="M 237.21094,10 V 1.40625 h 2.96875 q 1.00001,0 1.53125,0.125 0.73436,0.171875 1.25,0.609375 0.6875,0.578125 1.01562,1.484375 0.34374,0.890625 0.34374,2.03125 0,0.984375 -0.23436,1.734375 -0.21874,0.75 -0.57814,1.25 -0.35936,0.5 -0.79686,0.78125 -0.42188,0.28125 -1.01564,0.4375 Q 241.10156,10 240.32031,10 Z m 1.14062,-1.015625 h 1.82813 q 0.85937,0 1.34375,-0.15625 0.48436,-0.15625 0.76562,-0.453125 0.40624,-0.390625 0.625,-1.078125 0.23438,-0.6875 0.23438,-1.65625 0,-1.34375 -0.45314,-2.0625 -0.4375,-0.734375 -1.0625,-0.984375 -0.46874,-0.171875 -1.46874,-0.171875 h -1.8125 z M 246.0703,10 V 3.78125 h 0.95314 v 0.9375 q 0.35936,-0.65625 0.65626,-0.859375 0.3125,-0.21875 0.6875,-0.21875 0.53124,0 1.0781,0.328125 l -0.35936,0.984375 Q 248.6953,4.71875 248.3203,4.71875 q -0.35936,0 -0.6406,0.21875 -0.26564,0.203125 -0.375,0.578125 -0.1875,0.5625 -0.1875,1.21875 V 10 Z m 8.26564,-2 1.09376,0.125 q -0.25,0.953125 -0.95314,1.484375 -0.70312,0.53125 -1.78126,0.53125 -1.35936,0 -2.17186,-0.84375 -0.79688,-0.84375 -0.79688,-2.359375 0,-1.5625 0.8125,-2.421875 0.8125,-0.875 2.09374,-0.875 1.25,0 2.03126,0.84375 0.79688,0.84375 0.79688,2.390625 0,0.09375 0,0.28125 h -4.64064 q 0.0625,1.03125 0.57814,1.578125 0.51562,0.53125 1.29686,0.53125 0.57814,0 0.9844,-0.296875 Q 254.10156,8.65625 254.33594,8 Z M 250.8828,6.296875 h 3.46876 Q 254.28906,5.5 253.96094,5.109375 253.4453,4.5 252.64844,4.5 q -0.73438,0 -1.23438,0.484375 -0.48436,0.484375 -0.53126,1.3125 z M 257.08594,2.625 V 1.40625 h 1.0625 V 2.625 Z m 0,7.375 V 3.78125 h 1.0625 V 10 Z m 7.25,-2 1.09376,0.125 q -0.25,0.953125 -0.95314,1.484375 -0.70312,0.53125 -1.78126,0.53125 -1.35936,0 -2.17186,-0.84375 -0.79688,-0.84375 -0.79688,-2.359375 0,-1.5625 0.8125,-2.421875 0.8125,-0.875 2.09374,-0.875 1.25,0 2.03126,0.84375 0.79688,0.84375 0.79688,2.390625 0,0.09375 0,0.28125 h -4.64064 q 0.0625,1.03125 0.57814,1.578125 0.51562,0.53125 1.29686,0.53125 0.57814,0 0.9844,-0.296875 Q 264.10156,8.65625 264.33594,8 Z M 260.8828,6.296875 h 3.46876 Q 264.28906,5.5 263.96094,5.109375 263.4453,4.5 262.64844,4.5 q -0.73438,0 -1.23438,0.484375 -0.48436,0.484375 -0.53126,1.3125 z m 10.26564,1.421875 1.03126,0.140625 q -0.1719,1.0625 -0.875,1.671875 -0.70314,0.609375 -1.71876,0.609375 -1.28124,0 -2.0625,-0.828125 -0.76564,-0.84375 -0.76564,-2.40625 0,-1 0.32814,-1.75 0.34376,-0.765625 1.01562,-1.140625 0.6875,-0.375 1.5,-0.375 1,0 1.64064,0.515625 0.65624,0.5 0.84374,1.453125 l -1.03124,0.15625 q -0.14064,-0.625 -0.51564,-0.9375 Q 270.16406,4.5 269.6328,4.5 q -0.79686,0 -1.29686,0.578125 -0.5,0.5625 -0.5,1.796875 0,1.265625 0.48436,1.828125 0.4844,0.5625 1.25,0.5625 0.625,0 1.03126,-0.375 0.42188,-0.375 0.54688,-1.171875 z M 273.08594,10 V 1.40625 h 1.0625 V 6.3125 l 2.48436,-2.53125 h 1.375 L 275.6172,6.078125 278.2422,10 h -1.2969 l -2.0625,-3.1875 -0.73436,0.71875 V 10 Z"
     fill-rule="nonzero"
     id="path54" />
  <path
     fill="#ea4335"
     d="m 306.28906,6 c 0,3.31371 -2.68628,6 -6,6 -3.31372,0 -6,-2.68629 -6,-6 0,-3.31371 2.68628,-6 6,-6 3.31372,0 6,2.68629 6,6 z"
     fill-rule="nonzero"
     id="path55" />
  <path
     fill="#1a1a1a"
     d="m 317.66406,10 -3.32812,-8.59375 h 1.23436 l 2.2344,6.25 q 0.2656,0.75 0.4531,1.40625 0.20314,-0.703125 0.46876,-1.40625 l 2.3125,-6.25 h 1.15624 L 318.83594,10 Z m 4.42188,-7.375 V 1.40625 h 1.0625 V 2.625 Z m 0,7.375 V 3.78125 h 1.0625 V 10 Z m 7.25,-2 1.09376,0.125 q -0.25,0.953125 -0.95314,1.484375 -0.70312,0.53125 -1.78126,0.53125 -1.35936,0 -2.17186,-0.84375 -0.79688,-0.84375 -0.79688,-2.359375 0,-1.5625 0.8125,-2.421875 0.8125,-0.875 2.09374,-0.875 1.25,0 2.03126,0.84375 0.79688,0.84375 0.79688,2.390625 0,0.09375 0,0.28125 h -4.64064 q 0.0625,1.03125 0.57814,1.578125 0.51562,0.53125 1.29686,0.53125 0.57814,0 0.9844,-0.296875 Q 329.10156,8.65625 329.33594,8 Z M 325.8828,6.296875 h 3.46876 Q 329.28906,5.5 328.96094,5.109375 328.4453,4.5 327.64844,4.5 q -0.73438,0 -1.23438,0.484375 -0.48436,0.484375 -0.53126,1.3125 z M 332.0703,10 V 3.78125 h 0.95314 v 0.9375 q 0.35936,-0.65625 0.65626,-0.859375 0.3125,-0.21875 0.6875,-0.21875 0.53124,0 1.0781,0.328125 l -0.35936,0.984375 Q 334.6953,4.71875 334.3203,4.71875 q -0.35936,0 -0.6406,0.21875 -0.26564,0.203125 -0.375,0.578125 -0.1875,0.5625 -0.1875,1.21875 V 10 Z m 8.26564,-2 1.09376,0.125 q -0.25,0.953125 -0.95314,1.484375 -0.70312,0.53125 -1.78126,0.53125 -1.35936,0 -2.17186,-0.84375 -0.79688,-0.84375 -0.79688,-2.359375 0,-1.5625 0.8125,-2.421875 0.8125,-0.875 2.09374,-0.875 1.25,0 2.03126,0.84375 0.79688,0.84375 0.79688,2.390625 0,0.09375 0,0.28125 h -4.64064 q 0.0625,1.03125 0.57814,1.578125 0.51562,0.53125 1.29686,0.53125 0.57814,0 0.9844,-0.296875 Q 340.10156,8.65625 340.33594,8 Z M 336.8828,6.296875 h 3.46876 Q 340.28906,5.5 339.96094,5.109375 339.4453,4.5 338.64844,4.5 q -0.73438,0 -1.23438,0.484375 -0.48436,0.484375 -0.53126,1.3125 z m 10.26564,1.421875 1.03126,0.140625 q -0.1719,1.0625 -0.875,1.671875 -0.70314,0.609375 -1.71876,0.609375 -1.28124,0 -2.0625,-0.828125 -0.76564,-0.84375 -0.76564,-2.40625 0,-1 0.32814,-1.75 0.34376,-0.765625 1.01562,-1.140625 0.6875,-0.375 1.5,-0.375 1,0 1.64064,0.515625 0.65624,0.5 0.84374,1.453125 l -1.03124,0.15625 q -0.14064,-0.625 -0.51564,-0.9375 Q 346.16406,4.5 345.6328,4.5 q -0.79686,0 -1.29686,0.578125 -0.5,0.5625 -0.5,1.796875 0,1.265625 0.48436,1.828125 0.4844,0.5625 1.25,0.5625 0.625,0 1.03126,-0.375 0.42188,-0.375 0.54688,-1.171875 z M 349.08594,10 V 1.40625 h 1.0625 V 6.3125 l 2.48436,-2.53125 h 1.375 L 351.6172,6.078125 354.2422,10 h -1.2969 l -2.0625,-3.1875 -0.73436,0.71875 V 10 Z"
     fill-rule="nonzero"
     id="path56" />
  <path
     fill="#fbbc04"
     d="m 382.28906,6 c 0,3.31371 -2.68628,6 -6,6 -3.31372,0 -6,-2.68629 -6,-6 0,-3.31371 2.68628,-6 6,-6 3.31372,0 6,2.68629 6,6 z"
     fill-rule="nonzero"
     id="path57" />
  <path
     fill="#1a1a1a"
     d="m 390.27344,10 3.29686,-8.59375 h 1.21876 L 398.3047,10 h -1.28126 L 396.0078,7.390625 h -3.5781 L 391.47656,10 Z m 2.48436,-3.53125 h 2.90626 l -0.89062,-2.375 Q 394.35156,3.015625 394.16406,2.3125 393.9922,3.140625 393.6953,3.953125 Z m 9.39064,1.25 1.03126,0.140625 q -0.1719,1.0625 -0.875,1.671875 -0.70314,0.609375 -1.71876,0.609375 -1.28124,0 -2.0625,-0.828125 -0.76564,-0.84375 -0.76564,-2.40625 0,-1 0.32814,-1.75 0.34376,-0.765625 1.01562,-1.140625 0.6875,-0.375 1.5,-0.375 1,0 1.64064,0.515625 0.65624,0.5 0.84374,1.453125 l -1.03124,0.15625 q -0.14064,-0.625 -0.51564,-0.9375 Q 401.16406,4.5 400.6328,4.5 q -0.79686,0 -1.29686,0.578125 -0.5,0.5625 -0.5,1.796875 0,1.265625 0.48436,1.828125 0.4844,0.5625 1.25,0.5625 0.625,0 1.03126,-0.375 0.42188,-0.375 0.54688,-1.171875 z M 404.08594,10 V 1.40625 h 1.04686 v 3.078125 q 0.7344,-0.84375 1.8594,-0.84375 0.7031,0 1.2031,0.28125 0.51564,0.265625 0.7344,0.75 0.21874,0.46875 0.21874,1.390625 V 10 h -1.04688 V 6.0625 q 0,-0.796875 -0.34376,-1.15625 -0.34374,-0.359375 -0.96874,-0.359375 -0.46876,0 -0.89062,0.25 -0.40624,0.234375 -0.59374,0.65625 -0.1719,0.40625 -0.1719,1.140625 V 10 Z m 9.29686,-0.9375 0.15626,0.921875 q -0.45312,0.09375 -0.79686,0.09375 -0.57814,0 -0.89064,-0.171875 -0.3125,-0.1875 -0.45312,-0.484375 -0.125,-0.296875 -0.125,-1.25 V 4.59375 h -0.76564 v -0.8125 h 0.76564 V 2.234375 l 1.04686,-0.625 V 3.78125 h 1.0625 v 0.8125 h -1.0625 v 3.640625 q 0,0.453125 0.0469,0.578125 0.0625,0.125 0.1875,0.203125 0.125,0.07813 0.35936,0.07813 0.1875,0 0.46874,-0.03125 z M 418.33594,8 419.4297,8.125 q -0.25,0.953125 -0.95314,1.484375 -0.70312,0.53125 -1.78126,0.53125 -1.35936,0 -2.17186,-0.84375 -0.79688,-0.84375 -0.79688,-2.359375 0,-1.5625 0.8125,-2.421875 0.8125,-0.875 2.09374,-0.875 1.25,0 2.03126,0.84375 0.79688,0.84375 0.79688,2.390625 0,0.09375 0,0.28125 h -4.64064 q 0.0625,1.03125 0.57814,1.578125 0.51562,0.53125 1.29686,0.53125 0.57814,0 0.9844,-0.296875 Q 418.10156,8.65625 418.33594,8 Z M 414.8828,6.296875 h 3.46876 Q 418.28906,5.5 417.96094,5.109375 417.4453,4.5 416.64844,4.5 q -0.73438,0 -1.23438,0.484375 -0.48436,0.484375 -0.53126,1.3125 z m 10.26564,1.421875 1.03126,0.140625 q -0.1719,1.0625 -0.875,1.671875 -0.70314,0.609375 -1.71876,0.609375 -1.28124,0 -2.0625,-0.828125 -0.76564,-0.84375 -0.76564,-2.40625 0,-1 0.32814,-1.75 0.34376,-0.765625 1.01562,-1.140625 0.6875,-0.375 1.5,-0.375 1,0 1.64064,0.515625 0.65624,0.5 0.84374,1.453125 l -1.03124,0.15625 q -0.14064,-0.625 -0.51564,-0.9375 Q 424.16406,4.5 423.6328,4.5 q -0.79686,0 -1.29686,0.578125 -0.5,0.5625 -0.5,1.796875 0,1.265625 0.48436,1.828125 0.4844,0.5625 1.25,0.5625 0.625,0 1.03126,-0.375 0.42188,-0.375 0.54688,-1.171875 z M 427.08594,10 V 1.40625 h 1.0625 V 6.3125 l 2.48436,-2.53125 h 1.375 L 429.6172,6.078125 432.2422,10 h -1.2969 l -2.0625,-3.1875 -0.73436,0.71875 V 10 Z"
     fill-rule="nonzero"
     id="path58" />
</svg>
