<?xml version="1.0" encoding="UTF-8" standalone="no"?>
<svg
   version="1.1"
   viewBox="0 0 732.5 257.15625"
   fill="none"
   stroke="none"
   stroke-linecap="square"
   stroke-miterlimit="10"
   width="732.5"
   height="257.15625"
   id="svg59"
   xmlns="http://www.w3.org/2000/svg"
   xmlns:svg="http://www.w3.org/2000/svg">
  <defs
     id="defs59" />
  <path
     stroke="#333333"
     stroke-width="1"
     stroke-linecap="butt"
     d="M 39.5,30 V 240"
     fill-rule="nonzero"
     id="path2" />
  <path
     stroke="#cccccc"
     stroke-width="1"
     stroke-linecap="butt"
     d="M 170.5,30 V 240"
     fill-rule="nonzero"
     id="path3" />
  <path
     stroke="#cccccc"
     stroke-width="1"
     stroke-linecap="butt"
     d="M 301.5,30 V 240"
     fill-rule="nonzero"
     id="path4" />
  <path
     stroke="#cccccc"
     stroke-width="1"
     stroke-linecap="butt"
     d="M 432.5,30 V 240"
     fill-rule="nonzero"
     id="path5" />
  <path
     stroke="#cccccc"
     stroke-width="1"
     stroke-linecap="butt"
     d="M 563.5,30 V 240"
     fill-rule="nonzero"
     id="path6" />
  <path
     stroke="#cccccc"
     stroke-width="1"
     stroke-linecap="butt"
     d="M 694.5,30 V 240"
     fill-rule="nonzero"
     id="path7" />
  <path
     stroke="#333333"
     stroke-width="1"
     stroke-linecap="butt"
     d="m 29.5,240 h 703"
     fill-rule="nonzero"
     id="path8" />
  <path
     stroke="#cccccc"
     stroke-width="1"
     stroke-linecap="butt"
     d="m 29.5,198 h 703"
     fill-rule="nonzero"
     id="path9" />
  <path
     stroke="#cccccc"
     stroke-width="1"
     stroke-linecap="butt"
     d="m 29.5,156 h 703"
     fill-rule="nonzero"
     id="path10" />
  <path
     stroke="#cccccc"
     stroke-width="1"
     stroke-linecap="butt"
     d="m 29.5,114 h 703"
     fill-rule="nonzero"
     id="path11" />
  <path
     stroke="#cccccc"
     stroke-width="1"
     stroke-linecap="butt"
     d="m 29.5,72 h 703"
     fill-rule="nonzero"
     id="path12" />
  <path
     stroke="#cccccc"
     stroke-width="1"
     stroke-linecap="butt"
     d="m 29.5,30 h 703"
     fill-rule="nonzero"
     id="path13" />
  <clipPath
     id="id_0">
    <path
       d="m 44.5,45.166668 h 703 V 255.5 h -703 z"
       clip-rule="nonzero"
       id="path14" />
  </clipPath>
  <path
     stroke="#4285f4"
     stroke-width="2"
     stroke-linecap="butt"
     clip-path="url(#id_0)"
     d="m 54.223373,255.29886 c 0,0 0.42413,-0.0549 0.636197,-0.0735 0.212066,-0.0186 2.430255,-0.14337 3.645385,-0.217 1.215125,-0.0736 11.362865,-0.73854 17.044295,-1.05093 5.68143,-0.31238 42.27434,-2.01068 63.4115,-3.06342 21.13717,-1.05273 132.10877,-6.77241 198.16318,-10.16562 66.05437,-3.3932 377.84147,-19.40107 383.54427,-19.72972 5.70283,-0.32863 17.1084,-1.09176 17.1084,-1.09176"
     fill-rule="nonzero"
     id="path15"
     transform="translate(-15,-15.5)" />
  <path
     stroke="#ea4335"
     stroke-width="2"
     stroke-linecap="butt"
     clip-path="url(#id_0)"
     d="m 54.223373,255.3079 c 0,0 0.42413,-0.049 0.636197,-0.0798 0.212066,-0.0308 2.430255,-0.45306 3.645385,-0.60175 1.215125,-0.14869 11.362865,-0.83447 17.044295,-1.35761 5.68143,-0.52314 42.27434,-4.42693 63.4115,-6.62696 21.13717,-2.20001 132.10877,-13.74071 198.16318,-20.5414 66.05437,-6.80069 377.84147,-38.61271 383.54427,-39.21846 5.70283,-0.60576 17.1084,-1.88513 17.1084,-1.88513"
     fill-rule="nonzero"
     id="path16"
     transform="translate(-15,-15.5)" />
  <path
     stroke="#fbbc04"
     stroke-width="2"
     stroke-linecap="butt"
     clip-path="url(#id_0)"
     d="m 54.223373,255.24937 c 0,0 0.42413,-0.1819 0.636197,-0.25872 0.212066,-0.0768 2.430255,-0.78398 3.645385,-1.15856 1.215125,-0.37459 11.362865,-3.34169 17.044295,-5.09129 5.68143,-1.7496 42.27434,-13.52701 63.4115,-20.1136 21.13717,-6.5866 132.10877,-40.58548 198.16318,-60.6443 C 403.1783,147.92407 714.9654,54.137814 720.6682,52.416973 c 5.70283,-1.720837 17.1084,-5.170093 17.1084,-5.170093"
     fill-rule="nonzero"
     id="path17"
     transform="translate(-15,-15.5)" />
  <path
     fill="#4285f4"
     clip-path="url(#id_0)"
     d="m 60.223373,255.29886 c 0,3.31372 -2.68629,6 -6,6 -3.313705,0 -6,-2.68628 -6,-6 0,-3.31371 2.686295,-6 6,-6 3.31371,0 6,2.68629 6,6 z"
     fill-rule="nonzero"
     id="path18"
     transform="translate(-15,-15.5)" />
  <path
     fill="#4285f4"
     clip-path="url(#id_0)"
     d="m 60.85957,255.22539 c 0,3.31371 -2.68629,6.00001 -6,6.00001 -3.31371,0 -6,-2.6863 -6,-6.00001 0,-3.31371 2.68629,-6 6,-6 3.31371,0 6,2.68629 6,6 z"
     fill-rule="nonzero"
     id="path19"
     transform="translate(-15,-15.5)" />
  <path
     fill="#4285f4"
     clip-path="url(#id_0)"
     d="m 64.50495,255.00839 c 0,3.31371 -2.68629,6.00001 -5.999995,6.00001 -3.313709,0 -6,-2.6863 -6,-6.00001 0,-3.3137 2.686291,-6 6,-6 3.313705,0 5.999995,2.6863 5.999995,6 z"
     fill-rule="nonzero"
     id="path20"
     transform="translate(-15,-15.5)" />
  <path
     fill="#4285f4"
     clip-path="url(#id_0)"
     d="m 81.54925,253.95746 c 0,3.31372 -2.68629,6 -6,6 -3.31371,0 -6,-2.68628 -6,-6 0,-3.31371 2.68629,-6 6,-6 3.31371,0 6,2.68629 6,6 z"
     fill-rule="nonzero"
     id="path21"
     transform="translate(-15,-15.5)" />
  <path
     fill="#4285f4"
     clip-path="url(#id_0)"
     d="m 144.96075,250.89404 c 0,3.31371 -2.68629,6 -6,6 -3.3137,0 -6,-2.68629 -6,-6 0,-3.3137 2.6863,-6 6,-6 3.31371,0 6,2.6863 6,6 z"
     fill-rule="nonzero"
     id="path22"
     transform="translate(-15,-15.5)" />
  <path
     fill="#4285f4"
     clip-path="url(#id_0)"
     d="m 343.12393,240.72842 c 0,3.31371 -2.68631,6 -6,6 -3.31373,0 -6,-2.68629 -6,-6 0,-3.3137 2.68627,-6 6,-6 3.31369,0 6,2.6863 6,6 z"
     fill-rule="nonzero"
     id="path23"
     transform="translate(-15,-15.5)" />
  <path
     fill="#4285f4"
     clip-path="url(#id_0)"
     d="m 726.6682,220.9987 c 0,3.31372 -2.68627,6 -6,6 -3.3137,0 -6,-2.68628 -6,-6 0,-3.3137 2.6863,-6 6,-6 3.31373,0 6,2.6863 6,6 z"
     fill-rule="nonzero"
     id="path24"
     transform="translate(-15,-15.5)" />
  <path
     fill="#4285f4"
     clip-path="url(#id_0)"
     d="m 743.7766,219.90694 c 0,3.31372 -2.68627,6 -6,6 -3.3137,0 -6,-2.68628 -6,-6 0,-3.31371 2.6863,-6 6,-6 3.31373,0 6,2.68629 6,6 z"
     fill-rule="nonzero"
     id="path25"
     transform="translate(-15,-15.5)" />
  <path
     fill="#ea4335"
     clip-path="url(#id_0)"
     d="m 60.223373,255.3079 c 0,3.3137 -2.68629,6 -6,6 -3.313705,0 -6,-2.6863 -6,-6 0,-3.3137 2.686295,-6 6,-6 3.31371,0 6,2.6863 6,6 z"
     fill-rule="nonzero"
     id="path26"
     transform="translate(-15,-15.5)" />
  <path
     fill="#ea4335"
     clip-path="url(#id_0)"
     d="m 60.85957,255.22806 c 0,3.31369 -2.68629,6 -6,6 -3.31371,0 -6,-2.68631 -6,-6 0,-3.31371 2.68629,-6 6,-6 3.31371,0 6,2.68629 6,6 z"
     fill-rule="nonzero"
     id="path27"
     transform="translate(-15,-15.5)" />
  <path
     fill="#ea4335"
     clip-path="url(#id_0)"
     d="m 64.50495,254.62631 c 0,3.31369 -2.68629,5.99999 -5.999995,5.99999 -3.313709,0 -6,-2.6863 -6,-5.99999 0,-3.31372 2.686291,-6 6,-6 3.313705,0 5.999995,2.68628 5.999995,6 z"
     fill-rule="nonzero"
     id="path28"
     transform="translate(-15,-15.5)" />
  <path
     fill="#ea4335"
     clip-path="url(#id_0)"
     d="m 81.54925,253.2687 c 0,3.3137 -2.68629,6 -6,6 -3.31371,0 -6,-2.6863 -6,-6 0,-3.3137 2.68629,-6 6,-6 3.31371,0 6,2.6863 6,6 z"
     fill-rule="nonzero"
     id="path29"
     transform="translate(-15,-15.5)" />
  <path
     fill="#ea4335"
     clip-path="url(#id_0)"
     d="m 144.96075,246.64174 c 0,3.3137 -2.68629,6 -6,6 -3.3137,0 -6,-2.6863 -6,-6 0,-3.31371 2.6863,-6 6,-6 3.31371,0 6,2.68629 6,6 z"
     fill-rule="nonzero"
     id="path30"
     transform="translate(-15,-15.5)" />
  <path
     fill="#ea4335"
     clip-path="url(#id_0)"
     d="m 343.12393,226.10034 c 0,3.31371 -2.68631,6 -6,6 -3.31373,0 -6,-2.68629 -6,-6 0,-3.3137 2.68627,-6 6,-6 3.31369,0 6,2.6863 6,6 z"
     fill-rule="nonzero"
     id="path31"
     transform="translate(-15,-15.5)" />
  <path
     fill="#ea4335"
     clip-path="url(#id_0)"
     d="m 726.6682,186.88188 c 0,3.31371 -2.68627,6 -6,6 -3.3137,0 -6,-2.68629 -6,-6 0,-3.3137 2.6863,-6 6,-6 3.31373,0 6,2.6863 6,6 z"
     fill-rule="nonzero"
     id="path32"
     transform="translate(-15,-15.5)" />
  <path
     fill="#ea4335"
     clip-path="url(#id_0)"
     d="m 743.7766,184.99675 c 0,3.31372 -2.68627,6 -6,6 -3.3137,0 -6,-2.68628 -6,-6 0,-3.31371 2.6863,-6 6,-6 3.31373,0 6,2.68629 6,6 z"
     fill-rule="nonzero"
     id="path33"
     transform="translate(-15,-15.5)" />
  <path
     fill="#fbbc04"
     clip-path="url(#id_0)"
     d="m 60.223373,255.24937 c 0,3.31371 -2.68629,6.00003 -6,6.00003 -3.313705,0 -6,-2.68632 -6,-6.00003 0,-3.3137 2.686295,-6 6,-6 3.31371,0 6,2.6863 6,6 z"
     fill-rule="nonzero"
     id="path34"
     transform="translate(-15,-15.5)" />
  <path
     fill="#fbbc04"
     clip-path="url(#id_0)"
     d="m 60.85957,254.99065 c 0,3.3137 -2.68629,6.00001 -6,6.00001 -3.31371,0 -6,-2.68631 -6,-6.00001 0,-3.31371 2.68629,-6 6,-6 3.31371,0 6,2.68629 6,6 z"
     fill-rule="nonzero"
     id="path35"
     transform="translate(-15,-15.5)" />
  <path
     fill="#fbbc04"
     clip-path="url(#id_0)"
     d="m 64.50495,253.83209 c 0,3.31369 -2.68629,6.00001 -5.999995,6.00001 -3.313709,0 -6,-2.68632 -6,-6.00001 0,-3.31372 2.686291,-6 6,-6 3.313705,0 5.999995,2.68628 5.999995,6 z"
     fill-rule="nonzero"
     id="path36"
     transform="translate(-15,-15.5)" />
  <path
     fill="#fbbc04"
     clip-path="url(#id_0)"
     d="m 81.54925,248.7408 c 0,3.3137 -2.68629,6 -6,6 -3.31371,0 -6,-2.6863 -6,-6 0,-3.3137 2.68629,-6 6,-6 3.31371,0 6,2.6863 6,6 z"
     fill-rule="nonzero"
     id="path37"
     transform="translate(-15,-15.5)" />
  <path
     fill="#fbbc04"
     clip-path="url(#id_0)"
     d="m 144.96075,228.6272 c 0,3.3137 -2.68629,6 -6,6 -3.3137,0 -6,-2.6863 -6,-6 0,-3.31371 2.6863,-6 6,-6 3.31371,0 6,2.68629 6,6 z"
     fill-rule="nonzero"
     id="path38"
     transform="translate(-15,-15.5)" />
  <path
     fill="#fbbc04"
     clip-path="url(#id_0)"
     d="m 343.12393,167.9829 c 0,3.3137 -2.68631,6 -6,6 -3.31373,0 -6,-2.6863 -6,-6 0,-3.31371 2.68627,-6 6,-6 3.31369,0 6,2.68629 6,6 z"
     fill-rule="nonzero"
     id="path39"
     transform="translate(-15,-15.5)" />
  <path
     fill="#fbbc04"
     clip-path="url(#id_0)"
     d="m 726.6682,52.416973 c 0,3.313709 -2.68627,6 -6,6 -3.3137,0 -6,-2.686291 -6,-6 0,-3.313705 2.6863,-6 6,-6 3.31373,0 6,2.686295 6,6 z"
     fill-rule="nonzero"
     id="path40"
     transform="translate(-15,-15.5)" />
  <path
     fill="#fbbc04"
     clip-path="url(#id_0)"
     d="m 743.7766,47.24688 c 0,3.31371 -2.68627,6 -6,6 -3.3137,0 -6,-2.68629 -6,-6 0,-3.31371 2.6863,-6 6,-6 3.31373,0 6,2.68629 6,6 z"
     fill-rule="nonzero"
     id="path41"
     transform="translate(-15,-15.5)" />
  <path
     fill="#000000"
     d="m 0,239.76562 q 0,-1.53124 0.3125,-2.45312 0.3125,-0.9375 0.921875,-1.4375 0.625,-0.5 1.5625,-0.5 0.6875,0 1.203125,0.28125 0.53125,0.28125 0.875,0.8125 0.34375,0.51563 0.53125,1.26563 0.1875,0.75 0.1875,2.03124 0,1.51563 -0.3125,2.4375 -0.296875,0.92188 -0.921875,1.4375 -0.609375,0.5 -1.5625,0.5 -1.234375,0 -1.953125,-0.89062 Q 0,242.1875 0,239.76562 Z m 1.078125,0 q 0,2.10938 0.5,2.8125 0.5,0.70313 1.21875,0.70313 0.734375,0 1.21875,-0.70313 0.5,-0.70312 0.5,-2.8125 0,-2.125 -0.5,-2.8125 Q 3.53125,236.25 2.78125,236.25 q -0.71875,0 -1.15625,0.60938 -0.546875,0.78124 -0.546875,2.90624 z M 7.59375,244 v -1.20312 H 8.796875 V 244 Z M 10,239.76562 q 0,-1.53124 0.3125,-2.45312 0.3125,-0.9375 0.921875,-1.4375 0.625,-0.5 1.5625,-0.5 0.6875,0 1.203125,0.28125 0.53125,0.28125 0.875,0.8125 0.34375,0.51563 0.53125,1.26563 0.1875,0.75 0.1875,2.03124 0,1.51563 -0.3125,2.4375 -0.296875,0.92188 -0.921875,1.4375 -0.609375,0.5 -1.5625,0.5 -1.234375,0 -1.953125,-0.89062 Q 10,242.1875 10,239.76562 Z m 1.078125,0 q 0,2.10938 0.5,2.8125 0.5,0.70313 1.21875,0.70313 0.734375,0 1.21875,-0.70313 0.5,-0.70312 0.5,-2.8125 0,-2.125 -0.5,-2.8125 Q 13.53125,236.25 12.78125,236.25 q -0.71875,0 -1.15625,0.60938 -0.546875,0.78124 -0.546875,2.90624 z m 5.921875,0 q 0,-1.53124 0.3125,-2.45312 0.3125,-0.9375 0.921875,-1.4375 0.625,-0.5 1.5625,-0.5 0.6875,0 1.203125,0.28125 0.53125,0.28125 0.875,0.8125 0.34375,0.51563 0.53125,1.26563 0.1875,0.75 0.1875,2.03124 0,1.51563 -0.3125,2.4375 -0.296875,0.92188 -0.921875,1.4375 -0.609375,0.5 -1.5625,0.5 -1.234375,0 -1.953125,-0.89062 Q 17,242.1875 17,239.76562 Z m 1.078125,0 q 0,2.10938 0.5,2.8125 0.5,0.70313 1.21875,0.70313 0.734375,0 1.21875,-0.70313 0.5,-0.70312 0.5,-2.8125 0,-2.125 -0.5,-2.8125 Q 20.53125,236.25 19.78125,236.25 q -0.71875,0 -1.15625,0.60938 -0.546875,0.78124 -0.546875,2.90624 z"
     fill-rule="nonzero"
     id="path42" />
  <path
     fill="#000000"
     d="m 0,197.69896 q 0,-1.53125 0.3125,-2.45313 0.3125,-0.9375 0.921875,-1.4375 0.625,-0.5 1.5625,-0.5 0.6875,0 1.203125,0.28125 0.53125,0.28125 0.875,0.8125 0.34375,0.51563 0.53125,1.26563 0.1875,0.75 0.1875,2.03125 0,1.51562 -0.3125,2.4375 -0.296875,0.92187 -0.921875,1.4375 -0.609375,0.5 -1.5625,0.5 -1.234375,0 -1.953125,-0.89063 Q 0,200.12083 0,197.69896 Z m 1.078125,0 q 0,2.10937 0.5,2.8125 0.5,0.70312 1.21875,0.70312 0.734375,0 1.21875,-0.70312 0.5,-0.70313 0.5,-2.8125 0,-2.125 -0.5,-2.8125 -0.484375,-0.70313 -1.234375,-0.70313 -0.71875,0 -1.15625,0.60938 -0.546875,0.78125 -0.546875,2.90625 z m 6.515625,4.23437 v -1.20312 h 1.203125 v 1.20312 z M 10,197.69896 q 0,-1.53125 0.3125,-2.45313 0.3125,-0.9375 0.921875,-1.4375 0.625,-0.5 1.5625,-0.5 0.6875,0 1.203125,0.28125 0.53125,0.28125 0.875,0.8125 0.34375,0.51563 0.53125,1.26563 0.1875,0.75 0.1875,2.03125 0,1.51562 -0.3125,2.4375 -0.296875,0.92187 -0.921875,1.4375 -0.609375,0.5 -1.5625,0.5 -1.234375,0 -1.953125,-0.89063 Q 10,200.12083 10,197.69896 Z m 1.078125,0 q 0,2.10937 0.5,2.8125 0.5,0.70312 1.21875,0.70312 0.734375,0 1.21875,-0.70312 0.5,-0.70313 0.5,-2.8125 0,-2.125 -0.5,-2.8125 -0.484375,-0.70313 -1.234375,-0.70313 -0.71875,0 -1.15625,0.60938 -0.546875,0.78125 -0.546875,2.90625 z M 17,199.68333 l 1.109375,-0.0937 q 0.125,0.8125 0.5625,1.21875 0.453125,0.40625 1.09375,0.40625 0.75,0 1.28125,-0.57812 0.53125,-0.57813 0.53125,-1.51563 0,-0.90625 -0.515625,-1.42187 -0.5,-0.53125 -1.328125,-0.53125 -0.5,0 -0.921875,0.23437 -0.40625,0.23438 -0.640625,0.59375 l -0.984375,-0.125 0.828125,-4.40625 h 4.28125 v 1 h -3.4375 l -0.453125,2.3125 q 0.765625,-0.54687 1.609375,-0.54687 1.125,0 1.890625,0.78125 0.78125,0.78125 0.78125,2.01562 0,1.15625 -0.671875,2.01563 -0.828125,1.03125 -2.25,1.03125 -1.171875,0 -1.921875,-0.65625 Q 17.109375,200.76146 17,199.68333 Z"
     fill-rule="nonzero"
     id="path43" />
  <path
     fill="#000000"
     d="m 0,155.6323 q 0,-1.53126 0.3125,-2.45313 0.3125,-0.9375 0.921875,-1.4375 0.625,-0.5 1.5625,-0.5 0.6875,0 1.203125,0.28125 0.53125,0.28125 0.875,0.8125 0.34375,0.51562 0.53125,1.26562 0.1875,0.75 0.1875,2.03126 0,1.51562 -0.3125,2.4375 -0.296875,0.92187 -0.921875,1.4375 -0.609375,0.5 -1.5625,0.5 -1.234375,0 -1.953125,-0.89063 Q 0,158.05417 0,155.6323 Z m 1.078125,0 q 0,2.10937 0.5,2.8125 0.5,0.70312 1.21875,0.70312 0.734375,0 1.21875,-0.70312 0.5,-0.70313 0.5,-2.8125 0,-2.125 -0.5,-2.8125 -0.484375,-0.70313 -1.234375,-0.70313 -0.71875,0 -1.15625,0.60937 -0.546875,0.78126 -0.546875,2.90626 z m 6.515625,4.23437 v -1.20313 h 1.203125 v 1.20313 z m 6.375,0 h -1.046875 v -6.71875 q -0.390625,0.35938 -1.015625,0.73438 -0.609375,0.35937 -1.09375,0.53124 v -1.01562 q 0.875,-0.42188 1.53125,-1 0.671875,-0.59375 0.953125,-1.15625 H 13.96875 Z M 17,155.6323 q 0,-1.53126 0.3125,-2.45313 0.3125,-0.9375 0.921875,-1.4375 0.625,-0.5 1.5625,-0.5 0.6875,0 1.203125,0.28125 0.53125,0.28125 0.875,0.8125 0.34375,0.51562 0.53125,1.26562 0.1875,0.75 0.1875,2.03126 0,1.51562 -0.3125,2.4375 -0.296875,0.92187 -0.921875,1.4375 -0.609375,0.5 -1.5625,0.5 -1.234375,0 -1.953125,-0.89063 Q 17,158.05417 17,155.6323 Z m 1.078125,0 q 0,2.10937 0.5,2.8125 0.5,0.70312 1.21875,0.70312 0.734375,0 1.21875,-0.70312 0.5,-0.70313 0.5,-2.8125 0,-2.125 -0.5,-2.8125 -0.484375,-0.70313 -1.234375,-0.70313 -0.71875,0 -1.15625,0.60937 -0.546875,0.78126 -0.546875,2.90626 z"
     fill-rule="nonzero"
     id="path44" />
  <path
     fill="#000000"
     d="m 0,113.56563 q 0,-1.53125 0.3125,-2.45313 0.3125,-0.9375 0.921875,-1.4375 0.625,-0.5 1.5625,-0.5 0.6875,0 1.203125,0.28125 0.53125,0.28125 0.875,0.8125 0.34375,0.51563 0.53125,1.26563 0.1875,0.75 0.1875,2.03125 0,1.51562 -0.3125,2.4375 -0.296875,0.92187 -0.921875,1.4375 -0.609375,0.5 -1.5625,0.5 -1.234375,0 -1.953125,-0.89063 Q 0,115.9875 0,113.56563 Z m 1.078125,0 q 0,2.10937 0.5,2.8125 0.5,0.70312 1.21875,0.70312 0.734375,0 1.21875,-0.70312 0.5,-0.70313 0.5,-2.8125 0,-2.125 -0.5,-2.8125 Q 3.53125,110.05 2.78125,110.05 q -0.71875,0 -1.15625,0.60938 -0.546875,0.78125 -0.546875,2.90625 z M 7.59375,117.8 v -1.20312 H 8.796875 V 117.8 Z m 6.375,0 h -1.046875 v -6.71875 q -0.390625,0.35938 -1.015625,0.73438 -0.609375,0.35937 -1.09375,0.53125 v -1.01563 q 0.875,-0.42187 1.53125,-1 0.671875,-0.59375 0.953125,-1.15625 H 13.96875 Z M 17,115.55 l 1.109375,-0.0937 q 0.125,0.8125 0.5625,1.21875 0.453125,0.40625 1.09375,0.40625 0.75,0 1.28125,-0.57812 0.53125,-0.57813 0.53125,-1.51563 0,-0.90625 -0.515625,-1.42187 -0.5,-0.53125 -1.328125,-0.53125 -0.5,0 -0.921875,0.23437 -0.40625,0.23438 -0.640625,0.59375 l -0.984375,-0.125 0.828125,-4.40625 h 4.28125 v 1 h -3.4375 l -0.453125,2.3125 q 0.765625,-0.54687 1.609375,-0.54687 1.125,0 1.890625,0.78125 0.78125,0.78125 0.78125,2.01562 0,1.15625 -0.671875,2.01563 -0.828125,1.03125 -2.25,1.03125 -1.171875,0 -1.921875,-0.65625 Q 17.109375,116.62813 17,115.55 Z"
     fill-rule="nonzero"
     id="path45" />
  <path
     fill="#000000"
     d="m 0,71.498955 q 0,-1.53125 0.3125,-2.453125 0.3125,-0.9375 0.921875,-1.4375 0.625,-0.5 1.5625,-0.5 0.6875,0 1.203125,0.28125 0.53125,0.28125 0.875,0.8125 0.34375,0.515625 0.53125,1.265625 0.1875,0.75 0.1875,2.03125 0,1.515625 -0.3125,2.4375 -0.296875,0.921875 -0.921875,1.4375 -0.609375,0.5 -1.5625,0.5 -1.234375,0 -1.953125,-0.890625 Q 0,73.92083 0,71.498955 Z m 1.078125,0 q 0,2.109375 0.5,2.8125 0.5,0.703125 1.21875,0.703125 0.734375,0 1.21875,-0.703125 0.5,-0.703125 0.5,-2.8125 0,-2.125 -0.5,-2.8125 Q 3.53125,67.98333 2.78125,67.98333 q -0.71875,0 -1.15625,0.609375 -0.546875,0.78125 -0.546875,2.90625 z M 7.59375,75.73333 v -1.203125 h 1.203125 v 1.203125 z m 7.953125,-1.015625 v 1.015625 h -5.6875 q 0,-0.375 0.125,-0.734375 0.21875,-0.578125 0.6875,-1.140625 0.484375,-0.5625 1.390625,-1.296875 1.40625,-1.15625 1.890625,-1.828125 0.5,-0.671875 0.5,-1.265625 0,-0.625 -0.453125,-1.046875 -0.453125,-0.4375 -1.171875,-0.4375 -0.765625,0 -1.21875,0.453125 -0.453125,0.453125 -0.46875,1.265625 L 10.0625,69.592705 q 0.109375,-1.21875 0.828125,-1.84375 0.734375,-0.640625 1.96875,-0.640625 1.234375,0 1.953125,0.6875 0.71875,0.6875 0.71875,1.703125 0,0.515625 -0.21875,1.015625 -0.203125,0.484375 -0.703125,1.046875 -0.484375,0.546875 -1.609375,1.5 -0.953125,0.796875 -1.234375,1.09375 -0.265625,0.28125 -0.4375,0.5625 z M 17,71.498955 q 0,-1.53125 0.3125,-2.453125 0.3125,-0.9375 0.921875,-1.4375 0.625,-0.5 1.5625,-0.5 0.6875,0 1.203125,0.28125 0.53125,0.28125 0.875,0.8125 0.34375,0.515625 0.53125,1.265625 0.1875,0.75 0.1875,2.03125 0,1.515625 -0.3125,2.4375 -0.296875,0.921875 -0.921875,1.4375 -0.609375,0.5 -1.5625,0.5 -1.234375,0 -1.953125,-0.890625 Q 17,73.92083 17,71.498955 Z m 1.078125,0 q 0,2.109375 0.5,2.8125 0.5,0.703125 1.21875,0.703125 0.734375,0 1.21875,-0.703125 0.5,-0.703125 0.5,-2.8125 0,-2.125 -0.5,-2.8125 -0.484375,-0.703125 -1.234375,-0.703125 -0.71875,0 -1.15625,0.609375 -0.546875,0.78125 -0.546875,2.90625 z"
     fill-rule="nonzero"
     id="path46" />
  <path
     fill="#000000"
     d="m 0,29.432293 q 0,-1.53125 0.3125,-2.453125 0.3125,-0.9375 0.921875,-1.4375 0.625,-0.5 1.5625,-0.5 0.6875,0 1.203125,0.28125 0.53125,0.28125 0.875,0.8125 0.34375,0.515625 0.53125,1.265625 0.1875,0.75 0.1875,2.03125 0,1.515625 -0.3125,2.4375 -0.296875,0.921875 -0.921875,1.4375 -0.609375,0.5 -1.5625,0.5 -1.234375,0 -1.953125,-0.890625 Q 0,31.854168 0,29.432293 Z m 1.078125,0 q 0,2.109375 0.5,2.8125 0.5,0.703125 1.21875,0.703125 0.734375,0 1.21875,-0.703125 0.5,-0.703125 0.5,-2.8125 0,-2.125 -0.5,-2.8125 -0.484375,-0.703125 -1.234375,-0.703125 -0.71875,0 -1.15625,0.609375 -0.546875,0.78125 -0.546875,2.90625 z m 6.515625,4.234375 v -1.203125 h 1.203125 v 1.203125 z m 7.953125,-1.015625 v 1.015625 h -5.6875 q 0,-0.375 0.125,-0.734375 0.21875,-0.578125 0.6875,-1.140625 0.484375,-0.5625 1.390625,-1.296875 1.40625,-1.15625 1.890625,-1.828125 0.5,-0.671875 0.5,-1.265625 0,-0.625 -0.453125,-1.046875 -0.453125,-0.4375 -1.171875,-0.4375 -0.765625,0 -1.21875,0.453125 -0.453125,0.453125 -0.46875,1.265625 L 10.0625,27.526043 q 0.109375,-1.21875 0.828125,-1.84375 0.734375,-0.640625 1.96875,-0.640625 1.234375,0 1.953125,0.6875 0.71875,0.6875 0.71875,1.703125 0,0.515625 -0.21875,1.015625 -0.203125,0.484375 -0.703125,1.046875 -0.484375,0.546875 -1.609375,1.5 -0.953125,0.796875 -1.234375,1.09375 -0.265625,0.28125 -0.4375,0.5625 z M 17,31.416668 l 1.109375,-0.09375 q 0.125,0.8125 0.5625,1.21875 0.453125,0.40625 1.09375,0.40625 0.75,0 1.28125,-0.578125 0.53125,-0.578125 0.53125,-1.515625 0,-0.90625 -0.515625,-1.421875 -0.5,-0.53125 -1.328125,-0.53125 -0.5,0 -0.921875,0.234375 -0.40625,0.234375 -0.640625,0.59375 l -0.984375,-0.125 0.828125,-4.40625 h 4.28125 v 1 h -3.4375 l -0.453125,2.3125 q 0.765625,-0.546875 1.609375,-0.546875 1.125,0 1.890625,0.78125 0.78125,0.78125 0.78125,2.015625 0,1.15625 -0.671875,2.015625 -0.828125,1.03125 -2.25,1.03125 -1.171875,0 -1.921875,-0.65625 Q 17.109375,32.494793 17,31.416668 Z"
     fill-rule="nonzero"
     id="path47" />
  <path
     fill="#000000"
     d="m 36.08474,252.76562 q 0,-1.53124 0.3125,-2.45312 0.3125,-0.9375 0.921875,-1.4375 0.625,-0.5 1.5625,-0.5 0.6875,0 1.203125,0.28125 0.53125,0.28125 0.875,0.8125 0.34375,0.51563 0.53125,1.26563 0.1875,0.75 0.1875,2.03124 0,1.51563 -0.3125,2.4375 -0.296875,0.92188 -0.921875,1.4375 -0.609375,0.5 -1.5625,0.5 -1.234375,0 -1.953125,-0.89062 -0.84375,-1.0625 -0.84375,-3.48438 z m 1.078125,0 q 0,2.10938 0.5,2.8125 0.5,0.70313 1.21875,0.70313 0.734375,0 1.21875,-0.70313 0.5,-0.70312 0.5,-2.8125 0,-2.125 -0.5,-2.8125 Q 39.61599,249.25 38.86599,249.25 q -0.71875,0 -1.15625,0.60938 -0.546875,0.78124 -0.546875,2.90624 z"
     fill-rule="nonzero"
     id="path48" />
  <path
     fill="#000000"
     d="m 146.67627,257 h -1.04687 v -6.71875 q -0.39063,0.35937 -1.01563,0.73437 -0.60937,0.35938 -1.09375,0.53126 v -1.01563 q 0.875,-0.42187 1.53125,-1 0.67187,-0.59375 0.95313,-1.15625 h 0.67187 z m 3.03125,-4.23438 q 0,-1.53124 0.3125,-2.45312 0.3125,-0.9375 0.92188,-1.4375 0.625,-0.5 1.5625,-0.5 0.6875,0 1.20312,0.28125 0.53125,0.28125 0.875,0.8125 0.34375,0.51563 0.53125,1.26563 0.1875,0.75 0.1875,2.03124 0,1.51563 -0.3125,2.4375 -0.29687,0.92188 -0.92187,1.4375 -0.60938,0.5 -1.5625,0.5 -1.23438,0 -1.95313,-0.89062 -0.84375,-1.0625 -0.84375,-3.48438 z m 1.07812,0 q 0,2.10938 0.5,2.8125 0.5,0.70313 1.21876,0.70313 0.73437,0 1.21874,-0.70313 0.5,-0.70312 0.5,-2.8125 0,-2.125 -0.5,-2.8125 -0.48437,-0.70312 -1.23437,-0.70312 -0.71875,0 -1.15625,0.60938 -0.54688,0.78124 -0.54688,2.90624 z m 5.92188,0 q 0,-1.53124 0.3125,-2.45312 0.3125,-0.9375 0.92188,-1.4375 0.625,-0.5 1.5625,-0.5 0.6875,0 1.20312,0.28125 0.53125,0.28125 0.875,0.8125 0.34375,0.51563 0.53125,1.26563 0.1875,0.75 0.1875,2.03124 0,1.51563 -0.3125,2.4375 -0.29687,0.92188 -0.92187,1.4375 -0.60938,0.5 -1.5625,0.5 -1.23438,0 -1.95313,-0.89062 -0.84375,-1.0625 -0.84375,-3.48438 z m 1.07812,0 q 0,2.10938 0.5,2.8125 0.5,0.70313 1.21876,0.70313 0.73437,0 1.21874,-0.70313 0.5,-0.70312 0.5,-2.8125 0,-2.125 -0.5,-2.8125 -0.48437,-0.70312 -1.23437,-0.70312 -0.71875,0 -1.15625,0.60938 -0.54688,0.78124 -0.54688,2.90624 z m 5.92188,0 q 0,-1.53124 0.3125,-2.45312 0.3125,-0.9375 0.92188,-1.4375 0.625,-0.5 1.5625,-0.5 0.6875,0 1.20312,0.28125 0.53125,0.28125 0.875,0.8125 0.34375,0.51563 0.53125,1.26563 0.1875,0.75 0.1875,2.03124 0,1.51563 -0.3125,2.4375 -0.29687,0.92188 -0.92187,1.4375 -0.60938,0.5 -1.5625,0.5 -1.23438,0 -1.95313,-0.89062 -0.84375,-1.0625 -0.84375,-3.48438 z m 1.07812,0 q 0,2.10938 0.5,2.8125 0.5,0.70313 1.21876,0.70313 0.73437,0 1.21874,-0.70313 0.5,-0.70312 0.5,-2.8125 0,-2.125 -0.5,-2.8125 -0.48437,-0.70312 -1.23437,-0.70312 -0.71875,0 -1.15625,0.60938 -0.54688,0.78124 -0.54688,2.90624 z m 5.92188,0 q 0,-1.53124 0.3125,-2.45312 0.3125,-0.9375 0.92188,-1.4375 0.625,-0.5 1.5625,-0.5 0.6875,0 1.20312,0.28125 0.53125,0.28125 0.875,0.8125 0.34375,0.51563 0.53125,1.26563 0.1875,0.75 0.1875,2.03124 0,1.51563 -0.3125,2.4375 -0.29687,0.92188 -0.92187,1.4375 -0.60938,0.5 -1.5625,0.5 -1.23438,0 -1.95313,-0.89062 -0.84375,-1.0625 -0.84375,-3.48438 z m 1.07812,0 q 0,2.10938 0.5,2.8125 0.5,0.70313 1.21876,0.70313 0.73437,0 1.21874,-0.70313 0.5,-0.70312 0.5,-2.8125 0,-2.125 -0.5,-2.8125 -0.48437,-0.70312 -1.23437,-0.70312 -0.71875,0 -1.15625,0.60938 -0.54688,0.78124 -0.54688,2.90624 z m 5.92188,0 q 0,-1.53124 0.3125,-2.45312 0.3125,-0.9375 0.92188,-1.4375 0.625,-0.5 1.5625,-0.5 0.6875,0 1.20312,0.28125 0.53125,0.28125 0.875,0.8125 0.34375,0.51563 0.53125,1.26563 0.1875,0.75 0.1875,2.03124 0,1.51563 -0.3125,2.4375 -0.29687,0.92188 -0.92187,1.4375 -0.60938,0.5 -1.5625,0.5 -1.23438,0 -1.95313,-0.89062 -0.84375,-1.0625 -0.84375,-3.48438 z m 1.07812,0 q 0,2.10938 0.5,2.8125 0.5,0.70313 1.21876,0.70313 0.73437,0 1.21874,-0.70313 0.5,-0.70312 0.5,-2.8125 0,-2.125 -0.5,-2.8125 -0.48437,-0.70312 -1.23437,-0.70312 -0.71875,0 -1.15625,0.60938 -0.54688,0.78124 -0.54688,2.90624 z m 5.92188,0 q 0,-1.53124 0.3125,-2.45312 0.3125,-0.9375 0.92188,-1.4375 0.625,-0.5 1.5625,-0.5 0.6875,0 1.20312,0.28125 0.53125,0.28125 0.875,0.8125 0.34375,0.51563 0.53125,1.26563 0.1875,0.75 0.1875,2.03124 0,1.51563 -0.3125,2.4375 -0.29687,0.92188 -0.92187,1.4375 -0.60938,0.5 -1.5625,0.5 -1.23438,0 -1.95313,-0.89062 -0.84375,-1.0625 -0.84375,-3.48438 z m 1.07812,0 q 0,2.10938 0.5,2.8125 0.5,0.70313 1.21876,0.70313 0.73437,0 1.21874,-0.70313 0.5,-0.70312 0.5,-2.8125 0,-2.125 -0.5,-2.8125 -0.48437,-0.70312 -1.23437,-0.70312 -0.71875,0 -1.15625,0.60938 -0.54688,0.78124 -0.54688,2.90624 z m 5.92188,0 q 0,-1.53124 0.3125,-2.45312 0.3125,-0.9375 0.92188,-1.4375 0.625,-0.5 1.5625,-0.5 0.6875,0 1.20312,0.28125 0.53125,0.28125 0.875,0.8125 0.34375,0.51563 0.53125,1.26563 0.1875,0.75 0.1875,2.03124 0,1.51563 -0.3125,2.4375 -0.29687,0.92188 -0.92187,1.4375 -0.60938,0.5 -1.5625,0.5 -1.23438,0 -1.95313,-0.89062 -0.84375,-1.0625 -0.84375,-3.48438 z m 1.07812,0 q 0,2.10938 0.5,2.8125 0.5,0.70313 1.21876,0.70313 0.73437,0 1.21874,-0.70313 0.5,-0.70312 0.5,-2.8125 0,-2.125 -0.5,-2.8125 -0.48437,-0.70312 -1.23437,-0.70312 -0.71875,0 -1.15625,0.60938 -0.54688,0.78124 -0.54688,2.90624 z"
     fill-rule="nonzero"
     id="path49" />
  <path
     fill="#000000"
     d="M 279.3772,255.98438 V 257 h -5.6875 q 0,-0.375 0.125,-0.73438 0.21875,-0.57812 0.6875,-1.14062 0.48437,-0.5625 1.39062,-1.29688 1.40625,-1.15624 1.89063,-1.82812 0.5,-0.67188 0.5,-1.26562 0,-0.625 -0.45313,-1.04688 -0.45312,-0.4375 -1.17187,-0.4375 -0.76563,0 -1.21875,0.45312 -0.45313,0.45313 -0.46875,1.26563 l -1.07813,-0.10937 q 0.10938,-1.21876 0.82813,-1.84376 0.73437,-0.64062 1.96875,-0.64062 1.23437,0 1.95312,0.6875 0.71875,0.6875 0.71875,1.70312 0,0.51563 -0.21875,1.01563 -0.20312,0.48437 -0.70312,1.04687 -0.48438,0.54688 -1.60938,1.5 -0.95312,0.79688 -1.23437,1.09376 -0.26563,0.28124 -0.4375,0.5625 z m 1.45312,-3.21876 q 0,-1.53124 0.3125,-2.45312 0.3125,-0.9375 0.92188,-1.4375 0.625,-0.5 1.5625,-0.5 0.6875,0 1.20312,0.28125 0.53125,0.28125 0.875,0.8125 0.34375,0.51563 0.53125,1.26563 0.1875,0.75 0.1875,2.03124 0,1.51563 -0.3125,2.4375 -0.29687,0.92188 -0.92187,1.4375 -0.60938,0.5 -1.5625,0.5 -1.23438,0 -1.95313,-0.89062 -0.84375,-1.0625 -0.84375,-3.48438 z m 1.07813,0 q 0,2.10938 0.5,2.8125 0.5,0.70313 1.21875,0.70313 0.73437,0 1.21875,-0.70313 0.5,-0.70312 0.5,-2.8125 0,-2.125 -0.5,-2.8125 -0.48438,-0.70312 -1.23438,-0.70312 -0.71875,0 -1.15625,0.60938 -0.54687,0.78124 -0.54687,2.90624 z m 5.92187,0 q 0,-1.53124 0.3125,-2.45312 0.3125,-0.9375 0.92188,-1.4375 0.625,-0.5 1.5625,-0.5 0.6875,0 1.20312,0.28125 0.53125,0.28125 0.875,0.8125 0.34375,0.51563 0.53125,1.26563 0.1875,0.75 0.1875,2.03124 0,1.51563 -0.3125,2.4375 -0.29687,0.92188 -0.92187,1.4375 -0.60938,0.5 -1.5625,0.5 -1.23438,0 -1.95313,-0.89062 -0.84375,-1.0625 -0.84375,-3.48438 z m 1.07813,0 q 0,2.10938 0.5,2.8125 0.5,0.70313 1.21875,0.70313 0.73437,0 1.21875,-0.70313 0.5,-0.70312 0.5,-2.8125 0,-2.125 -0.5,-2.8125 -0.48438,-0.70312 -1.23438,-0.70312 -0.71875,0 -1.15625,0.60938 -0.54687,0.78124 -0.54687,2.90624 z m 5.92187,0 q 0,-1.53124 0.3125,-2.45312 0.3125,-0.9375 0.92188,-1.4375 0.625,-0.5 1.5625,-0.5 0.6875,0 1.20312,0.28125 0.53125,0.28125 0.875,0.8125 0.34375,0.51563 0.53125,1.26563 0.1875,0.75 0.1875,2.03124 0,1.51563 -0.3125,2.4375 -0.29687,0.92188 -0.92187,1.4375 -0.60938,0.5 -1.5625,0.5 -1.23438,0 -1.95313,-0.89062 -0.84375,-1.0625 -0.84375,-3.48438 z m 1.07813,0 q 0,2.10938 0.5,2.8125 0.5,0.70313 1.21875,0.70313 0.73437,0 1.21875,-0.70313 0.5,-0.70312 0.5,-2.8125 0,-2.125 -0.5,-2.8125 -0.48438,-0.70312 -1.23438,-0.70312 -0.71875,0 -1.15625,0.60938 -0.54687,0.78124 -0.54687,2.90624 z m 5.92187,0 q 0,-1.53124 0.3125,-2.45312 0.3125,-0.9375 0.92188,-1.4375 0.625,-0.5 1.5625,-0.5 0.6875,0 1.20312,0.28125 0.53125,0.28125 0.875,0.8125 0.34375,0.51563 0.53125,1.26563 0.1875,0.75 0.1875,2.03124 0,1.51563 -0.3125,2.4375 -0.29687,0.92188 -0.92187,1.4375 -0.60938,0.5 -1.5625,0.5 -1.23438,0 -1.95313,-0.89062 -0.84375,-1.0625 -0.84375,-3.48438 z m 1.07813,0 q 0,2.10938 0.5,2.8125 0.5,0.70313 1.21875,0.70313 0.73437,0 1.21875,-0.70313 0.5,-0.70312 0.5,-2.8125 0,-2.125 -0.5,-2.8125 -0.48438,-0.70312 -1.23438,-0.70312 -0.71875,0 -1.15625,0.60938 -0.54687,0.78124 -0.54687,2.90624 z m 5.92187,0 q 0,-1.53124 0.3125,-2.45312 0.3125,-0.9375 0.92188,-1.4375 0.625,-0.5 1.5625,-0.5 0.6875,0 1.20312,0.28125 0.53125,0.28125 0.875,0.8125 0.34375,0.51563 0.53125,1.26563 0.1875,0.75 0.1875,2.03124 0,1.51563 -0.3125,2.4375 -0.29687,0.92188 -0.92187,1.4375 -0.60938,0.5 -1.5625,0.5 -1.23438,0 -1.95313,-0.89062 -0.84375,-1.0625 -0.84375,-3.48438 z m 1.07813,0 q 0,2.10938 0.5,2.8125 0.5,0.70313 1.21875,0.70313 0.73437,0 1.21875,-0.70313 0.5,-0.70312 0.5,-2.8125 0,-2.125 -0.5,-2.8125 -0.48438,-0.70312 -1.23438,-0.70312 -0.71875,0 -1.15625,0.60938 -0.54687,0.78124 -0.54687,2.90624 z m 5.92187,0 q 0,-1.53124 0.3125,-2.45312 0.3125,-0.9375 0.92188,-1.4375 0.625,-0.5 1.5625,-0.5 0.6875,0 1.20312,0.28125 0.53125,0.28125 0.875,0.8125 0.34375,0.51563 0.53125,1.26563 0.1875,0.75 0.1875,2.03124 0,1.51563 -0.3125,2.4375 -0.29687,0.92188 -0.92187,1.4375 -0.60938,0.5 -1.5625,0.5 -1.23438,0 -1.95313,-0.89062 -0.84375,-1.0625 -0.84375,-3.48438 z m 1.07813,0 q 0,2.10938 0.5,2.8125 0.5,0.70313 1.21875,0.70313 0.73437,0 1.21875,-0.70313 0.5,-0.70312 0.5,-2.8125 0,-2.125 -0.5,-2.8125 -0.48438,-0.70312 -1.23438,-0.70312 -0.71875,0 -1.15625,0.60938 -0.54687,0.78124 -0.54687,2.90624 z m 5.92187,0 q 0,-1.53124 0.3125,-2.45312 0.3125,-0.9375 0.92188,-1.4375 0.625,-0.5 1.5625,-0.5 0.6875,0 1.20312,0.28125 0.53125,0.28125 0.875,0.8125 0.34375,0.51563 0.53125,1.26563 0.1875,0.75 0.1875,2.03124 0,1.51563 -0.3125,2.4375 -0.29687,0.92188 -0.92187,1.4375 -0.60938,0.5 -1.5625,0.5 -1.23438,0 -1.95313,-0.89062 -0.84375,-1.0625 -0.84375,-3.48438 z m 1.07813,0 q 0,2.10938 0.5,2.8125 0.5,0.70313 1.21875,0.70313 0.73437,0 1.21875,-0.70313 0.5,-0.70312 0.5,-2.8125 0,-2.125 -0.5,-2.8125 -0.48438,-0.70312 -1.23438,-0.70312 -0.71875,0 -1.15625,0.60938 -0.54687,0.78124 -0.54687,2.90624 z"
     fill-rule="nonzero"
     id="path50" />
  <path
     fill="#000000"
     d="m 404.9531,254.73438 1.0625,-0.14063 q 0.17187,0.89063 0.60937,1.29687 0.4375,0.39063 1.0625,0.39063 0.75,0 1.26563,-0.51563 0.51562,-0.51562 0.51562,-1.28124 0,-0.71876 -0.48438,-1.1875 -0.46874,-0.48438 -1.20312,-0.48438 -0.29688,0 -0.75,0.125 l 0.125,-0.9375 q 0.10938,0.0156 0.17188,0.0156 0.67187,0 1.20312,-0.34374 0.54688,-0.35938 0.54688,-1.09376 0,-0.57812 -0.39063,-0.95312 -0.39063,-0.39062 -1.01563,-0.39062 -0.60937,0 -1.03124,0.39062 -0.40626,0.39062 -0.51563,1.15625 l -1.0625,-0.1875 q 0.1875,-1.04687 0.875,-1.625 0.6875,-0.59375 1.70313,-0.59375 0.70312,0 1.29687,0.3125 0.59375,0.29688 0.90625,0.8125 0.3125,0.51562 0.3125,1.10938 0,0.54687 -0.29688,1.01562 -0.29687,0.45312 -0.875,0.71875 0.75,0.17187 1.17188,0.73437 0.42188,0.54688 0.42188,1.39063 0,1.125 -0.82813,1.90625 -0.8125,0.78125 -2.0625,0.78125 -1.125,0 -1.875,-0.67187 -0.75,-0.6875 -0.85937,-1.75 z m 7,-1.96876 q 0,-1.53124 0.3125,-2.45312 0.3125,-0.9375 0.92187,-1.4375 0.625,-0.5 1.5625,-0.5 0.6875,0 1.20313,0.28125 0.53124,0.28125 0.875,0.8125 0.34374,0.51563 0.53124,1.26563 0.1875,0.75 0.1875,2.03124 0,1.51563 -0.3125,2.4375 -0.29687,0.92188 -0.92187,1.4375 -0.60937,0.5 -1.5625,0.5 -1.23437,0 -1.95313,-0.89062 -0.84374,-1.0625 -0.84374,-3.48438 z m 1.07812,0 q 0,2.10938 0.5,2.8125 0.5,0.70313 1.21875,0.70313 0.73437,0 1.21875,-0.70313 0.5,-0.70312 0.5,-2.8125 0,-2.125 -0.5,-2.8125 -0.48438,-0.70312 -1.23438,-0.70312 -0.71874,0 -1.15624,0.60938 -0.54688,0.78124 -0.54688,2.90624 z m 5.92188,0 q 0,-1.53124 0.3125,-2.45312 0.3125,-0.9375 0.92187,-1.4375 0.625,-0.5 1.5625,-0.5 0.6875,0 1.20313,0.28125 0.53124,0.28125 0.875,0.8125 0.34374,0.51563 0.53124,1.26563 0.1875,0.75 0.1875,2.03124 0,1.51563 -0.3125,2.4375 -0.29687,0.92188 -0.92187,1.4375 -0.60937,0.5 -1.5625,0.5 -1.23437,0 -1.95313,-0.89062 -0.84374,-1.0625 -0.84374,-3.48438 z m 1.07812,0 q 0,2.10938 0.5,2.8125 0.5,0.70313 1.21875,0.70313 0.73437,0 1.21875,-0.70313 0.5,-0.70312 0.5,-2.8125 0,-2.125 -0.5,-2.8125 -0.48438,-0.70312 -1.23438,-0.70312 -0.71874,0 -1.15624,0.60938 -0.54688,0.78124 -0.54688,2.90624 z m 5.92188,0 q 0,-1.53124 0.3125,-2.45312 0.3125,-0.9375 0.92187,-1.4375 0.625,-0.5 1.5625,-0.5 0.6875,0 1.20313,0.28125 0.53124,0.28125 0.875,0.8125 0.34374,0.51563 0.53124,1.26563 0.1875,0.75 0.1875,2.03124 0,1.51563 -0.3125,2.4375 -0.29687,0.92188 -0.92187,1.4375 -0.60937,0.5 -1.5625,0.5 -1.23437,0 -1.95313,-0.89062 -0.84374,-1.0625 -0.84374,-3.48438 z m 1.07812,0 q 0,2.10938 0.5,2.8125 0.5,0.70313 1.21875,0.70313 0.73437,0 1.21875,-0.70313 0.5,-0.70312 0.5,-2.8125 0,-2.125 -0.5,-2.8125 -0.48438,-0.70312 -1.23438,-0.70312 -0.71874,0 -1.15624,0.60938 -0.54688,0.78124 -0.54688,2.90624 z m 5.92188,0 q 0,-1.53124 0.3125,-2.45312 0.3125,-0.9375 0.92187,-1.4375 0.625,-0.5 1.5625,-0.5 0.6875,0 1.20313,0.28125 0.53124,0.28125 0.875,0.8125 0.34374,0.51563 0.53124,1.26563 0.1875,0.75 0.1875,2.03124 0,1.51563 -0.3125,2.4375 -0.29687,0.92188 -0.92187,1.4375 -0.60937,0.5 -1.5625,0.5 -1.23437,0 -1.95313,-0.89062 -0.84374,-1.0625 -0.84374,-3.48438 z m 1.07812,0 q 0,2.10938 0.5,2.8125 0.5,0.70313 1.21875,0.70313 0.73437,0 1.21875,-0.70313 0.5,-0.70312 0.5,-2.8125 0,-2.125 -0.5,-2.8125 -0.48438,-0.70312 -1.23438,-0.70312 -0.71874,0 -1.15624,0.60938 -0.54688,0.78124 -0.54688,2.90624 z m 5.92188,0 q 0,-1.53124 0.3125,-2.45312 0.3125,-0.9375 0.92187,-1.4375 0.625,-0.5 1.5625,-0.5 0.6875,0 1.20313,0.28125 0.53124,0.28125 0.875,0.8125 0.34374,0.51563 0.53124,1.26563 0.1875,0.75 0.1875,2.03124 0,1.51563 -0.3125,2.4375 -0.29687,0.92188 -0.92187,1.4375 -0.60937,0.5 -1.5625,0.5 -1.23437,0 -1.95313,-0.89062 -0.84374,-1.0625 -0.84374,-3.48438 z m 1.07812,0 q 0,2.10938 0.5,2.8125 0.5,0.70313 1.21875,0.70313 0.73437,0 1.21875,-0.70313 0.5,-0.70312 0.5,-2.8125 0,-2.125 -0.5,-2.8125 -0.48438,-0.70312 -1.23438,-0.70312 -0.71874,0 -1.15624,0.60938 -0.54688,0.78124 -0.54688,2.90624 z m 5.92188,0 q 0,-1.53124 0.3125,-2.45312 0.3125,-0.9375 0.92187,-1.4375 0.625,-0.5 1.5625,-0.5 0.6875,0 1.20313,0.28125 0.53124,0.28125 0.875,0.8125 0.34374,0.51563 0.53124,1.26563 0.1875,0.75 0.1875,2.03124 0,1.51563 -0.3125,2.4375 -0.29687,0.92188 -0.92187,1.4375 -0.60937,0.5 -1.5625,0.5 -1.23437,0 -1.95313,-0.89062 -0.84374,-1.0625 -0.84374,-3.48438 z m 1.07812,0 q 0,2.10938 0.5,2.8125 0.5,0.70313 1.21875,0.70313 0.73437,0 1.21875,-0.70313 0.5,-0.70312 0.5,-2.8125 0,-2.125 -0.5,-2.8125 -0.48438,-0.70312 -1.23438,-0.70312 -0.71874,0 -1.15624,0.60938 -0.54688,0.78124 -0.54688,2.90624 z m 5.92188,0 q 0,-1.53124 0.3125,-2.45312 0.3125,-0.9375 0.92187,-1.4375 0.625,-0.5 1.5625,-0.5 0.6875,0 1.20313,0.28125 0.53124,0.28125 0.875,0.8125 0.34374,0.51563 0.53124,1.26563 0.1875,0.75 0.1875,2.03124 0,1.51563 -0.3125,2.4375 -0.29687,0.92188 -0.92187,1.4375 -0.60937,0.5 -1.5625,0.5 -1.23437,0 -1.95313,-0.89062 -0.84374,-1.0625 -0.84374,-3.48438 z m 1.07812,0 q 0,2.10938 0.5,2.8125 0.5,0.70313 1.21875,0.70313 0.73437,0 1.21875,-0.70313 0.5,-0.70312 0.5,-2.8125 0,-2.125 -0.5,-2.8125 -0.48438,-0.70312 -1.23438,-0.70312 -0.71874,0 -1.15624,0.60938 -0.54688,0.78124 -0.54688,2.90624 z"
     fill-rule="nonzero"
     id="path51" />
  <path
     fill="#000000"
     d="m 539.45087,257 v -2.0625 h -3.71877 v -0.96875 l 3.9219,-5.5625 h 0.85937 v 5.5625 h 1.15623 v 0.96875 h -1.15623 V 257 Z m 0,-3.03125 v -3.85937 l -2.6875,3.85937 z m 3.625,-1.20313 q 0,-1.53124 0.3125,-2.45312 0.3125,-0.9375 0.92187,-1.4375 0.625,-0.5 1.5625,-0.5 0.6875,0 1.20313,0.28125 0.53123,0.28125 0.875,0.8125 0.34373,0.51563 0.53123,1.26563 0.1875,0.75 0.1875,2.03124 0,1.51563 -0.3125,2.4375 -0.29686,0.92188 -0.92186,1.4375 -0.60937,0.5 -1.5625,0.5 -1.23437,0 -1.95314,-0.89062 -0.84373,-1.0625 -0.84373,-3.48438 z m 1.07813,0 q 0,2.10938 0.5,2.8125 0.5,0.70313 1.21874,0.70313 0.73436,0 1.21876,-0.70313 0.5,-0.70312 0.5,-2.8125 0,-2.125 -0.5,-2.8125 -0.4844,-0.70312 -1.2344,-0.70312 -0.71873,0 -1.15623,0.60938 -0.54687,0.78124 -0.54687,2.90624 z m 5.92187,0 q 0,-1.53124 0.3125,-2.45312 0.3125,-0.9375 0.92187,-1.4375 0.625,-0.5 1.5625,-0.5 0.6875,0 1.20313,0.28125 0.53123,0.28125 0.875,0.8125 0.34373,0.51563 0.53123,1.26563 0.1875,0.75 0.1875,2.03124 0,1.51563 -0.3125,2.4375 -0.29686,0.92188 -0.92186,1.4375 -0.60937,0.5 -1.5625,0.5 -1.23437,0 -1.95314,-0.89062 -0.84373,-1.0625 -0.84373,-3.48438 z m 1.07813,0 q 0,2.10938 0.5,2.8125 0.5,0.70313 1.21874,0.70313 0.73436,0 1.21876,-0.70313 0.5,-0.70312 0.5,-2.8125 0,-2.125 -0.5,-2.8125 -0.4844,-0.70312 -1.2344,-0.70312 -0.71873,0 -1.15623,0.60938 -0.54687,0.78124 -0.54687,2.90624 z m 5.92187,0 q 0,-1.53124 0.3125,-2.45312 0.3125,-0.9375 0.92187,-1.4375 0.625,-0.5 1.5625,-0.5 0.6875,0 1.20313,0.28125 0.53123,0.28125 0.875,0.8125 0.34373,0.51563 0.53123,1.26563 0.1875,0.75 0.1875,2.03124 0,1.51563 -0.3125,2.4375 -0.29686,0.92188 -0.92186,1.4375 -0.60937,0.5 -1.5625,0.5 -1.23437,0 -1.95314,-0.89062 -0.84373,-1.0625 -0.84373,-3.48438 z m 1.07813,0 q 0,2.10938 0.5,2.8125 0.5,0.70313 1.21874,0.70313 0.73436,0 1.21876,-0.70313 0.5,-0.70312 0.5,-2.8125 0,-2.125 -0.5,-2.8125 -0.4844,-0.70312 -1.2344,-0.70312 -0.71873,0 -1.15623,0.60938 -0.54687,0.78124 -0.54687,2.90624 z m 5.92187,0 q 0,-1.53124 0.3125,-2.45312 0.3125,-0.9375 0.92187,-1.4375 0.625,-0.5 1.5625,-0.5 0.6875,0 1.20313,0.28125 0.53123,0.28125 0.875,0.8125 0.34373,0.51563 0.53123,1.26563 0.1875,0.75 0.1875,2.03124 0,1.51563 -0.3125,2.4375 -0.29686,0.92188 -0.92186,1.4375 -0.60937,0.5 -1.5625,0.5 -1.23437,0 -1.95314,-0.89062 -0.84373,-1.0625 -0.84373,-3.48438 z m 1.07813,0 q 0,2.10938 0.5,2.8125 0.5,0.70313 1.21874,0.70313 0.73436,0 1.21876,-0.70313 0.5,-0.70312 0.5,-2.8125 0,-2.125 -0.5,-2.8125 -0.4844,-0.70312 -1.2344,-0.70312 -0.71873,0 -1.15623,0.60938 -0.54687,0.78124 -0.54687,2.90624 z m 5.92187,0 q 0,-1.53124 0.3125,-2.45312 0.3125,-0.9375 0.92187,-1.4375 0.625,-0.5 1.5625,-0.5 0.6875,0 1.20313,0.28125 0.53123,0.28125 0.875,0.8125 0.34373,0.51563 0.53123,1.26563 0.1875,0.75 0.1875,2.03124 0,1.51563 -0.3125,2.4375 -0.29686,0.92188 -0.92186,1.4375 -0.60937,0.5 -1.5625,0.5 -1.23437,0 -1.95314,-0.89062 -0.84373,-1.0625 -0.84373,-3.48438 z m 1.07813,0 q 0,2.10938 0.5,2.8125 0.5,0.70313 1.21874,0.70313 0.73436,0 1.21876,-0.70313 0.5,-0.70312 0.5,-2.8125 0,-2.125 -0.5,-2.8125 -0.4844,-0.70312 -1.2344,-0.70312 -0.71873,0 -1.15623,0.60938 -0.54687,0.78124 -0.54687,2.90624 z m 5.92187,0 q 0,-1.53124 0.3125,-2.45312 0.3125,-0.9375 0.92187,-1.4375 0.625,-0.5 1.5625,-0.5 0.6875,0 1.20313,0.28125 0.53123,0.28125 0.875,0.8125 0.34373,0.51563 0.53123,1.26563 0.1875,0.75 0.1875,2.03124 0,1.51563 -0.3125,2.4375 -0.29686,0.92188 -0.92186,1.4375 -0.60937,0.5 -1.5625,0.5 -1.23437,0 -1.95314,-0.89062 -0.84373,-1.0625 -0.84373,-3.48438 z m 1.07813,0 q 0,2.10938 0.5,2.8125 0.5,0.70313 1.21874,0.70313 0.73436,0 1.21876,-0.70313 0.5,-0.70312 0.5,-2.8125 0,-2.125 -0.5,-2.8125 -0.4844,-0.70312 -1.2344,-0.70312 -0.71873,0 -1.15623,0.60938 -0.54687,0.78124 -0.54687,2.90624 z m 5.92187,0 q 0,-1.53124 0.3125,-2.45312 0.3125,-0.9375 0.92187,-1.4375 0.625,-0.5 1.5625,-0.5 0.6875,0 1.20313,0.28125 0.53123,0.28125 0.875,0.8125 0.34373,0.51563 0.53123,1.26563 0.1875,0.75 0.1875,2.03124 0,1.51563 -0.3125,2.4375 -0.29686,0.92188 -0.92186,1.4375 -0.60937,0.5 -1.5625,0.5 -1.23437,0 -1.95314,-0.89062 -0.84373,-1.0625 -0.84373,-3.48438 z m 1.07813,0 q 0,2.10938 0.5,2.8125 0.5,0.70313 1.21874,0.70313 0.73436,0 1.21876,-0.70313 0.5,-0.70312 0.5,-2.8125 0,-2.125 -0.5,-2.8125 -0.4844,-0.70312 -1.2344,-0.70312 -0.71873,0 -1.15623,0.60938 -0.54687,0.78124 -0.54687,2.90624 z"
     fill-rule="nonzero"
     id="path52" />
  <path
     fill="#000000"
     d="m 667.19867,254.75 1.10937,-0.0937 q 0.125,0.8125 0.5625,1.21875 0.45313,0.40625 1.09376,0.40625 0.75,0 1.28124,-0.57813 0.53126,-0.57812 0.53126,-1.51562 0,-0.90625 -0.51563,-1.42188 -0.5,-0.53124 -1.32813,-0.53124 -0.5,0 -0.92187,0.23437 -0.40627,0.23437 -0.64063,0.59375 l -0.98437,-0.125 0.82813,-4.40625 h 4.28124 v 1 h -3.4375 l -0.45314,2.3125 q 0.76564,-0.54687 1.6094,-0.54687 1.125,0 1.8906,0.78124 0.78127,0.78126 0.78127,2.01563 0,1.15625 -0.67187,2.01563 -0.82813,1.03124 -2.25,1.03124 -1.1719,0 -1.9219,-0.65624 -0.73436,-0.65626 -0.84373,-1.73438 z m 7,-1.98438 q 0,-1.53124 0.3125,-2.45312 0.3125,-0.9375 0.92187,-1.4375 0.625,-0.5 1.5625,-0.5 0.6875,0 1.20313,0.28125 0.53123,0.28125 0.875,0.8125 0.34373,0.51563 0.53123,1.26563 0.1875,0.75 0.1875,2.03124 0,1.51563 -0.3125,2.4375 -0.29686,0.92188 -0.92186,1.4375 -0.60937,0.5 -1.5625,0.5 -1.23437,0 -1.95314,-0.89062 -0.84373,-1.0625 -0.84373,-3.48438 z m 1.07813,0 q 0,2.10938 0.5,2.8125 0.5,0.70313 1.21874,0.70313 0.73436,0 1.21876,-0.70313 0.5,-0.70312 0.5,-2.8125 0,-2.125 -0.5,-2.8125 -0.4844,-0.70312 -1.2344,-0.70312 -0.71873,0 -1.15623,0.60938 -0.54687,0.78124 -0.54687,2.90624 z m 5.92187,0 q 0,-1.53124 0.3125,-2.45312 0.3125,-0.9375 0.92187,-1.4375 0.625,-0.5 1.5625,-0.5 0.6875,0 1.20313,0.28125 0.53123,0.28125 0.875,0.8125 0.34373,0.51563 0.53123,1.26563 0.1875,0.75 0.1875,2.03124 0,1.51563 -0.3125,2.4375 -0.29686,0.92188 -0.92186,1.4375 -0.60937,0.5 -1.5625,0.5 -1.23437,0 -1.95314,-0.89062 -0.84373,-1.0625 -0.84373,-3.48438 z m 1.07813,0 q 0,2.10938 0.5,2.8125 0.5,0.70313 1.21874,0.70313 0.73436,0 1.21876,-0.70313 0.5,-0.70312 0.5,-2.8125 0,-2.125 -0.5,-2.8125 -0.4844,-0.70312 -1.2344,-0.70312 -0.71873,0 -1.15623,0.60938 -0.54687,0.78124 -0.54687,2.90624 z m 5.92187,0 q 0,-1.53124 0.3125,-2.45312 0.3125,-0.9375 0.92187,-1.4375 0.625,-0.5 1.5625,-0.5 0.6875,0 1.20313,0.28125 0.53123,0.28125 0.875,0.8125 0.34373,0.51563 0.53123,1.26563 0.1875,0.75 0.1875,2.03124 0,1.51563 -0.3125,2.4375 -0.29686,0.92188 -0.92186,1.4375 -0.60937,0.5 -1.5625,0.5 -1.23437,0 -1.95314,-0.89062 -0.84373,-1.0625 -0.84373,-3.48438 z m 1.07813,0 q 0,2.10938 0.5,2.8125 0.5,0.70313 1.21874,0.70313 0.73436,0 1.21876,-0.70313 0.5,-0.70312 0.5,-2.8125 0,-2.125 -0.5,-2.8125 -0.4844,-0.70312 -1.2344,-0.70312 -0.71873,0 -1.15623,0.60938 -0.54687,0.78124 -0.54687,2.90624 z m 5.92187,0 q 0,-1.53124 0.3125,-2.45312 0.3125,-0.9375 0.92187,-1.4375 0.625,-0.5 1.5625,-0.5 0.6875,0 1.20313,0.28125 0.53123,0.28125 0.875,0.8125 0.34373,0.51563 0.53123,1.26563 0.1875,0.75 0.1875,2.03124 0,1.51563 -0.3125,2.4375 -0.29686,0.92188 -0.92186,1.4375 -0.60937,0.5 -1.5625,0.5 -1.23437,0 -1.95314,-0.89062 -0.84373,-1.0625 -0.84373,-3.48438 z m 1.07813,0 q 0,2.10938 0.5,2.8125 0.5,0.70313 1.21874,0.70313 0.73436,0 1.21876,-0.70313 0.5,-0.70312 0.5,-2.8125 0,-2.125 -0.5,-2.8125 -0.4844,-0.70312 -1.2344,-0.70312 -0.71873,0 -1.15623,0.60938 -0.54687,0.78124 -0.54687,2.90624 z m 5.92187,0 q 0,-1.53124 0.3125,-2.45312 0.3125,-0.9375 0.92187,-1.4375 0.625,-0.5 1.5625,-0.5 0.6875,0 1.20313,0.28125 0.53123,0.28125 0.875,0.8125 0.34373,0.51563 0.53123,1.26563 0.1875,0.75 0.1875,2.03124 0,1.51563 -0.3125,2.4375 -0.29686,0.92188 -0.92186,1.4375 -0.60937,0.5 -1.5625,0.5 -1.23437,0 -1.95314,-0.89062 -0.84373,-1.0625 -0.84373,-3.48438 z m 1.07813,0 q 0,2.10938 0.5,2.8125 0.5,0.70313 1.21874,0.70313 0.73436,0 1.21876,-0.70313 0.5,-0.70312 0.5,-2.8125 0,-2.125 -0.5,-2.8125 -0.4844,-0.70312 -1.2344,-0.70312 -0.71873,0 -1.15623,0.60938 -0.54687,0.78124 -0.54687,2.90624 z m 5.92187,0 q 0,-1.53124 0.3125,-2.45312 0.3125,-0.9375 0.92187,-1.4375 0.625,-0.5 1.5625,-0.5 0.6875,0 1.20313,0.28125 0.53123,0.28125 0.875,0.8125 0.34373,0.51563 0.53123,1.26563 0.1875,0.75 0.1875,2.03124 0,1.51563 -0.3125,2.4375 -0.29686,0.92188 -0.92186,1.4375 -0.60937,0.5 -1.5625,0.5 -1.23437,0 -1.95314,-0.89062 -0.84373,-1.0625 -0.84373,-3.48438 z m 1.07813,0 q 0,2.10938 0.5,2.8125 0.5,0.70313 1.21874,0.70313 0.73436,0 1.21876,-0.70313 0.5,-0.70312 0.5,-2.8125 0,-2.125 -0.5,-2.8125 -0.4844,-0.70312 -1.2344,-0.70312 -0.71873,0 -1.15623,0.60938 -0.54687,0.78124 -0.54687,2.90624 z m 5.92187,0 q 0,-1.53124 0.3125,-2.45312 0.3125,-0.9375 0.92187,-1.4375 0.625,-0.5 1.5625,-0.5 0.6875,0 1.20313,0.28125 0.53123,0.28125 0.875,0.8125 0.34373,0.51563 0.53123,1.26563 0.1875,0.75 0.1875,2.03124 0,1.51563 -0.3125,2.4375 -0.29686,0.92188 -0.92186,1.4375 -0.60937,0.5 -1.5625,0.5 -1.23437,0 -1.95314,-0.89062 -0.84373,-1.0625 -0.84373,-3.48438 z m 1.07813,0 q 0,2.10938 0.5,2.8125 0.5,0.70313 1.21874,0.70313 0.73436,0 1.21876,-0.70313 0.5,-0.70312 0.5,-2.8125 0,-2.125 -0.5,-2.8125 -0.4844,-0.70312 -1.2344,-0.70312 -0.71873,0 -1.15623,0.60938 -0.54687,0.78124 -0.54687,2.90624 z"
     fill-rule="nonzero"
     id="path53" />
  <path
     fill="#4285f4"
     d="m 225,6 c 0,3.31371 -2.6863,6 -6,6 -3.3137,0 -6,-2.68629 -6,-6 0,-3.31371 2.6863,-6 6,-6 3.3137,0 6,2.68629 6,6 z"
     fill-rule="nonzero"
     id="path54" />
  <path
     fill="#1a1a1a"
     d="M 233.92188,10 V 1.40625 h 2.96874 q 1,0 1.53126,0.125 0.73437,0.171875 1.25,0.609375 0.6875,0.578125 1.01562,1.484375 0.34375,0.890625 0.34375,2.03125 0,0.984375 -0.23437,1.734375 -0.21876,0.75 -0.57813,1.25 -0.35937,0.5 -0.79687,0.78125 Q 239,9.703125 238.40625,9.859375 237.8125,10 237.03125,10 Z m 1.14062,-1.015625 h 1.82812 q 0.85938,0 1.34376,-0.15625 Q 238.71875,8.671875 239,8.375 q 0.40625,-0.390625 0.625,-1.078125 0.23438,-0.6875 0.23438,-1.65625 0,-1.34375 -0.45313,-2.0625 Q 238.96875,2.84375 238.34375,2.59375 237.875,2.421875 236.875,2.421875 h -1.8125 z M 242.78125,10 V 3.78125 h 0.95313 v 0.9375 q 0.35937,-0.65625 0.65624,-0.859375 0.3125,-0.21875 0.6875,-0.21875 0.53126,0 1.07813,0.328125 l -0.35937,0.984375 q -0.39063,-0.234375 -0.76563,-0.234375 -0.35937,0 -0.64063,0.21875 -0.26562,0.203125 -0.375,0.578125 -0.1875,0.5625 -0.1875,1.21875 V 10 Z m 8.26563,-2 1.09374,0.125 q -0.25,0.953125 -0.95312,1.484375 -0.70312,0.53125 -1.78125,0.53125 -1.35937,0 -2.17187,-0.84375 -0.79688,-0.84375 -0.79688,-2.359375 0,-1.5625 0.8125,-2.421875 0.8125,-0.875 2.09375,-0.875 1.25,0 2.03125,0.84375 0.79688,0.84375 0.79688,2.390625 0,0.09375 0,0.28125 h -4.64063 q 0.0625,1.03125 0.57813,1.578125 0.51562,0.53125 1.29687,0.53125 0.57813,0 0.98437,-0.296875 Q 250.8125,8.65625 251.04688,8 Z m -3.45313,-1.703125 h 3.46875 Q 251,5.5 250.67188,5.109375 250.15625,4.5 249.35938,4.5 q -0.73438,0 -1.23438,0.484375 -0.48438,0.484375 -0.53125,1.3125 z M 253.79688,2.625 V 1.40625 h 1.0625 V 2.625 Z m 0,7.375 V 3.78125 h 1.0625 V 10 Z m 7.25,-2 1.09374,0.125 q -0.25,0.953125 -0.95312,1.484375 -0.70312,0.53125 -1.78125,0.53125 -1.35937,0 -2.17187,-0.84375 -0.79688,-0.84375 -0.79688,-2.359375 0,-1.5625 0.8125,-2.421875 0.8125,-0.875 2.09375,-0.875 1.25,0 2.03125,0.84375 0.79688,0.84375 0.79688,2.390625 0,0.09375 0,0.28125 h -4.64063 q 0.0625,1.03125 0.57813,1.578125 0.51562,0.53125 1.29687,0.53125 0.57813,0 0.98437,-0.296875 Q 260.8125,8.65625 261.04688,8 Z m -3.45313,-1.703125 h 3.46875 Q 261,5.5 260.67188,5.109375 260.15625,4.5 259.35938,4.5 q -0.73438,0 -1.23438,0.484375 -0.48438,0.484375 -0.53125,1.3125 z m 10.26563,1.421875 1.03124,0.140625 q -0.17187,1.0625 -0.875,1.671875 -0.70312,0.609375 -1.71874,0.609375 -1.28126,0 -2.0625,-0.828125 -0.76563,-0.84375 -0.76563,-2.40625 0,-1 0.32813,-1.75 0.34374,-0.765625 1.01562,-1.140625 0.6875,-0.375 1.5,-0.375 1,0 1.64062,0.515625 0.65626,0.5 0.84376,1.453125 l -1.03126,0.15625 Q 267.625,5.140625 267.25,4.828125 266.875,4.5 266.34375,4.5 q -0.79687,0 -1.29687,0.578125 -0.5,0.5625 -0.5,1.796875 0,1.265625 0.48437,1.828125 0.48437,0.5625 1.25,0.5625 0.625,0 1.03125,-0.375 0.42188,-0.375 0.54688,-1.171875 z M 269.79688,10 V 1.40625 h 1.0625 V 6.3125 l 2.48437,-2.53125 h 1.375 L 272.32812,6.078125 274.95312,10 h -1.29687 l -2.0625,-3.1875 -0.73437,0.71875 V 10 Z"
     fill-rule="nonzero"
     id="path55" />
  <path
     fill="#ea4335"
     d="m 303,6 c 0,3.31371 -2.68628,6 -6,6 -3.31372,0 -6,-2.68629 -6,-6 0,-3.31371 2.68628,-6 6,-6 3.31372,0 6,2.68629 6,6 z"
     fill-rule="nonzero"
     id="path56" />
  <path
     fill="#1a1a1a"
     d="M 318.4375,9.078125 Q 319.23438,9.625 319.89062,9.875 l -0.32812,0.796875 q -0.92188,-0.34375 -1.84375,-1.0625 -0.95313,0.53125 -2.10937,0.53125 -1.17188,0 -2.125,-0.5625 -0.9375,-0.5625 -1.45313,-1.578125 -0.51563,-1.015625 -0.51563,-2.296875 0,-1.265625 0.51563,-2.3125 Q 312.54688,2.34375 313.5,1.796875 314.45312,1.25 315.625,1.25 q 1.1875,0 2.14062,0.578125 0.96876,0.5625 1.46876,1.578125 0.5,1.015625 0.5,2.296875 0,1.0625 -0.32813,1.90625 -0.3125,0.84375 -0.96875,1.46875 z m -2.5,-1.453125 q 0.98438,0.28125 1.625,0.828125 1,-0.921875 1,-2.75 0,-1.046875 -0.35938,-1.828125 -0.35937,-0.78125 -1.04687,-1.203125 -0.67187,-0.4375 -1.51563,-0.4375 -1.28124,0 -2.125,0.875 -0.82812,0.859375 -0.82812,2.59375 0,1.671875 0.82812,2.578125 0.82813,0.890625 2.125,0.890625 0.60938,0 1.14063,-0.234375 -0.53125,-0.34375 -1.125,-0.484375 z M 324.875,10 V 9.078125 q -0.73438,1.0625 -1.98438,1.0625 -0.54687,0 -1.03124,-0.203125 Q 321.39062,9.71875 321.15625,9.40625 320.92188,9.078125 320.82812,8.609375 320.76562,8.3125 320.76562,7.625 V 3.78125 h 1.0625 v 3.453125 q 0,0.8125 0.0625,1.109375 0.0938,0.40625 0.40626,0.65625 0.32812,0.234375 0.8125,0.234375 0.46874,0 0.875,-0.234375 0.42187,-0.25 0.59374,-0.671875 0.1875,-0.421875 0.1875,-1.21875 V 3.78125 h 1.04688 V 10 Z m 6.98438,-0.765625 q -0.59376,0.5 -1.14063,0.703125 -0.53125,0.203125 -1.15625,0.203125 -1.03125,0 -1.57812,-0.5 -0.54688,-0.5 -0.54688,-1.28125 0,-0.453125 0.20312,-0.828125 0.20313,-0.390625 0.54688,-0.609375 0.34375,-0.234375 0.76562,-0.34375 0.29688,-0.09375 0.9375,-0.171875 1.26563,-0.140625 1.875,-0.359375 0,-0.21875 0,-0.265625 0,-0.65625 -0.29687,-0.921875 -0.40625,-0.34375 -1.20313,-0.34375 -0.73437,0 -1.09374,0.265625 -0.35938,0.25 -0.53126,0.90625 l -1.03124,-0.140625 q 0.14062,-0.65625 0.46874,-1.0625 0.32813,-0.40625 0.9375,-0.625 0.60938,-0.21875 1.40626,-0.21875 0.79687,0 1.29687,0.1875 0.5,0.1875 0.73437,0.46875 0.23438,0.28125 0.32813,0.71875 0.0469,0.265625 0.0469,0.96875 v 1.40625 q 0,1.46875 0.0625,1.859375 0.0781,0.390625 0.28126,0.75 h -1.10938 Q 331.90628,9.671875 331.85941,9.234375 Z M 331.76562,6.875 Q 331.1875,7.109375 330.04688,7.28125 329.39062,7.375 329.125,7.5 q -0.26562,0.109375 -0.42188,0.328125 -0.14062,0.21875 -0.14062,0.5 0,0.421875 0.3125,0.703125 0.32812,0.28125 0.9375,0.28125 0.60938,0 1.07812,-0.265625 0.48438,-0.265625 0.70313,-0.734375 0.17187,-0.359375 0.17187,-1.046875 z M 338.82812,10 V 9.21875 q -0.59374,0.921875 -1.73437,0.921875 -0.75,0 -1.375,-0.40625 -0.625,-0.421875 -0.96875,-1.15625 -0.34375,-0.734375 -0.34375,-1.6875 0,-0.921875 0.3125,-1.6875 0.3125,-0.765625 0.9375,-1.15625 0.625,-0.40625 1.39063,-0.40625 0.5625,0 1,0.234375 0.4375,0.234375 0.71874,0.609375 V 1.40625 h 1.04688 V 10 Z M 335.5,6.890625 q 0,1.203125 0.5,1.796875 0.5,0.578125 1.1875,0.578125 0.6875,0 1.17188,-0.5625 0.48437,-0.5625 0.48437,-1.71875 0,-1.28125 -0.5,-1.875 -0.48437,-0.59375 -1.20313,-0.59375 -0.70312,0 -1.17187,0.578125 Q 335.5,5.65625 335.5,6.890625 Z M 341.78125,10 V 3.78125 h 0.95313 v 0.9375 q 0.35937,-0.65625 0.65624,-0.859375 0.3125,-0.21875 0.6875,-0.21875 0.53126,0 1.07813,0.328125 l -0.35937,0.984375 q -0.39063,-0.234375 -0.76563,-0.234375 -0.35937,0 -0.64063,0.21875 -0.26562,0.203125 -0.375,0.578125 -0.1875,0.5625 -0.1875,1.21875 V 10 Z m 8.07813,-0.765625 q -0.59376,0.5 -1.14063,0.703125 -0.53125,0.203125 -1.15625,0.203125 -1.03125,0 -1.57812,-0.5 -0.54688,-0.5 -0.54688,-1.28125 0,-0.453125 0.20312,-0.828125 0.20313,-0.390625 0.54688,-0.609375 0.34375,-0.234375 0.76562,-0.34375 0.29688,-0.09375 0.9375,-0.171875 1.26563,-0.140625 1.875,-0.359375 0,-0.21875 0,-0.265625 0,-0.65625 -0.29687,-0.921875 -0.40625,-0.34375 -1.20313,-0.34375 -0.73437,0 -1.09374,0.265625 -0.35938,0.25 -0.53126,0.90625 l -1.03124,-0.140625 q 0.14062,-0.65625 0.46874,-1.0625 0.32813,-0.40625 0.9375,-0.625 0.60938,-0.21875 1.40626,-0.21875 0.79687,0 1.29687,0.1875 0.5,0.1875 0.73437,0.46875 0.23438,0.28125 0.32813,0.71875 0.0469,0.265625 0.0469,0.96875 v 1.40625 q 0,1.46875 0.0625,1.859375 0.0781,0.390625 0.28126,0.75 h -1.10938 Q 349.90628,9.671875 349.85941,9.234375 Z M 349.76562,6.875 Q 349.1875,7.109375 348.04688,7.28125 347.39062,7.375 347.125,7.5 q -0.26562,0.109375 -0.42188,0.328125 -0.14062,0.21875 -0.14062,0.5 0,0.421875 0.3125,0.703125 0.32812,0.28125 0.9375,0.28125 0.60938,0 1.07812,-0.265625 0.48438,-0.265625 0.70313,-0.734375 0.17187,-0.359375 0.17187,-1.046875 z m 5.32813,2.1875 0.15625,0.921875 q -0.45312,0.09375 -0.79688,0.09375 -0.57812,0 -0.89062,-0.171875 -0.3125,-0.1875 -0.45312,-0.484375 -0.125,-0.296875 -0.125,-1.25 V 4.59375 h -0.76563 v -0.8125 h 0.76563 V 2.234375 l 1.04687,-0.625 V 3.78125 h 1.0625 v 0.8125 h -1.0625 v 3.640625 q 0,0.453125 0.0469,0.578125 0.0625,0.125 0.1875,0.203125 0.125,0.07813 0.35938,0.07813 0.1875,0 0.46875,-0.03125 z"
     fill-rule="nonzero"
     id="path57" />
  <path
     fill="#fbbc04"
     d="m 383,6 c 0,3.31371 -2.68628,6 -6,6 -3.31372,0 -6,-2.68629 -6,-6 0,-3.31371 2.68628,-6 6,-6 3.31372,0 6,2.68629 6,6 z"
     fill-rule="nonzero"
     id="path58" />
  <path
     fill="#1a1a1a"
     d="M 391.9375,10 V 1.40625 h 3.8125 q 1.15625,0 1.75,0.234375 0.59375,0.234375 0.95312,0.828125 0.35938,0.578125 0.35938,1.28125 0,0.921875 -0.59375,1.546875 -0.59375,0.625 -1.82813,0.796875 0.45313,0.21875 0.6875,0.421875 0.5,0.453125 0.9375,1.140625 l 1.5,2.34375 h -1.4375 l -1.125,-1.78125 q -0.5,-0.78125 -0.82812,-1.1875 -0.3125,-0.40625 -0.57812,-0.5625 -0.25,-0.171875 -0.51563,-0.25 -0.1875,-0.03125 -0.625,-0.03125 h -1.32813 V 10 Z m 1.14062,-4.796875 h 2.45313 q 0.76563,0 1.20313,-0.15625 0.45312,-0.171875 0.67187,-0.515625 0.23437,-0.359375 0.23437,-0.78125 0,-0.609375 -0.45312,-1 -0.4375,-0.390625 -1.39062,-0.390625 h -2.71876 z M 405.04688,8 l 1.09374,0.125 q -0.25,0.953125 -0.95312,1.484375 -0.70312,0.53125 -1.78125,0.53125 -1.35937,0 -2.17187,-0.84375 -0.79688,-0.84375 -0.79688,-2.359375 0,-1.5625 0.8125,-2.421875 0.8125,-0.875 2.09375,-0.875 1.25,0 2.03125,0.84375 0.79688,0.84375 0.79688,2.390625 0,0.09375 0,0.28125 h -4.64063 q 0.0625,1.03125 0.57813,1.578125 0.51562,0.53125 1.29687,0.53125 0.57813,0 0.98437,-0.296875 Q 404.8125,8.65625 405.04688,8 Z m -3.45313,-1.703125 h 3.46875 Q 405,5.5 404.67188,5.109375 404.15625,4.5 403.35938,4.5 q -0.73438,0 -1.23438,0.484375 -0.48438,0.484375 -0.53125,1.3125 z m 6,4.21875 1.03125,0.15625 q 0.0625,0.46875 0.35938,0.6875 0.39062,0.296875 1.0625,0.296875 0.73437,0 1.125,-0.296875 0.40624,-0.296875 0.54687,-0.8125 0.0937,-0.328125 0.0781,-1.359375 Q 411.10935,10 410.07809,10 q -1.28124,0 -1.98437,-0.921875 -0.70313,-0.9375 -0.70313,-2.21875 0,-0.890625 0.3125,-1.640625 0.32813,-0.765625 0.9375,-1.171875 0.60938,-0.40625 1.4375,-0.40625 1.10938,0 1.82813,0.890625 v -0.75 h 0.96875 v 5.375 q 0,1.453125 -0.29688,2.0625 -0.29687,0.609375 -0.9375,0.953125 Q 411,12.53125 410.0625,12.53125 q -1.10938,0 -1.79688,-0.5 -0.6875,-0.5 -0.67187,-1.515625 z m 0.875,-3.734375 q 0,1.21875 0.48437,1.78125 0.48438,0.5625 1.21876,0.5625 0.73437,0 1.21874,-0.5625 0.5,-0.5625 0.5,-1.75 0,-1.140625 -0.51562,-1.71875 -0.5,-0.578125 -1.21875,-0.578125 -0.70313,0 -1.20313,0.578125 -0.48437,0.5625 -0.48437,1.6875 z M 419.04688,8 l 1.09374,0.125 q -0.25,0.953125 -0.95312,1.484375 -0.70312,0.53125 -1.78125,0.53125 -1.35937,0 -2.17187,-0.84375 -0.79688,-0.84375 -0.79688,-2.359375 0,-1.5625 0.8125,-2.421875 0.8125,-0.875 2.09375,-0.875 1.25,0 2.03125,0.84375 0.79688,0.84375 0.79688,2.390625 0,0.09375 0,0.28125 h -4.64063 q 0.0625,1.03125 0.57813,1.578125 0.51562,0.53125 1.29687,0.53125 0.57813,0 0.98437,-0.296875 Q 418.8125,8.65625 419.04688,8 Z m -3.45313,-1.703125 h 3.46875 Q 419,5.5 418.67188,5.109375 418.15625,4.5 417.35938,4.5 q -0.73438,0 -1.23438,0.484375 -0.48438,0.484375 -0.53125,1.3125 z M 421.76562,10 V 1.40625 h 1.0625 V 10 Z m 3.03126,0 V 3.78125 h 0.9375 v 0.875 Q 426.03125,4.1875 426.51562,3.921875 427,3.640625 427.625,3.640625 q 0.6875,0 1.125,0.28125 0.45312,0.28125 0.625,0.796875 0.75,-1.078125 1.92188,-1.078125 0.9375,0 1.42187,0.515625 0.5,0.5 0.5,1.578125 V 10 h -1.04687 V 6.078125 q 0,-0.625 -0.10938,-0.90625 -0.0937,-0.28125 -0.35938,-0.453125 -0.26562,-0.171875 -0.64062,-0.171875 -0.65625,0 -1.09375,0.4375 -0.42187,0.4375 -0.42187,1.40625 V 10 h -1.0625 V 5.953125 q 0,-0.703125 -0.26563,-1.046875 -0.25,-0.359375 -0.82813,-0.359375 -0.45312,0 -0.82812,0.234375 -0.375,0.234375 -0.54688,0.6875 -0.17187,0.453125 -0.17187,1.296875 V 10 Z m 15.0625,-0.765625 q -0.59376,0.5 -1.14063,0.703125 -0.53125,0.203125 -1.15625,0.203125 -1.03125,0 -1.57812,-0.5 -0.54688,-0.5 -0.54688,-1.28125 0,-0.453125 0.20312,-0.828125 0.20313,-0.390625 0.54688,-0.609375 0.34375,-0.234375 0.76562,-0.34375 0.29688,-0.09375 0.9375,-0.171875 1.26563,-0.140625 1.875,-0.359375 0,-0.21875 0,-0.265625 0,-0.65625 -0.29687,-0.921875 -0.40625,-0.34375 -1.20313,-0.34375 -0.73437,0 -1.09374,0.265625 -0.35938,0.25 -0.53126,0.90625 l -1.03124,-0.140625 q 0.14062,-0.65625 0.46874,-1.0625 0.32813,-0.40625 0.9375,-0.625 0.60938,-0.21875 1.40626,-0.21875 0.79687,0 1.29687,0.1875 0.5,0.1875 0.73437,0.46875 0.23438,0.28125 0.32813,0.71875 0.0469,0.265625 0.0469,0.96875 v 1.40625 q 0,1.46875 0.0625,1.859375 0.0781,0.390625 0.28126,0.75 h -1.10938 Q 439.90628,9.671875 439.85941,9.234375 Z M 439.76562,6.875 Q 439.1875,7.109375 438.04688,7.28125 437.39062,7.375 437.125,7.5 q -0.26562,0.109375 -0.42188,0.328125 -0.14062,0.21875 -0.14062,0.5 0,0.421875 0.3125,0.703125 0.32812,0.28125 0.9375,0.28125 0.60938,0 1.07812,-0.265625 0.48438,-0.265625 0.70313,-0.734375 0.17187,-0.359375 0.17187,-1.046875 z M 436.65625,2.5625 V 1.359375 H 437.75 V 2.5625 Z m 2.1875,0 V 1.359375 h 1.09375 V 2.5625 Z M 442.89062,10 V 4.140625 q 0,-1.0625 0.26563,-1.640625 0.26563,-0.578125 0.875,-0.90625 0.60937,-0.328125 1.375,-0.328125 1,0 1.57813,0.515625 0.59374,0.5 0.59374,1.15625 0,0.3125 -0.10937,0.625 -0.10937,0.3125 -0.375,0.78125 Q 446.82812,4.8125 446.75,5 q -0.0625,0.1875 -0.0625,0.328125 0,0.1875 0.125,0.375 0.125,0.1875 0.70312,0.5625 0.79688,0.515625 1.0625,0.84375 0.375,0.453125 0.375,1.0625 0,0.8125 -0.60937,1.390625 -0.59375,0.578125 -1.53125,0.578125 -0.73438,0 -1.29688,-0.390625 -0.54687,-0.390625 -0.82812,-1.015625 L 445.59375,8.3125 q 0.29687,0.546875 0.59375,0.765625 0.29688,0.203125 0.60938,0.203125 0.45312,0 0.76562,-0.296875 0.3125,-0.3125 0.3125,-0.71875 0,-0.328125 -0.1875,-0.5625 Q 447.5625,7.546875 447.03125,7.1875 446.0625,6.515625 445.82812,6.171875 445.59375,5.84375 445.59375,5.5 q 0,-0.234375 0.0781,-0.46875 0.0781,-0.234375 0.375,-0.75 0.3125,-0.515625 0.40624,-0.765625 0.0938,-0.265625 0.0938,-0.46875 0,-0.359375 -0.32813,-0.640625 -0.3125,-0.28125 -0.84375,-0.28125 -0.625,0 -1.03125,0.390625 -0.39063,0.390625 -0.39063,1.671875 V 10 Z m 7.90626,-7.375 V 1.40625 h 1.0625 V 2.625 Z m 0,7.375 V 3.78125 h 1.0625 V 10 Z m 2.79687,0.515625 1.03125,0.15625 q 0.0625,0.46875 0.35938,0.6875 0.39062,0.296875 1.0625,0.296875 0.73437,0 1.125,-0.296875 0.40624,-0.296875 0.54687,-0.8125 0.0937,-0.328125 0.0781,-1.359375 Q 457.10935,10 456.07809,10 q -1.28124,0 -1.98437,-0.921875 -0.70313,-0.9375 -0.70313,-2.21875 0,-0.890625 0.3125,-1.640625 0.32813,-0.765625 0.9375,-1.171875 0.60938,-0.40625 1.4375,-0.40625 1.10938,0 1.82813,0.890625 v -0.75 h 0.96875 v 5.375 q 0,1.453125 -0.29688,2.0625 -0.29687,0.609375 -0.9375,0.953125 Q 457,12.53125 456.0625,12.53125 q -1.10938,0 -1.79688,-0.5 -0.6875,-0.5 -0.67187,-1.515625 z m 0.875,-3.734375 q 0,1.21875 0.48437,1.78125 0.48438,0.5625 1.21876,0.5625 0.73437,0 1.21874,-0.5625 0.5,-0.5625 0.5,-1.75 0,-1.140625 -0.51562,-1.71875 -0.5,-0.578125 -1.21875,-0.578125 -0.70313,0 -1.20313,0.578125 -0.48437,0.5625 -0.48437,1.6875 z M 465.04688,8 l 1.09374,0.125 q -0.25,0.953125 -0.95312,1.484375 -0.70312,0.53125 -1.78125,0.53125 -1.35937,0 -2.17187,-0.84375 -0.79688,-0.84375 -0.79688,-2.359375 0,-1.5625 0.8125,-2.421875 0.8125,-0.875 2.09375,-0.875 1.25,0 2.03125,0.84375 0.79688,0.84375 0.79688,2.390625 0,0.09375 0,0.28125 h -4.64063 q 0.0625,1.03125 0.57813,1.578125 0.51562,0.53125 1.29687,0.53125 0.57813,0 0.98437,-0.296875 Q 464.8125,8.65625 465.04688,8 Z m -3.45313,-1.703125 h 3.46875 Q 465,5.5 464.67188,5.109375 464.15625,4.5 463.35938,4.5 q -0.73438,0 -1.23438,0.484375 -0.48438,0.484375 -0.53125,1.3125 z m 5.78125,1.84375 1.03125,-0.15625 q 0.0937,0.625 0.48437,0.953125 0.40626,0.328125 1.14063,0.328125 0.71875,0 1.0625,-0.28125 0.35937,-0.296875 0.35937,-0.703125 0,-0.359375 -0.3125,-0.5625 -0.21874,-0.140625 -1.07812,-0.359375 -1.15625,-0.296875 -1.60938,-0.5 -0.4375,-0.21875 -0.67187,-0.59375 -0.23437,-0.375 -0.23437,-0.84375 0,-0.40625 0.1875,-0.765625 0.1875,-0.359375 0.51562,-0.59375 0.25,-0.171875 0.67188,-0.296875 0.42187,-0.125 0.92187,-0.125 0.71875,0 1.26563,0.21875 0.5625,0.203125 0.82812,0.5625 0.26562,0.359375 0.35938,0.953125 l -1.03126,0.140625 Q 471.20312,5.046875 470.85938,4.78125 470.53125,4.5 469.90625,4.5 q -0.71875,0 -1.03125,0.25 -0.3125,0.234375 -0.3125,0.5625 0,0.203125 0.125,0.359375 0.14062,0.171875 0.40625,0.28125 0.15625,0.0625 0.9375,0.265625 1.125,0.3125 1.5625,0.5 0.4375,0.1875 0.6875,0.546875 0.25,0.359375 0.25,0.90625 0,0.53125 -0.3125,1 -0.29687,0.453125 -0.875,0.71875 -0.57813,0.25 -1.3125,0.25 -1.21875,0 -1.85937,-0.5 -0.625,-0.515625 -0.79688,-1.5 z M 476.98438,10 480.28125,1.40625 H 481.5 L 485.01562,10 h -1.28124 l -1.01563,-2.609375 h -3.57813 L 478.1875,10 Z m 2.48437,-3.53125 h 2.90625 l -0.89062,-2.375 Q 481.0625,3.015625 480.875,2.3125 q -0.17188,0.828125 -0.46875,1.640625 z m 9.39063,1.25 1.03124,0.140625 q -0.17187,1.0625 -0.875,1.671875 -0.70312,0.609375 -1.71874,0.609375 -1.28126,0 -2.0625,-0.828125 -0.76563,-0.84375 -0.76563,-2.40625 0,-1 0.32813,-1.75 0.34374,-0.765625 1.01562,-1.140625 0.6875,-0.375 1.5,-0.375 1,0 1.64062,0.515625 0.65626,0.5 0.84376,1.453125 l -1.03126,0.15625 Q 488.625,5.140625 488.25,4.828125 487.875,4.5 487.34375,4.5 q -0.79687,0 -1.29687,0.578125 -0.5,0.5625 -0.5,1.796875 0,1.265625 0.48437,1.828125 0.48437,0.5625 1.25,0.5625 0.625,0 1.03125,-0.375 0.42188,-0.375 0.54688,-1.171875 z M 490.79688,10 V 1.40625 h 1.04687 v 3.078125 q 0.73437,-0.84375 1.85937,-0.84375 0.70313,0 1.20313,0.28125 0.51563,0.265625 0.73437,0.75 0.21876,0.46875 0.21876,1.390625 V 10 H 494.8125 V 6.0625 q 0,-0.796875 -0.34375,-1.15625 Q 494.125,4.546875 493.5,4.546875 q -0.46875,0 -0.89062,0.25 -0.40626,0.234375 -0.59376,0.65625 -0.17187,0.40625 -0.17187,1.140625 V 10 Z m 9.29687,-0.9375 0.15625,0.921875 q -0.4531,0.09375 -0.7969,0.09375 -0.5781,0 -0.8906,-0.171875 -0.3125,-0.1875 -0.4531,-0.484375 -0.125,-0.296875 -0.125,-1.25 V 4.59375 h -0.76565 v -0.8125 h 0.76565 V 2.234375 l 1.04685,-0.625 V 3.78125 h 1.0625 v 0.8125 h -1.0625 v 3.640625 q 0,0.453125 0.0468,0.578125 0.0625,0.125 0.1875,0.203125 0.125,0.07813 0.3594,0.07813 0.1875,0 0.46875,-0.03125 z M 505.0469,8 l 1.0937,0.125 q -0.25,0.953125 -0.9531,1.484375 -0.7031,0.53125 -1.78125,0.53125 -1.35935,0 -2.17185,-0.84375 -0.7969,-0.84375 -0.7969,-2.359375 0,-1.5625 0.8125,-2.421875 0.8125,-0.875 2.09375,-0.875 1.25,0 2.03125,0.84375 0.7969,0.84375 0.7969,2.390625 0,0.09375 0,0.28125 h -4.64065 q 0.0625,1.03125 0.57815,1.578125 0.5156,0.53125 1.29685,0.53125 0.57815,0 0.98435,-0.296875 Q 504.8125,8.65625 505.0469,8 Z m -3.45315,-1.703125 h 3.46875 Q 505,5.5 504.6719,5.109375 504.15625,4.5 503.3594,4.5 q -0.7344,0 -1.2344,0.484375 -0.4844,0.484375 -0.53125,1.3125 z m 10.26565,1.421875 1.0312,0.140625 q -0.17185,1.0625 -0.875,1.671875 -0.7031,0.609375 -1.7187,0.609375 -1.2813,0 -2.0625,-0.828125 -0.76565,-0.84375 -0.76565,-2.40625 0,-1 0.32815,-1.75 0.3437,-0.765625 1.0156,-1.140625 0.6875,-0.375 1.5,-0.375 1,0 1.6406,0.515625 0.6563,0.5 0.8438,1.453125 l -1.0313,0.15625 Q 511.625,5.140625 511.25,4.828125 510.875,4.5 510.34375,4.5 q -0.79685,0 -1.29685,0.578125 -0.5,0.5625 -0.5,1.796875 0,1.265625 0.48435,1.828125 0.48435,0.5625 1.25,0.5625 0.625,0 1.03125,-0.375 0.4219,-0.375 0.5469,-1.171875 z M 513.7969,10 V 1.40625 h 1.0625 V 6.3125 l 2.48435,-2.53125 h 1.375 L 516.3281,6.078125 518.9531,10 h -1.29685 l -2.0625,-3.1875 -0.73435,0.71875 V 10 Z"
     fill-rule="nonzero"
     id="path59" />
</svg>
