<svg version="1.1" viewBox="0.0 0.0 762.0 290.0" fill="none" stroke="none" stroke-linecap="square" stroke-miterlimit="10" width="762" height="290" xmlns:xlink="http://www.w3.org/1999/xlink" xmlns="http://www.w3.org/2000/svg"><path fill="#ffffff" d="M0 0L762.0 0L762.0 290.0L0 290.0L0 0Z" fill-rule="nonzero"/><path stroke="#333333" stroke-width="1.0" stroke-linecap="butt" d="M44.5 255.5L747.5 255.5" fill-rule="nonzero"/><path stroke="#cccccc" stroke-width="1.0" stroke-linecap="butt" d="M44.5 208.5L747.5 208.5" fill-rule="nonzero"/><path stroke="#cccccc" stroke-width="1.0" stroke-linecap="butt" d="M44.5 161.5L747.5 161.5" fill-rule="nonzero"/><path stroke="#cccccc" stroke-width="1.0" stroke-linecap="butt" d="M44.5 115.5L747.5 115.5" fill-rule="nonzero"/><path stroke="#cccccc" stroke-width="1.0" stroke-linecap="butt" d="M44.5 68.5L747.5 68.5" fill-rule="nonzero"/><path stroke="#cccccc" stroke-width="1.0" stroke-linecap="butt" d="M44.5 21.5L747.5 21.5" fill-rule="nonzero"/><clipPath id="id_0"><path d="M44.5 21.5L747.5 21.5L747.5 255.5L44.5 255.5L44.5 21.5Z" clip-rule="nonzero"/></clipPath><path stroke="#000000" stroke-width="2.0" stroke-linecap="butt" stroke-opacity="0.0" clip-path="url(#id_0)" d="M207.0 256.0L102.0 256.0L102.0 186.0C102.0 184.89543 102.89543 184.0 104.0 184.0L205.0 184.0C206.10457 184.0 207.0 184.89543 207.0 186.0Z" fill-rule="nonzero"/><path fill="#4285f4" clip-path="url(#id_0)" d="M207.0 256.0L102.0 256.0L102.0 186.0C102.0 184.89543 102.89543 184.0 104.0 184.0L205.0 184.0C206.10457 184.0 207.0 184.89543 207.0 186.0Z" fill-rule="nonzero"/><path stroke="#000000" stroke-width="2.0" stroke-linecap="butt" stroke-opacity="0.0" clip-path="url(#id_0)" d="M368.0 256.0L263.0 256.0L263.0 186.0C263.0 184.89543 263.89542 184.0 265.0 184.0L366.0 184.0C367.10458 184.0 368.0 184.89543 368.0 186.0Z" fill-rule="nonzero"/><path fill="#4285f4" clip-path="url(#id_0)" d="M368.0 256.0L263.0 256.0L263.0 186.0C263.0 184.89543 263.89542 184.0 265.0 184.0L366.0 184.0C367.10458 184.0 368.0 184.89543 368.0 186.0Z" fill-rule="nonzero"/><path stroke="#000000" stroke-width="2.0" stroke-linecap="butt" stroke-opacity="0.0" clip-path="url(#id_0)" d="M530.0 256.0L425.0 256.0L425.0 30.0C425.0 28.89543 425.89542 28.0 427.0 28.0L528.0 28.0C529.10455 28.0 530.0 28.89543 530.0 30.0Z" fill-rule="nonzero"/><path fill="#4285f4" clip-path="url(#id_0)" d="M530.0 256.0L425.0 256.0L425.0 30.0C425.0 28.89543 425.89542 28.0 427.0 28.0L528.0 28.0C529.10455 28.0 530.0 28.89543 530.0 30.0Z" fill-rule="nonzero"/><path stroke="#000000" stroke-width="2.0" stroke-linecap="butt" stroke-opacity="0.0" clip-path="url(#id_0)" d="M691.0 256.0L586.0 256.0L586.0 32.0C586.0 30.89543 586.89545 30.0 588.0 30.0L689.0 30.0C690.10455 30.0 691.0 30.89543 691.0 32.0Z" fill-rule="nonzero"/><path fill="#4285f4" clip-path="url(#id_0)" d="M691.0 256.0L586.0 256.0L586.0 32.0C586.0 30.89543 586.89545 30.0 588.0 30.0L689.0 30.0C690.10455 30.0 691.0 30.89543 691.0 32.0Z" fill-rule="nonzero"/><path fill="#000000" d="M15.0 255.26562Q15.0 253.73438 15.3125 252.8125Q15.625 251.875 16.234375 251.375Q16.859375 250.875 17.796875 250.875Q18.484375 250.875 19.0 251.15625Q19.53125 251.4375 19.875 251.96875Q20.21875 252.48438 20.40625 253.23438Q20.59375 253.98438 20.59375 255.26562Q20.59375 256.78125 20.28125 257.70312Q19.984375 258.625 19.359375 259.14062Q18.75 259.64062 17.796875 259.64062Q16.5625 259.64062 15.84375 258.75Q15.0 257.6875 15.0 255.26562ZM16.078125 255.26562Q16.078125 257.375 16.578125 258.07812Q17.078125 258.78125 17.796875 258.78125Q18.53125 258.78125 19.015625 258.07812Q19.515625 257.375 19.515625 255.26562Q19.515625 253.14062 19.015625 252.45312Q18.53125 251.75 17.78125 251.75Q17.0625 251.75 16.625 252.35938Q16.078125 253.14062 16.078125 255.26562ZM22.59375 259.5L22.59375 258.29688L23.796875 258.29688L23.796875 259.5L22.59375 259.5ZM25.0 255.26562Q25.0 253.73438 25.3125 252.8125Q25.625 251.875 26.234375 251.375Q26.859375 250.875 27.796875 250.875Q28.484375 250.875 29.0 251.15625Q29.53125 251.4375 29.875 251.96875Q30.21875 252.48438 30.40625 253.23438Q30.59375 253.98438 30.59375 255.26562Q30.59375 256.78125 30.28125 257.70312Q29.984375 258.625 29.359375 259.14062Q28.75 259.64062 27.796875 259.64062Q26.5625 259.64062 25.84375 258.75Q25.0 257.6875 25.0 255.26562ZM26.078125 255.26562Q26.078125 257.375 26.578125 258.07812Q27.078125 258.78125 27.796875 258.78125Q28.53125 258.78125 29.015625 258.07812Q29.515625 257.375 29.515625 255.26562Q29.515625 253.14062 29.015625 252.45312Q28.53125 251.75 27.78125 251.75Q27.0625 251.75 26.625 252.35938Q26.078125 253.14062 26.078125 255.26562ZM32.0 255.26562Q32.0 253.73438 32.3125 252.8125Q32.625 251.875 33.234375 251.375Q33.859375 250.875 34.796875 250.875Q35.484375 250.875 36.0 251.15625Q36.53125 251.4375 36.875 251.96875Q37.21875 252.48438 37.40625 253.23438Q37.59375 253.98438 37.59375 255.26562Q37.59375 256.78125 37.28125 257.70312Q36.984375 258.625 36.359375 259.14062Q35.75 259.64062 34.796875 259.64062Q33.5625 259.64062 32.84375 258.75Q32.0 257.6875 32.0 255.26562ZM33.078125 255.26562Q33.078125 257.375 33.578125 258.07812Q34.078125 258.78125 34.796875 258.78125Q35.53125 258.78125 36.015625 258.07812Q36.515625 257.375 36.515625 255.26562Q36.515625 253.14062 36.015625 252.45312Q35.53125 251.75 34.78125 251.75Q34.0625 251.75 33.625 252.35938Q33.078125 253.14062 33.078125 255.26562Z" fill-rule="nonzero"/><path fill="#000000" d="M15.0 208.46562Q15.0 206.93437 15.3125 206.0125Q15.625 205.075 16.234375 204.575Q16.859375 204.075 17.796875 204.075Q18.484375 204.075 19.0 204.35625Q19.53125 204.6375 19.875 205.16875Q20.21875 205.68437 20.40625 206.43437Q20.59375 207.18437 20.59375 208.46562Q20.59375 209.98125 20.28125 210.90312Q19.984375 211.825 19.359375 212.34062Q18.75 212.84062 17.796875 212.84062Q16.5625 212.84062 15.84375 211.95Q15.0 210.8875 15.0 208.46562ZM16.078125 208.46562Q16.078125 210.575 16.578125 211.27812Q17.078125 211.98125 17.796875 211.98125Q18.53125 211.98125 19.015625 211.27812Q19.515625 210.575 19.515625 208.46562Q19.515625 206.34062 19.015625 205.65312Q18.53125 204.95 17.78125 204.95Q17.0625 204.95 16.625 205.55937Q16.078125 206.34062 16.078125 208.46562ZM22.59375 212.7L22.59375 211.49687L23.796875 211.49687L23.796875 212.7L22.59375 212.7ZM25.0 208.46562Q25.0 206.93437 25.3125 206.0125Q25.625 205.075 26.234375 204.575Q26.859375 204.075 27.796875 204.075Q28.484375 204.075 29.0 204.35625Q29.53125 204.6375 29.875 205.16875Q30.21875 205.68437 30.40625 206.43437Q30.59375 207.18437 30.59375 208.46562Q30.59375 209.98125 30.28125 210.90312Q29.984375 211.825 29.359375 212.34062Q28.75 212.84062 27.796875 212.84062Q26.5625 212.84062 25.84375 211.95Q25.0 210.8875 25.0 208.46562ZM26.078125 208.46562Q26.078125 210.575 26.578125 211.27812Q27.078125 211.98125 27.796875 211.98125Q28.53125 211.98125 29.015625 211.27812Q29.515625 210.575 29.515625 208.46562Q29.515625 206.34062 29.015625 205.65312Q28.53125 204.95 27.78125 204.95Q27.0625 204.95 26.625 205.55937Q26.078125 206.34062 26.078125 208.46562ZM35.96875 212.7L34.921875 212.7L34.921875 205.98125Q34.53125 206.34062 33.90625 206.71562Q33.296875 207.075 32.8125 207.24687L32.8125 206.23125Q33.6875 205.80937 34.34375 205.23125Q35.015625 204.6375 35.296875 204.075L35.96875 204.075L35.96875 212.7Z" fill-rule="nonzero"/><path fill="#000000" d="M15.0 161.66562Q15.0 160.13437 15.3125 159.2125Q15.625 158.275 16.234375 157.775Q16.859375 157.275 17.796875 157.275Q18.484375 157.275 19.0 157.55624Q19.53125 157.8375 19.875 158.36874Q20.21875 158.88437 20.40625 159.63437Q20.59375 160.38437 20.59375 161.66562Q20.59375 163.18124 20.28125 164.10312Q19.984375 165.025 19.359375 165.54062Q18.75 166.04062 17.796875 166.04062Q16.5625 166.04062 15.84375 165.15Q15.0 164.0875 15.0 161.66562ZM16.078125 161.66562Q16.078125 163.775 16.578125 164.47812Q17.078125 165.18124 17.796875 165.18124Q18.53125 165.18124 19.015625 164.47812Q19.515625 163.775 19.515625 161.66562Q19.515625 159.54062 19.015625 158.85312Q18.53125 158.15 17.78125 158.15Q17.0625 158.15 16.625 158.75937Q16.078125 159.54062 16.078125 161.66562ZM22.59375 165.9L22.59375 164.69687L23.796875 164.69687L23.796875 165.9L22.59375 165.9ZM25.0 161.66562Q25.0 160.13437 25.3125 159.2125Q25.625 158.275 26.234375 157.775Q26.859375 157.275 27.796875 157.275Q28.484375 157.275 29.0 157.55624Q29.53125 157.8375 29.875 158.36874Q30.21875 158.88437 30.40625 159.63437Q30.59375 160.38437 30.59375 161.66562Q30.59375 163.18124 30.28125 164.10312Q29.984375 165.025 29.359375 165.54062Q28.75 166.04062 27.796875 166.04062Q26.5625 166.04062 25.84375 165.15Q25.0 164.0875 25.0 161.66562ZM26.078125 161.66562Q26.078125 163.775 26.578125 164.47812Q27.078125 165.18124 27.796875 165.18124Q28.53125 165.18124 29.015625 164.47812Q29.515625 163.775 29.515625 161.66562Q29.515625 159.54062 29.015625 158.85312Q28.53125 158.15 27.78125 158.15Q27.0625 158.15 26.625 158.75937Q26.078125 159.54062 26.078125 161.66562ZM37.546875 164.88437L37.546875 165.9L31.859375 165.9Q31.859375 165.525 31.984375 165.16562Q32.203125 164.5875 32.671875 164.025Q33.15625 163.4625 34.0625 162.72812Q35.46875 161.57187 35.953125 160.9Q36.453125 160.22812 36.453125 159.63437Q36.453125 159.00937 36.0 158.5875Q35.546875 158.15 34.828125 158.15Q34.0625 158.15 33.609375 158.60312Q33.15625 159.05624 33.140625 159.86874L32.0625 159.75937Q32.171875 158.54062 32.890625 157.91562Q33.625 157.275 34.859375 157.275Q36.09375 157.275 36.8125 157.9625Q37.53125 158.65 37.53125 159.66562Q37.53125 160.18124 37.3125 160.68124Q37.109375 161.16562 36.609375 161.72812Q36.125 162.275 35.0 163.22812Q34.046875 164.025 33.765625 164.32187Q33.5 164.60312 33.328125 164.88437L37.546875 164.88437Z" fill-rule="nonzero"/><path fill="#000000" d="M15.0 114.86562Q15.0 113.33437 15.3125 112.4125Q15.625 111.475 16.234375 110.975Q16.859375 110.475 17.796875 110.475Q18.484375 110.475 19.0 110.75625Q19.53125 111.0375 19.875 111.56875Q20.21875 112.08437 20.40625 112.83437Q20.59375 113.58437 20.59375 114.86562Q20.59375 116.38125 20.28125 117.30312Q19.984375 118.225 19.359375 118.74062Q18.75 119.24062 17.796875 119.24062Q16.5625 119.24062 15.84375 118.35Q15.0 117.2875 15.0 114.86562ZM16.078125 114.86562Q16.078125 116.975 16.578125 117.67812Q17.078125 118.38125 17.796875 118.38125Q18.53125 118.38125 19.015625 117.67812Q19.515625 116.975 19.515625 114.86562Q19.515625 112.74062 19.015625 112.05312Q18.53125 111.35 17.78125 111.35Q17.0625 111.35 16.625 111.95937Q16.078125 112.74062 16.078125 114.86562ZM22.59375 119.1L22.59375 117.89687L23.796875 117.89687L23.796875 119.1L22.59375 119.1ZM25.0 114.86562Q25.0 113.33437 25.3125 112.4125Q25.625 111.475 26.234375 110.975Q26.859375 110.475 27.796875 110.475Q28.484375 110.475 29.0 110.75625Q29.53125 111.0375 29.875 111.56875Q30.21875 112.08437 30.40625 112.83437Q30.59375 113.58437 30.59375 114.86562Q30.59375 116.38125 30.28125 117.30312Q29.984375 118.225 29.359375 118.74062Q28.75 119.24062 27.796875 119.24062Q26.5625 119.24062 25.84375 118.35Q25.0 117.2875 25.0 114.86562ZM26.078125 114.86562Q26.078125 116.975 26.578125 117.67812Q27.078125 118.38125 27.796875 118.38125Q28.53125 118.38125 29.015625 117.67812Q29.515625 116.975 29.515625 114.86562Q29.515625 112.74062 29.015625 112.05312Q28.53125 111.35 27.78125 111.35Q27.0625 111.35 26.625 111.95937Q26.078125 112.74062 26.078125 114.86562ZM32.0 116.83437L33.0625 116.69375Q33.234375 117.58437 33.671875 117.99062Q34.109375 118.38125 34.734375 118.38125Q35.484375 118.38125 36.0 117.86562Q36.515625 117.35 36.515625 116.58437Q36.515625 115.86562 36.03125 115.39687Q35.5625 114.9125 34.828125 114.9125Q34.53125 114.9125 34.078125 115.0375L34.203125 114.1Q34.3125 114.11562 34.375 114.11562Q35.046875 114.11562 35.578125 113.77187Q36.125 113.4125 36.125 112.67812Q36.125 112.1 35.734375 111.725Q35.34375 111.33437 34.71875 111.33437Q34.109375 111.33437 33.6875 111.725Q33.28125 112.11562 33.171875 112.88125L32.109375 112.69375Q32.296875 111.64687 32.984375 111.06875Q33.671875 110.475 34.6875 110.475Q35.390625 110.475 35.984375 110.7875Q36.578125 111.08437 36.890625 111.6Q37.203125 112.11562 37.203125 112.70937Q37.203125 113.25625 36.90625 113.725Q36.609375 114.17812 36.03125 114.44375Q36.78125 114.61562 37.203125 115.17812Q37.625 115.725 37.625 116.56875Q37.625 117.69375 36.796875 118.475Q35.984375 119.25625 34.734375 119.25625Q33.609375 119.25625 32.859375 118.58437Q32.109375 117.89687 32.0 116.83437Z" fill-rule="nonzero"/><path fill="#000000" d="M15.0 68.06563Q15.0 66.53438 15.3125 65.6125Q15.625 64.675 16.234375 64.175Q16.859375 63.675003 17.796875 63.675003Q18.484375 63.675003 19.0 63.956253Q19.53125 64.2375 19.875 64.76875Q20.21875 65.28438 20.40625 66.03438Q20.59375 66.78438 20.59375 68.06563Q20.59375 69.58125 20.28125 70.50313Q19.984375 71.425 19.359375 71.94063Q18.75 72.44063 17.796875 72.44063Q16.5625 72.44063 15.84375 71.55Q15.0 70.4875 15.0 68.06563ZM16.078125 68.06563Q16.078125 70.175 16.578125 70.87813Q17.078125 71.58125 17.796875 71.58125Q18.53125 71.58125 19.015625 70.87813Q19.515625 70.175 19.515625 68.06563Q19.515625 65.94063 19.015625 65.25313Q18.53125 64.55 17.78125 64.55Q17.0625 64.55 16.625 65.15938Q16.078125 65.94063 16.078125 68.06563ZM22.59375 72.3L22.59375 71.09688L23.796875 71.09688L23.796875 72.3L22.59375 72.3ZM25.0 68.06563Q25.0 66.53438 25.3125 65.6125Q25.625 64.675 26.234375 64.175Q26.859375 63.675003 27.796875 63.675003Q28.484375 63.675003 29.0 63.956253Q29.53125 64.2375 29.875 64.76875Q30.21875 65.28438 30.40625 66.03438Q30.59375 66.78438 30.59375 68.06563Q30.59375 69.58125 30.28125 70.50313Q29.984375 71.425 29.359375 71.94063Q28.75 72.44063 27.796875 72.44063Q26.5625 72.44063 25.84375 71.55Q25.0 70.4875 25.0 68.06563ZM26.078125 68.06563Q26.078125 70.175 26.578125 70.87813Q27.078125 71.58125 27.796875 71.58125Q28.53125 71.58125 29.015625 70.87813Q29.515625 70.175 29.515625 68.06563Q29.515625 65.94063 29.015625 65.25313Q28.53125 64.55 27.78125 64.55Q27.0625 64.55 26.625 65.15938Q26.078125 65.94063 26.078125 68.06563ZM35.375 72.3L35.375 70.2375L31.65625 70.2375L31.65625 69.26875L35.578125 63.706253L36.4375 63.706253L36.4375 69.26875L37.59375 69.26875L37.59375 70.2375L36.4375 70.2375L36.4375 72.3L35.375 72.3ZM35.375 69.26875L35.375 65.40938L32.6875 69.26875L35.375 69.26875Z" fill-rule="nonzero"/><path fill="#000000" d="M15.0 21.265625Q15.0 19.734375 15.3125 18.8125Q15.625 17.875 16.234375 17.375Q16.859375 16.875 17.796875 16.875Q18.484375 16.875 19.0 17.15625Q19.53125 17.4375 19.875 17.96875Q20.21875 18.484375 20.40625 19.234375Q20.59375 19.984375 20.59375 21.265625Q20.59375 22.78125 20.28125 23.703125Q19.984375 24.625 19.359375 25.140625Q18.75 25.640625 17.796875 25.640625Q16.5625 25.640625 15.84375 24.75Q15.0 23.6875 15.0 21.265625ZM16.078125 21.265625Q16.078125 23.375 16.578125 24.078125Q17.078125 24.78125 17.796875 24.78125Q18.53125 24.78125 19.015625 24.078125Q19.515625 23.375 19.515625 21.265625Q19.515625 19.140625 19.015625 18.453125Q18.53125 17.75 17.78125 17.75Q17.0625 17.75 16.625 18.359375Q16.078125 19.140625 16.078125 21.265625ZM22.59375 25.5L22.59375 24.296875L23.796875 24.296875L23.796875 25.5L22.59375 25.5ZM25.0 21.265625Q25.0 19.734375 25.3125 18.8125Q25.625 17.875 26.234375 17.375Q26.859375 16.875 27.796875 16.875Q28.484375 16.875 29.0 17.15625Q29.53125 17.4375 29.875 17.96875Q30.21875 18.484375 30.40625 19.234375Q30.59375 19.984375 30.59375 21.265625Q30.59375 22.78125 30.28125 23.703125Q29.984375 24.625 29.359375 25.140625Q28.75 25.640625 27.796875 25.640625Q26.5625 25.640625 25.84375 24.75Q25.0 23.6875 25.0 21.265625ZM26.078125 21.265625Q26.078125 23.375 26.578125 24.078125Q27.078125 24.78125 27.796875 24.78125Q28.53125 24.78125 29.015625 24.078125Q29.515625 23.375 29.515625 21.265625Q29.515625 19.140625 29.015625 18.453125Q28.53125 17.75 27.78125 17.75Q27.0625 17.75 26.625 18.359375Q26.078125 19.140625 26.078125 21.265625ZM32.0 23.25L33.109375 23.15625Q33.234375 23.96875 33.671875 24.375Q34.125 24.78125 34.765625 24.78125Q35.515625 24.78125 36.046875 24.203125Q36.578125 23.625 36.578125 22.6875Q36.578125 21.78125 36.0625 21.265625Q35.5625 20.734375 34.734375 20.734375Q34.234375 20.734375 33.8125 20.96875Q33.40625 21.203125 33.171875 21.5625L32.1875 21.4375L33.015625 17.03125L37.296875 17.03125L37.296875 18.03125L33.859375 18.03125L33.40625 20.34375Q34.171875 19.796875 35.015625 19.796875Q36.140625 19.796875 36.90625 20.578125Q37.6875 21.359375 37.6875 22.59375Q37.6875 23.75 37.015625 24.609375Q36.1875 25.640625 34.765625 25.640625Q33.59375 25.640625 32.84375 24.984375Q32.109375 24.328125 32.0 23.25Z" fill-rule="nonzero"/><path fill="#000000" d="M121.50808 272.5L121.50808 263.90625L124.47683 263.90625Q125.47683 263.90625 126.00808 264.03125Q126.742455 264.20312 127.25808 264.64062Q127.94558 265.21875 128.27371 266.125Q128.61746 267.01562 128.61746 268.15625Q128.61746 269.14062 128.38309 269.89062Q128.16434 270.64062 127.804955 271.14062Q127.44558 271.64062 127.00808 271.92188Q126.586205 272.20312 125.992455 272.35938Q125.398705 272.5 124.617455 272.5L121.50808 272.5ZM122.648705 271.48438L124.47683 271.48438Q125.336205 271.48438 125.82058 271.32812Q126.304955 271.17188 126.586205 270.875Q126.992455 270.48438 127.211205 269.79688Q127.44558 269.10938 127.44558 268.14062Q127.44558 266.79688 126.992455 266.07812Q126.554955 265.34375 125.929955 265.09375Q125.461205 264.92188 124.461205 264.92188L122.648705 264.92188L122.648705 271.48438ZM134.63309 270.5L135.72684 270.625Q135.47684 271.57812 134.77371 272.10938Q134.07059 272.64062 132.99246 272.64062Q131.63309 272.64062 130.82059 271.79688Q130.02371 270.95312 130.02371 269.4375Q130.02371 267.875 130.83621 267.01562Q131.64871 266.14062 132.92996 266.14062Q134.17996 266.14062 134.96121 266.98438Q135.75809 267.82812 135.75809 269.375Q135.75809 269.46875 135.75809 269.65625L131.11746 269.65625Q131.17996 270.6875 131.69559 271.23438Q132.21121 271.76562 132.99246 271.76562Q133.57059 271.76562 133.97684 271.46875Q134.39871 271.15625 134.63309 270.5ZM131.17996 268.79688L134.64871 268.79688Q134.58621 268.0 134.25809 267.60938Q133.74246 267.0 132.94559 267.0Q132.21121 267.0 131.71121 267.48438Q131.22684 267.96875 131.17996 268.79688ZM139.67996 271.5625L139.83621 272.48438Q139.38309 272.57812 139.03934 272.57812Q138.46121 272.57812 138.14871 272.40625Q137.83621 272.21875 137.69559 271.92188Q137.57059 271.625 137.57059 270.67188L137.57059 267.09375L136.80496 267.09375L136.80496 266.28125L137.57059 266.28125L137.57059 264.73438L138.61746 264.10938L138.61746 266.28125L139.67996 266.28125L139.67996 267.09375L138.61746 267.09375L138.61746 270.73438Q138.61746 271.1875 138.66434 271.3125Q138.72684 271.4375 138.85184 271.51562Q138.97684 271.59375 139.21121 271.59375Q139.39871 271.59375 139.67996 271.5625ZM144.44559 271.73438Q143.85184 272.23438 143.30496 272.4375Q142.77371 272.64062 142.14871 272.64062Q141.11746 272.64062 140.57059 272.14062Q140.02371 271.64062 140.02371 270.85938Q140.02371 270.40625 140.22684 270.03125Q140.42996 269.64062 140.77371 269.42188Q141.11746 269.1875 141.53934 269.07812Q141.83621 268.98438 142.47684 268.90625Q143.74246 268.76562 144.35184 268.54688Q144.35184 268.32812 144.35184 268.28125Q144.35184 267.625 144.05496 267.35938Q143.64871 267.01562 142.85184 267.01562Q142.11746 267.01562 141.75809 267.28125Q141.39871 267.53125 141.22684 268.1875L140.19559 268.04688Q140.33621 267.39062 140.66434 266.98438Q140.99246 266.57812 141.60184 266.35938Q142.21121 266.14062 143.00809 266.14062Q143.80496 266.14062 144.30496 266.32812Q144.80496 266.51562 145.03934 266.79688Q145.27371 267.07812 145.36746 267.51562Q145.41434 267.78125 145.41434 268.48438L145.41434 269.89062Q145.41434 271.35938 145.47684 271.75Q145.55496 272.14062 145.75809 272.5L144.64871 272.5Q144.49246 272.17188 144.44559 271.73438ZM144.35184 269.375Q143.77371 269.60938 142.63309 269.78125Q141.97684 269.875 141.71121 270.0Q141.44559 270.10938 141.28934 270.32812Q141.14871 270.54688 141.14871 270.82812Q141.14871 271.25 141.46121 271.53125Q141.78934 271.8125 142.39871 271.8125Q143.00809 271.8125 143.47684 271.54688Q143.96121 271.28125 144.17996 270.8125Q144.35184 270.45312 144.35184 269.76562L144.35184 269.375ZM147.38309 265.125L147.38309 263.90625L148.44559 263.90625L148.44559 265.125L147.38309 265.125ZM147.38309 272.5L147.38309 266.28125L148.44559 266.28125L148.44559 272.5L147.38309 272.5ZM150.35184 272.5L150.35184 263.90625L151.41434 263.90625L151.41434 272.5L150.35184 272.5ZM152.96121 270.64062L153.99246 270.48438Q154.08621 271.10938 154.47684 271.4375Q154.88309 271.76562 155.61746 271.76562Q156.33621 271.76562 156.67996 271.48438Q157.03934 271.1875 157.03934 270.78125Q157.03934 270.42188 156.72684 270.21875Q156.50809 270.07812 155.64871 269.85938Q154.49246 269.5625 154.03934 269.35938Q153.60184 269.14062 153.36746 268.76562Q153.13309 268.39062 153.13309 267.92188Q153.13309 267.51562 153.32059 267.15625Q153.50809 266.79688 153.83621 266.5625Q154.08621 266.39062 154.50809 266.26562Q154.92996 266.14062 155.42996 266.14062Q156.14871 266.14062 156.69559 266.35938Q157.25809 266.5625 157.52371 266.92188Q157.78934 267.28125 157.88309 267.875L156.85184 268.01562Q156.78934 267.54688 156.44559 267.28125Q156.11746 267.0 155.49246 267.0Q154.77371 267.0 154.46121 267.25Q154.14871 267.48438 154.14871 267.8125Q154.14871 268.01562 154.27371 268.17188Q154.41434 268.34375 154.67996 268.45312Q154.83621 268.51562 155.61746 268.71875Q156.74246 269.03125 157.17996 269.21875Q157.61746 269.40625 157.86746 269.76562Q158.11746 270.125 158.11746 270.67188Q158.11746 271.20312 157.80496 271.67188Q157.50809 272.125 156.92996 272.39062Q156.35184 272.64062 155.61746 272.64062Q154.39871 272.64062 153.75809 272.14062Q153.13309 271.625 152.96121 270.64062ZM162.67996 271.5625L162.83621 272.48438Q162.38309 272.57812 162.03934 272.57812Q161.46121 272.57812 161.14871 272.40625Q160.83621 272.21875 160.69559 271.92188Q160.57059 271.625 160.57059 270.67188L160.57059 267.09375L159.80496 267.09375L159.80496 266.28125L160.57059 266.28125L160.57059 264.73438L161.61746 264.10938L161.61746 266.28125L162.67996 266.28125L162.67996 267.09375L161.61746 267.09375L161.61746 270.73438Q161.61746 271.1875 161.66434 271.3125Q161.72684 271.4375 161.85184 271.51562Q161.97684 271.59375 162.21121 271.59375Q162.39871 271.59375 162.67996 271.5625ZM167.46121 272.5L167.46121 271.57812Q166.72684 272.64062 165.47684 272.64062Q164.92996 272.64062 164.44559 272.4375Q163.97684 272.21875 163.74246 271.90625Q163.50809 271.57812 163.41434 271.10938Q163.35184 270.8125 163.35184 270.125L163.35184 266.28125L164.41434 266.28125L164.41434 269.73438Q164.41434 270.54688 164.47684 270.84375Q164.57059 271.25 164.88309 271.5Q165.21121 271.73438 165.69559 271.73438Q166.16434 271.73438 166.57059 271.5Q166.99246 271.25 167.16434 270.82812Q167.35184 270.40625 167.35184 269.60938L167.35184 266.28125L168.39871 266.28125L168.39871 272.5L167.46121 272.5ZM170.63309 272.5L170.63309 267.09375L169.69559 267.09375L169.69559 266.28125L170.63309 266.28125L170.63309 265.60938Q170.63309 264.98438 170.74246 264.6875Q170.89871 264.26562 171.27371 264.01562Q171.66434 263.76562 172.35184 263.76562Q172.80496 263.76562 173.33621 263.875L173.17996 264.78125Q172.85184 264.73438 172.55496 264.73438Q172.07059 264.73438 171.86746 264.9375Q171.67996 265.14062 171.67996 265.70312L171.67996 266.28125L172.89871 266.28125L172.89871 267.09375L171.67996 267.09375L171.67996 272.5L170.63309 272.5ZM177.63309 270.5L178.72684 270.625Q178.47684 271.57812 177.77371 272.10938Q177.07059 272.64062 175.99246 272.64062Q174.63309 272.64062 173.82059 271.79688Q173.02371 270.95312 173.02371 269.4375Q173.02371 267.875 173.83621 267.01562Q174.64871 266.14062 175.92996 266.14062Q177.17996 266.14062 177.96121 266.98438Q178.75809 267.82812 178.75809 269.375Q178.75809 269.46875 178.75809 269.65625L174.11746 269.65625Q174.17996 270.6875 174.69559 271.23438Q175.21121 271.76562 175.99246 271.76562Q176.57059 271.76562 176.97684 271.46875Q177.39871 271.15625 177.63309 270.5ZM174.17996 268.79688L177.64871 268.79688Q177.58621 268.0 177.25809 267.60938Q176.74246 267.0 175.94559 267.0Q175.21121 267.0 174.71121 267.48438Q174.22684 267.96875 174.17996 268.79688ZM180.38309 272.5L180.38309 266.28125L181.32059 266.28125L181.32059 267.15625Q182.00809 266.14062 183.30496 266.14062Q183.86746 266.14062 184.33621 266.34375Q184.82059 266.54688 185.05496 266.875Q185.28934 267.20312 185.38309 267.64062Q185.42996 267.9375 185.42996 268.67188L185.42996 272.5L184.38309 272.5L184.38309 268.71875Q184.38309 268.0625 184.25809 267.75Q184.13309 267.4375 183.82059 267.25Q183.50809 267.04688 183.08621 267.04688Q182.41434 267.04688 181.91434 267.48438Q181.42996 267.90625 181.42996 269.09375L181.42996 272.5L180.38309 272.5Z" fill-rule="nonzero"/><path fill="#000000" d="M223.61728 272.5L223.61728 263.90625L226.58603 263.90625Q227.58603 263.90625 228.11728 264.03125Q228.85165 264.20312 229.36728 264.64062Q230.05478 265.21875 230.3829 266.125Q230.72665 267.01562 230.72665 268.15625Q230.72665 269.14062 230.49228 269.89062Q230.27353 270.64062 229.91415 271.14062Q229.55478 271.64062 229.11728 271.92188Q228.6954 272.20312 228.10165 272.35938Q227.5079 272.5 226.72665 272.5L223.61728 272.5ZM224.7579 271.48438L226.58603 271.48438Q227.4454 271.48438 227.92978 271.32812Q228.41415 271.17188 228.6954 270.875Q229.10165 270.48438 229.3204 269.79688Q229.55478 269.10938 229.55478 268.14062Q229.55478 266.79688 229.10165 266.07812Q228.66415 265.34375 228.03915 265.09375Q227.5704 264.92188 226.5704 264.92188L224.7579 264.92188L224.7579 271.48438ZM236.74228 270.5L237.83603 270.625Q237.58603 271.57812 236.8829 272.10938Q236.17978 272.64062 235.10165 272.64062Q233.74228 272.64062 232.92978 271.79688Q232.1329 270.95312 232.1329 269.4375Q232.1329 267.875 232.9454 267.01562Q233.7579 266.14062 235.03915 266.14062Q236.28915 266.14062 237.0704 266.98438Q237.86728 267.82812 237.86728 269.375Q237.86728 269.46875 237.86728 269.65625L233.22665 269.65625Q233.28915 270.6875 233.80478 271.23438Q234.3204 271.76562 235.10165 271.76562Q235.67978 271.76562 236.08603 271.46875Q236.5079 271.15625 236.74228 270.5ZM233.28915 268.79688L236.7579 268.79688Q236.6954 268.0 236.36728 267.60938Q235.85165 267.0 235.05478 267.0Q234.3204 267.0 233.8204 267.48438Q233.33603 267.96875 233.28915 268.79688ZM241.78915 271.5625L241.9454 272.48438Q241.49228 272.57812 241.14853 272.57812Q240.5704 272.57812 240.2579 272.40625Q239.9454 272.21875 239.80478 271.92188Q239.67978 271.625 239.67978 270.67188L239.67978 267.09375L238.91415 267.09375L238.91415 266.28125L239.67978 266.28125L239.67978 264.73438L240.72665 264.10938L240.72665 266.28125L241.78915 266.28125L241.78915 267.09375L240.72665 267.09375L240.72665 270.73438Q240.72665 271.1875 240.77353 271.3125Q240.83603 271.4375 240.96103 271.51562Q241.08603 271.59375 241.3204 271.59375Q241.5079 271.59375 241.78915 271.5625ZM246.55478 271.73438Q245.96103 272.23438 245.41415 272.4375Q244.8829 272.64062 244.2579 272.64062Q243.22665 272.64062 242.67978 272.14062Q242.1329 271.64062 242.1329 270.85938Q242.1329 270.40625 242.33603 270.03125Q242.53915 269.64062 242.8829 269.42188Q243.22665 269.1875 243.64853 269.07812Q243.9454 268.98438 244.58603 268.90625Q245.85165 268.76562 246.46103 268.54688Q246.46103 268.32812 246.46103 268.28125Q246.46103 267.625 246.16415 267.35938Q245.7579 267.01562 244.96103 267.01562Q244.22665 267.01562 243.86728 267.28125Q243.5079 267.53125 243.33603 268.1875L242.30478 268.04688Q242.4454 267.39062 242.77353 266.98438Q243.10165 266.57812 243.71103 266.35938Q244.3204 266.14062 245.11728 266.14062Q245.91415 266.14062 246.41415 266.32812Q246.91415 266.51562 247.14853 266.79688Q247.3829 267.07812 247.47665 267.51562Q247.52353 267.78125 247.52353 268.48438L247.52353 269.89062Q247.52353 271.35938 247.58603 271.75Q247.66415 272.14062 247.86728 272.5L246.7579 272.5Q246.60165 272.17188 246.55478 271.73438ZM246.46103 269.375Q245.8829 269.60938 244.74228 269.78125Q244.08603 269.875 243.8204 270.0Q243.55478 270.10938 243.39853 270.32812Q243.2579 270.54688 243.2579 270.82812Q243.2579 271.25 243.5704 271.53125Q243.89853 271.8125 244.5079 271.8125Q245.11728 271.8125 245.58603 271.54688Q246.0704 271.28125 246.28915 270.8125Q246.46103 270.45312 246.46103 269.76562L246.46103 269.375ZM249.49228 265.125L249.49228 263.90625L250.55478 263.90625L250.55478 265.125L249.49228 265.125ZM249.49228 272.5L249.49228 266.28125L250.55478 266.28125L250.55478 272.5L249.49228 272.5ZM252.46103 272.5L252.46103 263.90625L253.52353 263.90625L253.52353 272.5L252.46103 272.5ZM255.0704 270.64062L256.10165 270.48438Q256.1954 271.10938 256.58603 271.4375Q256.99228 271.76562 257.72665 271.76562Q258.4454 271.76562 258.78915 271.48438Q259.14853 271.1875 259.14853 270.78125Q259.14853 270.42188 258.83603 270.21875Q258.61728 270.07812 257.7579 269.85938Q256.60165 269.5625 256.14853 269.35938Q255.71103 269.14062 255.47665 268.76562Q255.24228 268.39062 255.24228 267.92188Q255.24228 267.51562 255.42978 267.15625Q255.61728 266.79688 255.9454 266.5625Q256.1954 266.39062 256.61728 266.26562Q257.03915 266.14062 257.53915 266.14062Q258.2579 266.14062 258.80478 266.35938Q259.36728 266.5625 259.6329 266.92188Q259.89853 267.28125 259.99228 267.875L258.96103 268.01562Q258.89853 267.54688 258.55478 267.28125Q258.22665 267.0 257.60165 267.0Q256.8829 267.0 256.5704 267.25Q256.2579 267.48438 256.2579 267.8125Q256.2579 268.01562 256.3829 268.17188Q256.52353 268.34375 256.78915 268.45312Q256.9454 268.51562 257.72665 268.71875Q258.85165 269.03125 259.28915 269.21875Q259.72665 269.40625 259.97665 269.76562Q260.22665 270.125 260.22665 270.67188Q260.22665 271.20312 259.91415 271.67188Q259.61728 272.125 259.03915 272.39062Q258.46103 272.64062 257.72665 272.64062Q256.5079 272.64062 255.86728 272.14062Q255.24228 271.625 255.0704 270.64062ZM264.78915 271.5625L264.9454 272.48438Q264.49228 272.57812 264.14853 272.57812Q263.5704 272.57812 263.2579 272.40625Q262.9454 272.21875 262.80478 271.92188Q262.67978 271.625 262.67978 270.67188L262.67978 267.09375L261.91415 267.09375L261.91415 266.28125L262.67978 266.28125L262.67978 264.73438L263.72665 264.10938L263.72665 266.28125L264.78915 266.28125L264.78915 267.09375L263.72665 267.09375L263.72665 270.73438Q263.72665 271.1875 263.77353 271.3125Q263.83603 271.4375 263.96103 271.51562Q264.08603 271.59375 264.3204 271.59375Q264.5079 271.59375 264.78915 271.5625ZM269.5704 272.5L269.5704 271.57812Q268.83603 272.64062 267.58603 272.64062Q267.03915 272.64062 266.55478 272.4375Q266.08603 272.21875 265.85165 271.90625Q265.61728 271.57812 265.52353 271.10938Q265.46103 270.8125 265.46103 270.125L265.46103 266.28125L266.52353 266.28125L266.52353 269.73438Q266.52353 270.54688 266.58603 270.84375Q266.67978 271.25 266.99228 271.5Q267.3204 271.73438 267.80478 271.73438Q268.27353 271.73438 268.67978 271.5Q269.10165 271.25 269.27353 270.82812Q269.46103 270.40625 269.46103 269.60938L269.46103 266.28125L270.5079 266.28125L270.5079 272.5L269.5704 272.5ZM272.74228 272.5L272.74228 267.09375L271.80478 267.09375L271.80478 266.28125L272.74228 266.28125L272.74228 265.60938Q272.74228 264.98438 272.85165 264.6875Q273.0079 264.26562 273.3829 264.01562Q273.77353 263.76562 274.46103 263.76562Q274.91415 263.76562 275.4454 263.875L275.28915 264.78125Q274.96103 264.73438 274.66415 264.73438Q274.17978 264.73438 273.97665 264.9375Q273.78915 265.14062 273.78915 265.70312L273.78915 266.28125L275.0079 266.28125L275.0079 267.09375L273.78915 267.09375L273.78915 272.5L272.74228 272.5ZM279.74228 270.5L280.83603 270.625Q280.58603 271.57812 279.8829 272.10938Q279.17978 272.64062 278.10165 272.64062Q276.74228 272.64062 275.92978 271.79688Q275.1329 270.95312 275.1329 269.4375Q275.1329 267.875 275.9454 267.01562Q276.7579 266.14062 278.03915 266.14062Q279.28915 266.14062 280.0704 266.98438Q280.86728 267.82812 280.86728 269.375Q280.86728 269.46875 280.86728 269.65625L276.22665 269.65625Q276.28915 270.6875 276.80478 271.23438Q277.3204 271.76562 278.10165 271.76562Q278.67978 271.76562 279.08603 271.46875Q279.5079 271.15625 279.74228 270.5ZM276.28915 268.79688L279.7579 268.79688Q279.6954 268.0 279.36728 267.60938Q278.85165 267.0 278.05478 267.0Q277.3204 267.0 276.8204 267.48438Q276.33603 267.96875 276.28915 268.79688ZM282.49228 272.5L282.49228 266.28125L283.42978 266.28125L283.42978 267.15625Q284.11728 266.14062 285.41415 266.14062Q285.97665 266.14062 286.4454 266.34375Q286.92978 266.54688 287.16415 266.875Q287.39853 267.20312 287.49228 267.64062Q287.53915 267.9375 287.53915 268.67188L287.53915 272.5L286.49228 272.5L286.49228 268.71875Q286.49228 268.0625 286.36728 267.75Q286.24228 267.4375 285.92978 267.25Q285.61728 267.04688 285.1954 267.04688Q284.52353 267.04688 284.02353 267.48438Q283.53915 267.90625 283.53915 269.09375L283.53915 272.5L282.49228 272.5ZM294.6954 271.10938L294.6954 268.75L292.36728 268.75L292.36728 267.76562L294.6954 267.76562L294.6954 265.4375L295.6954 265.4375L295.6954 267.76562L298.03915 267.76562L298.03915 268.75L295.6954 268.75L295.6954 271.10938L294.6954 271.10938ZM302.64853 272.5L302.64853 263.90625L308.85165 263.90625L308.85165 264.92188L303.78915 264.92188L303.78915 267.54688L308.53915 267.54688L308.53915 268.5625L303.78915 268.5625L303.78915 271.48438L309.05478 271.48438L309.05478 272.5L302.64853 272.5ZM310.4454 274.89062L310.3204 273.90625Q310.66415 274.0 310.92978 274.0Q311.27353 274.0 311.47665 273.875Q311.6954 273.76562 311.83603 273.5625Q311.92978 273.39062 312.16415 272.76562Q312.17978 272.6875 312.2579 272.51562L309.8829 266.28125L311.02353 266.28125L312.3204 269.875Q312.5704 270.5625 312.77353 271.32812Q312.96103 270.59375 313.21103 269.90625L314.53915 266.28125L315.58603 266.28125L313.22665 272.60938Q312.83603 273.625 312.6329 274.01562Q312.35165 274.54688 311.97665 274.78125Q311.61728 275.03125 311.11728 275.03125Q310.8204 275.03125 310.4454 274.89062ZM319.74228 270.5L320.83603 270.625Q320.58603 271.57812 319.8829 272.10938Q319.17978 272.64062 318.10165 272.64062Q316.74228 272.64062 315.92978 271.79688Q315.1329 270.95312 315.1329 269.4375Q315.1329 267.875 315.9454 267.01562Q316.7579 266.14062 318.03915 266.14062Q319.28915 266.14062 320.0704 266.98438Q320.86728 267.82812 320.86728 269.375Q320.86728 269.46875 320.86728 269.65625L316.22665 269.65625Q316.28915 270.6875 316.80478 271.23438Q317.3204 271.76562 318.10165 271.76562Q318.67978 271.76562 319.08603 271.46875Q319.5079 271.15625 319.74228 270.5ZM316.28915 268.79688L319.7579 268.79688Q319.6954 268.0 319.36728 267.60938Q318.85165 267.0 318.05478 267.0Q317.3204 267.0 316.8204 267.48438Q316.33603 267.96875 316.28915 268.79688ZM322.0704 269.92188L322.0704 268.85938L325.3204 268.85938L325.3204 269.92188L322.0704 269.92188ZM326.61728 272.5L326.61728 263.90625L329.58603 263.90625Q330.58603 263.90625 331.11728 264.03125Q331.85165 264.20312 332.36728 264.64062Q333.05478 265.21875 333.3829 266.125Q333.72665 267.01562 333.72665 268.15625Q333.72665 269.14062 333.49228 269.89062Q333.27353 270.64062 332.91415 271.14062Q332.55478 271.64062 332.11728 271.92188Q331.6954 272.20312 331.10165 272.35938Q330.5079 272.5 329.72665 272.5L326.61728 272.5ZM327.7579 271.48438L329.58603 271.48438Q330.4454 271.48438 330.92978 271.32812Q331.41415 271.17188 331.6954 270.875Q332.10165 270.48438 332.3204 269.79688Q332.55478 269.10938 332.55478 268.14062Q332.55478 266.79688 332.10165 266.07812Q331.66415 265.34375 331.03915 265.09375Q330.5704 264.92188 329.5704 264.92188L327.7579 264.92188L327.7579 271.48438ZM335.10165 269.39062Q335.10165 267.65625 336.05478 266.82812Q336.85165 266.14062 338.0079 266.14062Q339.28915 266.14062 340.10165 266.98438Q340.92978 267.8125 340.92978 269.29688Q340.92978 270.5 340.5704 271.1875Q340.21103 271.875 339.5079 272.26562Q338.8204 272.64062 338.0079 272.64062Q336.71103 272.64062 335.89853 271.8125Q335.10165 270.96875 335.10165 269.39062ZM336.17978 269.39062Q336.17978 270.57812 336.6954 271.17188Q337.22665 271.76562 338.0079 271.76562Q338.80478 271.76562 339.3204 271.17188Q339.83603 270.57812 339.83603 269.35938Q339.83603 268.20312 339.30478 267.60938Q338.78915 267.01562 338.0079 267.01562Q337.22665 267.01562 336.6954 267.60938Q336.17978 268.1875 336.17978 269.39062ZM342.49228 272.5L342.49228 266.28125L343.42978 266.28125L343.42978 267.15625Q343.72665 266.6875 344.21103 266.42188Q344.6954 266.14062 345.3204 266.14062Q346.0079 266.14062 346.4454 266.42188Q346.89853 266.70312 347.0704 267.21875Q347.8204 266.14062 348.99228 266.14062Q349.92978 266.14062 350.41415 266.65625Q350.91415 267.15625 350.91415 268.23438L350.91415 272.5L349.86728 272.5L349.86728 268.57812Q349.86728 267.95312 349.7579 267.67188Q349.66415 267.39062 349.39853 267.21875Q349.1329 267.04688 348.7579 267.04688Q348.10165 267.04688 347.66415 267.48438Q347.24228 267.92188 347.24228 268.89062L347.24228 272.5L346.17978 272.5L346.17978 268.45312Q346.17978 267.75 345.91415 267.40625Q345.66415 267.04688 345.08603 267.04688Q344.6329 267.04688 344.2579 267.28125Q343.8829 267.51562 343.71103 267.96875Q343.53915 268.42188 343.53915 269.26562L343.53915 272.5L342.49228 272.5ZM357.74228 270.5L358.83603 270.625Q358.58603 271.57812 357.8829 272.10938Q357.17978 272.64062 356.10165 272.64062Q354.74228 272.64062 353.92978 271.79688Q353.1329 270.95312 353.1329 269.4375Q353.1329 267.875 353.9454 267.01562Q354.7579 266.14062 356.03915 266.14062Q357.28915 266.14062 358.0704 266.98438Q358.86728 267.82812 358.86728 269.375Q358.86728 269.46875 358.86728 269.65625L354.22665 269.65625Q354.28915 270.6875 354.80478 271.23438Q355.3204 271.76562 356.10165 271.76562Q356.67978 271.76562 357.08603 271.46875Q357.5079 271.15625 357.74228 270.5ZM354.28915 268.79688L357.7579 268.79688Q357.6954 268.0 357.36728 267.60938Q356.85165 267.0 356.05478 267.0Q355.3204 267.0 354.8204 267.48438Q354.33603 267.96875 354.28915 268.79688ZM360.0704 269.92188L360.0704 268.85938L363.3204 268.85938L363.3204 269.92188L360.0704 269.92188ZM364.5704 272.5L364.5704 263.90625L365.71103 263.90625L365.71103 271.48438L369.9454 271.48438L369.9454 272.5L364.5704 272.5ZM371.49228 265.125L371.49228 263.90625L372.55478 263.90625L372.55478 265.125L371.49228 265.125ZM371.49228 272.5L371.49228 266.28125L372.55478 266.28125L372.55478 272.5L371.49228 272.5ZM374.28915 273.01562L375.3204 273.17188Q375.3829 273.64062 375.67978 273.85938Q376.0704 274.15625 376.74228 274.15625Q377.47665 274.15625 377.86728 273.85938Q378.27353 273.5625 378.41415 273.04688Q378.5079 272.71875 378.49228 271.6875Q377.80478 272.5 376.77353 272.5Q375.49228 272.5 374.78915 271.57812Q374.08603 270.64062 374.08603 269.35938Q374.08603 268.46875 374.39853 267.71875Q374.72665 266.95312 375.33603 266.54688Q375.9454 266.14062 376.77353 266.14062Q377.8829 266.14062 378.60165 267.03125L378.60165 266.28125L379.5704 266.28125L379.5704 271.65625Q379.5704 273.10938 379.27353 273.71875Q378.97665 274.32812 378.33603 274.67188Q377.6954 275.03125 376.7579 275.03125Q375.64853 275.03125 374.96103 274.53125Q374.27353 274.03125 374.28915 273.01562ZM375.16415 269.28125Q375.16415 270.5 375.64853 271.0625Q376.1329 271.625 376.86728 271.625Q377.60165 271.625 378.08603 271.0625Q378.58603 270.5 378.58603 269.3125Q378.58603 268.17188 378.0704 267.59375Q377.5704 267.01562 376.85165 267.01562Q376.14853 267.01562 375.64853 267.59375Q375.16415 268.15625 375.16415 269.28125ZM381.49228 272.5L381.49228 263.90625L382.53915 263.90625L382.53915 266.98438Q383.27353 266.14062 384.39853 266.14062Q385.10165 266.14062 385.60165 266.42188Q386.11728 266.6875 386.33603 267.17188Q386.55478 267.64062 386.55478 268.5625L386.55478 272.5L385.5079 272.5L385.5079 268.5625Q385.5079 267.76562 385.16415 267.40625Q384.8204 267.04688 384.1954 267.04688Q383.72665 267.04688 383.30478 267.29688Q382.89853 267.53125 382.71103 267.95312Q382.53915 268.35938 382.53915 269.09375L382.53915 272.5L381.49228 272.5ZM390.78915 271.5625L390.9454 272.48438Q390.49228 272.57812 390.14853 272.57812Q389.5704 272.57812 389.2579 272.40625Q388.9454 272.21875 388.80478 271.92188Q388.67978 271.625 388.67978 270.67188L388.67978 267.09375L387.91415 267.09375L387.91415 266.28125L388.67978 266.28125L388.67978 264.73438L389.72665 264.10938L389.72665 266.28125L390.78915 266.28125L390.78915 267.09375L389.72665 267.09375L389.72665 270.73438Q389.72665 271.1875 389.77353 271.3125Q389.83603 271.4375 389.96103 271.51562Q390.08603 271.59375 390.3204 271.59375Q390.5079 271.59375 390.78915 271.5625ZM391.49228 265.125L391.49228 263.90625L392.55478 263.90625L392.55478 265.125L391.49228 265.125ZM391.49228 272.5L391.49228 266.28125L392.55478 266.28125L392.55478 272.5L391.49228 272.5ZM394.49228 272.5L394.49228 266.28125L395.42978 266.28125L395.42978 267.15625Q396.11728 266.14062 397.41415 266.14062Q397.97665 266.14062 398.4454 266.34375Q398.92978 266.54688 399.16415 266.875Q399.39853 267.20312 399.49228 267.64062Q399.53915 267.9375 399.53915 268.67188L399.53915 272.5L398.49228 272.5L398.49228 268.71875Q398.49228 268.0625 398.36728 267.75Q398.24228 267.4375 397.92978 267.25Q397.61728 267.04688 397.1954 267.04688Q396.52353 267.04688 396.02353 267.48438Q395.53915 267.90625 395.53915 269.09375L395.53915 272.5L394.49228 272.5ZM401.28915 273.01562L402.3204 273.17188Q402.3829 273.64062 402.67978 273.85938Q403.0704 274.15625 403.74228 274.15625Q404.47665 274.15625 404.86728 273.85938Q405.27353 273.5625 405.41415 273.04688Q405.5079 272.71875 405.49228 271.6875Q404.80478 272.5 403.77353 272.5Q402.49228 272.5 401.78915 271.57812Q401.08603 270.64062 401.08603 269.35938Q401.08603 268.46875 401.39853 267.71875Q401.72665 266.95312 402.33603 266.54688Q402.9454 266.14062 403.77353 266.14062Q404.8829 266.14062 405.60165 267.03125L405.60165 266.28125L406.5704 266.28125L406.5704 271.65625Q406.5704 273.10938 406.27353 273.71875Q405.97665 274.32812 405.33603 274.67188Q404.6954 275.03125 403.7579 275.03125Q402.64853 275.03125 401.96103 274.53125Q401.27353 274.03125 401.28915 273.01562ZM402.16415 269.28125Q402.16415 270.5 402.64853 271.0625Q403.1329 271.625 403.86728 271.625Q404.60165 271.625 405.08603 271.0625Q405.58603 270.5 405.58603 269.3125Q405.58603 268.17188 405.0704 267.59375Q404.5704 267.01562 403.85165 267.01562Q403.14853 267.01562 402.64853 267.59375Q402.16415 268.15625 402.16415 269.28125Z" fill-rule="nonzero"/><path fill="#000000" d="M446.28897 272.5L449.58585 263.90625L450.8046 263.90625L454.32022 272.5L453.03897 272.5L452.02335 269.89062L448.44522 269.89062L447.4921 272.5L446.28897 272.5ZM448.77335 268.96875L451.6796 268.96875L450.78897 266.59375Q450.3671 265.51562 450.1796 264.8125Q450.00772 265.64062 449.71085 266.45312L448.77335 268.96875ZM454.07022 272.5L454.07022 263.90625L455.13272 263.90625L455.13272 272.5L454.07022 272.5ZM457.07022 272.5L457.07022 263.90625L458.13272 263.90625L458.13272 272.5L457.07022 272.5ZM464.35147 270.5L465.44522 270.625Q465.19522 271.57812 464.4921 272.10938Q463.78897 272.64062 462.71085 272.64062Q461.35147 272.64062 460.53897 271.79688Q459.7421 270.95312 459.7421 269.4375Q459.7421 267.875 460.5546 267.01562Q461.3671 266.14062 462.64835 266.14062Q463.89835 266.14062 464.6796 266.98438Q465.47647 267.82812 465.47647 269.375Q465.47647 269.46875 465.47647 269.65625L460.83585 269.65625Q460.89835 270.6875 461.41397 271.23438Q461.9296 271.76562 462.71085 271.76562Q463.28897 271.76562 463.69522 271.46875Q464.1171 271.15625 464.35147 270.5ZM460.89835 268.79688L464.3671 268.79688Q464.3046 268.0 463.97647 267.60938Q463.46085 267.0 462.66397 267.0Q461.9296 267.0 461.4296 267.48438Q460.94522 267.96875 460.89835 268.79688ZM470.22647 272.5L470.22647 263.90625L473.47647 263.90625Q474.32022 263.90625 474.77335 263.98438Q475.41397 264.09375 475.83585 264.39062Q476.27335 264.6875 476.52335 265.21875Q476.78897 265.75 476.78897 266.39062Q476.78897 267.48438 476.08585 268.25Q475.39835 269.0 473.57022 269.0L471.3671 269.0L471.3671 272.5L470.22647 272.5ZM471.3671 268.0L473.58585 268.0Q474.69522 268.0 475.14835 267.59375Q475.6171 267.17188 475.6171 266.42188Q475.6171 265.89062 475.33585 265.51562Q475.07022 265.125 474.63272 265.0Q474.33585 264.92188 473.57022 264.92188L471.3671 264.92188L471.3671 268.0ZM482.1796 272.5L482.1796 271.57812Q481.44522 272.64062 480.19522 272.64062Q479.64835 272.64062 479.16397 272.4375Q478.69522 272.21875 478.46085 271.90625Q478.22647 271.57812 478.13272 271.10938Q478.07022 270.8125 478.07022 270.125L478.07022 266.28125L479.13272 266.28125L479.13272 269.73438Q479.13272 270.54688 479.19522 270.84375Q479.28897 271.25 479.60147 271.5Q479.9296 271.73438 480.41397 271.73438Q480.88272 271.73438 481.28897 271.5Q481.71085 271.25 481.88272 270.82812Q482.07022 270.40625 482.07022 269.60938L482.07022 266.28125L483.1171 266.28125L483.1171 272.5L482.1796 272.5ZM485.10147 272.5L485.10147 266.28125L486.03897 266.28125L486.03897 267.15625Q486.72647 266.14062 488.02335 266.14062Q488.58585 266.14062 489.0546 266.34375Q489.53897 266.54688 489.77335 266.875Q490.00772 267.20312 490.10147 267.64062Q490.14835 267.9375 490.14835 268.67188L490.14835 272.5L489.10147 272.5L489.10147 268.71875Q489.10147 268.0625 488.97647 267.75Q488.85147 267.4375 488.53897 267.25Q488.22647 267.04688 487.8046 267.04688Q487.13272 267.04688 486.63272 267.48438Q486.14835 267.90625 486.14835 269.09375L486.14835 272.5L485.10147 272.5ZM492.10147 272.5L492.10147 263.90625L493.16397 263.90625L493.16397 268.8125L495.64835 266.28125L497.02335 266.28125L494.63272 268.57812L497.25772 272.5L495.96085 272.5L493.89835 269.3125L493.16397 270.03125L493.16397 272.5L492.10147 272.5ZM500.39835 271.5625L500.5546 272.48438Q500.10147 272.57812 499.75772 272.57812Q499.1796 272.57812 498.8671 272.40625Q498.5546 272.21875 498.41397 271.92188Q498.28897 271.625 498.28897 270.67188L498.28897 267.09375L497.52335 267.09375L497.52335 266.28125L498.28897 266.28125L498.28897 264.73438L499.33585 264.10938L499.33585 266.28125L500.39835 266.28125L500.39835 267.09375L499.33585 267.09375L499.33585 270.73438Q499.33585 271.1875 499.38272 271.3125Q499.44522 271.4375 499.57022 271.51562Q499.69522 271.59375 499.9296 271.59375Q500.1171 271.59375 500.39835 271.5625ZM505.35147 270.5L506.44522 270.625Q506.19522 271.57812 505.4921 272.10938Q504.78897 272.64062 503.71085 272.64062Q502.35147 272.64062 501.53897 271.79688Q500.7421 270.95312 500.7421 269.4375Q500.7421 267.875 501.5546 267.01562Q502.3671 266.14062 503.64835 266.14062Q504.89835 266.14062 505.6796 266.98438Q506.47647 267.82812 506.47647 269.375Q506.47647 269.46875 506.47647 269.65625L501.83585 269.65625Q501.89835 270.6875 502.41397 271.23438Q502.9296 271.76562 503.71085 271.76562Q504.28897 271.76562 504.69522 271.46875Q505.1171 271.15625 505.35147 270.5ZM501.89835 268.79688L505.3671 268.79688Q505.3046 268.0 504.97647 267.60938Q504.46085 267.0 503.66397 267.0Q502.9296 267.0 502.4296 267.48438Q501.94522 267.96875 501.89835 268.79688Z" fill-rule="nonzero"/><path fill="#000000" d="M548.3982 272.5L551.69507 263.90625L552.9138 263.90625L556.42944 272.5L555.1482 272.5L554.13257 269.89062L550.55444 269.89062L549.6013 272.5L548.3982 272.5ZM550.88257 268.96875L553.7888 268.96875L552.8982 266.59375Q552.4763 265.51562 552.2888 264.8125Q552.11694 265.64062 551.82007 266.45312L550.88257 268.96875ZM556.17944 272.5L556.17944 263.90625L557.24194 263.90625L557.24194 272.5L556.17944 272.5ZM559.17944 272.5L559.17944 263.90625L560.24194 263.90625L560.24194 272.5L559.17944 272.5ZM566.4607 270.5L567.55444 270.625Q567.30444 271.57812 566.6013 272.10938Q565.8982 272.64062 564.82007 272.64062Q563.4607 272.64062 562.6482 271.79688Q561.8513 270.95312 561.8513 269.4375Q561.8513 267.875 562.6638 267.01562Q563.4763 266.14062 564.75757 266.14062Q566.00757 266.14062 566.7888 266.98438Q567.5857 267.82812 567.5857 269.375Q567.5857 269.46875 567.5857 269.65625L562.94507 269.65625Q563.00757 270.6875 563.5232 271.23438Q564.0388 271.76562 564.82007 271.76562Q565.3982 271.76562 565.80444 271.46875Q566.2263 271.15625 566.4607 270.5ZM563.00757 268.79688L566.4763 268.79688Q566.4138 268.0 566.0857 267.60938Q565.57007 267.0 564.7732 267.0Q564.0388 267.0 563.5388 267.48438Q563.05444 267.96875 563.00757 268.79688ZM572.3357 272.5L572.3357 263.90625L575.5857 263.90625Q576.42944 263.90625 576.88257 263.98438Q577.5232 264.09375 577.94507 264.39062Q578.38257 264.6875 578.63257 265.21875Q578.8982 265.75 578.8982 266.39062Q578.8982 267.48438 578.19507 268.25Q577.50757 269.0 575.67944 269.0L573.4763 269.0L573.4763 272.5L572.3357 272.5ZM573.4763 268.0L575.69507 268.0Q576.80444 268.0 577.25757 267.59375Q577.7263 267.17188 577.7263 266.42188Q577.7263 265.89062 577.44507 265.51562Q577.17944 265.125 576.74194 265.0Q576.44507 264.92188 575.67944 264.92188L573.4763 264.92188L573.4763 268.0ZM584.2888 272.5L584.2888 271.57812Q583.55444 272.64062 582.30444 272.64062Q581.75757 272.64062 581.2732 272.4375Q580.80444 272.21875 580.57007 271.90625Q580.3357 271.57812 580.24194 271.10938Q580.17944 270.8125 580.17944 270.125L580.17944 266.28125L581.24194 266.28125L581.24194 269.73438Q581.24194 270.54688 581.30444 270.84375Q581.3982 271.25 581.7107 271.5Q582.0388 271.73438 582.5232 271.73438Q582.99194 271.73438 583.3982 271.5Q583.82007 271.25 583.99194 270.82812Q584.17944 270.40625 584.17944 269.60938L584.17944 266.28125L585.2263 266.28125L585.2263 272.5L584.2888 272.5ZM587.2107 272.5L587.2107 266.28125L588.1482 266.28125L588.1482 267.15625Q588.8357 266.14062 590.13257 266.14062Q590.69507 266.14062 591.1638 266.34375Q591.6482 266.54688 591.88257 266.875Q592.11694 267.20312 592.2107 267.64062Q592.25757 267.9375 592.25757 268.67188L592.25757 272.5L591.2107 272.5L591.2107 268.71875Q591.2107 268.0625 591.0857 267.75Q590.9607 267.4375 590.6482 267.25Q590.3357 267.04688 589.9138 267.04688Q589.24194 267.04688 588.74194 267.48438Q588.25757 267.90625 588.25757 269.09375L588.25757 272.5L587.2107 272.5ZM594.2107 272.5L594.2107 263.90625L595.2732 263.90625L595.2732 268.8125L597.75757 266.28125L599.13257 266.28125L596.74194 268.57812L599.36694 272.5L598.07007 272.5L596.00757 269.3125L595.2732 270.03125L595.2732 272.5L594.2107 272.5ZM602.50757 271.5625L602.6638 272.48438Q602.2107 272.57812 601.86694 272.57812Q601.2888 272.57812 600.9763 272.40625Q600.6638 272.21875 600.5232 271.92188Q600.3982 271.625 600.3982 270.67188L600.3982 267.09375L599.63257 267.09375L599.63257 266.28125L600.3982 266.28125L600.3982 264.73438L601.44507 264.10938L601.44507 266.28125L602.50757 266.28125L602.50757 267.09375L601.44507 267.09375L601.44507 270.73438Q601.44507 271.1875 601.49194 271.3125Q601.55444 271.4375 601.67944 271.51562Q601.80444 271.59375 602.0388 271.59375Q602.2263 271.59375 602.50757 271.5625ZM607.4607 270.5L608.55444 270.625Q608.30444 271.57812 607.6013 272.10938Q606.8982 272.64062 605.82007 272.64062Q604.4607 272.64062 603.6482 271.79688Q602.8513 270.95312 602.8513 269.4375Q602.8513 267.875 603.6638 267.01562Q604.4763 266.14062 605.75757 266.14062Q607.00757 266.14062 607.7888 266.98438Q608.5857 267.82812 608.5857 269.375Q608.5857 269.46875 608.5857 269.65625L603.94507 269.65625Q604.00757 270.6875 604.5232 271.23438Q605.0388 271.76562 605.82007 271.76562Q606.3982 271.76562 606.80444 271.46875Q607.2263 271.15625 607.4607 270.5ZM604.00757 268.79688L607.4763 268.79688Q607.4138 268.0 607.0857 267.60938Q606.57007 267.0 605.7732 267.0Q605.0388 267.0 604.5388 267.48438Q604.05444 267.96875 604.00757 268.79688ZM615.4138 271.10938L615.4138 268.75L613.0857 268.75L613.0857 267.76562L615.4138 267.76562L615.4138 265.4375L616.4138 265.4375L616.4138 267.76562L618.75757 267.76562L618.75757 268.75L616.4138 268.75L616.4138 271.10938L615.4138 271.10938ZM623.36694 272.5L623.36694 263.90625L629.57007 263.90625L629.57007 264.92188L624.50757 264.92188L624.50757 267.54688L629.25757 267.54688L629.25757 268.5625L624.50757 268.5625L624.50757 271.48438L629.7732 271.48438L629.7732 272.5L623.36694 272.5ZM631.1638 274.89062L631.0388 273.90625Q631.38257 274.0 631.6482 274.0Q631.99194 274.0 632.19507 273.875Q632.4138 273.76562 632.55444 273.5625Q632.6482 273.39062 632.88257 272.76562Q632.8982 272.6875 632.9763 272.51562L630.6013 266.28125L631.74194 266.28125L633.0388 269.875Q633.2888 270.5625 633.49194 271.32812Q633.67944 270.59375 633.92944 269.90625L635.25757 266.28125L636.30444 266.28125L633.94507 272.60938Q633.55444 273.625 633.3513 274.01562Q633.07007 274.54688 632.69507 274.78125Q632.3357 275.03125 631.8357 275.03125Q631.5388 275.03125 631.1638 274.89062ZM640.4607 270.5L641.55444 270.625Q641.30444 271.57812 640.6013 272.10938Q639.8982 272.64062 638.82007 272.64062Q637.4607 272.64062 636.6482 271.79688Q635.8513 270.95312 635.8513 269.4375Q635.8513 267.875 636.6638 267.01562Q637.4763 266.14062 638.75757 266.14062Q640.00757 266.14062 640.7888 266.98438Q641.5857 267.82812 641.5857 269.375Q641.5857 269.46875 641.5857 269.65625L636.94507 269.65625Q637.00757 270.6875 637.5232 271.23438Q638.0388 271.76562 638.82007 271.76562Q639.3982 271.76562 639.80444 271.46875Q640.2263 271.15625 640.4607 270.5ZM637.00757 268.79688L640.4763 268.79688Q640.4138 268.0 640.0857 267.60938Q639.57007 267.0 638.7732 267.0Q638.0388 267.0 637.5388 267.48438Q637.05444 267.96875 637.00757 268.79688ZM642.7888 269.92188L642.7888 268.85938L646.0388 268.85938L646.0388 269.92188L642.7888 269.92188ZM647.3357 272.5L647.3357 263.90625L650.30444 263.90625Q651.30444 263.90625 651.8357 264.03125Q652.57007 264.20312 653.0857 264.64062Q653.7732 265.21875 654.1013 266.125Q654.44507 267.01562 654.44507 268.15625Q654.44507 269.14062 654.2107 269.89062Q653.99194 270.64062 653.63257 271.14062Q653.2732 271.64062 652.8357 271.92188Q652.4138 272.20312 651.82007 272.35938Q651.2263 272.5 650.44507 272.5L647.3357 272.5ZM648.4763 271.48438L650.30444 271.48438Q651.1638 271.48438 651.6482 271.32812Q652.13257 271.17188 652.4138 270.875Q652.82007 270.48438 653.0388 269.79688Q653.2732 269.10938 653.2732 268.14062Q653.2732 266.79688 652.82007 266.07812Q652.38257 265.34375 651.75757 265.09375Q651.2888 264.92188 650.2888 264.92188L648.4763 264.92188L648.4763 271.48438ZM655.82007 269.39062Q655.82007 267.65625 656.7732 266.82812Q657.57007 266.14062 658.7263 266.14062Q660.00757 266.14062 660.82007 266.98438Q661.6482 267.8125 661.6482 269.29688Q661.6482 270.5 661.2888 271.1875Q660.92944 271.875 660.2263 272.26562Q659.5388 272.64062 658.7263 272.64062Q657.42944 272.64062 656.61694 271.8125Q655.82007 270.96875 655.82007 269.39062ZM656.8982 269.39062Q656.8982 270.57812 657.4138 271.17188Q657.94507 271.76562 658.7263 271.76562Q659.5232 271.76562 660.0388 271.17188Q660.55444 270.57812 660.55444 269.35938Q660.55444 268.20312 660.0232 267.60938Q659.50757 267.01562 658.7263 267.01562Q657.94507 267.01562 657.4138 267.60938Q656.8982 268.1875 656.8982 269.39062ZM663.2107 272.5L663.2107 266.28125L664.1482 266.28125L664.1482 267.15625Q664.44507 266.6875 664.92944 266.42188Q665.4138 266.14062 666.0388 266.14062Q666.7263 266.14062 667.1638 266.42188Q667.61694 266.70312 667.7888 267.21875Q668.5388 266.14062 669.7107 266.14062Q670.6482 266.14062 671.13257 266.65625Q671.63257 267.15625 671.63257 268.23438L671.63257 272.5L670.5857 272.5L670.5857 268.57812Q670.5857 267.95312 670.4763 267.67188Q670.38257 267.39062 670.11694 267.21875Q669.8513 267.04688 669.4763 267.04688Q668.82007 267.04688 668.38257 267.48438Q667.9607 267.92188 667.9607 268.89062L667.9607 272.5L666.8982 272.5L666.8982 268.45312Q666.8982 267.75 666.63257 267.40625Q666.38257 267.04688 665.80444 267.04688Q665.3513 267.04688 664.9763 267.28125Q664.6013 267.51562 664.42944 267.96875Q664.25757 268.42188 664.25757 269.26562L664.25757 272.5L663.2107 272.5ZM678.4607 270.5L679.55444 270.625Q679.30444 271.57812 678.6013 272.10938Q677.8982 272.64062 676.82007 272.64062Q675.4607 272.64062 674.6482 271.79688Q673.8513 270.95312 673.8513 269.4375Q673.8513 267.875 674.6638 267.01562Q675.4763 266.14062 676.75757 266.14062Q678.00757 266.14062 678.7888 266.98438Q679.5857 267.82812 679.5857 269.375Q679.5857 269.46875 679.5857 269.65625L674.94507 269.65625Q675.00757 270.6875 675.5232 271.23438Q676.0388 271.76562 676.82007 271.76562Q677.3982 271.76562 677.80444 271.46875Q678.2263 271.15625 678.4607 270.5ZM675.00757 268.79688L678.4763 268.79688Q678.4138 268.0 678.0857 267.60938Q677.57007 267.0 676.7732 267.0Q676.0388 267.0 675.5388 267.48438Q675.05444 267.96875 675.00757 268.79688ZM680.7888 269.92188L680.7888 268.85938L684.0388 268.85938L684.0388 269.92188L680.7888 269.92188ZM685.2888 272.5L685.2888 263.90625L686.42944 263.90625L686.42944 271.48438L690.6638 271.48438L690.6638 272.5L685.2888 272.5ZM692.2107 265.125L692.2107 263.90625L693.2732 263.90625L693.2732 265.125L692.2107 265.125ZM692.2107 272.5L692.2107 266.28125L693.2732 266.28125L693.2732 272.5L692.2107 272.5ZM695.00757 273.01562L696.0388 273.17188Q696.1013 273.64062 696.3982 273.85938Q696.7888 274.15625 697.4607 274.15625Q698.19507 274.15625 698.5857 273.85938Q698.99194 273.5625 699.13257 273.04688Q699.2263 272.71875 699.2107 271.6875Q698.5232 272.5 697.49194 272.5Q696.2107 272.5 695.50757 271.57812Q694.80444 270.64062 694.80444 269.35938Q694.80444 268.46875 695.11694 267.71875Q695.44507 266.95312 696.05444 266.54688Q696.6638 266.14062 697.49194 266.14062Q698.6013 266.14062 699.32007 267.03125L699.32007 266.28125L700.2888 266.28125L700.2888 271.65625Q700.2888 273.10938 699.99194 273.71875Q699.69507 274.32812 699.05444 274.67188Q698.4138 275.03125 697.4763 275.03125Q696.36694 275.03125 695.67944 274.53125Q694.99194 274.03125 695.00757 273.01562ZM695.88257 269.28125Q695.88257 270.5 696.36694 271.0625Q696.8513 271.625 697.5857 271.625Q698.32007 271.625 698.80444 271.0625Q699.30444 270.5 699.30444 269.3125Q699.30444 268.17188 698.7888 267.59375Q698.2888 267.01562 697.57007 267.01562Q696.86694 267.01562 696.36694 267.59375Q695.88257 268.15625 695.88257 269.28125ZM702.2107 272.5L702.2107 263.90625L703.25757 263.90625L703.25757 266.98438Q703.99194 266.14062 705.11694 266.14062Q705.82007 266.14062 706.32007 266.42188Q706.8357 266.6875 707.05444 267.17188Q707.2732 267.64062 707.2732 268.5625L707.2732 272.5L706.2263 272.5L706.2263 268.5625Q706.2263 267.76562 705.88257 267.40625Q705.5388 267.04688 704.9138 267.04688Q704.44507 267.04688 704.0232 267.29688Q703.61694 267.53125 703.42944 267.95312Q703.25757 268.35938 703.25757 269.09375L703.25757 272.5L702.2107 272.5ZM711.50757 271.5625L711.6638 272.48438Q711.2107 272.57812 710.86694 272.57812Q710.2888 272.57812 709.9763 272.40625Q709.6638 272.21875 709.5232 271.92188Q709.3982 271.625 709.3982 270.67188L709.3982 267.09375L708.63257 267.09375L708.63257 266.28125L709.3982 266.28125L709.3982 264.73438L710.44507 264.10938L710.44507 266.28125L711.50757 266.28125L711.50757 267.09375L710.44507 267.09375L710.44507 270.73438Q710.44507 271.1875 710.49194 271.3125Q710.55444 271.4375 710.67944 271.51562Q710.80444 271.59375 711.0388 271.59375Q711.2263 271.59375 711.50757 271.5625ZM712.2107 265.125L712.2107 263.90625L713.2732 263.90625L713.2732 265.125L712.2107 265.125ZM712.2107 272.5L712.2107 266.28125L713.2732 266.28125L713.2732 272.5L712.2107 272.5ZM715.2107 272.5L715.2107 266.28125L716.1482 266.28125L716.1482 267.15625Q716.8357 266.14062 718.13257 266.14062Q718.69507 266.14062 719.1638 266.34375Q719.6482 266.54688 719.88257 266.875Q720.11694 267.20312 720.2107 267.64062Q720.25757 267.9375 720.25757 268.67188L720.25757 272.5L719.2107 272.5L719.2107 268.71875Q719.2107 268.0625 719.0857 267.75Q718.9607 267.4375 718.6482 267.25Q718.3357 267.04688 717.9138 267.04688Q717.24194 267.04688 716.74194 267.48438Q716.25757 267.90625 716.25757 269.09375L716.25757 272.5L715.2107 272.5ZM722.00757 273.01562L723.0388 273.17188Q723.1013 273.64062 723.3982 273.85938Q723.7888 274.15625 724.4607 274.15625Q725.19507 274.15625 725.5857 273.85938Q725.99194 273.5625 726.13257 273.04688Q726.2263 272.71875 726.2107 271.6875Q725.5232 272.5 724.49194 272.5Q723.2107 272.5 722.50757 271.57812Q721.80444 270.64062 721.80444 269.35938Q721.80444 268.46875 722.11694 267.71875Q722.44507 266.95312 723.05444 266.54688Q723.6638 266.14062 724.49194 266.14062Q725.6013 266.14062 726.32007 267.03125L726.32007 266.28125L727.2888 266.28125L727.2888 271.65625Q727.2888 273.10938 726.99194 273.71875Q726.69507 274.32812 726.05444 274.67188Q725.4138 275.03125 724.4763 275.03125Q723.36694 275.03125 722.67944 274.53125Q721.99194 274.03125 722.00757 273.01562ZM722.88257 269.28125Q722.88257 270.5 723.36694 271.0625Q723.8513 271.625 724.5857 271.625Q725.32007 271.625 725.80444 271.0625Q726.30444 270.5 726.30444 269.3125Q726.30444 268.17188 725.7888 267.59375Q725.2888 267.01562 724.57007 267.01562Q723.86694 267.01562 723.36694 267.59375Q722.88257 268.15625 722.88257 269.28125Z" fill-rule="nonzero"/></svg>