<?xml version="1.0" encoding="UTF-8" standalone="no"?>
<svg
   version="1.1"
   viewBox="0 0 669.54999 203.25626"
   fill="none"
   stroke="none"
   stroke-linecap="square"
   stroke-miterlimit="10"
   width="669.54999"
   height="203.25626"
   id="svg24"
   xmlns="http://www.w3.org/2000/svg"
   xmlns:svg="http://www.w3.org/2000/svg">
  <defs
     id="defs24" />
  <path
     stroke="#333333"
     stroke-width="1"
     stroke-linecap="butt"
     d="m 39.55,169.675 h 630"
     fill-rule="nonzero"
     id="path2" />
  <path
     stroke="#cccccc"
     stroke-width="1"
     stroke-linecap="butt"
     d="m 39.55,114.675 h 630"
     fill-rule="nonzero"
     id="path3" />
  <path
     stroke="#cccccc"
     stroke-width="1"
     stroke-linecap="butt"
     d="m 39.55,59.674999 h 630"
     fill-rule="nonzero"
     id="path4" />
  <path
     stroke="#cccccc"
     stroke-width="1"
     stroke-linecap="butt"
     d="m 39.55,4.6749992 h 630"
     fill-rule="nonzero"
     id="path5" />
  <clipPath
     id="id_0">
    <path
       d="m 51.45,18.45 h 630.1 v 165.1 H 51.45 Z"
       clip-rule="nonzero"
       id="path6" />
  </clipPath>
  <path
     stroke="#000000"
     stroke-width="2"
     stroke-linecap="butt"
     stroke-opacity="0"
     clip-path="url(#id_0)"
     d="M 196,184 H 102 V 52 c 0,-1.10457 0.89543,-2 2,-2 h 90 c 1.10457,0 2,0.89543 2,2 z"
     fill-rule="nonzero"
     id="path7"
     transform="translate(-11.95,-13.825001)" />
  <path
     fill="#4285f4"
     clip-path="url(#id_0)"
     d="M 196,184 H 102 V 52 c 0,-1.10457 0.89543,-2 2,-2 h 90 c 1.10457,0 2,0.89543 2,2 z"
     fill-rule="nonzero"
     id="path8"
     transform="translate(-11.95,-13.825001)" />
  <path
     stroke="#000000"
     stroke-width="2"
     stroke-linecap="butt"
     stroke-opacity="0"
     clip-path="url(#id_0)"
     d="m 341,184 h -94 v -41 c 0,-1.10457 0.89543,-2 2,-2 h 90 c 1.10458,0 2,0.89543 2,2 z"
     fill-rule="nonzero"
     id="path9"
     transform="translate(-11.95,-13.825001)" />
  <path
     fill="#4285f4"
     clip-path="url(#id_0)"
     d="m 341,184 h -94 v -41 c 0,-1.10457 0.89543,-2 2,-2 h 90 c 1.10458,0 2,0.89543 2,2 z"
     fill-rule="nonzero"
     id="path10"
     transform="translate(-11.95,-13.825001)" />
  <path
     stroke="#000000"
     stroke-width="2"
     stroke-linecap="butt"
     stroke-opacity="0"
     clip-path="url(#id_0)"
     d="M 486,184 H 392 V 53 c 0,-1.10457 0.89542,-2 2,-2 h 90 c 1.10458,0 2,0.89543 2,2 z"
     fill-rule="nonzero"
     id="path11"
     transform="translate(-11.95,-13.825001)" />
  <path
     fill="#4285f4"
     clip-path="url(#id_0)"
     d="M 486,184 H 392 V 53 c 0,-1.10457 0.89542,-2 2,-2 h 90 c 1.10458,0 2,0.89543 2,2 z"
     fill-rule="nonzero"
     id="path12"
     transform="translate(-11.95,-13.825001)" />
  <path
     stroke="#000000"
     stroke-width="2"
     stroke-linecap="butt"
     stroke-opacity="0"
     clip-path="url(#id_0)"
     d="m 631,184 h -94 v -41 c 0,-1.10457 0.89545,-2 2,-2 h 90 c 1.10455,0 2,0.89543 2,2 z"
     fill-rule="nonzero"
     id="path13"
     transform="translate(-11.95,-13.825001)" />
  <path
     fill="#4285f4"
     clip-path="url(#id_0)"
     d="m 631,184 h -94 v -41 c 0,-1.10457 0.89545,-2 2,-2 h 90 c 1.10455,0 2,0.89543 2,2 z"
     fill-rule="nonzero"
     id="path14"
     transform="translate(-11.95,-13.825001)" />
  <path
     fill="#000000"
     d="m 1.9073486e-7,169.49063 q 0,-1.53125 0.31249999926514,-2.45313 0.3125,-0.9375 0.92187501,-1.4375 0.625,-0.5 1.5625,-0.5 0.6875,0 1.203125,0.28125 0.53125,0.28125 0.875,0.8125 0.34375,0.51563 0.53125,1.26563 0.1875,0.75 0.1875,2.03125 0,1.51562 -0.3125,2.4375 -0.296874,0.92187 -0.921874,1.4375 -0.609376,0.5 -1.562501,0.5 -1.234375,0 -1.95312501,-0.89063 Q 1.9073486e-7,171.9125 1.9073486e-7,169.49063 Z m 1.07812500926514,0 q 0,2.10937 0.5,2.8125 0.5,0.70312 1.21875,0.70312 0.734375,0 1.21875,-0.70312 0.500001,-0.70313 0.500001,-2.8125 0,-2.125 -0.500001,-2.8125 -0.484375,-0.70313 -1.234375,-0.70313 -0.71875,0 -1.15625,0.60938 -0.546875,0.78125 -0.546875,2.90625 z m 6.515625,4.23437 v -1.20312 h 1.203126 V 173.725 Z M 10,169.49063 q 0,-1.53125 0.3125,-2.45313 0.3125,-0.9375 0.921876,-1.4375 0.625,-0.5 1.5625,-0.5 0.6875,0 1.203124,0.28125 0.53125,0.28125 0.875,0.8125 0.34375,0.51563 0.53125,1.26563 0.1875,0.75 0.1875,2.03125 0,1.51562 -0.3125,2.4375 -0.296874,0.92187 -0.921874,1.4375 -0.609376,0.5 -1.5625,0.5 -1.234376,0 -1.953126,-0.89063 Q 10,171.9125 10,169.49063 Z m 1.078126,0 q 0,2.10937 0.5,2.8125 0.5,0.70312 1.21875,0.70312 0.734374,0 1.21875,-0.70312 0.5,-0.70313 0.5,-2.8125 0,-2.125 -0.5,-2.8125 -0.484376,-0.70313 -1.234376,-0.70313 -0.71875,0 -1.15625,0.60938 -0.546874,0.78125 -0.546874,2.90625 z m 5.921874,0 q 0,-1.53125 0.3125,-2.45313 0.3125,-0.9375 0.921876,-1.4375 0.625,-0.5 1.5625,-0.5 0.6875,0 1.203124,0.28125 0.53125,0.28125 0.875,0.8125 0.34375,0.51563 0.53125,1.26563 0.1875,0.75 0.1875,2.03125 0,1.51562 -0.3125,2.4375 -0.296874,0.92187 -0.921874,1.4375 -0.609376,0.5 -1.5625,0.5 -1.234376,0 -1.953126,-0.89063 Q 17,171.9125 17,169.49063 Z m 1.078126,0 q 0,2.10937 0.5,2.8125 0.5,0.70312 1.21875,0.70312 0.734374,0 1.21875,-0.70312 0.5,-0.70313 0.5,-2.8125 0,-2.125 -0.5,-2.8125 -0.484376,-0.70313 -1.234376,-0.70313 -0.71875,0 -1.15625,0.60938 -0.546874,0.78125 -0.546874,2.90625 z m 8.796874,2.375 1.03125,-0.15625 q 0.09375,0.625 0.484376,0.95312 0.40625,0.32813 1.140624,0.32813 0.71875,0 1.0625,-0.28125 0.359376,-0.29688 0.359376,-0.70313 0,-0.35937 -0.3125,-0.5625 -0.21875,-0.14062 -1.078126,-0.35937 -1.15625,-0.29688 -1.609374,-0.5 -0.4375,-0.21875 -0.671876,-0.59375 -0.234374,-0.375 -0.234374,-0.84375 0,-0.40625 0.1875,-0.76563 0.1875,-0.35937 0.515624,-0.59375 0.25,-0.17187 0.671876,-0.29687 0.421874,-0.125 0.921874,-0.125 0.71875,0 1.265626,0.21875 0.5625,0.20312 0.828124,0.5625 0.265626,0.35937 0.359376,0.95312 l -1.03125,0.14063 q -0.0625,-0.46875 -0.40625,-0.73438 -0.328126,-0.28125 -0.953126,-0.28125 -0.71875,0 -1.03125,0.25 -0.3125,0.23438 -0.3125,0.5625 0,0.20313 0.125,0.35938 0.140626,0.17187 0.40625,0.28125 0.15625,0.0625 0.9375,0.26562 1.125,0.3125 1.5625,0.5 0.4375,0.1875 0.6875,0.54688 0.25,0.35937 0.25,0.90625 0,0.53125 -0.3125,1 -0.296874,0.45312 -0.875,0.71875 -0.578124,0.25 -1.3125,0.25 -1.21875,0 -1.859374,-0.5 -0.625,-0.51563 -0.796876,-1.5 z"
     fill-rule="nonzero"
     id="path15" />
  <path
     fill="#000000"
     d="m 1.9073486e-7,114.45729 q 0,-1.53125 0.31249999926514,-2.45313 0.3125,-0.9375 0.92187501,-1.4375 0.625,-0.5 1.5625,-0.5 0.6875,0 1.203125,0.28125 0.53125,0.28125 0.875,0.8125 0.34375,0.51563 0.53125,1.26563 0.1875,0.75 0.1875,2.03125 0,1.51562 -0.3125,2.4375 -0.296874,0.92187 -0.921874,1.4375 -0.609376,0.5 -1.562501,0.5 -1.234375,0 -1.95312501,-0.89063 Q 1.9073486e-7,116.87916 1.9073486e-7,114.45729 Z m 1.07812500926514,0 q 0,2.10937 0.5,2.8125 0.5,0.70312 1.21875,0.70312 0.734375,0 1.21875,-0.70312 0.500001,-0.70313 0.500001,-2.8125 0,-2.125 -0.500001,-2.8125 -0.484375,-0.70313 -1.234375,-0.70313 -0.71875,0 -1.15625,0.60938 -0.546875,0.78125 -0.546875,2.90625 z m 6.515625,4.23437 v -1.20312 h 1.203126 v 1.20312 z M 10,114.45729 q 0,-1.53125 0.3125,-2.45313 0.3125,-0.9375 0.921876,-1.4375 0.625,-0.5 1.5625,-0.5 0.6875,0 1.203124,0.28125 0.53125,0.28125 0.875,0.8125 0.34375,0.51563 0.53125,1.26563 0.1875,0.75 0.1875,2.03125 0,1.51562 -0.3125,2.4375 -0.296874,0.92187 -0.921874,1.4375 -0.609376,0.5 -1.5625,0.5 -1.234376,0 -1.953126,-0.89063 Q 10,116.87916 10,114.45729 Z m 1.078126,0 q 0,2.10937 0.5,2.8125 0.5,0.70312 1.21875,0.70312 0.734374,0 1.21875,-0.70312 0.5,-0.70313 0.5,-2.8125 0,-2.125 -0.5,-2.8125 -0.484376,-0.70313 -1.234376,-0.70313 -0.71875,0 -1.15625,0.60938 -0.546874,0.78125 -0.546874,2.90625 z m 11.46875,3.21875 v 1.01562 h -5.6875 q 0,-0.375 0.125,-0.73437 0.21875,-0.57813 0.6875,-1.14063 0.484374,-0.5625 1.390624,-1.29687 1.40625,-1.15625 1.890626,-1.82813 0.5,-0.67187 0.5,-1.26562 0,-0.625 -0.453126,-1.04688 -0.453124,-0.4375 -1.171874,-0.4375 -0.765626,0 -1.21875,0.45313 -0.453126,0.45312 -0.46875,1.26562 L 17.0625,112.55104 q 0.109376,-1.21875 0.828126,-1.84375 0.734374,-0.64063 1.96875,-0.64063 1.234374,0 1.953124,0.6875 0.71875,0.6875 0.71875,1.70313 0,0.51562 -0.21875,1.01562 -0.203124,0.48438 -0.703124,1.04688 -0.484376,0.54687 -1.609376,1.5 -0.953124,0.79687 -1.234374,1.09375 -0.265626,0.28125 -0.4375,0.5625 z m 4.328124,-0.84375 1.03125,-0.15625 q 0.09375,0.625 0.484376,0.95312 0.40625,0.32813 1.140624,0.32813 0.71875,0 1.0625,-0.28125 0.359376,-0.29688 0.359376,-0.70313 0,-0.35937 -0.3125,-0.5625 -0.21875,-0.14062 -1.078126,-0.35937 -1.15625,-0.29688 -1.609374,-0.5 -0.4375,-0.21875 -0.671876,-0.59375 -0.234374,-0.375 -0.234374,-0.84375 0,-0.40625 0.1875,-0.76563 0.1875,-0.35937 0.515624,-0.59375 0.25,-0.17187 0.671876,-0.29687 0.421874,-0.125 0.921874,-0.125 0.71875,0 1.265626,0.21875 0.5625,0.20312 0.828124,0.5625 0.265626,0.35937 0.359376,0.95312 l -1.03125,0.14063 q -0.0625,-0.46875 -0.40625,-0.73438 -0.328126,-0.28125 -0.953126,-0.28125 -0.71875,0 -1.03125,0.25 -0.3125,0.23438 -0.3125,0.5625 0,0.20313 0.125,0.35938 0.140626,0.17187 0.40625,0.28125 0.15625,0.0625 0.9375,0.26562 1.125,0.3125 1.5625,0.5 0.4375,0.1875 0.6875,0.54688 0.25,0.35937 0.25,0.90625 0,0.53125 -0.3125,1 -0.296874,0.45312 -0.875,0.71875 -0.578124,0.25 -1.3125,0.25 -1.21875,0 -1.859374,-0.5 -0.625,-0.51563 -0.796876,-1.5 z"
     fill-rule="nonzero"
     id="path16" />
  <path
     fill="#000000"
     d="m 1.9073486e-7,59.423954 q 0,-1.53125 0.31249999926514,-2.453125 0.3125,-0.9375 0.92187501,-1.4375 0.625,-0.5 1.5625,-0.5 0.6875,0 1.203125,0.28125 0.53125,0.28125 0.875,0.8125 0.34375,0.515625 0.53125,1.265625 0.1875,0.75 0.1875,2.03125 0,1.515625 -0.3125,2.4375 -0.296874,0.921875 -0.921874,1.4375 -0.609376,0.5 -1.562501,0.5 -1.234375,0 -1.95312501,-0.890625 Q 1.9073486e-7,61.845829 1.9073486e-7,59.423954 Z m 1.07812500926514,0 q 0,2.109375 0.5,2.8125 0.5,0.703125 1.21875,0.703125 0.734375,0 1.21875,-0.703125 0.500001,-0.703125 0.500001,-2.8125 0,-2.125 -0.500001,-2.8125 -0.484375,-0.703125 -1.234375,-0.703125 -0.71875,0 -1.15625,0.609375 -0.546875,0.78125 -0.546875,2.90625 z m 6.515625,4.234375 v -1.203125 h 1.203126 v 1.203125 z M 10,59.423954 q 0,-1.53125 0.3125,-2.453125 0.3125,-0.9375 0.921876,-1.4375 0.625,-0.5 1.5625,-0.5 0.6875,0 1.203124,0.28125 0.53125,0.28125 0.875,0.8125 0.34375,0.515625 0.53125,1.265625 0.1875,0.75 0.1875,2.03125 0,1.515625 -0.3125,2.4375 -0.296874,0.921875 -0.921874,1.4375 -0.609376,0.5 -1.5625,0.5 -1.234376,0 -1.953126,-0.890625 Q 10,61.845829 10,59.423954 Z m 1.078126,0 q 0,2.109375 0.5,2.8125 0.5,0.703125 1.21875,0.703125 0.734374,0 1.21875,-0.703125 0.5,-0.703125 0.5,-2.8125 0,-2.125 -0.5,-2.8125 -0.484376,-0.703125 -1.234376,-0.703125 -0.71875,0 -1.15625,0.609375 -0.546874,0.78125 -0.546874,2.90625 z M 20.375,63.658329 v -2.0625 h -3.71875 v -0.96875 l 3.921876,-5.5625 H 21.4375 v 5.5625 h 1.15625 v 0.96875 H 21.4375 v 2.0625 z m 0,-3.03125 v -3.859375 l -2.6875,3.859375 z m 6.5,1.171875 1.03125,-0.15625 q 0.09375,0.625 0.484376,0.953125 0.40625,0.328125 1.140624,0.328125 0.71875,0 1.0625,-0.28125 0.359376,-0.296875 0.359376,-0.703125 0,-0.359375 -0.3125,-0.5625 -0.21875,-0.140625 -1.078126,-0.359375 -1.15625,-0.296875 -1.609374,-0.5 -0.4375,-0.21875 -0.671876,-0.59375 -0.234374,-0.375 -0.234374,-0.84375 0,-0.40625 0.1875,-0.765625 0.1875,-0.359375 0.515624,-0.59375 0.25,-0.171875 0.671876,-0.296875 0.421874,-0.125 0.921874,-0.125 0.71875,0 1.265626,0.21875 0.5625,0.203125 0.828124,0.5625 0.265626,0.359375 0.359376,0.953125 l -1.03125,0.140625 q -0.0625,-0.46875 -0.40625,-0.734375 -0.328126,-0.28125 -0.953126,-0.28125 -0.71875,0 -1.03125,0.25 -0.3125,0.234375 -0.3125,0.5625 0,0.203125 0.125,0.359375 0.140626,0.171875 0.40625,0.28125 0.15625,0.0625 0.9375,0.265625 1.125,0.3125 1.5625,0.5 0.4375,0.1875 0.6875,0.546875 0.25,0.359375 0.25,0.90625 0,0.53125 -0.3125,1 -0.296874,0.453125 -0.875,0.71875 -0.578124,0.25 -1.3125,0.25 -1.21875,0 -1.859374,-0.5 -0.625,-0.515625 -0.796876,-1.5 z"
     fill-rule="nonzero"
     id="path17" />
  <path
     fill="#000000"
     d="m 1.9073486e-7,4.3906252 q 0,-1.53125 0.31249999926514,-2.453125 0.3125,-0.9375 0.92187501,-1.43749996 0.625,-0.50000000293945 1.5625,-0.50000000293945 0.6875,0 1.203125,0.28125000293945 0.53125,0.28125 0.875,0.81249996 0.34375,0.515625 0.53125,1.265625 0.1875,0.75 0.1875,2.03125 0,1.515624 -0.3125,2.4375 -0.296874,0.921874 -0.921874,1.4375 -0.609376,0.5 -1.562501,0.5 -1.234375,0 -1.95312501,-0.890626 Q 1.9073486e-7,6.8124992 1.9073486e-7,4.3906252 Z m 1.07812500926514,0 q 0,2.109374 0.5,2.8125 0.5,0.703124 1.21875,0.703124 0.734375,0 1.21875,-0.703124 0.500001,-0.703126 0.500001,-2.8125 0,-2.125 -0.500001,-2.8125 -0.484375,-0.70312496 -1.234375,-0.70312496 -0.71875,0 -1.15625,0.60937496 -0.546875,0.78125 -0.546875,2.90625 z m 6.515625,4.234374 v -1.203124 h 1.203126 v 1.203124 z M 10,4.3906252 q 0,-1.53125 0.3125,-2.453125 0.3125,-0.9375 0.921876,-1.43749996 0.625,-0.50000000293945 1.5625,-0.50000000293945 0.6875,0 1.203124,0.28125000293945 0.53125,0.28125 0.875,0.81249996 0.34375,0.515625 0.53125,1.265625 0.1875,0.75 0.1875,2.03125 0,1.515624 -0.3125,2.4375 -0.296874,0.921874 -0.921874,1.4375 -0.609376,0.5 -1.5625,0.5 -1.234376,0 -1.953126,-0.890626 Q 10,6.8124992 10,4.3906252 Z m 1.078126,0 q 0,2.109374 0.5,2.8125 0.5,0.703124 1.21875,0.703124 0.734374,0 1.21875,-0.703124 0.5,-0.703126 0.5,-2.8125 0,-2.125 -0.5,-2.8125 -0.484376,-0.70312496 -1.234376,-0.70312496 -0.71875,0 -1.15625,0.60937496 -0.546874,0.78125 -0.546874,2.90625 z m 11.390624,-2.25 -1.046874,0.07812 q -0.140626,-0.624999 -0.390626,-0.906249 -0.4375,-0.45312496 -1.0625,-0.45312496 -0.5,0 -0.890624,0.28124996 -0.484376,0.375 -0.78125,1.078124 -0.28125,0.6875 -0.296876,1.96875 0.375,-0.578124 0.921876,-0.859374 0.5625,-0.28125 1.171874,-0.28125 1.046876,0 1.78125,0.78125 0.75,0.78125 0.75,2 0,0.8125 -0.359374,1.515624 -0.34375,0.6875 -0.953126,1.0625 -0.609374,0.359376 -1.375,0.359376 -1.328124,0 -2.15625,-0.96875 -0.828124,-0.96875 -0.828124,-3.1875 0,-2.5 0.921874,-3.62499996 0.796876,-0.9843750029395 2.15625,-0.9843750029395 1.015626,0 1.65625,0.5781250029395 0.65625,0.56249996 0.78125,1.56249996 z m -4.296874,3.703124 q 0,0.546876 0.21875,1.046876 0.234374,0.484374 0.640624,0.75 0.421876,0.265624 0.890626,0.265624 0.65625,0 1.140624,-0.53125 0.484376,-0.546874 0.484376,-1.46875 0,-0.890624 -0.484376,-1.40625 -0.46875,-0.515624 -1.1875,-0.515624 -0.71875,0 -1.21875,0.515624 -0.484374,0.515626 -0.484374,1.34375 z m 8.703124,0.921876 1.03125,-0.15625 q 0.09375,0.625 0.484376,0.953124 0.40625,0.328126 1.140624,0.328126 0.71875,0 1.0625,-0.28125 0.359376,-0.296876 0.359376,-0.703126 0,-0.359374 -0.3125,-0.5625 -0.21875,-0.140624 -1.078126,-0.359374 -1.15625,-0.296876 -1.609374,-0.5 -0.4375,-0.21875 -0.671876,-0.59375 -0.234374,-0.375 -0.234374,-0.84375 0,-0.40625 0.1875,-0.765626 0.1875,-0.359374 0.515624,-0.59375 0.25,-0.171874 0.671876,-0.296874 0.421874,-0.125 0.921874,-0.125 0.71875,0 1.265626,0.21875 0.5625,0.203124 0.828124,0.5625 0.265626,0.359374 0.359376,0.953124 l -1.03125,0.140626 q -0.0625,-0.46875 -0.40625,-0.734376 -0.328126,-0.28125 -0.953126,-0.28125 -0.71875,0 -1.03125,0.25 -0.3125,0.234376 -0.3125,0.5625 0,0.203126 0.125,0.359376 0.140626,0.171874 0.40625,0.28125 0.15625,0.0625 0.9375,0.265624 1.125,0.3125 1.5625,0.5 0.4375,0.1875 0.6875,0.546876 0.25,0.359374 0.25,0.90625 0,0.53125 -0.3125,1 -0.296874,0.453124 -0.875,0.71875 -0.578124,0.25 -1.3125,0.25 -1.21875,0 -1.859374,-0.5 -0.625,-0.515626 -0.796876,-1.5 z"
     fill-rule="nonzero"
     id="path18" />
  <path
     fill="#000000"
     d="m 89.68039,183.61563 q 0,-1.73438 0.95312,-2.5625 0.79688,-0.6875 1.95313,-0.6875 1.28125,0 2.09375,0.84375 0.82812,0.82812 0.82812,2.3125 0,1.20312 -0.35937,1.89062 -0.35938,0.6875 -1.0625,1.07813 -0.6875,0.375 -1.5,0.375 -1.29688,0 -2.10938,-0.82813 -0.79687,-0.84375 -0.79687,-2.42187 z m 1.07812,0 q 0,1.1875 0.51563,1.78125 0.53125,0.59375 1.3125,0.59375 0.79687,0 1.3125,-0.59375 0.51562,-0.59375 0.51562,-1.8125 0,-1.15625 -0.53125,-1.75 -0.51562,-0.59375 -1.29687,-0.59375 -0.78125,0 -1.3125,0.59375 -0.51563,0.57812 -0.51563,1.78125 z m 6.29688,3.10937 v -6.21875 h 0.95312 v 0.9375 q 0.35938,-0.65625 0.65625,-0.85937 0.3125,-0.21875 0.6875,-0.21875 0.53125,0 1.07813,0.32812 l -0.35938,0.98438 q -0.39062,-0.23438 -0.76562,-0.23438 -0.35938,0 -0.64063,0.21875 -0.26562,0.20313 -0.375,0.57813 -0.1875,0.5625 -0.1875,1.21875 v 3.26562 z m 4.01562,-7.375 v -1.21875 h 1.0625 V 179.35 Z m 0,7.375 v -6.21875 h 1.0625 v 6.21875 z m 2.79688,0.51563 1.03125,0.15625 q 0.0625,0.46875 0.35937,0.6875 0.39063,0.29687 1.0625,0.29687 0.73438,0 1.125,-0.29687 0.40625,-0.29688 0.54688,-0.8125 0.0937,-0.32813 0.0781,-1.35938 -0.6875,0.8125 -1.71875,0.8125 -1.28125,0 -1.98437,-0.92187 -0.70313,-0.9375 -0.70313,-2.21875 0,-0.89063 0.3125,-1.64063 0.32813,-0.76562 0.9375,-1.17187 0.60938,-0.40625 1.4375,-0.40625 1.10938,0 1.82813,0.89062 v -0.75 h 0.96875 v 5.375 q 0,1.45313 -0.29688,2.0625 -0.29687,0.60938 -0.9375,0.95313 -0.64062,0.35937 -1.57812,0.35937 -1.10938,0 -1.79688,-0.5 -0.6875,-0.5 -0.67187,-1.51562 z m 0.875,-3.73438 q 0,1.21875 0.48437,1.78125 0.48438,0.5625 1.21875,0.5625 0.73438,0 1.21875,-0.5625 0.5,-0.5625 0.5,-1.75 0,-1.14062 -0.51562,-1.71875 -0.5,-0.57812 -1.21875,-0.57812 -0.70313,0 -1.20313,0.57812 -0.48437,0.5625 -0.48437,1.6875 z m 6.32812,-4.15625 v -1.21875 h 1.0625 V 179.35 Z m 0,7.375 v -6.21875 h 1.0625 v 6.21875 z m 3,0 v -6.21875 h 0.9375 v 0.875 q 0.6875,-1.01562 1.98438,-1.01562 0.5625,0 1.03125,0.20312 0.48437,0.20313 0.71875,0.53125 0.23437,0.32813 0.32812,0.76563 0.0469,0.29687 0.0469,1.03125 v 3.82812 h -1.04688 v -3.78125 q 0,-0.65625 -0.125,-0.96875 -0.125,-0.3125 -0.4375,-0.5 -0.3125,-0.20312 -0.73437,-0.20312 -0.67188,0 -1.17188,0.4375 -0.48437,0.42187 -0.48437,1.60937 v 3.40625 z m 11.0625,-0.76562 q -0.59375,0.5 -1.14062,0.70312 -0.53125,0.20313 -1.15625,0.20313 -1.03125,0 -1.57813,-0.5 -0.54687,-0.5 -0.54687,-1.28125 0,-0.45313 0.20312,-0.82813 0.20313,-0.39062 0.54688,-0.60937 0.34375,-0.23438 0.76562,-0.34375 0.29688,-0.0937 0.9375,-0.17188 1.26563,-0.14062 1.875,-0.35937 0,-0.21875 0,-0.26563 0,-0.65625 -0.29687,-0.92187 -0.40625,-0.34375 -1.20313,-0.34375 -0.73437,0 -1.09375,0.26562 -0.35937,0.25 -0.53125,0.90625 l -1.03125,-0.14062 q 0.14063,-0.65625 0.46875,-1.0625 0.32813,-0.40625 0.9375,-0.625 0.60938,-0.21875 1.40625,-0.21875 0.79688,0 1.29688,0.1875 0.5,0.1875 0.73437,0.46875 0.23438,0.28125 0.32813,0.71875 0.0469,0.26562 0.0469,0.96875 v 1.40625 q 0,1.46875 0.0625,1.85937 0.0781,0.39063 0.28125,0.75 h -1.10937 q -0.15625,-0.32812 -0.20313,-0.76562 z M 125.03981,183.6 q -0.57812,0.23438 -1.71875,0.40625 -0.65625,0.0937 -0.92187,0.21875 -0.26563,0.10938 -0.42188,0.32813 -0.14062,0.21875 -0.14062,0.5 0,0.42187 0.3125,0.70312 0.32812,0.28125 0.9375,0.28125 0.60937,0 1.07812,-0.26562 0.48438,-0.26563 0.70313,-0.73438 0.17187,-0.35937 0.17187,-1.04687 z m 3,3.125 v -8.59375 h 1.0625 v 8.59375 z m 7.28125,-2 1.09375,0.125 q -0.25,0.95313 -0.95312,1.48438 -0.70313,0.53125 -1.78125,0.53125 -1.35938,0 -2.17188,-0.84375 -0.79687,-0.84375 -0.79687,-2.35938 0,-1.5625 0.8125,-2.42187 0.8125,-0.875 2.09375,-0.875 1.25,0 2.03125,0.84375 0.79687,0.84375 0.79687,2.39062 0,0.0937 0,0.28125 h -4.64062 q 0.0625,1.03125 0.57812,1.57813 0.51563,0.53125 1.29688,0.53125 0.57812,0 0.98437,-0.29688 0.42188,-0.3125 0.65625,-0.96875 z m -3.45312,-1.70312 h 3.46875 q -0.0625,-0.79688 -0.39063,-1.1875 -0.51562,-0.60938 -1.3125,-0.60938 -0.73437,0 -1.23437,0.48438 -0.48438,0.48437 -0.53125,1.3125 z m 6.20312,3.70312 v -6.21875 h 0.9375 v 0.875 q 0.6875,-1.01562 1.98438,-1.01562 0.5625,0 1.03125,0.20312 0.48437,0.20313 0.71875,0.53125 0.23437,0.32813 0.32812,0.76563 0.0469,0.29687 0.0469,1.03125 v 3.82812 h -1.04688 v -3.78125 q 0,-0.65625 -0.125,-0.96875 -0.125,-0.3125 -0.4375,-0.5 -0.3125,-0.20312 -0.73437,-0.20312 -0.67188,0 -1.17188,0.4375 -0.48437,0.42187 -0.48437,1.60937 v 3.40625 z m 10.125,0 v -8.59375 h 3.25 q 0.84375,0 1.29688,0.0781 0.64062,0.10937 1.0625,0.40625 0.4375,0.29687 0.6875,0.82812 0.26562,0.53125 0.26562,1.17188 0,1.09375 -0.70312,1.85937 -0.6875,0.75 -2.51563,0.75 h -2.20312 v 3.5 z m 1.14063,-4.5 h 2.21875 q 1.10937,0 1.5625,-0.40625 0.46875,-0.42187 0.46875,-1.17187 0,-0.53125 -0.28125,-0.90625 -0.26563,-0.39063 -0.70313,-0.51563 -0.29687,-0.0781 -1.0625,-0.0781 h -2.20312 z m 10.8125,4.5 v -0.92187 q -0.73438,1.0625 -1.98438,1.0625 -0.54687,0 -1.03125,-0.20313 -0.46875,-0.21875 -0.70312,-0.53125 -0.23438,-0.32812 -0.32813,-0.79687 -0.0625,-0.29688 -0.0625,-0.98438 v -3.84375 h 1.0625 v 3.45313 q 0,0.8125 0.0625,1.10937 0.0937,0.40625 0.40625,0.65625 0.32813,0.23438 0.8125,0.23438 0.46875,0 0.875,-0.23438 0.42188,-0.25 0.59375,-0.67187 0.1875,-0.42188 0.1875,-1.21875 v -3.32813 h 1.04688 v 6.21875 z m 2.92187,0 v -6.21875 h 0.9375 v 0.875 q 0.6875,-1.01562 1.98438,-1.01562 0.5625,0 1.03125,0.20312 0.48437,0.20313 0.71875,0.53125 0.23437,0.32813 0.32812,0.76563 0.0469,0.29687 0.0469,1.03125 v 3.82812 h -1.04688 v -3.78125 q 0,-0.65625 -0.125,-0.96875 -0.125,-0.3125 -0.4375,-0.5 -0.3125,-0.20312 -0.73437,-0.20312 -0.67188,0 -1.17188,0.4375 -0.48437,0.42187 -0.48437,1.60937 v 3.40625 z m 7,0 v -8.59375 h 1.0625 v 4.90625 l 2.48438,-2.53125 h 1.375 l -2.39063,2.29688 2.625,3.92187 h -1.29687 l -2.0625,-3.1875 -0.73438,0.71875 v 2.46875 z m 8.29688,-0.9375 0.15625,0.92188 q -0.45313,0.0937 -0.79688,0.0937 -0.57812,0 -0.89062,-0.17188 -0.3125,-0.1875 -0.45313,-0.48437 -0.125,-0.29688 -0.125,-1.25 v -3.57813 h -0.76562 v -0.8125 h 0.76562 v -1.54687 l 1.04688,-0.625 v 2.17187 h 1.0625 v 0.8125 h -1.0625 v 3.64063 q 0,0.45312 0.0469,0.57812 0.0625,0.125 0.1875,0.20313 0.125,0.0781 0.35938,0.0781 0.1875,0 0.46875,-0.0312 z m 4.95312,-1.0625 1.09375,0.125 q -0.25,0.95313 -0.95312,1.48438 -0.70313,0.53125 -1.78125,0.53125 -1.35938,0 -2.17188,-0.84375 -0.79687,-0.84375 -0.79687,-2.35938 0,-1.5625 0.8125,-2.42187 0.8125,-0.875 2.09375,-0.875 1.25,0 2.03125,0.84375 0.79687,0.84375 0.79687,2.39062 0,0.0937 0,0.28125 h -4.64062 q 0.0625,1.03125 0.57812,1.57813 0.51563,0.53125 1.29688,0.53125 0.57812,0 0.98437,-0.29688 0.42188,-0.3125 0.65625,-0.96875 z m -3.45312,-1.70312 h 3.46875 q -0.0625,-0.79688 -0.39063,-1.1875 -0.51562,-0.60938 -1.3125,-0.60938 -0.73437,0 -1.23437,0.48438 -0.48438,0.48437 -0.53125,1.3125 z"
     fill-rule="nonzero"
     id="path19" />
  <path
     fill="#000000"
     d="m 250.04658,186.725 v -8.59375 h 2.96875 q 1,0 1.53125,0.125 0.73438,0.17188 1.25,0.60938 0.6875,0.57812 1.01562,1.48437 0.34376,0.89063 0.34376,2.03125 0,0.98438 -0.23438,1.73438 -0.21875,0.75 -0.57812,1.25 -0.35938,0.5 -0.79688,0.78125 -0.42188,0.28125 -1.01562,0.4375 -0.59376,0.14062 -1.375,0.14062 z m 1.14062,-1.01562 h 1.82813 q 0.85937,0 1.34375,-0.15625 0.48438,-0.15625 0.76562,-0.45313 0.40626,-0.39062 0.625,-1.07812 0.23438,-0.6875 0.23438,-1.65625 0,-1.34375 -0.45312,-2.0625 -0.4375,-0.73438 -1.0625,-0.98438 -0.46876,-0.17187 -1.46876,-0.17187 h -1.8125 z m 11.98438,-0.98438 1.09375,0.125 q -0.25,0.95313 -0.95313,1.48438 -0.70312,0.53125 -1.78124,0.53125 -1.35938,0 -2.17188,-0.84375 -0.79688,-0.84375 -0.79688,-2.35938 0,-1.5625 0.8125,-2.42187 0.8125,-0.875 2.09376,-0.875 1.25,0 2.03124,0.84375 0.79688,0.84375 0.79688,2.39062 0,0.0937 0,0.28125 h -4.64062 q 0.0625,1.03125 0.57812,1.57813 0.51562,0.53125 1.29688,0.53125 0.57812,0 0.98437,-0.29688 0.42187,-0.3125 0.65625,-0.96875 z m -3.45312,-1.70312 h 3.46874 q -0.0625,-0.79688 -0.39062,-1.1875 -0.51562,-0.60938 -1.3125,-0.60938 -0.73438,0 -1.23438,0.48438 -0.48437,0.48437 -0.53124,1.3125 z m 8.5,2.76562 0.15624,0.92188 q -0.45312,0.0937 -0.79687,0.0937 -0.57813,0 -0.89063,-0.17188 -0.3125,-0.1875 -0.45312,-0.48437 -0.125,-0.29688 -0.125,-1.25 v -3.57813 h -0.76562 v -0.8125 h 0.76562 v -1.54687 l 1.04688,-0.625 v 2.17187 h 1.0625 v 0.8125 h -1.0625 v 3.64063 q 0,0.45312 0.0469,0.57812 0.0625,0.125 0.1875,0.20313 0.125,0.0781 0.35937,0.0781 0.1875,0 0.46876,-0.0312 z m 4.76562,0.17188 q -0.59375,0.5 -1.14062,0.70312 -0.53126,0.20313 -1.15626,0.20313 -1.03124,0 -1.57812,-0.5 -0.54688,-0.5 -0.54688,-1.28125 0,-0.45313 0.20313,-0.82813 0.20313,-0.39062 0.54687,-0.60937 0.34376,-0.23438 0.76563,-0.34375 0.29687,-0.0937 0.9375,-0.17188 1.26563,-0.14062 1.875,-0.35937 0,-0.21875 0,-0.26563 0,-0.65625 -0.29687,-0.92187 -0.40626,-0.34375 -1.20313,-0.34375 -0.73437,0 -1.09375,0.26562 -0.35938,0.25 -0.53125,0.90625 l -1.03125,-0.14062 q 0.14062,-0.65625 0.46875,-1.0625 0.32813,-0.40625 0.9375,-0.625 0.60937,-0.21875 1.40625,-0.21875 0.79688,0 1.29688,0.1875 0.5,0.1875 0.73437,0.46875 0.23437,0.28125 0.32813,0.71875 0.0469,0.26562 0.0469,0.96875 v 1.40625 q 0,1.46875 0.0625,1.85937 0.0781,0.39063 0.28125,0.75 h -1.10938 q -0.15624,-0.32812 -0.20312,-0.76562 z M 272.89038,183.6 q -0.57813,0.23438 -1.71875,0.40625 -0.65625,0.0937 -0.92188,0.21875 -0.26562,0.10938 -0.42187,0.32813 -0.14063,0.21875 -0.14063,0.5 0,0.42187 0.3125,0.70312 0.32813,0.28125 0.9375,0.28125 0.60938,0 1.07813,-0.26562 0.48437,-0.26563 0.70313,-0.73438 0.17187,-0.35937 0.17187,-1.04687 z m 3.03125,-4.25 v -1.21875 h 1.0625 V 179.35 Z m 0,7.375 v -6.21875 h 1.0625 v 6.21875 z m 2.96875,0 v -8.59375 h 1.0625 v 8.59375 z m 2.60937,-1.85937 1.03126,-0.15625 q 0.0937,0.625 0.48437,0.95312 0.40625,0.32813 1.14063,0.32813 0.71874,0 1.0625,-0.28125 0.35937,-0.29688 0.35937,-0.70313 0,-0.35937 -0.3125,-0.5625 -0.21875,-0.14062 -1.07813,-0.35937 -1.15624,-0.29688 -1.60937,-0.5 -0.4375,-0.21875 -0.67187,-0.59375 -0.23438,-0.375 -0.23438,-0.84375 0,-0.40625 0.1875,-0.76563 0.1875,-0.35937 0.51562,-0.59375 0.25,-0.17187 0.67188,-0.29687 0.42188,-0.125 0.92188,-0.125 0.71874,0 1.26562,0.21875 0.5625,0.20312 0.82812,0.5625 0.26563,0.35937 0.35938,0.95312 l -1.03125,0.14063 q -0.0625,-0.46875 -0.40625,-0.73438 -0.32812,-0.28125 -0.95312,-0.28125 -0.71876,0 -1.03126,0.25 -0.3125,0.23438 -0.3125,0.5625 0,0.20313 0.125,0.35938 0.14063,0.17187 0.40626,0.28125 0.15624,0.0625 0.9375,0.26562 1.125,0.3125 1.5625,0.5 0.4375,0.1875 0.6875,0.54688 0.25,0.35937 0.25,0.90625 0,0.53125 -0.3125,1 -0.29688,0.45312 -0.875,0.71875 -0.57813,0.25 -1.3125,0.25 -1.21876,0 -1.85938,-0.5 -0.625,-0.51563 -0.79688,-1.5 z m 9.71876,0.92187 0.15624,0.92188 q -0.45312,0.0937 -0.79687,0.0937 -0.57813,0 -0.89063,-0.17188 -0.3125,-0.1875 -0.45312,-0.48437 -0.125,-0.29688 -0.125,-1.25 v -3.57813 h -0.76562 v -0.8125 h 0.76562 v -1.54687 l 1.04688,-0.625 v 2.17187 h 1.0625 v 0.8125 h -1.0625 v 3.64063 q 0,0.45312 0.0469,0.57812 0.0625,0.125 0.1875,0.20313 0.125,0.0781 0.35937,0.0781 0.1875,0 0.46876,-0.0312 z m 4.78124,0.9375 v -0.92187 q -0.73437,1.0625 -1.98437,1.0625 -0.54687,0 -1.03125,-0.20313 -0.46875,-0.21875 -0.70312,-0.53125 -0.23438,-0.32812 -0.32813,-0.79687 -0.0625,-0.29688 -0.0625,-0.98438 v -3.84375 h 1.0625 v 3.45313 q 0,0.8125 0.0625,1.10937 0.0937,0.40625 0.40625,0.65625 0.32812,0.23438 0.8125,0.23438 0.46875,0 0.875,-0.23438 0.42188,-0.25 0.59375,-0.67187 0.1875,-0.42188 0.1875,-1.21875 v -3.32813 h 1.04687 v 6.21875 z m 3.17188,0 v -5.40625 h -0.9375 v -0.8125 h 0.9375 v -0.67187 q 0,-0.625 0.10938,-0.92188 0.15624,-0.42187 0.53124,-0.67187 0.39063,-0.25 1.07813,-0.25 0.45313,0 0.98437,0.10937 l -0.15624,0.90625 q -0.32813,-0.0469 -0.625,-0.0469 -0.48438,0 -0.6875,0.20312 -0.1875,0.20313 -0.1875,0.76563 v 0.57812 h 1.21874 v 0.8125 h -1.21874 v 5.40628 z m 7,-2 1.09375,0.125 q -0.25,0.95313 -0.95313,1.48438 -0.70312,0.53125 -1.78124,0.53125 -1.35938,0 -2.17188,-0.84375 -0.79688,-0.84375 -0.79688,-2.35938 0,-1.5625 0.8125,-2.42187 0.8125,-0.875 2.09376,-0.875 1.25,0 2.03124,0.84375 0.79688,0.84375 0.79688,2.39062 0,0.0937 0,0.28125 h -4.64062 q 0.0625,1.03125 0.57812,1.57813 0.51562,0.53125 1.29688,0.53125 0.57812,0 0.98437,-0.29688 0.42187,-0.3125 0.65625,-0.96875 z m -3.45312,-1.70312 h 3.46874 q -0.0625,-0.79688 -0.39062,-1.1875 -0.51562,-0.60938 -1.3125,-0.60938 -0.73438,0 -1.23438,0.48438 -0.48437,0.48437 -0.53124,1.3125 z m 6.20312,3.70312 v -6.21875 h 0.9375 v 0.875 q 0.6875,-1.01562 1.98438,-1.01562 0.5625,0 1.03124,0.20312 0.48438,0.20313 0.71876,0.53125 0.23437,0.32813 0.32812,0.76563 0.0469,0.29687 0.0469,1.03125 v 3.82812 h -1.04688 v -3.78125 q 0,-0.65625 -0.125,-0.96875 -0.125,-0.3125 -0.4375,-0.5 -0.3125,-0.20312 -0.73438,-0.20312 -0.67187,0 -1.17187,0.4375 -0.48437,0.42187 -0.48437,1.60937 v 3.40625 z"
     fill-rule="nonzero"
     id="path20" />
  <path
     fill="#000000"
     d="m 360.88154,183.61563 q 0,-1.73438 0.95313,-2.5625 0.79687,-0.6875 1.95313,-0.6875 1.28124,0 2.09374,0.84375 0.82813,0.82812 0.82813,2.3125 0,1.20312 -0.35937,1.89062 -0.35938,0.6875 -1.0625,1.07813 -0.6875,0.375 -1.5,0.375 -1.29688,0 -2.10938,-0.82813 -0.79688,-0.84375 -0.79688,-2.42187 z m 1.07813,0 q 0,1.1875 0.51563,1.78125 0.53124,0.59375 1.3125,0.59375 0.79687,0 1.3125,-0.59375 0.51562,-0.59375 0.51562,-1.8125 0,-1.15625 -0.53125,-1.75 -0.51563,-0.59375 -1.29687,-0.59375 -0.78126,0 -1.3125,0.59375 -0.51563,0.57812 -0.51563,1.78125 z m 6.29687,3.10937 v -6.21875 h 0.95313 v 0.9375 q 0.35937,-0.65625 0.65625,-0.85937 0.3125,-0.21875 0.6875,-0.21875 0.53125,0 1.07812,0.32812 l -0.35937,0.98438 q -0.39063,-0.23438 -0.76563,-0.23438 -0.35937,0 -0.64062,0.21875 -0.26562,0.20313 -0.375,0.57813 -0.1875,0.5625 -0.1875,1.21875 v 3.26562 z m 4.01563,-7.375 v -1.21875 h 1.0625 V 179.35 Z m 0,7.375 v -6.21875 h 1.0625 v 6.21875 z m 2.79687,0.51563 1.03126,0.15625 q 0.0625,0.46875 0.35937,0.6875 0.39063,0.29687 1.0625,0.29687 0.73437,0 1.125,-0.29687 0.40625,-0.29688 0.54687,-0.8125 0.0938,-0.32813 0.0781,-1.35938 -0.6875,0.8125 -1.71875,0.8125 -1.28125,0 -1.98438,-0.92187 -0.70312,-0.9375 -0.70312,-2.21875 0,-0.89063 0.3125,-1.64063 0.32812,-0.76562 0.9375,-1.17187 0.60938,-0.40625 1.4375,-0.40625 1.10938,0 1.82812,0.89062 v -0.75 h 0.96876 v 5.375 q 0,1.45313 -0.29688,2.0625 -0.29688,0.60938 -0.9375,0.95313 -0.64062,0.35937 -1.57812,0.35937 -1.10938,0 -1.79688,-0.5 -0.6875,-0.5 -0.67188,-1.51562 z m 0.875,-3.73438 q 0,1.21875 0.48438,1.78125 0.48438,0.5625 1.21875,0.5625 0.73437,0 1.21875,-0.5625 0.5,-0.5625 0.5,-1.75 0,-1.14062 -0.51562,-1.71875 -0.5,-0.57812 -1.21876,-0.57812 -0.70312,0 -1.20312,0.57812 -0.48438,0.5625 -0.48438,1.6875 z m 6.32813,-4.15625 v -1.21875 h 1.0625 V 179.35 Z m 0,7.375 v -6.21875 h 1.0625 v 6.21875 z m 3,0 v -6.21875 h 0.9375 v 0.875 q 0.6875,-1.01562 1.98437,-1.01562 0.5625,0 1.03126,0.20312 0.48437,0.20313 0.71874,0.53125 0.23438,0.32813 0.32813,0.76563 0.0469,0.29687 0.0469,1.03125 v 3.82812 h -1.04687 v -3.78125 q 0,-0.65625 -0.125,-0.96875 -0.125,-0.3125 -0.4375,-0.5 -0.3125,-0.20312 -0.73437,-0.20312 -0.67188,0 -1.17188,0.4375 -0.48438,0.42187 -0.48438,1.60937 v 3.40625 z m 11.0625,-0.76562 q -0.59375,0.5 -1.14063,0.70312 -0.53124,0.20313 -1.15624,0.20313 -1.03126,0 -1.57813,-0.5 -0.54687,-0.5 -0.54687,-1.28125 0,-0.45313 0.20312,-0.82813 0.20312,-0.39062 0.54688,-0.60937 0.34374,-0.23438 0.76562,-0.34375 0.29688,-0.0937 0.9375,-0.17188 1.26562,-0.14062 1.875,-0.35937 0,-0.21875 0,-0.26563 0,-0.65625 -0.29688,-0.92187 -0.40624,-0.34375 -1.20312,-0.34375 -0.73438,0 -1.09375,0.26562 -0.35937,0.25 -0.53125,0.90625 l -1.03125,-0.14062 q 0.14063,-0.65625 0.46875,-1.0625 0.32812,-0.40625 0.9375,-0.625 0.60938,-0.21875 1.40625,-0.21875 0.79687,0 1.29687,0.1875 0.5,0.1875 0.73438,0.46875 0.23438,0.28125 0.32812,0.71875 0.0469,0.26562 0.0469,0.96875 v 1.40625 q 0,1.46875 0.0625,1.85937 0.0781,0.39063 0.28125,0.75 h -1.10937 q -0.15626,-0.32812 -0.20313,-0.76562 z M 396.24097,183.6 q -0.57812,0.23438 -1.71875,0.40625 -0.65625,0.0937 -0.92187,0.21875 -0.26563,0.10938 -0.42188,0.32813 -0.14062,0.21875 -0.14062,0.5 0,0.42187 0.3125,0.70312 0.32812,0.28125 0.9375,0.28125 0.60937,0 1.07812,-0.26562 0.48438,-0.26563 0.70312,-0.73438 0.17188,-0.35937 0.17188,-1.04687 z m 3,3.125 v -8.59375 h 1.0625 v 8.59375 z m 7.28125,-2 1.09375,0.125 q -0.25,0.95313 -0.95312,1.48438 -0.70313,0.53125 -1.78126,0.53125 -1.35937,0 -2.17187,-0.84375 -0.79687,-0.84375 -0.79687,-2.35938 0,-1.5625 0.8125,-2.42187 0.8125,-0.875 2.09374,-0.875 1.25,0 2.03126,0.84375 0.79687,0.84375 0.79687,2.39062 0,0.0937 0,0.28125 h -4.64063 q 0.0625,1.03125 0.57813,1.57813 0.51563,0.53125 1.29687,0.53125 0.57813,0 0.98438,-0.29688 0.42188,-0.3125 0.65625,-0.96875 z m -3.45313,-1.70312 h 3.46876 q -0.0625,-0.79688 -0.39063,-1.1875 -0.51563,-0.60938 -1.3125,-0.60938 -0.73437,0 -1.23437,0.48438 -0.48438,0.48437 -0.53126,1.3125 z m 6.20313,3.70312 v -6.21875 h 0.9375 v 0.875 q 0.6875,-1.01562 1.98437,-1.01562 0.5625,0 1.03126,0.20312 0.48437,0.20313 0.71874,0.53125 0.23438,0.32813 0.32813,0.76563 0.0469,0.29687 0.0469,1.03125 v 3.82812 h -1.04687 v -3.78125 q 0,-0.65625 -0.125,-0.96875 -0.125,-0.3125 -0.4375,-0.5 -0.3125,-0.20312 -0.73437,-0.20312 -0.67188,0 -1.17188,0.4375 -0.48438,0.42187 -0.48438,1.60937 v 3.40625 z m 10.125,0 v -8.59375 h 3.25 q 0.84375,0 1.29687,0.0781 0.64063,0.10937 1.0625,0.40625 0.4375,0.29687 0.6875,0.82812 0.26563,0.53125 0.26563,1.17188 0,1.09375 -0.70313,1.85937 -0.6875,0.75 -2.51562,0.75 h -2.20312 v 3.5 z m 1.14063,-4.5 h 2.21874 q 1.10938,0 1.5625,-0.40625 0.46876,-0.42187 0.46876,-1.17187 0,-0.53125 -0.28126,-0.90625 -0.26562,-0.39063 -0.70312,-0.51563 -0.29688,-0.0781 -1.0625,-0.0781 h -2.20312 z m 10.8125,4.5 v -0.92187 q -0.73438,1.0625 -1.98438,1.0625 -0.54688,0 -1.03125,-0.20313 -0.46875,-0.21875 -0.70313,-0.53125 -0.23437,-0.32812 -0.32812,-0.79687 -0.0625,-0.29688 -0.0625,-0.98438 v -3.84375 h 1.0625 v 3.45313 q 0,0.8125 0.0625,1.10937 0.0937,0.40625 0.40625,0.65625 0.32813,0.23438 0.8125,0.23438 0.46875,0 0.875,-0.23438 0.42187,-0.25 0.59375,-0.67187 0.1875,-0.42188 0.1875,-1.21875 v -3.32813 h 1.04688 v 6.21875 z m 2.92187,0 v -6.21875 h 0.9375 v 0.875 q 0.6875,-1.01562 1.98437,-1.01562 0.5625,0 1.03126,0.20312 0.48437,0.20313 0.71874,0.53125 0.23438,0.32813 0.32813,0.76563 0.0469,0.29687 0.0469,1.03125 v 3.82812 h -1.04687 v -3.78125 q 0,-0.65625 -0.125,-0.96875 -0.125,-0.3125 -0.4375,-0.5 -0.3125,-0.20312 -0.73437,-0.20312 -0.67188,0 -1.17188,0.4375 -0.48438,0.42187 -0.48438,1.60937 v 3.40625 z m 7,0 v -8.59375 h 1.0625 v 4.90625 l 2.48437,-2.53125 h 1.375 l -2.39062,2.29688 2.625,3.92187 h -1.29688 l -2.0625,-3.1875 -0.73437,0.71875 v 2.46875 z m 8.29687,-0.9375 0.15626,0.92188 q -0.45313,0.0937 -0.79688,0.0937 -0.57812,0 -0.89062,-0.17188 -0.3125,-0.1875 -0.45313,-0.48437 -0.125,-0.29688 -0.125,-1.25 v -3.57813 h -0.76563 v -0.8125 h 0.76563 v -1.54687 l 1.04687,-0.625 v 2.17187 h 1.0625 v 0.8125 h -1.0625 v 3.64063 q 0,0.45312 0.0469,0.57812 0.0625,0.125 0.1875,0.20313 0.125,0.0781 0.35938,0.0781 0.1875,0 0.46874,-0.0312 z m 4.95313,-1.0625 1.09375,0.125 q -0.25,0.95313 -0.95312,1.48438 -0.70313,0.53125 -1.78126,0.53125 -1.35937,0 -2.17187,-0.84375 -0.79687,-0.84375 -0.79687,-2.35938 0,-1.5625 0.8125,-2.42187 0.8125,-0.875 2.09374,-0.875 1.25,0 2.03126,0.84375 0.79687,0.84375 0.79687,2.39062 0,0.0937 0,0.28125 h -4.64063 q 0.0625,1.03125 0.57813,1.57813 0.51563,0.53125 1.29687,0.53125 0.57813,0 0.98438,-0.29688 0.42188,-0.3125 0.65625,-0.96875 z m -3.45313,-1.70312 h 3.46876 q -0.0625,-0.79688 -0.39063,-1.1875 -0.51563,-0.60938 -1.3125,-0.60938 -0.73437,0 -1.23437,0.48438 -0.48438,0.48437 -0.53126,1.3125 z m 11.40626,2.3125 V 182.975 h -2.32813 v -0.98437 h 2.32813 v -2.32813 h 1 v 2.32813 h 2.34374 v 0.98437 h -2.34374 v 2.35938 z m 7.95312,1.39062 v -8.59375 h 6.20312 v 1.01563 h -5.0625 v 2.625 h 4.75 v 1.01562 h -4.75 v 2.92188 h 5.26563 v 1.01562 z m 7.79688,2.39063 -0.125,-0.98438 q 0.34374,0.0937 0.60937,0.0937 0.34375,0 0.54687,-0.125 0.21876,-0.10937 0.35938,-0.3125 0.0937,-0.17187 0.32812,-0.79687 0.0156,-0.0781 0.0938,-0.25 l -2.375,-6.23438 h 1.14062 l 1.29688,3.59375 q 0.25,0.6875 0.45312,1.45313 0.1875,-0.73438 0.4375,-1.42188 l 1.32812,-3.625 h 1.04688 l -2.35938,6.32813 q -0.39062,1.01562 -0.59374,1.40625 -0.28126,0.53125 -0.65626,0.76562 -0.35937,0.25 -0.85937,0.25 -0.29687,0 -0.67187,-0.14062 z m 9.29687,-4.39063 1.09375,0.125 q -0.25,0.95313 -0.95312,1.48438 -0.70313,0.53125 -1.78126,0.53125 -1.35937,0 -2.17187,-0.84375 -0.79687,-0.84375 -0.79687,-2.35938 0,-1.5625 0.8125,-2.42187 0.8125,-0.875 2.09374,-0.875 1.25,0 2.03126,0.84375 0.79687,0.84375 0.79687,2.39062 0,0.0937 0,0.28125 h -4.64063 q 0.0625,1.03125 0.57813,1.57813 0.51563,0.53125 1.29687,0.53125 0.57813,0 0.98438,-0.29688 0.42188,-0.3125 0.65625,-0.96875 z m -3.45313,-1.70312 h 3.46876 q -0.0625,-0.79688 -0.39063,-1.1875 -0.51563,-0.60938 -1.3125,-0.60938 -0.73437,0 -1.23437,0.48438 -0.48438,0.48437 -0.53126,1.3125 z m 5.78126,1.125 v -1.0625 h 3.25 v 1.0625 z"
     fill-rule="nonzero"
     id="path21" />
  <path
     fill="#000000"
     d="m 386.89717,200.725 v -8.59375 h 2.96875 q 1,0 1.53125,0.125 0.73437,0.17188 1.25,0.60938 0.6875,0.57812 1.01563,1.48437 0.34374,0.89063 0.34374,2.03125 0,0.98438 -0.23437,1.73438 -0.21875,0.75 -0.57813,1.25 -0.35937,0.5 -0.79687,0.78125 -0.42187,0.28125 -1.01563,0.4375 -0.59374,0.14062 -1.375,0.14062 z m 1.14063,-1.01562 h 1.82812 q 0.85938,0 1.34375,-0.15625 0.48437,-0.15625 0.76563,-0.45313 0.40624,-0.39062 0.625,-1.07812 0.23437,-0.6875 0.23437,-1.65625 0,-1.34375 -0.45313,-2.0625 -0.4375,-0.73438 -1.0625,-0.98438 -0.46874,-0.17187 -1.46874,-0.17187 h -1.8125 z m 7.34374,-2.09375 q 0,-1.73438 0.95313,-2.5625 0.79687,-0.6875 1.95313,-0.6875 1.28124,0 2.09374,0.84375 0.82813,0.82812 0.82813,2.3125 0,1.20312 -0.35937,1.89062 -0.35938,0.6875 -1.0625,1.07813 -0.6875,0.375 -1.5,0.375 -1.29688,0 -2.10938,-0.82813 -0.79688,-0.84375 -0.79688,-2.42187 z m 1.07813,0 q 0,1.1875 0.51563,1.78125 0.53124,0.59375 1.3125,0.59375 0.79687,0 1.3125,-0.59375 0.51562,-0.59375 0.51562,-1.8125 0,-1.15625 -0.53125,-1.75 -0.51563,-0.59375 -1.29687,-0.59375 -0.78126,0 -1.3125,0.59375 -0.51563,0.57812 -0.51563,1.78125 z m 6.3125,3.10937 v -6.21875 h 0.9375 v 0.875 q 0.29687,-0.46875 0.78125,-0.73437 0.48438,-0.28125 1.10938,-0.28125 0.6875,0 1.125,0.28125 0.45312,0.28125 0.625,0.79687 0.75,-1.07812 1.92187,-1.07812 0.9375,0 1.42187,0.51562 0.5,0.5 0.5,1.57813 v 4.26562 h -1.04687 v -3.92187 q 0,-0.625 -0.10937,-0.90625 -0.0938,-0.28125 -0.35938,-0.45313 -0.26562,-0.17187 -0.64062,-0.17187 -0.65626,0 -1.09376,0.4375 -0.42187,0.4375 -0.42187,1.40625 v 3.60937 h -1.0625 v -4.04687 q 0,-0.70313 -0.26563,-1.04688 -0.25,-0.35937 -0.82812,-0.35937 -0.45312,0 -0.82812,0.23437 -0.375,0.23438 -0.54688,0.6875 -0.17188,0.45313 -0.17188,1.29688 v 3.23437 z m 15.25,-2 1.09375,0.125 q -0.25,0.95313 -0.95312,1.48438 -0.70313,0.53125 -1.78126,0.53125 -1.35937,0 -2.17187,-0.84375 -0.79687,-0.84375 -0.79687,-2.35938 0,-1.5625 0.8125,-2.42187 0.8125,-0.875 2.09374,-0.875 1.25,0 2.03126,0.84375 0.79687,0.84375 0.79687,2.39062 0,0.0937 0,0.28125 h -4.64063 q 0.0625,1.03125 0.57813,1.57813 0.51563,0.53125 1.29687,0.53125 0.57813,0 0.98438,-0.29688 0.42188,-0.3125 0.65625,-0.96875 z m -3.45313,-1.70312 h 3.46876 q -0.0625,-0.79688 -0.39063,-1.1875 -0.51563,-0.60938 -1.3125,-0.60938 -0.73437,0 -1.23437,0.48438 -0.48438,0.48437 -0.53126,1.3125 z m 5.78126,1.125 v -1.0625 h 3.25 v 1.0625 z m 4.5,2.57812 v -8.59375 h 1.14062 v 7.57813 h 4.23438 v 1.01562 z m 6.92187,-7.375 v -1.21875 h 1.0625 V 193.35 Z m 0,7.375 v -6.21875 h 1.0625 v 6.21875 z m 2.79687,0.51563 1.03126,0.15625 q 0.0625,0.46875 0.35937,0.6875 0.39063,0.29687 1.0625,0.29687 0.73437,0 1.125,-0.29687 0.40625,-0.29688 0.54687,-0.8125 0.0938,-0.32813 0.0781,-1.35938 -0.6875,0.8125 -1.71875,0.8125 -1.28125,0 -1.98438,-0.92187 -0.70312,-0.9375 -0.70312,-2.21875 0,-0.89063 0.3125,-1.64063 0.32812,-0.76562 0.9375,-1.17187 0.60938,-0.40625 1.4375,-0.40625 1.10938,0 1.82812,0.89062 v -0.75 h 0.96876 v 5.375 q 0,1.45313 -0.29688,2.0625 -0.29688,0.60938 -0.9375,0.95313 -0.64062,0.35937 -1.57812,0.35937 -1.10938,0 -1.79688,-0.5 -0.6875,-0.5 -0.67188,-1.51562 z m 0.875,-3.73438 q 0,1.21875 0.48438,1.78125 0.48438,0.5625 1.21875,0.5625 0.73437,0 1.21875,-0.5625 0.5,-0.5625 0.5,-1.75 0,-1.14062 -0.51562,-1.71875 -0.5,-0.57812 -1.21876,-0.57812 -0.70312,0 -1.20312,0.57812 -0.48438,0.5625 -0.48438,1.6875 z m 6.32813,3.21875 v -8.59375 h 1.04687 v 3.07813 q 0.73438,-0.84375 1.85938,-0.84375 0.70312,0 1.20312,0.28125 0.51563,0.26562 0.73438,0.75 0.21875,0.46875 0.21875,1.39062 v 3.9375 h -1.04687 v -3.9375 q 0,-0.79687 -0.34376,-1.15625 -0.34374,-0.35937 -0.96874,-0.35937 -0.46876,0 -0.89063,0.25 -0.40625,0.23437 -0.59375,0.65625 -0.17188,0.40625 -0.17188,1.14062 v 3.40625 z m 9.29687,-0.9375 0.15626,0.92188 q -0.45313,0.0937 -0.79688,0.0937 -0.57812,0 -0.89062,-0.17188 -0.3125,-0.1875 -0.45313,-0.48437 -0.125,-0.29688 -0.125,-1.25 v -3.57813 h -0.76563 v -0.8125 h 0.76563 v -1.54687 l 1.04687,-0.625 v 2.17187 h 1.0625 v 0.8125 h -1.0625 v 3.64063 q 0,0.45312 0.0469,0.57812 0.0625,0.125 0.1875,0.20313 0.125,0.0781 0.35938,0.0781 0.1875,0 0.46874,-0.0312 z m 0.70313,-6.4375 v -1.21875 h 1.0625 V 193.35 Z m 0,7.375 v -6.21875 h 1.0625 v 6.21875 z m 3,0 v -6.21875 h 0.9375 v 0.875 q 0.6875,-1.01562 1.98437,-1.01562 0.5625,0 1.03126,0.20312 0.48437,0.20313 0.71874,0.53125 0.23438,0.32813 0.32813,0.76563 0.0469,0.29687 0.0469,1.03125 v 3.82812 h -1.04687 v -3.78125 q 0,-0.65625 -0.125,-0.96875 -0.125,-0.3125 -0.4375,-0.5 -0.3125,-0.20312 -0.73437,-0.20312 -0.67188,0 -1.17188,0.4375 -0.48438,0.42187 -0.48438,1.60937 v 3.40625 z m 6.79687,0.51563 1.03126,0.15625 q 0.0625,0.46875 0.35937,0.6875 0.39063,0.29687 1.0625,0.29687 0.73437,0 1.125,-0.29687 0.40625,-0.29688 0.54687,-0.8125 0.0938,-0.32813 0.0781,-1.35938 -0.6875,0.8125 -1.71875,0.8125 -1.28125,0 -1.98438,-0.92187 -0.70312,-0.9375 -0.70312,-2.21875 0,-0.89063 0.3125,-1.64063 0.32812,-0.76562 0.9375,-1.17187 0.60938,-0.40625 1.4375,-0.40625 1.10938,0 1.82812,0.89062 v -0.75 h 0.96876 v 5.375 q 0,1.45313 -0.29688,2.0625 -0.29688,0.60938 -0.9375,0.95313 -0.64062,0.35937 -1.57812,0.35937 -1.10938,0 -1.79688,-0.5 -0.6875,-0.5 -0.67188,-1.51562 z m 0.875,-3.73438 q 0,1.21875 0.48438,1.78125 0.48438,0.5625 1.21875,0.5625 0.73437,0 1.21875,-0.5625 0.5,-0.5625 0.5,-1.75 0,-1.14062 -0.51562,-1.71875 -0.5,-0.57812 -1.21876,-0.57812 -0.70312,0 -1.20312,0.57812 -0.48438,0.5625 -0.48438,1.6875 z"
     fill-rule="nonzero"
     id="path22" />
  <path
     fill="#000000"
     d="m 521.24775,186.725 v -8.59375 h 2.96875 q 1,0 1.53125,0.125 0.73435,0.17188 1.25,0.60938 0.6875,0.57812 1.01565,1.48437 0.3437,0.89063 0.3437,2.03125 0,0.98438 -0.23435,1.73438 -0.21875,0.75 -0.57815,1.25 -0.35935,0.5 -0.79685,0.78125 -0.42185,0.28125 -1.01565,0.4375 -0.5937,0.14062 -1.375,0.14062 z m 1.14065,-1.01562 h 1.8281 q 0.8594,0 1.34375,-0.15625 0.48435,-0.15625 0.76565,-0.45313 0.4062,-0.39062 0.625,-1.07812 0.23435,-0.6875 0.23435,-1.65625 0,-1.34375 -0.45315,-2.0625 -0.4375,-0.73438 -1.0625,-0.98438 -0.4687,-0.17187 -1.4687,-0.17187 h -1.8125 z m 11.98435,-0.98438 1.09375,0.125 q -0.25,0.95313 -0.9531,1.48438 -0.70315,0.53125 -1.7813,0.53125 -1.35935,0 -2.17185,-0.84375 -0.79685,-0.84375 -0.79685,-2.35938 0,-1.5625 0.8125,-2.42187 0.8125,-0.875 2.0937,-0.875 1.25,0 2.0313,0.84375 0.79685,0.84375 0.79685,2.39062 0,0.0937 0,0.28125 h -4.64065 q 0.0625,1.03125 0.57815,1.57813 0.51565,0.53125 1.29685,0.53125 0.57815,0 0.9844,-0.29688 0.4219,-0.3125 0.65625,-0.96875 z m -3.45315,-1.70312 h 3.4688 q -0.0625,-0.79688 -0.39065,-1.1875 -0.51565,-0.60938 -1.3125,-0.60938 -0.73435,0 -1.23435,0.48438 -0.4844,0.48437 -0.5313,1.3125 z m 8.5,2.76562 0.1563,0.92188 q -0.45315,0.0937 -0.7969,0.0937 -0.5781,0 -0.8906,-0.17188 -0.3125,-0.1875 -0.45315,-0.48437 -0.125,-0.29688 -0.125,-1.25 v -3.57813 h -0.76565 v -0.8125 h 0.76565 v -1.54687 l 1.04685,-0.625 v 2.17187 h 1.0625 v 0.8125 h -1.0625 v 3.64063 q 0,0.45312 0.0469,0.57812 0.0625,0.125 0.1875,0.20313 0.125,0.0781 0.3594,0.0781 0.1875,0 0.4687,-0.0312 z m 4.76565,0.17188 q -0.59375,0.5 -1.14065,0.70312 -0.5312,0.20313 -1.1562,0.20313 -1.0313,0 -1.57815,-0.5 -0.54685,-0.5 -0.54685,-1.28125 0,-0.45313 0.2031,-0.82813 0.2031,-0.39062 0.5469,-0.60937 0.3437,-0.23438 0.7656,-0.34375 0.2969,-0.0937 0.9375,-0.17188 1.2656,-0.14062 1.875,-0.35937 0,-0.21875 0,-0.26563 0,-0.65625 -0.2969,-0.92187 -0.4062,-0.34375 -1.2031,-0.34375 -0.7344,0 -1.09375,0.26562 -0.35935,0.25 -0.53125,0.90625 l -1.03125,-0.14062 q 0.14065,-0.65625 0.46875,-1.0625 0.3281,-0.40625 0.9375,-0.625 0.6094,-0.21875 1.40625,-0.21875 0.79685,0 1.29685,0.1875 0.5,0.1875 0.7344,0.46875 0.2344,0.28125 0.3281,0.71875 0.0469,0.26562 0.0469,0.96875 v 1.40625 q 0,1.46875 0.0625,1.85937 0.0781,0.39063 0.28125,0.75 h -1.10935 q -0.1563,-0.32812 -0.20315,-0.76562 z M 544.09155,183.6 q -0.5781,0.23438 -1.71875,0.40625 -0.65625,0.0937 -0.92185,0.21875 -0.26565,0.10938 -0.4219,0.32813 -0.1406,0.21875 -0.1406,0.5 0,0.42187 0.3125,0.70312 0.3281,0.28125 0.9375,0.28125 0.60935,0 1.0781,-0.26562 0.4844,-0.26563 0.7031,-0.73438 0.1719,-0.35937 0.1719,-1.04687 z m 3.03125,-4.25 v -1.21875 h 1.0625 V 179.35 Z m 0,7.375 v -6.21875 h 1.0625 v 6.21875 z m 2.96875,0 v -8.59375 h 1.0625 v 8.59375 z m 2.6094,-1.85937 1.0312,-0.15625 q 0.0938,0.625 0.4844,0.95312 0.40625,0.32813 1.1406,0.32813 0.7188,0 1.0625,-0.28125 0.3594,-0.29688 0.3594,-0.70313 0,-0.35937 -0.3125,-0.5625 -0.21875,-0.14062 -1.0781,-0.35937 -1.1563,-0.29688 -1.6094,-0.5 -0.4375,-0.21875 -0.6719,-0.59375 -0.23435,-0.375 -0.23435,-0.84375 0,-0.40625 0.1875,-0.76563 0.1875,-0.35937 0.51565,-0.59375 0.25,-0.17187 0.67185,-0.29687 0.42185,-0.125 0.92185,-0.125 0.7188,0 1.26565,0.21875 0.5625,0.20312 0.82815,0.5625 0.2656,0.35937 0.35935,0.95312 l -1.03125,0.14063 q -0.0625,-0.46875 -0.40625,-0.73438 -0.32815,-0.28125 -0.95315,-0.28125 -0.7187,0 -1.0312,0.25 -0.3125,0.23438 -0.3125,0.5625 0,0.20313 0.125,0.35938 0.1406,0.17187 0.4062,0.28125 0.1563,0.0625 0.9375,0.26562 1.125,0.3125 1.5625,0.5 0.4375,0.1875 0.6875,0.54688 0.25,0.35937 0.25,0.90625 0,0.53125 -0.3125,1 -0.29685,0.45312 -0.875,0.71875 -0.5781,0.25 -1.3125,0.25 -1.2187,0 -1.85935,-0.5 -0.625,-0.51563 -0.79685,-1.5 z m 9.7187,0.92187 0.1563,0.92188 q -0.45315,0.0937 -0.7969,0.0937 -0.5781,0 -0.8906,-0.17188 -0.3125,-0.1875 -0.45315,-0.48437 -0.125,-0.29688 -0.125,-1.25 v -3.57813 h -0.76565 v -0.8125 h 0.76565 v -1.54687 l 1.04685,-0.625 v 2.17187 h 1.0625 v 0.8125 h -1.0625 v 3.64063 q 0,0.45312 0.0469,0.57812 0.0625,0.125 0.1875,0.20313 0.125,0.0781 0.3594,0.0781 0.1875,0 0.4687,-0.0312 z m 4.7813,0.9375 v -0.92187 q -0.7344,1.0625 -1.9844,1.0625 -0.5469,0 -1.03125,-0.20313 -0.46875,-0.21875 -0.70315,-0.53125 -0.23435,-0.32812 -0.3281,-0.79687 -0.0625,-0.29688 -0.0625,-0.98438 v -3.84375 h 1.0625 v 3.45313 q 0,0.8125 0.0625,1.10937 0.0937,0.40625 0.40625,0.65625 0.32815,0.23438 0.8125,0.23438 0.46875,0 0.875,-0.23438 0.42185,-0.25 0.59375,-0.67187 0.1875,-0.42188 0.1875,-1.21875 v -3.32813 h 1.0469 v 6.21875 z m 3.17185,0 v -5.40625 h -0.9375 v -0.8125 h 0.9375 v -0.67187 q 0,-0.625 0.10935,-0.92188 0.1563,-0.42187 0.5313,-0.67187 0.3906,-0.25 1.0781,-0.25 0.4531,0 0.9844,0.10937 l -0.1563,0.90625 q -0.3281,-0.0469 -0.625,-0.0469 -0.48435,0 -0.6875,0.20312 -0.1875,0.20313 -0.1875,0.76563 v 0.57812 h 1.2188 v 0.8125 h -1.2188 v 5.40628 z m 7,-2 1.09375,0.125 q -0.25,0.95313 -0.9531,1.48438 -0.70315,0.53125 -1.7813,0.53125 -1.35935,0 -2.17185,-0.84375 -0.79685,-0.84375 -0.79685,-2.35938 0,-1.5625 0.8125,-2.42187 0.8125,-0.875 2.0937,-0.875 1.25,0 2.0313,0.84375 0.79685,0.84375 0.79685,2.39062 0,0.0937 0,0.28125 h -4.64065 q 0.0625,1.03125 0.57815,1.57813 0.51565,0.53125 1.29685,0.53125 0.57815,0 0.9844,-0.29688 0.4219,-0.3125 0.65625,-0.96875 z m -3.45315,-1.70312 h 3.4688 q -0.0625,-0.79688 -0.39065,-1.1875 -0.51565,-0.60938 -1.3125,-0.60938 -0.73435,0 -1.23435,0.48438 -0.4844,0.48437 -0.5313,1.3125 z m 6.20315,3.70312 v -6.21875 h 0.9375 v 0.875 q 0.6875,-1.01562 1.98435,-1.01562 0.5625,0 1.0313,0.20312 0.48435,0.20313 0.7187,0.53125 0.2344,0.32813 0.32815,0.76563 0.0468,0.29687 0.0468,1.03125 v 3.82812 h -1.04685 v -3.78125 q 0,-0.65625 -0.125,-0.96875 -0.125,-0.3125 -0.4375,-0.5 -0.3125,-0.20312 -0.73435,-0.20312 -0.6719,0 -1.1719,0.4375 -0.4844,0.42187 -0.4844,1.60937 v 3.40625 z m 12.20315,-1.39062 V 182.975 h -2.32815 v -0.98437 h 2.32815 v -2.32813 h 1 v 2.32813 h 2.3437 v 0.98437 h -2.3437 v 2.35938 z m 7.9531,1.39062 v -8.59375 h 6.2031 v 1.01563 h -5.0625 v 2.625 h 4.75 v 1.01562 h -4.75 v 2.92188 h 5.26565 v 1.01562 z m 7.7969,2.39063 -0.125,-0.98438 q 0.3437,0.0937 0.60935,0.0937 0.34375,0 0.54685,-0.125 0.2188,-0.10937 0.3594,-0.3125 0.0937,-0.17187 0.3281,-0.79687 0.0157,-0.0781 0.0938,-0.25 l -2.375,-6.23438 h 1.1406 l 1.2969,3.59375 q 0.25,0.6875 0.4531,1.45313 0.1875,-0.73438 0.4375,-1.42188 l 1.3281,-3.625 h 1.0469 l -2.3594,6.32813 q -0.3906,1.01562 -0.5937,1.40625 -0.2813,0.53125 -0.6563,0.76562 -0.35935,0.25 -0.85935,0.25 -0.29685,0 -0.67185,-0.14062 z m 9.29685,-4.39063 1.09375,0.125 q -0.25,0.95313 -0.9531,1.48438 -0.70315,0.53125 -1.7813,0.53125 -1.35935,0 -2.17185,-0.84375 -0.79685,-0.84375 -0.79685,-2.35938 0,-1.5625 0.8125,-2.42187 0.8125,-0.875 2.0937,-0.875 1.25,0 2.0313,0.84375 0.79685,0.84375 0.79685,2.39062 0,0.0937 0,0.28125 h -4.64065 q 0.0625,1.03125 0.57815,1.57813 0.51565,0.53125 1.29685,0.53125 0.57815,0 0.9844,-0.29688 0.4219,-0.3125 0.65625,-0.96875 z m -3.45315,-1.70312 h 3.4688 q -0.0625,-0.79688 -0.39065,-1.1875 -0.51565,-0.60938 -1.3125,-0.60938 -0.73435,0 -1.23435,0.48438 -0.4844,0.48437 -0.5313,1.3125 z m 5.7813,1.125 v -1.0625 h 3.25 v 1.0625 z"
     fill-rule="nonzero"
     id="path23" />
  <path
     fill="#000000"
     d="m 531.74775,200.725 v -8.59375 h 2.96875 q 1,0 1.53125,0.125 0.73435,0.17188 1.25,0.60938 0.6875,0.57812 1.01565,1.48437 0.3437,0.89063 0.3437,2.03125 0,0.98438 -0.23435,1.73438 -0.21875,0.75 -0.57815,1.25 -0.35935,0.5 -0.79685,0.78125 -0.42185,0.28125 -1.01565,0.4375 -0.5937,0.14062 -1.375,0.14062 z m 1.14065,-1.01562 h 1.8281 q 0.8594,0 1.34375,-0.15625 0.48435,-0.15625 0.76565,-0.45313 0.4062,-0.39062 0.625,-1.07812 0.23435,-0.6875 0.23435,-1.65625 0,-1.34375 -0.45315,-2.0625 -0.4375,-0.73438 -1.0625,-0.98438 -0.4687,-0.17187 -1.4687,-0.17187 h -1.8125 z m 7.3437,-2.09375 q 0,-1.73438 0.95315,-2.5625 0.79685,-0.6875 1.95315,-0.6875 1.2812,0 2.0937,0.84375 0.82815,0.82812 0.82815,2.3125 0,1.20312 -0.35935,1.89062 -0.3594,0.6875 -1.0625,1.07813 -0.6875,0.375 -1.5,0.375 -1.2969,0 -2.1094,-0.82813 -0.7969,-0.84375 -0.7969,-2.42187 z m 1.07815,0 q 0,1.1875 0.51565,1.78125 0.5312,0.59375 1.3125,0.59375 0.79685,0 1.3125,-0.59375 0.5156,-0.59375 0.5156,-1.8125 0,-1.15625 -0.53125,-1.75 -0.51565,-0.59375 -1.29685,-0.59375 -0.7813,0 -1.3125,0.59375 -0.51565,0.57812 -0.51565,1.78125 z m 6.3125,3.10937 v -6.21875 h 0.9375 v 0.875 q 0.29685,-0.46875 0.78125,-0.73437 0.4844,-0.28125 1.1094,-0.28125 0.6875,0 1.125,0.28125 0.4531,0.28125 0.625,0.79687 0.75,-1.07812 1.92185,-1.07812 0.9375,0 1.42185,0.51562 0.5,0.5 0.5,1.57813 v 4.26562 h -1.04685 v -3.92187 q 0,-0.625 -0.10935,-0.90625 -0.0938,-0.28125 -0.3594,-0.45313 -0.2656,-0.17187 -0.6406,-0.17187 -0.6563,0 -1.0938,0.4375 -0.42185,0.4375 -0.42185,1.40625 v 3.60937 h -1.0625 v -4.04687 q 0,-0.70313 -0.26565,-1.04688 -0.25,-0.35937 -0.8281,-0.35937 -0.4531,0 -0.8281,0.23437 -0.375,0.23438 -0.5469,0.6875 -0.1719,0.45313 -0.1719,1.29688 v 3.23437 z m 15.25,-2 1.09375,0.125 q -0.25,0.95313 -0.9531,1.48438 -0.70315,0.53125 -1.7813,0.53125 -1.35935,0 -2.17185,-0.84375 -0.79685,-0.84375 -0.79685,-2.35938 0,-1.5625 0.8125,-2.42187 0.8125,-0.875 2.0937,-0.875 1.25,0 2.0313,0.84375 0.79685,0.84375 0.79685,2.39062 0,0.0937 0,0.28125 h -4.64065 q 0.0625,1.03125 0.57815,1.57813 0.51565,0.53125 1.29685,0.53125 0.57815,0 0.9844,-0.29688 0.4219,-0.3125 0.65625,-0.96875 z m -3.45315,-1.70312 h 3.4688 q -0.0625,-0.79688 -0.39065,-1.1875 -0.51565,-0.60938 -1.3125,-0.60938 -0.73435,0 -1.23435,0.48438 -0.4844,0.48437 -0.5313,1.3125 z m 5.7813,1.125 v -1.0625 h 3.25 v 1.0625 z m 4.5,2.57812 v -8.59375 h 1.1406 v 7.57813 h 4.2344 v 1.01562 z m 6.92185,-7.375 v -1.21875 h 1.0625 V 193.35 Z m 0,7.375 v -6.21875 h 1.0625 v 6.21875 z m 2.79685,0.51563 1.0313,0.15625 q 0.0625,0.46875 0.35935,0.6875 0.39065,0.29687 1.0625,0.29687 0.73435,0 1.125,-0.29687 0.40625,-0.29688 0.54685,-0.8125 0.0938,-0.32813 0.0782,-1.35938 -0.6875,0.8125 -1.71875,0.8125 -1.28125,0 -1.9844,-0.92187 -0.7031,-0.9375 -0.7031,-2.21875 0,-0.89063 0.3125,-1.64063 0.3281,-0.76562 0.9375,-1.17187 0.6094,-0.40625 1.4375,-0.40625 1.1094,0 1.8281,0.89062 v -0.75 h 0.9688 v 5.375 q 0,1.45313 -0.2969,2.0625 -0.2969,0.60938 -0.9375,0.95313 -0.6406,0.35937 -1.5781,0.35937 -1.1094,0 -1.7969,-0.5 -0.6875,-0.5 -0.6719,-1.51562 z m 0.875,-3.73438 q 0,1.21875 0.4844,1.78125 0.4844,0.5625 1.21875,0.5625 0.73435,0 1.21875,-0.5625 0.5,-0.5625 0.5,-1.75 0,-1.14062 -0.5156,-1.71875 -0.5,-0.57812 -1.2188,-0.57812 -0.7031,0 -1.2031,0.57812 -0.4844,0.5625 -0.4844,1.6875 z m 6.32815,3.21875 v -8.59375 h 1.04685 v 3.07813 q 0.7344,-0.84375 1.8594,-0.84375 0.7031,0 1.2031,0.28125 0.51565,0.26562 0.7344,0.75 0.21875,0.46875 0.21875,1.39062 v 3.9375 h -1.04685 v -3.9375 q 0,-0.79687 -0.3438,-1.15625 -0.3437,-0.35937 -0.9687,-0.35937 -0.4688,0 -0.89065,0.25 -0.40625,0.23437 -0.59375,0.65625 -0.1719,0.40625 -0.1719,1.14062 v 3.40625 z m 9.29685,-0.9375 0.1563,0.92188 q -0.45315,0.0937 -0.7969,0.0937 -0.5781,0 -0.8906,-0.17188 -0.3125,-0.1875 -0.45315,-0.48437 -0.125,-0.29688 -0.125,-1.25 v -3.57813 h -0.76565 v -0.8125 h 0.76565 v -1.54687 l 1.04685,-0.625 v 2.17187 h 1.0625 v 0.8125 h -1.0625 v 3.64063 q 0,0.45312 0.0469,0.57812 0.0625,0.125 0.1875,0.20313 0.125,0.0781 0.3594,0.0781 0.1875,0 0.4687,-0.0312 z m 0.70315,-6.4375 v -1.21875 h 1.0625 V 193.35 Z m 0,7.375 v -6.21875 h 1.0625 v 6.21875 z m 3,0 v -6.21875 h 0.9375 v 0.875 q 0.6875,-1.01562 1.98435,-1.01562 0.5625,0 1.0313,0.20312 0.48435,0.20313 0.7187,0.53125 0.2344,0.32813 0.32815,0.76563 0.0468,0.29687 0.0468,1.03125 v 3.82812 h -1.04685 v -3.78125 q 0,-0.65625 -0.125,-0.96875 -0.125,-0.3125 -0.4375,-0.5 -0.3125,-0.20312 -0.73435,-0.20312 -0.6719,0 -1.1719,0.4375 -0.4844,0.42187 -0.4844,1.60937 v 3.40625 z m 6.79685,0.51563 1.0313,0.15625 q 0.0625,0.46875 0.35935,0.6875 0.39065,0.29687 1.0625,0.29687 0.73435,0 1.125,-0.29687 0.40625,-0.29688 0.54685,-0.8125 0.0938,-0.32813 0.0782,-1.35938 -0.6875,0.8125 -1.71875,0.8125 -1.28125,0 -1.9844,-0.92187 -0.7031,-0.9375 -0.7031,-2.21875 0,-0.89063 0.3125,-1.64063 0.3281,-0.76562 0.9375,-1.17187 0.6094,-0.40625 1.4375,-0.40625 1.1094,0 1.8281,0.89062 v -0.75 h 0.9688 v 5.375 q 0,1.45313 -0.2969,2.0625 -0.2969,0.60938 -0.9375,0.95313 -0.6406,0.35937 -1.5781,0.35937 -1.1094,0 -1.7969,-0.5 -0.6875,-0.5 -0.6719,-1.51562 z m 0.875,-3.73438 q 0,1.21875 0.4844,1.78125 0.4844,0.5625 1.21875,0.5625 0.73435,0 1.21875,-0.5625 0.5,-0.5625 0.5,-1.75 0,-1.14062 -0.5156,-1.71875 -0.5,-0.57812 -1.2188,-0.57812 -0.7031,0 -1.2031,0.57812 -0.4844,0.5625 -0.4844,1.6875 z"
     fill-rule="nonzero"
     id="path24" />
</svg>
