<?xml version="1.0" encoding="UTF-8" standalone="no"?>
<svg
   version="1.1"
   viewBox="0 0 732.5 258.15625"
   fill="none"
   stroke="none"
   stroke-linecap="square"
   stroke-miterlimit="10"
   width="732.5"
   height="258.15625"
   id="svg26"
   xmlns="http://www.w3.org/2000/svg"
   xmlns:svg="http://www.w3.org/2000/svg">
  <defs
     id="defs26" />
  <path
     stroke="#333333"
     stroke-width="1"
     stroke-linecap="butt"
     d="m 29.5,238.625 h 703"
     fill-rule="nonzero"
     id="path2" />
  <path
     stroke="#cccccc"
     stroke-width="1"
     stroke-linecap="butt"
     d="m 29.5,191.625 h 703"
     fill-rule="nonzero"
     id="path3" />
  <path
     stroke="#cccccc"
     stroke-width="1"
     stroke-linecap="butt"
     d="m 29.5,144.625 h 703"
     fill-rule="nonzero"
     id="path4" />
  <path
     stroke="#cccccc"
     stroke-width="1"
     stroke-linecap="butt"
     d="m 29.5,98.625 h 703"
     fill-rule="nonzero"
     id="path5" />
  <path
     stroke="#cccccc"
     stroke-width="1"
     stroke-linecap="butt"
     d="m 29.5,51.625 h 703"
     fill-rule="nonzero"
     id="path6" />
  <path
     stroke="#cccccc"
     stroke-width="1"
     stroke-linecap="butt"
     d="m 29.5,4.625 h 703"
     fill-rule="nonzero"
     id="path7" />
  <clipPath
     id="id_0">
    <path
       d="m 44.5,21.5 h 703 v 234 h -703 z"
       clip-rule="nonzero"
       id="path8" />
  </clipPath>
  <path
     stroke="#000000"
     stroke-width="2"
     stroke-linecap="butt"
     stroke-opacity="0"
     clip-path="url(#id_0)"
     d="M 207,256 H 102 v -70 c 0,-1.10457 0.89543,-2 2,-2 h 101 c 1.10457,0 2,0.89543 2,2 z"
     fill-rule="nonzero"
     id="path9"
     transform="translate(-15,-16.875)" />
  <path
     fill="#4285f4"
     clip-path="url(#id_0)"
     d="M 207,256 H 102 v -70 c 0,-1.10457 0.89543,-2 2,-2 h 101 c 1.10457,0 2,0.89543 2,2 z"
     fill-rule="nonzero"
     id="path10"
     transform="translate(-15,-16.875)" />
  <path
     stroke="#000000"
     stroke-width="2"
     stroke-linecap="butt"
     stroke-opacity="0"
     clip-path="url(#id_0)"
     d="M 368,256 H 263 v -70 c 0,-1.10457 0.89542,-2 2,-2 h 101 c 1.10458,0 2,0.89543 2,2 z"
     fill-rule="nonzero"
     id="path11"
     transform="translate(-15,-16.875)" />
  <path
     fill="#4285f4"
     clip-path="url(#id_0)"
     d="M 368,256 H 263 v -70 c 0,-1.10457 0.89542,-2 2,-2 h 101 c 1.10458,0 2,0.89543 2,2 z"
     fill-rule="nonzero"
     id="path12"
     transform="translate(-15,-16.875)" />
  <path
     stroke="#000000"
     stroke-width="2"
     stroke-linecap="butt"
     stroke-opacity="0"
     clip-path="url(#id_0)"
     d="M 530,256 H 425 V 30 c 0,-1.10457 0.89542,-2 2,-2 h 101 c 1.10455,0 2,0.89543 2,2 z"
     fill-rule="nonzero"
     id="path13"
     transform="translate(-15,-16.875)" />
  <path
     fill="#4285f4"
     clip-path="url(#id_0)"
     d="M 530,256 H 425 V 30 c 0,-1.10457 0.89542,-2 2,-2 h 101 c 1.10455,0 2,0.89543 2,2 z"
     fill-rule="nonzero"
     id="path14"
     transform="translate(-15,-16.875)" />
  <path
     stroke="#000000"
     stroke-width="2"
     stroke-linecap="butt"
     stroke-opacity="0"
     clip-path="url(#id_0)"
     d="M 691,256 H 586 V 32 c 0,-1.10457 0.89545,-2 2,-2 h 101 c 1.10455,0 2,0.89543 2,2 z"
     fill-rule="nonzero"
     id="path15"
     transform="translate(-15,-16.875)" />
  <path
     fill="#4285f4"
     clip-path="url(#id_0)"
     d="M 691,256 H 586 V 32 c 0,-1.10457 0.89545,-2 2,-2 h 101 c 1.10455,0 2,0.89543 2,2 z"
     fill-rule="nonzero"
     id="path16"
     transform="translate(-15,-16.875)" />
  <path
     fill="#000000"
     d="M 0,238.39062 Q 0,236.85938 0.3125,235.9375 0.625,235 1.234375,234.5 q 0.625,-0.5 1.5625,-0.5 0.6875,0 1.203125,0.28125 0.53125,0.28125 0.875,0.8125 0.34375,0.51563 0.53125,1.26563 0.1875,0.75 0.1875,2.03124 0,1.51563 -0.3125,2.4375 -0.296875,0.92188 -0.921875,1.4375 -0.609375,0.5 -1.5625,0.5 -1.234375,0 -1.953125,-0.89062 Q 0,240.8125 0,238.39062 Z m 1.078125,0 q 0,2.10938 0.5,2.8125 0.5,0.70313 1.21875,0.70313 0.734375,0 1.21875,-0.70313 0.5,-0.70312 0.5,-2.8125 0,-2.125 -0.5,-2.8125 Q 3.53125,234.875 2.78125,234.875 q -0.71875,0 -1.15625,0.60938 -0.546875,0.78124 -0.546875,2.90624 z M 7.59375,242.625 v -1.20312 H 8.796875 V 242.625 Z M 10,238.39062 q 0,-1.53124 0.3125,-2.45312 Q 10.625,235 11.234375,234.5 q 0.625,-0.5 1.5625,-0.5 0.6875,0 1.203125,0.28125 0.53125,0.28125 0.875,0.8125 0.34375,0.51563 0.53125,1.26563 0.1875,0.75 0.1875,2.03124 0,1.51563 -0.3125,2.4375 -0.296875,0.92188 -0.921875,1.4375 -0.609375,0.5 -1.5625,0.5 -1.234375,0 -1.953125,-0.89062 Q 10,240.8125 10,238.39062 Z m 1.078125,0 q 0,2.10938 0.5,2.8125 0.5,0.70313 1.21875,0.70313 0.734375,0 1.21875,-0.70313 0.5,-0.70312 0.5,-2.8125 0,-2.125 -0.5,-2.8125 -0.484375,-0.70312 -1.234375,-0.70312 -0.71875,0 -1.15625,0.60938 -0.546875,0.78124 -0.546875,2.90624 z m 5.921875,0 q 0,-1.53124 0.3125,-2.45312 Q 17.625,235 18.234375,234.5 q 0.625,-0.5 1.5625,-0.5 0.6875,0 1.203125,0.28125 0.53125,0.28125 0.875,0.8125 0.34375,0.51563 0.53125,1.26563 0.1875,0.75 0.1875,2.03124 0,1.51563 -0.3125,2.4375 -0.296875,0.92188 -0.921875,1.4375 -0.609375,0.5 -1.5625,0.5 -1.234375,0 -1.953125,-0.89062 Q 17,240.8125 17,238.39062 Z m 1.078125,0 q 0,2.10938 0.5,2.8125 0.5,0.70313 1.21875,0.70313 0.734375,0 1.21875,-0.70313 0.5,-0.70312 0.5,-2.8125 0,-2.125 -0.5,-2.8125 -0.484375,-0.70312 -1.234375,-0.70312 -0.71875,0 -1.15625,0.60938 -0.546875,0.78124 -0.546875,2.90624 z"
     fill-rule="nonzero"
     id="path17" />
  <path
     fill="#000000"
     d="M 0,191.59062 Q 0,190.05937 0.3125,189.1375 0.625,188.2 1.234375,187.7 q 0.625,-0.5 1.5625,-0.5 0.6875,0 1.203125,0.28125 0.53125,0.28125 0.875,0.8125 0.34375,0.51562 0.53125,1.26562 0.1875,0.75 0.1875,2.03125 0,1.51563 -0.3125,2.4375 -0.296875,0.92188 -0.921875,1.4375 -0.609375,0.5 -1.5625,0.5 -1.234375,0 -1.953125,-0.89062 Q 0,194.0125 0,191.59062 Z m 1.078125,0 q 0,2.10938 0.5,2.8125 0.5,0.70313 1.21875,0.70313 0.734375,0 1.21875,-0.70313 0.5,-0.70312 0.5,-2.8125 0,-2.125 -0.5,-2.8125 Q 3.53125,188.075 2.78125,188.075 q -0.71875,0 -1.15625,0.60937 -0.546875,0.78125 -0.546875,2.90625 z M 7.59375,195.825 v -1.20313 H 8.796875 V 195.825 Z M 10,191.59062 q 0,-1.53125 0.3125,-2.45312 0.3125,-0.9375 0.921875,-1.4375 0.625,-0.5 1.5625,-0.5 0.6875,0 1.203125,0.28125 0.53125,0.28125 0.875,0.8125 0.34375,0.51562 0.53125,1.26562 0.1875,0.75 0.1875,2.03125 0,1.51563 -0.3125,2.4375 -0.296875,0.92188 -0.921875,1.4375 -0.609375,0.5 -1.5625,0.5 -1.234375,0 -1.953125,-0.89062 Q 10,194.0125 10,191.59062 Z m 1.078125,0 q 0,2.10938 0.5,2.8125 0.5,0.70313 1.21875,0.70313 0.734375,0 1.21875,-0.70313 0.5,-0.70312 0.5,-2.8125 0,-2.125 -0.5,-2.8125 -0.484375,-0.70312 -1.234375,-0.70312 -0.71875,0 -1.15625,0.60937 -0.546875,0.78125 -0.546875,2.90625 z m 9.890625,4.23438 h -1.046875 v -6.71875 q -0.390625,0.35937 -1.015625,0.73437 -0.609375,0.35938 -1.09375,0.53125 v -1.01562 q 0.875,-0.42188 1.53125,-1 0.671875,-0.59375 0.953125,-1.15625 h 0.671875 z"
     fill-rule="nonzero"
     id="path18" />
  <path
     fill="#000000"
     d="M 0,144.79062 Q 0,143.25937 0.3125,142.3375 0.625,141.4 1.234375,140.9 q 0.625,-0.5 1.5625,-0.5 0.6875,0 1.203125,0.28124 0.53125,0.28126 0.875,0.8125 0.34375,0.51563 0.53125,1.26563 0.1875,0.75 0.1875,2.03125 0,1.51562 -0.3125,2.4375 -0.296875,0.92188 -0.921875,1.4375 -0.609375,0.5 -1.5625,0.5 -1.234375,0 -1.953125,-0.89062 Q 0,147.2125 0,144.79062 Z m 1.078125,0 q 0,2.10938 0.5,2.8125 0.5,0.70312 1.21875,0.70312 0.734375,0 1.21875,-0.70312 0.5,-0.70312 0.5,-2.8125 0,-2.125 -0.5,-2.8125 Q 3.53125,141.275 2.78125,141.275 q -0.71875,0 -1.15625,0.60937 -0.546875,0.78125 -0.546875,2.90625 z M 7.59375,149.025 v -1.20313 H 8.796875 V 149.025 Z M 10,144.79062 q 0,-1.53125 0.3125,-2.45312 0.3125,-0.9375 0.921875,-1.4375 0.625,-0.5 1.5625,-0.5 0.6875,0 1.203125,0.28124 0.53125,0.28126 0.875,0.8125 0.34375,0.51563 0.53125,1.26563 0.1875,0.75 0.1875,2.03125 0,1.51562 -0.3125,2.4375 -0.296875,0.92188 -0.921875,1.4375 -0.609375,0.5 -1.5625,0.5 -1.234375,0 -1.953125,-0.89062 Q 10,147.2125 10,144.79062 Z m 1.078125,0 q 0,2.10938 0.5,2.8125 0.5,0.70312 1.21875,0.70312 0.734375,0 1.21875,-0.70312 0.5,-0.70312 0.5,-2.8125 0,-2.125 -0.5,-2.8125 -0.484375,-0.70312 -1.234375,-0.70312 -0.71875,0 -1.15625,0.60937 -0.546875,0.78125 -0.546875,2.90625 z m 11.46875,3.21875 v 1.01563 h -5.6875 q 0,-0.375 0.125,-0.73438 0.21875,-0.57812 0.6875,-1.14062 0.484375,-0.5625 1.390625,-1.29688 1.40625,-1.15625 1.890625,-1.82812 0.5,-0.67188 0.5,-1.26563 0,-0.625 -0.453125,-1.04687 -0.453125,-0.4375 -1.171875,-0.4375 -0.765625,0 -1.21875,0.45312 -0.453125,0.45312 -0.46875,1.26562 L 17.0625,142.88437 q 0.109375,-1.21875 0.828125,-1.84375 Q 18.625,140.4 19.859375,140.4 q 1.234375,0 1.953125,0.6875 0.71875,0.6875 0.71875,1.70312 0,0.51562 -0.21875,1.01562 -0.203125,0.48438 -0.703125,1.04688 Q 21.125,145.4 20,146.35312 q -0.953125,0.79688 -1.234375,1.09375 -0.265625,0.28125 -0.4375,0.5625 z"
     fill-rule="nonzero"
     id="path19" />
  <path
     fill="#000000"
     d="M 0,97.99062 Q 0,96.45937 0.3125,95.5375 0.625,94.6 1.234375,94.1 q 0.625,-0.5 1.5625,-0.5 0.6875,0 1.203125,0.28125 0.53125,0.28125 0.875,0.8125 0.34375,0.51562 0.53125,1.26562 0.1875,0.75 0.1875,2.03125 0,1.51563 -0.3125,2.4375 -0.296875,0.92188 -0.921875,1.4375 -0.609375,0.5 -1.5625,0.5 -1.234375,0 -1.953125,-0.89062 Q 0,100.4125 0,97.99062 Z m 1.078125,0 q 0,2.10938 0.5,2.8125 0.5,0.70313 1.21875,0.70313 0.734375,0 1.21875,-0.70313 0.5,-0.70312 0.5,-2.8125 0,-2.125 -0.5,-2.8125 Q 3.53125,94.475 2.78125,94.475 2.0625,94.475 1.625,95.08437 1.078125,95.86562 1.078125,97.99062 Z M 7.59375,102.225 v -1.20313 H 8.796875 V 102.225 Z M 10,97.99062 Q 10,96.45937 10.3125,95.5375 10.625,94.6 11.234375,94.1 q 0.625,-0.5 1.5625,-0.5 0.6875,0 1.203125,0.28125 0.53125,0.28125 0.875,0.8125 0.34375,0.51562 0.53125,1.26562 0.1875,0.75 0.1875,2.03125 0,1.51563 -0.3125,2.4375 -0.296875,0.92188 -0.921875,1.4375 -0.609375,0.5 -1.5625,0.5 -1.234375,0 -1.953125,-0.89062 Q 10,100.4125 10,97.99062 Z m 1.078125,0 q 0,2.10938 0.5,2.8125 0.5,0.70313 1.21875,0.70313 0.734375,0 1.21875,-0.70313 0.5,-0.70312 0.5,-2.8125 0,-2.125 -0.5,-2.8125 Q 13.53125,94.475 12.78125,94.475 q -0.71875,0 -1.15625,0.60937 -0.546875,0.78125 -0.546875,2.90625 z M 17,99.95937 18.0625,99.81875 q 0.171875,0.89062 0.609375,1.29687 0.4375,0.39063 1.0625,0.39063 0.75,0 1.265625,-0.51563 0.515625,-0.51562 0.515625,-1.28125 0,-0.71875 -0.484375,-1.1875 -0.46875,-0.48437 -1.203125,-0.48437 -0.296875,0 -0.75,0.125 l 0.125,-0.9375 q 0.109375,0.0156 0.171875,0.0156 0.671875,0 1.203125,-0.34375 Q 21.125,96.53748 21.125,95.8031 q 0,-0.57812 -0.390625,-0.95312 -0.390625,-0.39063 -1.015625,-0.39063 -0.609375,0 -1.03125,0.39063 -0.40625,0.39062 -0.515625,1.15625 l -1.0625,-0.1875 q 0.1875,-1.04688 0.875,-1.625 0.6875,-0.59375 1.703125,-0.59375 0.703125,0 1.296875,0.3125 0.59375,0.29687 0.90625,0.8125 0.3125,0.51562 0.3125,1.10937 0,0.54688 -0.296875,1.01563 -0.296875,0.45312 -0.875,0.71875 0.75,0.17187 1.171875,0.73437 0.421875,0.54688 0.421875,1.39063 0,1.125 -0.828125,1.90625 -0.8125,0.78125 -2.0625,0.78125 -1.125,0 -1.875,-0.67188 -0.75,-0.6875 -0.859375,-1.75 z"
     fill-rule="nonzero"
     id="path20" />
  <path
     fill="#000000"
     d="M 0,51.19063 Q 0,49.65938 0.3125,48.7375 0.625,47.8 1.234375,47.3 q 0.625,-0.499997 1.5625,-0.499997 0.6875,0 1.203125,0.28125 0.53125,0.281247 0.875,0.812497 0.34375,0.51563 0.53125,1.26563 0.1875,0.75 0.1875,2.03125 0,1.51562 -0.3125,2.4375 -0.296875,0.92187 -0.921875,1.4375 -0.609375,0.5 -1.5625,0.5 Q 1.5625,55.56563 0.84375,54.675 0,53.6125 0,51.19063 Z m 1.078125,0 q 0,2.10937 0.5,2.8125 0.5,0.70312 1.21875,0.70312 0.734375,0 1.21875,-0.70312 0.5,-0.70313 0.5,-2.8125 0,-2.125 -0.5,-2.8125 Q 3.53125,47.675 2.78125,47.675 2.0625,47.675 1.625,48.28438 1.078125,49.06563 1.078125,51.19063 Z M 7.59375,55.425 V 54.22188 H 8.796875 V 55.425 Z M 10,51.19063 Q 10,49.65938 10.3125,48.7375 10.625,47.8 11.234375,47.3 q 0.625,-0.499997 1.5625,-0.499997 0.6875,0 1.203125,0.28125 0.53125,0.281247 0.875,0.812497 0.34375,0.51563 0.53125,1.26563 0.1875,0.75 0.1875,2.03125 0,1.51562 -0.3125,2.4375 -0.296875,0.92187 -0.921875,1.4375 -0.609375,0.5 -1.5625,0.5 -1.234375,0 -1.953125,-0.89063 Q 10,53.6125 10,51.19063 Z m 1.078125,0 q 0,2.10937 0.5,2.8125 0.5,0.70312 1.21875,0.70312 0.734375,0 1.21875,-0.70312 0.5,-0.70313 0.5,-2.8125 0,-2.125 -0.5,-2.8125 Q 13.53125,47.675 12.78125,47.675 q -0.71875,0 -1.15625,0.60938 -0.546875,0.78125 -0.546875,2.90625 z M 20.375,55.425 v -2.0625 h -3.71875 v -0.96875 l 3.921875,-5.562497 H 21.4375 v 5.562497 h 1.15625 V 53.3625 H 21.4375 v 2.0625 z m 0,-3.03125 v -3.85937 l -2.6875,3.85937 z"
     fill-rule="nonzero"
     id="path21" />
  <path
     fill="#000000"
     d="M 0,4.390625 Q 0,2.859375 0.3125,1.9375 0.625,1 1.234375,0.5 1.859375,0 2.796875,0 3.484375,0 4,0.28125 q 0.53125,0.28125 0.875,0.8125 0.34375,0.515625 0.53125,1.265625 0.1875,0.75 0.1875,2.03125 0,1.515625 -0.3125,2.4375 -0.296875,0.921875 -0.921875,1.4375 -0.609375,0.5 -1.5625,0.5 Q 1.5625,8.765625 0.84375,7.875 0,6.8125 0,4.390625 Z m 1.078125,0 q 0,2.109375 0.5,2.8125 0.5,0.703125 1.21875,0.703125 0.734375,0 1.21875,-0.703125 0.5,-0.703125 0.5,-2.8125 0,-2.125 -0.5,-2.8125 Q 3.53125,0.875 2.78125,0.875 2.0625,0.875 1.625,1.484375 1.078125,2.265625 1.078125,4.390625 Z M 7.59375,8.625 V 7.421875 H 8.796875 V 8.625 Z M 10,4.390625 Q 10,2.859375 10.3125,1.9375 10.625,1 11.234375,0.5 11.859375,0 12.796875,0 13.484375,0 14,0.28125 q 0.53125,0.28125 0.875,0.8125 0.34375,0.515625 0.53125,1.265625 0.1875,0.75 0.1875,2.03125 0,1.515625 -0.3125,2.4375 -0.296875,0.921875 -0.921875,1.4375 -0.609375,0.5 -1.5625,0.5 Q 11.5625,8.765625 10.84375,7.875 10,6.8125 10,4.390625 Z m 1.078125,0 q 0,2.109375 0.5,2.8125 0.5,0.703125 1.21875,0.703125 0.734375,0 1.21875,-0.703125 0.5,-0.703125 0.5,-2.8125 0,-2.125 -0.5,-2.8125 Q 13.53125,0.875 12.78125,0.875 q -0.71875,0 -1.15625,0.609375 -0.546875,0.78125 -0.546875,2.90625 z M 17,6.375 18.109375,6.28125 q 0.125,0.8125 0.5625,1.21875 0.453125,0.40625 1.09375,0.40625 0.75,0 1.28125,-0.578125 0.53125,-0.578125 0.53125,-1.515625 0,-0.90625 -0.515625,-1.421875 -0.5,-0.53125 -1.328125,-0.53125 -0.5,0 -0.921875,0.234375 -0.40625,0.234375 -0.640625,0.59375 L 17.1875,4.5625 18.015625,0.15625 h 4.28125 v 1 h -3.4375 l -0.453125,2.3125 q 0.765625,-0.546875 1.609375,-0.546875 1.125,0 1.890625,0.78125 0.78125,0.78125 0.78125,2.015625 0,1.15625 -0.671875,2.015625 -0.828125,1.03125 -2.25,1.03125 -1.171875,0 -1.921875,-0.65625 Q 17.109375,7.453125 17,6.375 Z"
     fill-rule="nonzero"
     id="path22" />
  <path
     fill="#000000"
     d="m 106.50808,255.625 v -8.59375 h 2.96875 q 1,0 1.53125,0.125 0.73438,0.17187 1.25,0.60937 0.6875,0.57813 1.01563,1.48438 0.34375,0.89062 0.34375,2.03125 0,0.98437 -0.23437,1.73437 -0.21875,0.75 -0.57813,1.25 -0.35938,0.5 -0.79688,0.78126 -0.42187,0.28124 -1.01562,0.4375 -0.59375,0.14062 -1.375,0.14062 z m 1.14063,-1.01562 h 1.82812 q 0.85938,0 1.34375,-0.15626 0.48438,-0.15624 0.76563,-0.45312 0.40625,-0.39062 0.625,-1.07812 0.23437,-0.6875 0.23437,-1.65626 0,-1.34374 -0.45312,-2.0625 -0.4375,-0.73437 -1.0625,-0.98437 -0.46875,-0.17187 -1.46875,-0.17187 h -1.8125 z m 11.98438,-0.98438 1.09375,0.125 q -0.25,0.95312 -0.95313,1.48438 -0.70312,0.53124 -1.78125,0.53124 -1.35937,0 -2.17187,-0.84374 -0.79688,-0.84376 -0.79688,-2.35938 0,-1.5625 0.8125,-2.42188 0.8125,-0.875 2.09375,-0.875 1.25,0 2.03125,0.84376 0.79688,0.84374 0.79688,2.39062 0,0.0937 0,0.28125 h -4.64063 q 0.0625,1.03125 0.57813,1.57813 0.51562,0.53124 1.29687,0.53124 0.57813,0 0.98438,-0.29687 0.42187,-0.3125 0.65625,-0.96875 z m -3.45313,-1.70312 h 3.46875 q -0.0625,-0.79688 -0.39062,-1.1875 -0.51563,-0.60938 -1.3125,-0.60938 -0.73438,0 -1.23438,0.48438 -0.48437,0.48437 -0.53125,1.3125 z m 8.5,2.76562 0.15625,0.92188 q -0.45312,0.0937 -0.79687,0.0937 -0.57813,0 -0.89063,-0.17187 -0.3125,-0.1875 -0.45312,-0.48437 -0.125,-0.29688 -0.125,-1.25 v -3.57813 h -0.76563 v -0.8125 h 0.76563 v -1.54687 l 1.04687,-0.625 v 2.17187 h 1.0625 v 0.8125 h -1.0625 v 3.64063 q 0,0.45312 0.0469,0.57812 0.0625,0.125 0.1875,0.20312 0.125,0.0781 0.35937,0.0781 0.1875,0 0.46875,-0.0312 z m 4.76563,0.17188 q -0.59375,0.5 -1.14063,0.70312 -0.53125,0.20312 -1.15625,0.20312 -1.03125,0 -1.57812,-0.5 -0.54688,-0.5 -0.54688,-1.28124 0,-0.45313 0.20313,-0.82813 0.20312,-0.39063 0.54687,-0.60937 0.34375,-0.23438 0.76563,-0.34376 0.29687,-0.0937 0.9375,-0.17187 1.26562,-0.14063 1.875,-0.35937 0,-0.21876 0,-0.26563 0,-0.65625 -0.29688,-0.92187 -0.40625,-0.34376 -1.20312,-0.34376 -0.73438,0 -1.09375,0.26563 -0.35938,0.25 -0.53125,0.90625 l -1.03125,-0.14062 q 0.14062,-0.65626 0.46875,-1.0625 0.32812,-0.40626 0.9375,-0.625 0.60937,-0.21876 1.40625,-0.21876 0.79687,0 1.29687,0.1875 0.5,0.1875 0.73438,0.46876 0.23437,0.28124 0.32812,0.71874 0.0469,0.26563 0.0469,0.96876 v 1.40624 q 0,1.46876 0.0625,1.85938 0.0781,0.39062 0.28125,0.75 h -1.10938 q -0.15625,-0.32812 -0.20312,-0.76562 z M 129.35189,252.5 q -0.57813,0.23438 -1.71875,0.40625 -0.65625,0.0937 -0.92188,0.21875 -0.26562,0.10938 -0.42187,0.32812 -0.14063,0.21876 -0.14063,0.5 0,0.42188 0.3125,0.70313 0.32813,0.28125 0.9375,0.28125 0.60938,0 1.07813,-0.26562 0.48437,-0.26563 0.70312,-0.73438 0.17188,-0.35938 0.17188,-1.04688 z m 3.03125,-4.25 v -1.21875 h 1.0625 V 248.25 Z m 0,7.375 v -6.21875 h 1.0625 v 6.21875 z m 2.96875,0 v -8.59375 h 1.0625 v 8.59375 z m 2.60937,-1.85938 1.03125,-0.15624 q 0.0937,0.625 0.48438,0.95312 0.40625,0.32812 1.14062,0.32812 0.71875,0 1.0625,-0.28124 0.35938,-0.29688 0.35938,-0.70313 0,-0.35937 -0.3125,-0.5625 -0.21875,-0.14063 -1.07813,-0.35937 -1.15625,-0.29688 -1.60937,-0.5 -0.4375,-0.21876 -0.67188,-0.59376 -0.23437,-0.375 -0.23437,-0.84374 0,-0.40626 0.1875,-0.76563 0.1875,-0.35937 0.51562,-0.59375 0.25,-0.17188 0.67188,-0.29688 0.42187,-0.125 0.92187,-0.125 0.71875,0 1.26563,0.21876 0.5625,0.20312 0.82812,0.5625 0.26563,0.35937 0.35938,0.95312 l -1.03125,0.14062 q -0.0625,-0.46874 -0.40625,-0.73437 -0.32818,-0.28125 -0.95318,-0.28125 -0.71875,0 -1.03125,0.25 -0.3125,0.23438 -0.3125,0.5625 0,0.20312 0.125,0.35938 0.14063,0.17187 0.40625,0.28124 0.15625,0.0625 0.9375,0.26563 1.125,0.3125 1.5625,0.5 0.4375,0.1875 0.6875,0.54687 0.25,0.35938 0.25,0.90626 0,0.53124 -0.3125,1 -0.29687,0.45312 -0.875,0.71874 -0.57812,0.25 -1.3125,0.25 -1.21875,0 -1.85937,-0.5 -0.625,-0.51562 -0.79688,-1.5 z m 9.71875,0.92188 0.15625,0.92188 q -0.45312,0.0937 -0.79687,0.0937 -0.57813,0 -0.89063,-0.17187 -0.3125,-0.1875 -0.45312,-0.48437 -0.125,-0.29688 -0.125,-1.25 v -3.57813 h -0.76563 v -0.8125 h 0.76563 v -1.54687 l 1.04687,-0.625 v 2.17187 h 1.0625 v 0.8125 h -1.0625 v 3.64063 q 0,0.45312 0.0469,0.57812 0.0625,0.125 0.1875,0.20312 0.125,0.0781 0.35937,0.0781 0.1875,0 0.46875,-0.0312 z m 4.78125,0.9375 v -0.92188 q -0.73437,1.0625 -1.98437,1.0625 -0.54688,0 -1.03125,-0.20312 -0.46875,-0.21875 -0.70313,-0.53125 -0.23437,-0.32813 -0.32812,-0.79687 -0.0625,-0.29688 -0.0625,-0.98438 v -3.84375 h 1.0625 v 3.45313 q 0,0.8125 0.0625,1.10937 0.0937,0.40625 0.40625,0.65625 0.32812,0.23438 0.8125,0.23438 0.46875,0 0.875,-0.23438 0.42187,-0.25 0.59375,-0.67188 0.1875,-0.42187 0.1875,-1.21874 v -3.32813 h 1.04687 v 6.21875 z m 3.17188,0 v -5.40625 h -0.9375 v -0.8125 h 0.9375 v -0.67187 q 0,-0.625 0.10937,-0.92188 0.15625,-0.42188 0.53125,-0.67188 0.39063,-0.25 1.07813,-0.25 0.45312,0 0.98437,0.10938 l -0.15625,0.90625 q -0.32812,-0.0469 -0.625,-0.0469 -0.48437,0 -0.6875,0.20312 -0.1875,0.20312 -0.1875,0.76562 v 0.57813 h 1.21875 v 0.8125 h -1.21875 v 5.40628 z m 7,-2 1.09375,0.125 q -0.25,0.95312 -0.95313,1.48438 -0.70312,0.53124 -1.78125,0.53124 -1.35937,0 -2.17187,-0.84374 -0.79688,-0.84376 -0.79688,-2.35938 0,-1.5625 0.8125,-2.42188 0.8125,-0.875 2.09375,-0.875 1.25,0 2.03125,0.84376 0.79688,0.84374 0.79688,2.39062 0,0.0937 0,0.28125 h -4.64063 q 0.0625,1.03125 0.57813,1.57813 0.51562,0.53124 1.29687,0.53124 0.57813,0 0.98438,-0.29687 0.42187,-0.3125 0.65625,-0.96875 z m -3.45313,-1.70312 h 3.46875 q -0.0626,-0.79688 -0.39067,-1.1875 -0.51563,-0.60938 -1.3125,-0.60938 -0.73438,0 -1.23438,0.48438 -0.48437,0.48437 -0.53125,1.3125 z m 6.20313,3.70312 v -6.21875 h 0.9375 v 0.875 q 0.6875,-1.01563 1.98437,-1.01563 0.5625,0 1.03125,0.20313 0.48438,0.20313 0.71875,0.53125 0.23438,0.32812 0.32813,0.76562 0.0469,0.29688 0.0469,1.03126 v 3.82812 h -1.04687 v -3.78125 q 0,-0.65625 -0.125,-0.96875 -0.125,-0.3125 -0.4375,-0.5 -0.3125,-0.20312 -0.73438,-0.20312 -0.67187,0 -1.17187,0.4375 -0.48438,0.42187 -0.48438,1.60937 v 3.40625 z"
     fill-rule="nonzero"
     id="path23" />
  <path
     fill="#000000"
     d="m 208.61728,255.625 v -8.59375 h 2.96875 q 1,0 1.53125,0.125 0.73437,0.17187 1.25,0.60937 0.6875,0.57813 1.01562,1.48438 0.34375,0.89062 0.34375,2.03125 0,0.98437 -0.23437,1.73437 -0.21875,0.75 -0.57813,1.25 -0.35937,0.5 -0.79687,0.78126 -0.42188,0.28124 -1.01563,0.4375 -0.59375,0.14062 -1.375,0.14062 z m 1.14062,-1.01562 h 1.82813 q 0.85937,0 1.34375,-0.15626 0.48437,-0.15624 0.76562,-0.45312 0.40625,-0.39062 0.625,-1.07812 0.23438,-0.6875 0.23438,-1.65626 0,-1.34374 -0.45313,-2.0625 -0.4375,-0.73437 -1.0625,-0.98437 -0.46875,-0.17187 -1.46875,-0.17187 h -1.8125 z m 11.98438,-0.98438 1.09375,0.125 q -0.25,0.95312 -0.95313,1.48438 -0.70312,0.53124 -1.78125,0.53124 -1.35937,0 -2.17187,-0.84374 -0.79688,-0.84376 -0.79688,-2.35938 0,-1.5625 0.8125,-2.42188 0.8125,-0.875 2.09375,-0.875 1.25,0 2.03125,0.84376 0.79688,0.84374 0.79688,2.39062 0,0.0937 0,0.28125 h -4.64063 q 0.0625,1.03125 0.57813,1.57813 0.51562,0.53124 1.29687,0.53124 0.57813,0 0.98438,-0.29687 0.42187,-0.3125 0.65625,-0.96875 z m -3.45313,-1.70312 h 3.46875 q -0.0625,-0.79688 -0.39062,-1.1875 -0.51563,-0.60938 -1.3125,-0.60938 -0.73438,0 -1.23438,0.48438 -0.48437,0.48437 -0.53125,1.3125 z m 8.5,2.76562 0.15625,0.92188 q -0.45312,0.0937 -0.79687,0.0937 -0.57813,0 -0.89063,-0.17187 -0.3125,-0.1875 -0.45312,-0.48437 -0.125,-0.29688 -0.125,-1.25 v -3.57813 h -0.76563 v -0.8125 h 0.76563 v -1.54687 l 1.04687,-0.625 v 2.17187 h 1.0625 v 0.8125 h -1.0625 v 3.64063 q 0,0.45312 0.0469,0.57812 0.0625,0.125 0.1875,0.20312 0.125,0.0781 0.35937,0.0781 0.1875,0 0.46875,-0.0312 z m 4.76563,0.17188 q -0.59375,0.5 -1.14063,0.70312 -0.53125,0.20312 -1.15625,0.20312 -1.03125,0 -1.57812,-0.5 -0.54688,-0.5 -0.54688,-1.28124 0,-0.45313 0.20313,-0.82813 0.20312,-0.39063 0.54687,-0.60937 0.34375,-0.23438 0.76563,-0.34376 0.29687,-0.0937 0.9375,-0.17187 1.26562,-0.14063 1.875,-0.35937 0,-0.21876 0,-0.26563 0,-0.65625 -0.29688,-0.92187 -0.40625,-0.34376 -1.20312,-0.34376 -0.73438,0 -1.09375,0.26563 -0.35938,0.25 -0.53125,0.90625 l -1.03125,-0.14062 q 0.14062,-0.65626 0.46875,-1.0625 0.32812,-0.40626 0.9375,-0.625 0.60937,-0.21876 1.40625,-0.21876 0.79687,0 1.29687,0.1875 0.5,0.1875 0.73438,0.46876 0.23437,0.28124 0.32812,0.71874 0.0469,0.26563 0.0469,0.96876 v 1.40624 q 0,1.46876 0.0625,1.85938 0.0781,0.39062 0.28125,0.75 h -1.10938 q -0.15625,-0.32812 -0.20312,-0.76562 z M 231.46108,252.5 q -0.57813,0.23438 -1.71875,0.40625 -0.65625,0.0937 -0.92188,0.21875 -0.26562,0.10938 -0.42187,0.32812 -0.14063,0.21876 -0.14063,0.5 0,0.42188 0.3125,0.70313 0.32813,0.28125 0.9375,0.28125 0.60938,0 1.07813,-0.26562 0.48437,-0.26563 0.70312,-0.73438 0.17188,-0.35938 0.17188,-1.04688 z m 3.03125,-4.25 v -1.21875 h 1.0625 V 248.25 Z m 0,7.375 v -6.21875 h 1.0625 v 6.21875 z m 2.96875,0 v -8.59375 h 1.0625 v 8.59375 z m 2.60937,-1.85938 1.03125,-0.15624 q 0.0937,0.625 0.48438,0.95312 0.40625,0.32812 1.14062,0.32812 0.71875,0 1.0625,-0.28124 0.35938,-0.29688 0.35938,-0.70313 0,-0.35937 -0.3125,-0.5625 -0.21875,-0.14063 -1.07813,-0.35937 -1.15625,-0.29688 -1.60937,-0.5 -0.4375,-0.21876 -0.67188,-0.59376 -0.23437,-0.375 -0.23437,-0.84374 0,-0.40626 0.1875,-0.76563 0.1875,-0.35937 0.51562,-0.59375 0.25,-0.17188 0.67188,-0.29688 0.42187,-0.125 0.92187,-0.125 0.71875,0 1.26563,0.21876 0.5625,0.20312 0.82812,0.5625 0.26563,0.35937 0.35938,0.95312 l -1.03125,0.14062 q -0.0625,-0.46874 -0.40625,-0.73437 -0.32818,-0.28125 -0.95318,-0.28125 -0.71875,0 -1.03125,0.25 -0.3125,0.23438 -0.3125,0.5625 0,0.20312 0.125,0.35938 0.14063,0.17187 0.40625,0.28124 0.15625,0.0625 0.9375,0.26563 1.125,0.3125 1.5625,0.5 0.4375,0.1875 0.6875,0.54687 0.25,0.35938 0.25,0.90626 0,0.53124 -0.3125,1 -0.29687,0.45312 -0.875,0.71874 -0.57812,0.25 -1.3125,0.25 -1.21875,0 -1.85937,-0.5 -0.625,-0.51562 -0.79688,-1.5 z m 9.71875,0.92188 0.15625,0.92188 q -0.45312,0.0937 -0.79687,0.0937 -0.57813,0 -0.89063,-0.17187 -0.3125,-0.1875 -0.45312,-0.48437 -0.125,-0.29688 -0.125,-1.25 v -3.57813 h -0.76563 v -0.8125 h 0.76563 v -1.54687 l 1.04687,-0.625 v 2.17187 h 1.0625 v 0.8125 h -1.0625 v 3.64063 q 0,0.45312 0.0469,0.57812 0.0625,0.125 0.1875,0.20312 0.125,0.0781 0.35937,0.0781 0.1875,0 0.46875,-0.0312 z m 4.78125,0.9375 v -0.92188 q -0.73437,1.0625 -1.98437,1.0625 -0.54688,0 -1.03125,-0.20312 -0.46875,-0.21875 -0.70313,-0.53125 -0.23437,-0.32813 -0.32812,-0.79687 -0.0625,-0.29688 -0.0625,-0.98438 v -3.84375 h 1.0625 v 3.45313 q 0,0.8125 0.0625,1.10937 0.0937,0.40625 0.40625,0.65625 0.32812,0.23438 0.8125,0.23438 0.46875,0 0.875,-0.23438 0.42187,-0.25 0.59375,-0.67188 0.1875,-0.42187 0.1875,-1.21874 v -3.32813 h 1.04687 v 6.21875 z m 3.17188,0 v -5.40625 h -0.9375 v -0.8125 h 0.9375 v -0.67187 q 0,-0.625 0.10937,-0.92188 0.15625,-0.42188 0.53125,-0.67188 0.39063,-0.25 1.07813,-0.25 0.45312,0 0.98437,0.10938 l -0.15625,0.90625 q -0.32812,-0.0469 -0.625,-0.0469 -0.48437,0 -0.6875,0.20312 -0.1875,0.20312 -0.1875,0.76562 v 0.57813 h 1.21875 v 0.8125 h -1.21875 v 5.40628 z m 7,-2 1.09375,0.125 q -0.25,0.95312 -0.95313,1.48438 -0.70312,0.53124 -1.78125,0.53124 -1.35937,0 -2.17187,-0.84374 -0.79688,-0.84376 -0.79688,-2.35938 0,-1.5625 0.8125,-2.42188 0.8125,-0.875 2.09375,-0.875 1.25,0 2.03125,0.84376 0.79688,0.84374 0.79688,2.39062 0,0.0937 0,0.28125 h -4.64063 q 0.0625,1.03125 0.57813,1.57813 0.51562,0.53124 1.29687,0.53124 0.57813,0 0.98438,-0.29687 0.42187,-0.3125 0.65625,-0.96875 z m -3.45313,-1.70312 h 3.46875 q -0.0625,-0.79688 -0.39067,-1.1875 -0.51563,-0.60938 -1.3125,-0.60938 -0.73438,0 -1.23438,0.48438 -0.48437,0.48437 -0.53125,1.3125 z m 6.20313,3.70312 v -6.21875 h 0.9375 v 0.875 q 0.6875,-1.01563 1.98437,-1.01563 0.5625,0 1.03125,0.20313 0.48438,0.20313 0.71875,0.53125 0.23438,0.32812 0.32813,0.76562 0.0469,0.29688 0.0469,1.03126 v 3.82812 h -1.04687 v -3.78125 q 0,-0.65625 -0.125,-0.96875 -0.125,-0.3125 -0.4375,-0.5 -0.3125,-0.20312 -0.73438,-0.20312 -0.67187,0 -1.17187,0.4375 -0.48438,0.42187 -0.48438,1.60937 v 3.40625 z m 12.20312,-1.39062 V 251.875 h -2.32812 v -0.98438 h 2.32812 v -2.32812 h 1 v 2.32812 h 2.34375 v 0.98438 h -2.34375 v 2.35938 z m 7.95313,1.39062 v -8.59375 h 6.20312 v 1.01563 h -5.0625 v 2.625 h 4.75 v 1.01562 h -4.75 v 2.92188 h 5.26563 v 1.01562 z m 7.79687,2.39062 -0.125,-0.98437 q 0.34375,0.0937 0.60938,0.0937 0.34375,0 0.54687,-0.125 0.21875,-0.10938 0.35938,-0.3125 0.0937,-0.17188 0.32812,-0.79688 0.0156,-0.0781 0.0937,-0.25 l -2.375,-6.23437 h 1.14063 l 1.29687,3.59375 q 0.25,0.6875 0.45313,1.45312 0.1875,-0.73437 0.4375,-1.42187 l 1.32812,-3.625 h 1.04688 l -2.35938,6.32813 q -0.39062,1.01562 -0.59375,1.40624 -0.28125,0.53126 -0.65625,0.76563 -0.35937,0.25 -0.85937,0.25 -0.29688,0 -0.67188,-0.14063 z m 9.29688,-4.39062 1.09375,0.125 q -0.25,0.95312 -0.95313,1.48438 -0.70312,0.53124 -1.78125,0.53124 -1.35937,0 -2.17187,-0.84374 -0.79688,-0.84376 -0.79688,-2.35938 0,-1.5625 0.8125,-2.42188 0.8125,-0.875 2.09375,-0.875 1.25,0 2.03125,0.84376 0.79688,0.84374 0.79688,2.39062 0,0.0937 0,0.28125 h -4.64063 q 0.0625,1.03125 0.57813,1.57813 0.51562,0.53124 1.29687,0.53124 0.57813,0 0.98438,-0.29687 0.42187,-0.3125 0.65625,-0.96875 z m -3.45313,-1.70312 h 3.46875 q -0.0625,-0.79688 -0.39067,-1.1875 -0.51563,-0.60938 -1.3125,-0.60938 -0.73438,0 -1.23438,0.48438 -0.48437,0.48437 -0.53125,1.3125 z m 5.78125,1.125 v -1.0625 h 3.25 v 1.0625 z m 4.54688,2.57812 v -8.59375 h 2.96875 q 1,0 1.53125,0.125 0.73437,0.17187 1.25,0.60937 0.6875,0.57813 1.01562,1.48438 0.34375,0.89062 0.34375,2.03125 0,0.98437 -0.23437,1.73437 -0.21875,0.75 -0.57813,1.25 -0.35937,0.5 -0.79687,0.78126 -0.42188,0.28124 -1.01563,0.4375 -0.59375,0.14062 -1.375,0.14062 z m 1.14062,-1.01562 h 1.82813 q 0.85937,0 1.34375,-0.15626 0.48437,-0.15624 0.76562,-0.45312 0.40625,-0.39062 0.625,-1.07812 0.23438,-0.6875 0.23438,-1.65626 0,-1.34374 -0.45313,-2.0625 -0.4375,-0.73437 -1.0625,-0.98437 -0.46875,-0.17187 -1.46875,-0.17187 h -1.8125 z m 7.34375,-2.09376 q 0,-1.73437 0.95313,-2.5625 0.79687,-0.6875 1.95312,-0.6875 1.28125,0 2.09375,0.84376 0.82813,0.82812 0.82813,2.3125 0,1.20312 -0.35938,1.89062 -0.35937,0.6875 -1.0625,1.07812 -0.6875,0.375 -1.5,0.375 -1.29687,0 -2.10937,-0.82812 -0.79688,-0.84375 -0.79688,-2.42188 z m 1.07813,0 q 0,1.1875 0.51562,1.78126 0.53125,0.59374 1.3125,0.59374 0.79688,0 1.3125,-0.59374 0.51563,-0.59376 0.51563,-1.8125 0,-1.15626 -0.53125,-1.75 -0.51563,-0.59376 -1.29688,-0.59376 -0.78125,0 -1.3125,0.59376 -0.51562,0.57812 -0.51562,1.78124 z m 6.3125,3.10938 v -6.21875 h 0.9375 v 0.875 q 0.29687,-0.46875 0.78125,-0.73437 0.48437,-0.28126 1.10937,-0.28126 0.6875,0 1.125,0.28126 0.45313,0.28124 0.625,0.79687 0.75,-1.07813 1.92188,-1.07813 0.9375,0 1.42187,0.51563 0.5,0.5 0.5,1.57813 v 4.26562 h -1.04687 v -3.92188 q 0,-0.625 -0.10938,-0.90624 -0.0937,-0.28126 -0.35937,-0.45313 -0.26563,-0.17187 -0.64063,-0.17187 -0.65625,0 -1.09375,0.4375 -0.42187,0.4375 -0.42187,1.40624 v 3.60938 h -1.0625 v -4.04688 q 0,-0.70312 -0.26563,-1.04687 -0.25,-0.35937 -0.82812,-0.35937 -0.45313,0 -0.82813,0.23437 -0.375,0.23437 -0.54687,0.6875 -0.17188,0.45313 -0.17188,1.29687 v 3.23438 z m 15.25,-2 1.09375,0.125 q -0.25,0.95312 -0.95313,1.48438 -0.70312,0.53124 -1.78125,0.53124 -1.35937,0 -2.17187,-0.84374 -0.79688,-0.84376 -0.79688,-2.35938 0,-1.5625 0.8125,-2.42188 0.8125,-0.875 2.09375,-0.875 1.25,0 2.03125,0.84376 0.79688,0.84374 0.79688,2.39062 0,0.0937 0,0.28125 h -4.64063 q 0.0625,1.03125 0.57813,1.57813 0.51562,0.53124 1.29687,0.53124 0.57813,0 0.98438,-0.29687 0.42187,-0.3125 0.65625,-0.96875 z m -3.45313,-1.70312 h 3.46875 q -0.0625,-0.79688 -0.39067,-1.1875 -0.51563,-0.60938 -1.3125,-0.60938 -0.73438,0 -1.23438,0.48438 -0.48437,0.48437 -0.53125,1.3125 z m 5.78125,1.125 v -1.0625 h 3.25 v 1.0625 z m 4.5,2.57812 v -8.59375 h 1.14063 v 7.57813 h 4.23437 v 1.01562 z m 6.92188,-7.375 v -1.21875 h 1.0625 V 248.25 Z m 0,7.375 v -6.21875 h 1.0625 v 6.21875 z m 2.79687,0.51562 1.03125,0.15626 q 0.0625,0.46874 0.35938,0.6875 0.39062,0.29687 1.0625,0.29687 0.73437,0 1.125,-0.29687 0.40625,-0.29688 0.54687,-0.8125 0.0937,-0.32813 0.0781,-1.35938 -0.6875,0.8125 -1.71875,0.8125 -1.28125,0 -1.98438,-0.92188 -0.70312,-0.9375 -0.70312,-2.21874 0,-0.89063 0.3125,-1.64063 0.32812,-0.76563 0.9375,-1.17187 0.60937,-0.40626 1.4375,-0.40626 1.10937,0 1.82812,0.89063 v -0.75 h 0.96875 v 5.375 q 0,1.45313 -0.29687,2.0625 -0.29688,0.60937 -0.9375,0.95313 -0.64063,0.35937 -1.57813,0.35937 -1.10937,0 -1.79687,-0.5 -0.6875,-0.5 -0.67188,-1.51563 z m 0.875,-3.73437 q 0,1.21875 0.48438,1.78125 0.48437,0.5625 1.21875,0.5625 0.73437,0 1.21875,-0.5625 0.5,-0.5625 0.5,-1.75 0,-1.14062 -0.51563,-1.71875 -0.5,-0.57813 -1.21875,-0.57813 -0.70312,0 -1.20312,0.57813 -0.48438,0.5625 -0.48438,1.6875 z m 6.32813,3.21875 v -8.59375 h 1.04687 v 3.07813 q 0.73438,-0.84376 1.85938,-0.84376 0.70312,0 1.20312,0.28126 0.51563,0.26562 0.73438,0.75 0.21875,0.46874 0.21875,1.39062 v 3.9375 h -1.04688 v -3.9375 q 0,-0.79688 -0.34375,-1.15625 -0.34375,-0.35937 -0.96875,-0.35937 -0.46875,0 -0.89062,0.25 -0.40625,0.23437 -0.59375,0.65624 -0.17188,0.40626 -0.17188,1.14063 v 3.40625 z m 9.29687,-0.9375 0.15625,0.92188 q -0.45312,0.0937 -0.79687,0.0937 -0.57813,0 -0.89063,-0.17187 -0.3125,-0.1875 -0.45312,-0.48437 -0.125,-0.29688 -0.125,-1.25 v -3.57813 h -0.76563 v -0.8125 h 0.76563 v -1.54687 l 1.04687,-0.625 v 2.17187 h 1.0625 v 0.8125 h -1.0625 v 3.64063 q 0,0.45312 0.0469,0.57812 0.0625,0.125 0.1875,0.20312 0.125,0.0781 0.35937,0.0781 0.1875,0 0.46875,-0.0312 z m 0.70313,-6.4375 v -1.21875 h 1.0625 V 248.25 Z m 0,7.375 v -6.21875 h 1.0625 v 6.21875 z m 3,0 v -6.21875 h 0.9375 v 0.875 q 0.6875,-1.01563 1.98437,-1.01563 0.5625,0 1.03125,0.20313 0.48438,0.20313 0.71875,0.53125 0.23438,0.32812 0.32813,0.76562 0.0469,0.29688 0.0469,1.03126 v 3.82812 h -1.04687 v -3.78125 q 0,-0.65625 -0.125,-0.96875 -0.125,-0.3125 -0.4375,-0.5 -0.3125,-0.20312 -0.73438,-0.20312 -0.67187,0 -1.17187,0.4375 -0.48438,0.42187 -0.48438,1.60937 v 3.40625 z m 6.79687,0.51562 1.03125,0.15626 q 0.0625,0.46874 0.35938,0.6875 0.39062,0.29687 1.0625,0.29687 0.73437,0 1.125,-0.29687 0.40625,-0.29688 0.54687,-0.8125 0.0937,-0.32813 0.0781,-1.35938 -0.6875,0.8125 -1.71875,0.8125 -1.28125,0 -1.98438,-0.92188 -0.70312,-0.9375 -0.70312,-2.21874 0,-0.89063 0.3125,-1.64063 0.32812,-0.76563 0.9375,-1.17187 0.60937,-0.40626 1.4375,-0.40626 1.10937,0 1.82812,0.89063 v -0.75 h 0.96875 v 5.375 q 0,1.45313 -0.29687,2.0625 -0.29688,0.60937 -0.9375,0.95313 -0.64063,0.35937 -1.57813,0.35937 -1.10937,0 -1.79687,-0.5 -0.6875,-0.5 -0.67188,-1.51563 z m 0.875,-3.73437 q 0,1.21875 0.48438,1.78125 0.48437,0.5625 1.21875,0.5625 0.73437,0 1.21875,-0.5625 0.5,-0.5625 0.5,-1.75 0,-1.14062 -0.51563,-1.71875 -0.5,-0.57813 -1.21875,-0.57813 -0.70312,0 -1.20312,0.57813 -0.48438,0.5625 -0.48438,1.6875 z"
     fill-rule="nonzero"
     id="path24" />
  <path
     fill="#000000"
     d="m 431.28897,255.625 3.29688,-8.59375 h 1.21875 l 3.51562,8.59375 h -1.28125 l -1.01562,-2.60938 h -3.57813 l -0.95312,2.60938 z m 2.48438,-3.53125 h 2.90625 l -0.89063,-2.375 q -0.42187,-1.07813 -0.60937,-1.78125 -0.17188,0.82812 -0.46875,1.64062 z m 5.29687,3.53125 v -8.59375 h 1.0625 v 8.59375 z m 3,0 v -8.59375 h 1.0625 v 8.59375 z m 7.28125,-2 1.09375,0.125 q -0.25,0.95312 -0.95312,1.48438 -0.70313,0.53124 -1.78125,0.53124 -1.35938,0 -2.17188,-0.84374 -0.79687,-0.84376 -0.79687,-2.35938 0,-1.5625 0.8125,-2.42188 0.8125,-0.875 2.09375,-0.875 1.25,0 2.03125,0.84376 0.79687,0.84374 0.79687,2.39062 0,0.0937 0,0.28125 h -4.64062 q 0.0625,1.03125 0.57812,1.57813 0.51563,0.53124 1.29688,0.53124 0.57812,0 0.98437,-0.29687 0.42188,-0.3125 0.65625,-0.96875 z m -3.45312,-1.70312 h 3.46875 q -0.0625,-0.79688 -0.39063,-1.1875 -0.51562,-0.60938 -1.3125,-0.60938 -0.73437,0 -1.23437,0.48438 -0.48438,0.48437 -0.53125,1.3125 z m 9.32812,3.70312 v -8.59375 h 3.25 q 0.84375,0 1.29688,0.0781 0.64062,0.10937 1.0625,0.40624 0.4375,0.29688 0.6875,0.82813 0.26562,0.53125 0.26562,1.17187 0,1.09376 -0.70312,1.85938 -0.6875,0.75 -2.51563,0.75 h -2.20312 v 3.5 z m 1.14063,-4.5 h 2.21875 q 1.10937,0 1.5625,-0.40625 0.46875,-0.42187 0.46875,-1.17187 0,-0.53126 -0.28125,-0.90626 -0.26563,-0.39062 -0.70313,-0.51562 -0.29687,-0.0781 -1.0625,-0.0781 h -2.20312 z m 10.8125,4.5 v -0.92188 q -0.73438,1.0625 -1.98438,1.0625 -0.54687,0 -1.03125,-0.20312 -0.46875,-0.21875 -0.70312,-0.53125 -0.23438,-0.32813 -0.32813,-0.79687 -0.0625,-0.29688 -0.0625,-0.98438 v -3.84375 h 1.0625 v 3.45313 q 0,0.8125 0.0625,1.10937 0.0937,0.40625 0.40625,0.65625 0.32813,0.23438 0.8125,0.23438 0.46875,0 0.875,-0.23438 0.42188,-0.25 0.59375,-0.67188 0.1875,-0.42187 0.1875,-1.21874 v -3.32813 h 1.04688 v 6.21875 z m 2.92187,0 v -6.21875 h 0.9375 v 0.875 q 0.6875,-1.01563 1.98438,-1.01563 0.5625,0 1.03125,0.20313 0.48437,0.20313 0.71875,0.53125 0.23437,0.32812 0.32812,0.76562 0.0469,0.29688 0.0469,1.03126 v 3.82812 h -1.04688 v -3.78125 q 0,-0.65625 -0.125,-0.96875 -0.125,-0.3125 -0.4375,-0.5 -0.3125,-0.20312 -0.73437,-0.20312 -0.67188,0 -1.17188,0.4375 -0.48437,0.42187 -0.48437,1.60937 v 3.40625 z m 7,0 v -8.59375 h 1.0625 v 4.90625 l 2.48438,-2.53125 h 1.375 l -2.39063,2.29687 2.625,3.92188 h -1.29687 l -2.0625,-3.1875 -0.73438,0.71875 v 2.46875 z m 8.29688,-0.9375 0.15625,0.92188 q -0.45313,0.0937 -0.79688,0.0937 -0.57812,0 -0.89062,-0.17187 -0.3125,-0.1875 -0.45313,-0.48437 -0.125,-0.29688 -0.125,-1.25 v -3.57813 h -0.76562 v -0.8125 h 0.76562 v -1.54687 l 1.04688,-0.625 v 2.17187 h 1.0625 v 0.8125 h -1.0625 v 3.64063 q 0,0.45312 0.0469,0.57812 0.0625,0.125 0.1875,0.20312 0.125,0.0781 0.35938,0.0781 0.1875,0 0.46875,-0.0312 z m 4.95312,-1.0625 1.09375,0.125 q -0.25,0.95312 -0.95312,1.48438 -0.70313,0.53124 -1.78125,0.53124 -1.35938,0 -2.17188,-0.84374 -0.79687,-0.84376 -0.79687,-2.35938 0,-1.5625 0.8125,-2.42188 0.8125,-0.875 2.09375,-0.875 1.25,0 2.03125,0.84376 0.79687,0.84374 0.79687,2.39062 0,0.0937 0,0.28125 h -4.64062 q 0.0625,1.03125 0.57812,1.57813 0.51563,0.53124 1.29688,0.53124 0.57812,0 0.98437,-0.29687 0.42188,-0.3125 0.65625,-0.96875 z m -3.45312,-1.70312 h 3.46875 q -0.0625,-0.79688 -0.39063,-1.1875 -0.51562,-0.60938 -1.3125,-0.60938 -0.73437,0 -1.23437,0.48438 -0.48438,0.48437 -0.53125,1.3125 z"
     fill-rule="nonzero"
     id="path25" />
  <path
     fill="#000000"
     d="m 533.3982,255.625 3.29687,-8.59375 h 1.21873 l 3.51564,8.59375 h -1.28124 l -1.01563,-2.60938 h -3.57813 l -0.95314,2.60938 z m 2.48437,-3.53125 h 2.90623 l -0.8906,-2.375 q -0.4219,-1.07813 -0.6094,-1.78125 -0.17186,0.82812 -0.46873,1.64062 z m 5.29687,3.53125 v -8.59375 h 1.0625 v 8.59375 z m 3,0 v -8.59375 h 1.0625 v 8.59375 z m 7.28126,-2 1.09374,0.125 q -0.25,0.95312 -0.95314,1.48438 -0.7031,0.53124 -1.78123,0.53124 -1.35937,0 -2.17187,-0.84374 -0.7969,-0.84376 -0.7969,-2.35938 0,-1.5625 0.8125,-2.42188 0.8125,-0.875 2.09377,-0.875 1.25,0 2.03123,0.84376 0.7969,0.84374 0.7969,2.39062 0,0.0937 0,0.28125 h -4.64063 q 0.0625,1.03125 0.57813,1.57813 0.5156,0.53124 1.29687,0.53124 0.57813,0 0.98437,-0.29687 0.42186,-0.3125 0.65626,-0.96875 z m -3.45313,-1.70312 h 3.46873 q -0.0625,-0.79688 -0.3906,-1.1875 -0.51563,-0.60938 -1.3125,-0.60938 -0.7344,0 -1.2344,0.48438 -0.48436,0.48437 -0.53123,1.3125 z m 9.32813,3.70312 v -8.59375 h 3.25 q 0.84374,0 1.29687,0.0781 0.64063,0.10937 1.0625,0.40624 0.4375,0.29688 0.6875,0.82813 0.26563,0.53125 0.26563,1.17187 0,1.09376 -0.70313,1.85938 -0.6875,0.75 -2.51563,0.75 h -2.20314 v 3.5 z m 1.1406,-4.5 h 2.21877 q 1.10937,0 1.5625,-0.40625 0.46873,-0.42187 0.46873,-1.17187 0,-0.53126 -0.28123,-0.90626 -0.26563,-0.39062 -0.70313,-0.51562 -0.29687,-0.0781 -1.0625,-0.0781 h -2.20314 z m 10.8125,4.5 v -0.92188 q -0.73436,1.0625 -1.98436,1.0625 -0.54687,0 -1.03124,-0.20312 -0.46876,-0.21875 -0.70313,-0.53125 -0.23437,-0.32813 -0.32813,-0.79687 -0.0625,-0.29688 -0.0625,-0.98438 v -3.84375 h 1.0625 v 3.45313 q 0,0.8125 0.0625,1.10937 0.0938,0.40625 0.40626,0.65625 0.3281,0.23438 0.8125,0.23438 0.46874,0 0.875,-0.23438 0.42187,-0.25 0.59374,-0.67188 0.1875,-0.42187 0.1875,-1.21874 v -3.32813 h 1.04686 v 6.21875 z m 2.9219,0 v -6.21875 h 0.9375 v 0.875 q 0.6875,-1.01563 1.98437,-1.01563 0.5625,0 1.03123,0.20313 0.4844,0.20313 0.71877,0.53125 0.23437,0.32812 0.32813,0.76562 0.0469,0.29688 0.0469,1.03126 v 3.82812 h -1.04687 v -3.78125 q 0,-0.65625 -0.125,-0.96875 -0.125,-0.3125 -0.4375,-0.5 -0.3125,-0.20312 -0.7344,-0.20312 -0.67186,0 -1.17186,0.4375 -0.48437,0.42187 -0.48437,1.60937 v 3.40625 z m 7,0 v -8.59375 h 1.0625 v 4.90625 l 2.48437,-2.53125 h 1.375 l -2.39063,2.29687 2.625,3.92188 h -1.29687 l -2.0625,-3.1875 -0.73437,0.71875 v 2.46875 z m 8.29687,-0.9375 0.15623,0.92188 q -0.4531,0.0937 -0.79686,0.0937 -0.57814,0 -0.89064,-0.17187 -0.3125,-0.1875 -0.4531,-0.48437 -0.125,-0.29688 -0.125,-1.25 v -3.57813 h -0.76563 v -0.8125 h 0.76563 v -1.54687 l 1.04687,-0.625 v 2.17187 h 1.0625 v 0.8125 h -1.0625 v 3.64063 q 0,0.45312 0.0469,0.57812 0.0625,0.125 0.1875,0.20312 0.125,0.0781 0.35936,0.0781 0.1875,0 0.46877,-0.0312 z m 4.95313,-1.0625 1.09374,0.125 q -0.25,0.95312 -0.95314,1.48438 -0.7031,0.53124 -1.78123,0.53124 -1.35937,0 -2.17187,-0.84374 -0.7969,-0.84376 -0.7969,-2.35938 0,-1.5625 0.8125,-2.42188 0.8125,-0.875 2.09377,-0.875 1.25,0 2.03123,0.84376 0.7969,0.84374 0.7969,2.39062 0,0.0937 0,0.28125 h -4.64063 q 0.0625,1.03125 0.57813,1.57813 0.5156,0.53124 1.29687,0.53124 0.57813,0 0.98437,-0.29687 0.42186,-0.3125 0.65626,-0.96875 z m -3.45313,-1.70312 h 3.46873 q -0.0625,-0.79688 -0.3906,-1.1875 -0.51563,-0.60938 -1.3125,-0.60938 -0.7344,0 -1.2344,0.48438 -0.48436,0.48437 -0.53123,1.3125 z m 11.40623,2.3125 V 251.875 h -2.3281 v -0.98438 h 2.3281 v -2.32812 h 1 v 2.32812 h 2.34377 v 0.98438 h -2.34377 v 2.35938 z m 7.95314,1.39062 v -8.59375 h 6.20313 v 1.01563 h -5.0625 v 2.625 h 4.75 v 1.01562 h -4.75 v 2.92188 h 5.26563 v 1.01562 z m 7.79686,2.39062 -0.125,-0.98437 q 0.34377,0.0937 0.6094,0.0937 0.34374,0 0.54687,-0.125 0.21873,-0.10938 0.35937,-0.3125 0.0938,-0.17188 0.32813,-0.79688 0.0156,-0.0781 0.0937,-0.25 l -2.375,-6.23437 h 1.14064 l 1.29686,3.59375 q 0.25,0.6875 0.45314,1.45312 0.1875,-0.73437 0.4375,-1.42187 l 1.32813,-3.625 h 1.04687 l -2.35937,6.32813 q -0.39063,1.01562 -0.59377,1.40624 -0.28123,0.53126 -0.65623,0.76563 -0.35937,0.25 -0.85937,0.25 -0.2969,0 -0.6719,-0.14063 z m 9.2969,-4.39062 1.09374,0.125 q -0.25,0.95312 -0.95314,1.48438 -0.7031,0.53124 -1.78123,0.53124 -1.35937,0 -2.17187,-0.84374 -0.7969,-0.84376 -0.7969,-2.35938 0,-1.5625 0.8125,-2.42188 0.8125,-0.875 2.09377,-0.875 1.25,0 2.03123,0.84376 0.7969,0.84374 0.7969,2.39062 0,0.0937 0,0.28125 h -4.64063 q 0.0625,1.03125 0.57813,1.57813 0.5156,0.53124 1.29687,0.53124 0.57813,0 0.98437,-0.29687 0.42186,-0.3125 0.65626,-0.96875 z m -3.45313,-1.70312 h 3.46873 q -0.0625,-0.79688 -0.3906,-1.1875 -0.51563,-0.60938 -1.3125,-0.60938 -0.7344,0 -1.2344,0.48438 -0.48436,0.48437 -0.53123,1.3125 z m 5.78123,1.125 v -1.0625 h 3.25 v 1.0625 z m 4.5469,2.57812 v -8.59375 h 2.96874 q 1,0 1.53126,0.125 0.73437,0.17187 1.25,0.60937 0.6875,0.57813 1.0156,1.48438 0.34377,0.89062 0.34377,2.03125 0,0.98437 -0.23437,1.73437 -0.21876,0.75 -0.57813,1.25 -0.35937,0.5 -0.79687,0.78126 -0.4219,0.28124 -1.01563,0.4375 -0.59377,0.14062 -1.375,0.14062 z m 1.1406,-1.01562 h 1.82814 q 0.85936,0 1.34376,-0.15626 0.48437,-0.15624 0.7656,-0.45312 0.40627,-0.39062 0.625,-1.07812 0.2344,-0.6875 0.2344,-1.65626 0,-1.34374 -0.45313,-2.0625 -0.4375,-0.73437 -1.0625,-0.98437 -0.46877,-0.17187 -1.46877,-0.17187 h -1.8125 z m 7.34377,-2.09376 q 0,-1.73437 0.95313,-2.5625 0.79687,-0.6875 1.9531,-0.6875 1.28127,0 2.09377,0.84376 0.82813,0.82812 0.82813,2.3125 0,1.20312 -0.3594,1.89062 -0.35936,0.6875 -1.0625,1.07812 -0.6875,0.375 -1.5,0.375 -1.29686,0 -2.10936,-0.82812 -0.79687,-0.84375 -0.79687,-2.42188 z m 1.07813,0 q 0,1.1875 0.5156,1.78126 0.53127,0.59374 1.3125,0.59374 0.7969,0 1.3125,-0.59374 0.51564,-0.59376 0.51564,-1.8125 0,-1.15626 -0.53124,-1.75 -0.51563,-0.59376 -1.2969,-0.59376 -0.78123,0 -1.3125,0.59376 -0.5156,0.57812 -0.5156,1.78124 z m 6.3125,3.10938 v -6.21875 h 0.9375 v 0.875 q 0.29687,-0.46875 0.78124,-0.73437 0.48436,-0.28126 1.10936,-0.28126 0.6875,0 1.125,0.28126 0.45314,0.28124 0.625,0.79687 0.75,-1.07813 1.9219,-1.07813 0.9375,0 1.42187,0.51563 0.5,0.5 0.5,1.57813 v 4.26562 h -1.04687 v -3.92188 q 0,-0.625 -0.1094,-0.90624 -0.0937,-0.28126 -0.35936,-0.45313 -0.26564,-0.17187 -0.64064,-0.17187 -0.65623,0 -1.09373,0.4375 -0.42187,0.4375 -0.42187,1.40624 v 3.60938 h -1.0625 v -4.04688 q 0,-0.70312 -0.26563,-1.04687 -0.25,-0.35937 -0.82813,-0.35937 -0.45314,0 -0.82814,0.23437 -0.375,0.23437 -0.54686,0.6875 -0.17187,0.45313 -0.17187,1.29687 v 3.23438 z m 15.25,-2 1.09374,0.125 q -0.25,0.95312 -0.95314,1.48438 -0.7031,0.53124 -1.78123,0.53124 -1.35937,0 -2.17187,-0.84374 -0.7969,-0.84376 -0.7969,-2.35938 0,-1.5625 0.8125,-2.42188 0.8125,-0.875 2.09377,-0.875 1.25,0 2.03123,0.84376 0.7969,0.84374 0.7969,2.39062 0,0.0937 0,0.28125 h -4.64063 q 0.0625,1.03125 0.57813,1.57813 0.5156,0.53124 1.29687,0.53124 0.57813,0 0.98437,-0.29687 0.42186,-0.3125 0.65626,-0.96875 z m -3.45313,-1.70312 h 3.46873 q -0.0625,-0.79688 -0.3906,-1.1875 -0.51563,-0.60938 -1.3125,-0.60938 -0.7344,0 -1.2344,0.48438 -0.48436,0.48437 -0.53123,1.3125 z m 5.78123,1.125 v -1.0625 h 3.25 v 1.0625 z m 4.5,2.57812 v -8.59375 h 1.14064 v 7.57813 h 4.23436 v 1.01562 z m 6.9219,-7.375 v -1.21875 h 1.0625 V 248.25 Z m 0,7.375 v -6.21875 h 1.0625 v 6.21875 z m 2.79687,0.51562 1.03123,0.15626 q 0.0625,0.46874 0.3594,0.6875 0.3906,0.29687 1.0625,0.29687 0.73437,0 1.125,-0.29687 0.40624,-0.29688 0.54687,-0.8125 0.0937,-0.32813 0.0781,-1.35938 -0.6875,0.8125 -1.71876,0.8125 -1.28124,0 -1.98437,-0.92188 -0.70313,-0.9375 -0.70313,-2.21874 0,-0.89063 0.3125,-1.64063 0.32813,-0.76563 0.9375,-1.17187 0.60936,-0.40626 1.4375,-0.40626 1.10936,0 1.82813,0.89063 v -0.75 h 0.96873 v 5.375 q 0,1.45313 -0.29686,2.0625 -0.29687,0.60937 -0.9375,0.95313 -0.64064,0.35937 -1.57814,0.35937 -1.10936,0 -1.79686,-0.5 -0.6875,-0.5 -0.67187,-1.51563 z m 0.875,-3.73437 q 0,1.21875 0.48437,1.78125 0.48436,0.5625 1.21876,0.5625 0.73437,0 1.21874,-0.5625 0.5,-0.5625 0.5,-1.75 0,-1.14062 -0.51564,-1.71875 -0.5,-0.57813 -1.21873,-0.57813 -0.70313,0 -1.20313,0.57813 -0.48437,0.5625 -0.48437,1.6875 z m 6.32813,3.21875 v -8.59375 h 1.04687 v 3.07813 q 0.73437,-0.84376 1.85937,-0.84376 0.70313,0 1.20313,0.28126 0.51563,0.26562 0.73437,0.75 0.21876,0.46874 0.21876,1.39062 v 3.9375 h -1.0469 v -3.9375 q 0,-0.79688 -0.34373,-1.15625 -0.34377,-0.35937 -0.96877,-0.35937 -0.46873,0 -0.8906,0.25 -0.40626,0.23437 -0.59376,0.65624 -0.17187,0.40626 -0.17187,1.14063 v 3.40625 z m 9.29687,-0.9375 0.15623,0.92188 q -0.4531,0.0937 -0.79686,0.0937 -0.57814,0 -0.89064,-0.17187 -0.3125,-0.1875 -0.4531,-0.48437 -0.125,-0.29688 -0.125,-1.25 v -3.57813 h -0.76563 v -0.8125 h 0.76563 v -1.54687 l 1.04687,-0.625 v 2.17187 h 1.0625 v 0.8125 h -1.0625 v 3.64063 q 0,0.45312 0.0469,0.57812 0.0625,0.125 0.1875,0.20312 0.125,0.0781 0.35936,0.0781 0.1875,0 0.46877,-0.0312 z m 0.70313,-6.4375 v -1.21875 h 1.0625 V 248.25 Z m 0,7.375 v -6.21875 h 1.0625 v 6.21875 z m 3,0 v -6.21875 h 0.9375 v 0.875 q 0.6875,-1.01563 1.98437,-1.01563 0.5625,0 1.03123,0.20313 0.4844,0.20313 0.71877,0.53125 0.23437,0.32812 0.32813,0.76562 0.0469,0.29688 0.0469,1.03126 v 3.82812 h -1.04687 v -3.78125 q 0,-0.65625 -0.125,-0.96875 -0.125,-0.3125 -0.4375,-0.5 -0.3125,-0.20312 -0.7344,-0.20312 -0.67186,0 -1.17186,0.4375 -0.48437,0.42187 -0.48437,1.60937 v 3.40625 z m 6.79687,0.51562 1.03123,0.15626 q 0.0625,0.46874 0.3594,0.6875 0.3906,0.29687 1.0625,0.29687 0.73437,0 1.125,-0.29687 0.40624,-0.29688 0.54687,-0.8125 0.0937,-0.32813 0.0781,-1.35938 -0.6875,0.8125 -1.71876,0.8125 -1.28124,0 -1.98437,-0.92188 -0.70313,-0.9375 -0.70313,-2.21874 0,-0.89063 0.3125,-1.64063 0.32813,-0.76563 0.9375,-1.17187 0.60936,-0.40626 1.4375,-0.40626 1.10936,0 1.82813,0.89063 v -0.75 h 0.96873 v 5.375 q 0,1.45313 -0.29686,2.0625 -0.29687,0.60937 -0.9375,0.95313 -0.64064,0.35937 -1.57814,0.35937 -1.10936,0 -1.79686,-0.5 -0.6875,-0.5 -0.67187,-1.51563 z m 0.875,-3.73437 q 0,1.21875 0.48437,1.78125 0.48436,0.5625 1.21876,0.5625 0.73437,0 1.21874,-0.5625 0.5,-0.5625 0.5,-1.75 0,-1.14062 -0.51564,-1.71875 -0.5,-0.57813 -1.21873,-0.57813 -0.70313,0 -1.20313,0.57813 -0.48437,0.5625 -0.48437,1.6875 z"
     fill-rule="nonzero"
     id="path26" />
</svg>
